<?xml version="1.0" encoding="utf-8" standalone="no"?>
<!DOCTYPE svg PUBLIC "-//W3C//DTD SVG 1.1//EN"
  "http://www.w3.org/Graphics/SVG/1.1/DTD/svg11.dtd">
<svg xmlns:xlink="http://www.w3.org/1999/xlink" width="462.04625pt" height="332.04125pt" viewBox="0 0 462.04625 332.04125" xmlns="http://www.w3.org/2000/svg" version="1.1">
 <metadata>
  <rdf:RDF xmlns:dc="http://purl.org/dc/elements/1.1/" xmlns:cc="http://creativecommons.org/ns#" xmlns:rdf="http://www.w3.org/1999/02/22-rdf-syntax-ns#">
   <cc:Work>
    <dc:type rdf:resource="http://purl.org/dc/dcmitype/StillImage"/>
    <dc:date>2022-05-04T11:55:23.514195</dc:date>
    <dc:format>image/svg+xml</dc:format>
    <dc:creator>
     <cc:Agent>
      <dc:title>Matplotlib v3.5.0, https://matplotlib.org/</dc:title>
     </cc:Agent>
    </dc:creator>
   </cc:Work>
  </rdf:RDF>
 </metadata>
 <defs>
  <style type="text/css">*{stroke-linejoin: round; stroke-linecap: butt}</style>
 </defs>
 <g id="figure_1">
  <g id="patch_1">
   <path d="M 0 332.04125 
L 462.04625 332.04125 
L 462.04625 0 
L 0 0 
L 0 332.04125 
z
" style="fill: none"/>
  </g>
  <g id="axes_1">
   <g id="patch_2">
    <path d="M 64.24625 279 
L 454.84625 279 
L 454.84625 7.2 
L 64.24625 7.2 
z
" style="fill: #ffffff"/>
   </g>
   <g id="matplotlib.axis_1">
    <g id="xtick_1">
     <g id="line2d_1">
      <defs>
       <path id="m31553864fe" d="M 0 0 
L 0 3.5 
" style="stroke: #000000; stroke-width: 0.8"/>
      </defs>
      <g>
       <use xlink:href="#m31553864fe" x="76.84625" y="279" style="stroke: #000000; stroke-width: 0.8"/>
      </g>
     </g>
     <g id="text_1">
      <!-- 0 -->
      <g transform="translate(71.12 299.677188)scale(0.18 -0.18)">
       <defs>
        <path id="DejaVuSans-30" d="M 2034 4250 
Q 1547 4250 1301 3770 
Q 1056 3291 1056 2328 
Q 1056 1369 1301 889 
Q 1547 409 2034 409 
Q 2525 409 2770 889 
Q 3016 1369 3016 2328 
Q 3016 3291 2770 3770 
Q 2525 4250 2034 4250 
z
M 2034 4750 
Q 2819 4750 3233 4129 
Q 3647 3509 3647 2328 
Q 3647 1150 3233 529 
Q 2819 -91 2034 -91 
Q 1250 -91 836 529 
Q 422 1150 422 2328 
Q 422 3509 836 4129 
Q 1250 4750 2034 4750 
z
" transform="scale(0.015625)"/>
       </defs>
       <use xlink:href="#DejaVuSans-30"/>
      </g>
     </g>
    </g>
    <g id="xtick_2">
     <g id="line2d_2">
      <g>
       <use xlink:href="#m31553864fe" x="160.84625" y="279" style="stroke: #000000; stroke-width: 0.8"/>
      </g>
     </g>
     <g id="text_2">
      <!-- 20 -->
      <g transform="translate(149.39375 299.677188)scale(0.18 -0.18)">
       <defs>
        <path id="DejaVuSans-32" d="M 1228 531 
L 3431 531 
L 3431 0 
L 469 0 
L 469 531 
Q 828 903 1448 1529 
Q 2069 2156 2228 2338 
Q 2531 2678 2651 2914 
Q 2772 3150 2772 3378 
Q 2772 3750 2511 3984 
Q 2250 4219 1831 4219 
Q 1534 4219 1204 4116 
Q 875 4013 500 3803 
L 500 4441 
Q 881 4594 1212 4672 
Q 1544 4750 1819 4750 
Q 2544 4750 2975 4387 
Q 3406 4025 3406 3419 
Q 3406 3131 3298 2873 
Q 3191 2616 2906 2266 
Q 2828 2175 2409 1742 
Q 1991 1309 1228 531 
z
" transform="scale(0.015625)"/>
       </defs>
       <use xlink:href="#DejaVuSans-32"/>
       <use xlink:href="#DejaVuSans-30" x="63.623047"/>
      </g>
     </g>
    </g>
    <g id="xtick_3">
     <g id="line2d_3">
      <g>
       <use xlink:href="#m31553864fe" x="244.84625" y="279" style="stroke: #000000; stroke-width: 0.8"/>
      </g>
     </g>
     <g id="text_3">
      <!-- 40 -->
      <g transform="translate(233.39375 299.677188)scale(0.18 -0.18)">
       <defs>
        <path id="DejaVuSans-34" d="M 2419 4116 
L 825 1625 
L 2419 1625 
L 2419 4116 
z
M 2253 4666 
L 3047 4666 
L 3047 1625 
L 3713 1625 
L 3713 1100 
L 3047 1100 
L 3047 0 
L 2419 0 
L 2419 1100 
L 313 1100 
L 313 1709 
L 2253 4666 
z
" transform="scale(0.015625)"/>
       </defs>
       <use xlink:href="#DejaVuSans-34"/>
       <use xlink:href="#DejaVuSans-30" x="63.623047"/>
      </g>
     </g>
    </g>
    <g id="xtick_4">
     <g id="line2d_4">
      <g>
       <use xlink:href="#m31553864fe" x="328.84625" y="279" style="stroke: #000000; stroke-width: 0.8"/>
      </g>
     </g>
     <g id="text_4">
      <!-- 60 -->
      <g transform="translate(317.39375 299.677188)scale(0.18 -0.18)">
       <defs>
        <path id="DejaVuSans-36" d="M 2113 2584 
Q 1688 2584 1439 2293 
Q 1191 2003 1191 1497 
Q 1191 994 1439 701 
Q 1688 409 2113 409 
Q 2538 409 2786 701 
Q 3034 994 3034 1497 
Q 3034 2003 2786 2293 
Q 2538 2584 2113 2584 
z
M 3366 4563 
L 3366 3988 
Q 3128 4100 2886 4159 
Q 2644 4219 2406 4219 
Q 1781 4219 1451 3797 
Q 1122 3375 1075 2522 
Q 1259 2794 1537 2939 
Q 1816 3084 2150 3084 
Q 2853 3084 3261 2657 
Q 3669 2231 3669 1497 
Q 3669 778 3244 343 
Q 2819 -91 2113 -91 
Q 1303 -91 875 529 
Q 447 1150 447 2328 
Q 447 3434 972 4092 
Q 1497 4750 2381 4750 
Q 2619 4750 2861 4703 
Q 3103 4656 3366 4563 
z
" transform="scale(0.015625)"/>
       </defs>
       <use xlink:href="#DejaVuSans-36"/>
       <use xlink:href="#DejaVuSans-30" x="63.623047"/>
      </g>
     </g>
    </g>
    <g id="xtick_5">
     <g id="line2d_5">
      <g>
       <use xlink:href="#m31553864fe" x="412.84625" y="279" style="stroke: #000000; stroke-width: 0.8"/>
      </g>
     </g>
     <g id="text_5">
      <!-- 80 -->
      <g transform="translate(401.39375 299.677188)scale(0.18 -0.18)">
       <defs>
        <path id="DejaVuSans-38" d="M 2034 2216 
Q 1584 2216 1326 1975 
Q 1069 1734 1069 1313 
Q 1069 891 1326 650 
Q 1584 409 2034 409 
Q 2484 409 2743 651 
Q 3003 894 3003 1313 
Q 3003 1734 2745 1975 
Q 2488 2216 2034 2216 
z
M 1403 2484 
Q 997 2584 770 2862 
Q 544 3141 544 3541 
Q 544 4100 942 4425 
Q 1341 4750 2034 4750 
Q 2731 4750 3128 4425 
Q 3525 4100 3525 3541 
Q 3525 3141 3298 2862 
Q 3072 2584 2669 2484 
Q 3125 2378 3379 2068 
Q 3634 1759 3634 1313 
Q 3634 634 3220 271 
Q 2806 -91 2034 -91 
Q 1263 -91 848 271 
Q 434 634 434 1313 
Q 434 1759 690 2068 
Q 947 2378 1403 2484 
z
M 1172 3481 
Q 1172 3119 1398 2916 
Q 1625 2713 2034 2713 
Q 2441 2713 2670 2916 
Q 2900 3119 2900 3481 
Q 2900 3844 2670 4047 
Q 2441 4250 2034 4250 
Q 1625 4250 1398 4047 
Q 1172 3844 1172 3481 
z
" transform="scale(0.015625)"/>
       </defs>
       <use xlink:href="#DejaVuSans-38"/>
       <use xlink:href="#DejaVuSans-30" x="63.623047"/>
      </g>
     </g>
    </g>
    <g id="text_6">
     <!-- Degrees -->
     <g transform="translate(222.103437 321.097812)scale(0.18 -0.18)">
      <defs>
       <path id="DejaVuSans-44" d="M 1259 4147 
L 1259 519 
L 2022 519 
Q 2988 519 3436 956 
Q 3884 1394 3884 2338 
Q 3884 3275 3436 3711 
Q 2988 4147 2022 4147 
L 1259 4147 
z
M 628 4666 
L 1925 4666 
Q 3281 4666 3915 4102 
Q 4550 3538 4550 2338 
Q 4550 1131 3912 565 
Q 3275 0 1925 0 
L 628 0 
L 628 4666 
z
" transform="scale(0.015625)"/>
       <path id="DejaVuSans-65" d="M 3597 1894 
L 3597 1613 
L 953 1613 
Q 991 1019 1311 708 
Q 1631 397 2203 397 
Q 2534 397 2845 478 
Q 3156 559 3463 722 
L 3463 178 
Q 3153 47 2828 -22 
Q 2503 -91 2169 -91 
Q 1331 -91 842 396 
Q 353 884 353 1716 
Q 353 2575 817 3079 
Q 1281 3584 2069 3584 
Q 2775 3584 3186 3129 
Q 3597 2675 3597 1894 
z
M 3022 2063 
Q 3016 2534 2758 2815 
Q 2500 3097 2075 3097 
Q 1594 3097 1305 2825 
Q 1016 2553 972 2059 
L 3022 2063 
z
" transform="scale(0.015625)"/>
       <path id="DejaVuSans-67" d="M 2906 1791 
Q 2906 2416 2648 2759 
Q 2391 3103 1925 3103 
Q 1463 3103 1205 2759 
Q 947 2416 947 1791 
Q 947 1169 1205 825 
Q 1463 481 1925 481 
Q 2391 481 2648 825 
Q 2906 1169 2906 1791 
z
M 3481 434 
Q 3481 -459 3084 -895 
Q 2688 -1331 1869 -1331 
Q 1566 -1331 1297 -1286 
Q 1028 -1241 775 -1147 
L 775 -588 
Q 1028 -725 1275 -790 
Q 1522 -856 1778 -856 
Q 2344 -856 2625 -561 
Q 2906 -266 2906 331 
L 2906 616 
Q 2728 306 2450 153 
Q 2172 0 1784 0 
Q 1141 0 747 490 
Q 353 981 353 1791 
Q 353 2603 747 3093 
Q 1141 3584 1784 3584 
Q 2172 3584 2450 3431 
Q 2728 3278 2906 2969 
L 2906 3500 
L 3481 3500 
L 3481 434 
z
" transform="scale(0.015625)"/>
       <path id="DejaVuSans-72" d="M 2631 2963 
Q 2534 3019 2420 3045 
Q 2306 3072 2169 3072 
Q 1681 3072 1420 2755 
Q 1159 2438 1159 1844 
L 1159 0 
L 581 0 
L 581 3500 
L 1159 3500 
L 1159 2956 
Q 1341 3275 1631 3429 
Q 1922 3584 2338 3584 
Q 2397 3584 2469 3576 
Q 2541 3569 2628 3553 
L 2631 2963 
z
" transform="scale(0.015625)"/>
       <path id="DejaVuSans-73" d="M 2834 3397 
L 2834 2853 
Q 2591 2978 2328 3040 
Q 2066 3103 1784 3103 
Q 1356 3103 1142 2972 
Q 928 2841 928 2578 
Q 928 2378 1081 2264 
Q 1234 2150 1697 2047 
L 1894 2003 
Q 2506 1872 2764 1633 
Q 3022 1394 3022 966 
Q 3022 478 2636 193 
Q 2250 -91 1575 -91 
Q 1294 -91 989 -36 
Q 684 19 347 128 
L 347 722 
Q 666 556 975 473 
Q 1284 391 1588 391 
Q 1994 391 2212 530 
Q 2431 669 2431 922 
Q 2431 1156 2273 1281 
Q 2116 1406 1581 1522 
L 1381 1569 
Q 847 1681 609 1914 
Q 372 2147 372 2553 
Q 372 3047 722 3315 
Q 1072 3584 1716 3584 
Q 2034 3584 2315 3537 
Q 2597 3491 2834 3397 
z
" transform="scale(0.015625)"/>
      </defs>
      <use xlink:href="#DejaVuSans-44"/>
      <use xlink:href="#DejaVuSans-65" x="77.001953"/>
      <use xlink:href="#DejaVuSans-67" x="138.525391"/>
      <use xlink:href="#DejaVuSans-72" x="202.001953"/>
      <use xlink:href="#DejaVuSans-65" x="240.865234"/>
      <use xlink:href="#DejaVuSans-65" x="302.388672"/>
      <use xlink:href="#DejaVuSans-73" x="363.912109"/>
     </g>
    </g>
   </g>
   <g id="matplotlib.axis_2">
    <g id="ytick_1">
     <g id="line2d_6">
      <defs>
       <path id="mfe031bd66e" d="M 0 0 
L -3.5 0 
" style="stroke: #000000; stroke-width: 0.8"/>
      </defs>
      <g>
       <use xlink:href="#mfe031bd66e" x="64.24625" y="240.790909" style="stroke: #000000; stroke-width: 0.8"/>
      </g>
     </g>
     <g id="text_7">
      <!-- 0.2 -->
      <g transform="translate(28.620625 247.629503)scale(0.18 -0.18)">
       <defs>
        <path id="DejaVuSans-2e" d="M 684 794 
L 1344 794 
L 1344 0 
L 684 0 
L 684 794 
z
" transform="scale(0.015625)"/>
       </defs>
       <use xlink:href="#DejaVuSans-30"/>
       <use xlink:href="#DejaVuSans-2e" x="63.623047"/>
       <use xlink:href="#DejaVuSans-32" x="95.410156"/>
      </g>
     </g>
    </g>
    <g id="ytick_2">
     <g id="line2d_7">
      <g>
       <use xlink:href="#mfe031bd66e" x="64.24625" y="185.481818" style="stroke: #000000; stroke-width: 0.8"/>
      </g>
     </g>
     <g id="text_8">
      <!-- 0.4 -->
      <g transform="translate(28.620625 192.320412)scale(0.18 -0.18)">
       <use xlink:href="#DejaVuSans-30"/>
       <use xlink:href="#DejaVuSans-2e" x="63.623047"/>
       <use xlink:href="#DejaVuSans-34" x="95.410156"/>
      </g>
     </g>
    </g>
    <g id="ytick_3">
     <g id="line2d_8">
      <g>
       <use xlink:href="#mfe031bd66e" x="64.24625" y="130.172727" style="stroke: #000000; stroke-width: 0.8"/>
      </g>
     </g>
     <g id="text_9">
      <!-- 0.6 -->
      <g transform="translate(28.620625 137.011321)scale(0.18 -0.18)">
       <use xlink:href="#DejaVuSans-30"/>
       <use xlink:href="#DejaVuSans-2e" x="63.623047"/>
       <use xlink:href="#DejaVuSans-36" x="95.410156"/>
      </g>
     </g>
    </g>
    <g id="ytick_4">
     <g id="line2d_9">
      <g>
       <use xlink:href="#mfe031bd66e" x="64.24625" y="74.863636" style="stroke: #000000; stroke-width: 0.8"/>
      </g>
     </g>
     <g id="text_10">
      <!-- 0.8 -->
      <g transform="translate(28.620625 81.70223)scale(0.18 -0.18)">
       <use xlink:href="#DejaVuSans-30"/>
       <use xlink:href="#DejaVuSans-2e" x="63.623047"/>
       <use xlink:href="#DejaVuSans-38" x="95.410156"/>
      </g>
     </g>
    </g>
    <g id="ytick_5">
     <g id="line2d_10">
      <g>
       <use xlink:href="#mfe031bd66e" x="64.24625" y="19.554545" style="stroke: #000000; stroke-width: 0.8"/>
      </g>
     </g>
     <g id="text_11">
      <!-- 1.0 -->
      <g transform="translate(28.620625 26.393139)scale(0.18 -0.18)">
       <defs>
        <path id="DejaVuSans-31" d="M 794 531 
L 1825 531 
L 1825 4091 
L 703 3866 
L 703 4441 
L 1819 4666 
L 2450 4666 
L 2450 531 
L 3481 531 
L 3481 0 
L 794 0 
L 794 531 
z
" transform="scale(0.015625)"/>
       </defs>
       <use xlink:href="#DejaVuSans-31"/>
       <use xlink:href="#DejaVuSans-2e" x="63.623047"/>
       <use xlink:href="#DejaVuSans-30" x="95.410156"/>
      </g>
     </g>
    </g>
    <g id="text_12">
     <!-- Density -->
     <g transform="translate(20.877188 177.315469)rotate(-90)scale(0.18 -0.18)">
      <defs>
       <path id="DejaVuSans-6e" d="M 3513 2113 
L 3513 0 
L 2938 0 
L 2938 2094 
Q 2938 2591 2744 2837 
Q 2550 3084 2163 3084 
Q 1697 3084 1428 2787 
Q 1159 2491 1159 1978 
L 1159 0 
L 581 0 
L 581 3500 
L 1159 3500 
L 1159 2956 
Q 1366 3272 1645 3428 
Q 1925 3584 2291 3584 
Q 2894 3584 3203 3211 
Q 3513 2838 3513 2113 
z
" transform="scale(0.015625)"/>
       <path id="DejaVuSans-69" d="M 603 3500 
L 1178 3500 
L 1178 0 
L 603 0 
L 603 3500 
z
M 603 4863 
L 1178 4863 
L 1178 4134 
L 603 4134 
L 603 4863 
z
" transform="scale(0.015625)"/>
       <path id="DejaVuSans-74" d="M 1172 4494 
L 1172 3500 
L 2356 3500 
L 2356 3053 
L 1172 3053 
L 1172 1153 
Q 1172 725 1289 603 
Q 1406 481 1766 481 
L 2356 481 
L 2356 0 
L 1766 0 
Q 1100 0 847 248 
Q 594 497 594 1153 
L 594 3053 
L 172 3053 
L 172 3500 
L 594 3500 
L 594 4494 
L 1172 4494 
z
" transform="scale(0.015625)"/>
       <path id="DejaVuSans-79" d="M 2059 -325 
Q 1816 -950 1584 -1140 
Q 1353 -1331 966 -1331 
L 506 -1331 
L 506 -850 
L 844 -850 
Q 1081 -850 1212 -737 
Q 1344 -625 1503 -206 
L 1606 56 
L 191 3500 
L 800 3500 
L 1894 763 
L 2988 3500 
L 3597 3500 
L 2059 -325 
z
" transform="scale(0.015625)"/>
      </defs>
      <use xlink:href="#DejaVuSans-44"/>
      <use xlink:href="#DejaVuSans-65" x="77.001953"/>
      <use xlink:href="#DejaVuSans-6e" x="138.525391"/>
      <use xlink:href="#DejaVuSans-73" x="201.904297"/>
      <use xlink:href="#DejaVuSans-69" x="254.003906"/>
      <use xlink:href="#DejaVuSans-74" x="281.787109"/>
      <use xlink:href="#DejaVuSans-79" x="320.996094"/>
     </g>
    </g>
   </g>
   <g id="line2d_11">
    <path d="M 76.84625 266.645455 
L 100.947175 266.645455 
L 100.947175 265.009091 
L 102.66867 265.009091 
L 102.66867 260.1 
L 107.833154 260.1 
L 107.833154 256.827273 
L 109.554648 256.827273 
L 109.554648 253.554545 
L 111.276143 253.554545 
L 111.276143 251.918182 
L 118.162121 251.918182 
L 118.162121 250.281818 
L 119.883616 250.281818 
L 119.883616 248.645455 
L 131.934079 248.645455 
L 131.934079 245.372727 
L 133.655573 245.372727 
L 133.655573 242.1 
L 135.377068 242.1 
L 135.377068 240.463636 
L 137.098562 240.463636 
L 137.098562 238.827273 
L 166.363971 238.827273 
L 166.363971 233.918182 
L 168.085466 233.918182 
L 168.085466 232.281818 
L 171.528455 232.281818 
L 171.528455 229.009091 
L 173.24995 229.009091 
L 173.24995 227.372727 
L 174.971445 227.372727 
L 174.971445 224.1 
L 181.857423 224.1 
L 181.857423 222.463636 
L 187.021907 222.463636 
L 187.021907 220.827273 
L 195.62938 220.827273 
L 195.62938 217.554545 
L 197.350875 217.554545 
L 197.350875 214.281818 
L 200.793864 214.281818 
L 200.793864 207.736364 
L 202.515359 207.736364 
L 202.515359 204.463636 
L 204.236854 204.463636 
L 204.236854 202.827273 
L 209.401337 202.827273 
L 209.401337 201.190909 
L 212.844327 201.190909 
L 212.844327 197.918182 
L 214.565821 197.918182 
L 214.565821 196.281818 
L 216.287316 196.281818 
L 216.287316 194.645455 
L 218.008811 194.645455 
L 218.008811 191.372727 
L 219.730305 191.372727 
L 219.730305 189.736364 
L 223.173295 189.736364 
L 223.173295 188.1 
L 224.894789 188.1 
L 224.894789 184.827273 
L 228.337779 184.827273 
L 228.337779 183.190909 
L 230.059273 183.190909 
L 230.059273 181.554545 
L 236.945252 181.554545 
L 236.945252 178.281818 
L 238.666746 178.281818 
L 238.666746 173.372727 
L 242.109736 173.372727 
L 242.109736 171.736364 
L 245.552725 171.736364 
L 245.552725 166.827273 
L 247.27422 166.827273 
L 247.27422 163.554545 
L 248.995714 163.554545 
L 248.995714 158.645455 
L 250.717209 158.645455 
L 250.717209 157.009091 
L 252.438704 157.009091 
L 252.438704 155.372727 
L 259.324682 155.372727 
L 259.324682 153.736364 
L 262.767671 153.736364 
L 262.767671 150.463636 
L 264.489166 150.463636 
L 264.489166 140.645455 
L 267.932155 140.645455 
L 267.932155 139.009091 
L 269.65365 139.009091 
L 269.65365 137.372727 
L 271.375145 137.372727 
L 271.375145 135.736364 
L 273.096639 135.736364 
L 273.096639 134.1 
L 274.818134 134.1 
L 274.818134 129.190909 
L 276.539629 129.190909 
L 276.539629 127.554545 
L 278.261123 127.554545 
L 278.261123 124.281818 
L 279.982618 124.281818 
L 279.982618 119.372727 
L 283.425607 119.372727 
L 283.425607 117.736364 
L 285.147102 117.736364 
L 285.147102 114.463636 
L 286.868596 114.463636 
L 286.868596 112.827273 
L 288.590091 112.827273 
L 288.590091 111.190909 
L 290.311586 111.190909 
L 290.311586 109.554545 
L 295.47607 109.554545 
L 295.47607 103.009091 
L 297.197564 103.009091 
L 297.197564 101.372727 
L 300.640554 101.372727 
L 300.640554 99.736364 
L 302.362048 99.736364 
L 302.362048 96.463636 
L 304.083543 96.463636 
L 304.083543 94.827273 
L 305.805037 94.827273 
L 305.805037 91.554545 
L 309.248027 91.554545 
L 309.248027 89.918182 
L 310.969521 89.918182 
L 310.969521 85.009091 
L 312.691016 85.009091 
L 312.691016 83.372727 
L 317.8555 83.372727 
L 317.8555 80.1 
L 321.298489 80.1 
L 321.298489 78.463636 
L 323.019984 78.463636 
L 323.019984 76.827273 
L 324.741479 76.827273 
L 324.741479 75.190909 
L 326.462973 75.190909 
L 326.462973 73.554545 
L 328.184468 73.554545 
L 328.184468 70.281818 
L 331.627457 70.281818 
L 331.627457 68.645455 
L 333.348952 68.645455 
L 333.348952 63.736364 
L 335.070446 63.736364 
L 335.070446 62.1 
L 336.791941 62.1 
L 336.791941 58.827273 
L 338.513436 58.827273 
L 338.513436 57.190909 
L 340.23493 57.190909 
L 340.23493 55.554545 
L 341.956425 55.554545 
L 341.956425 52.281818 
L 345.399414 52.281818 
L 345.399414 50.645455 
L 350.563898 50.645455 
L 350.563898 49.009091 
L 352.285393 49.009091 
L 352.285393 47.372727 
L 359.171371 47.372727 
L 359.171371 44.1 
L 360.892866 44.1 
L 360.892866 42.463636 
L 366.05735 42.463636 
L 366.05735 40.827273 
L 369.500339 40.827273 
L 369.500339 39.190909 
L 374.664823 39.190909 
L 374.664823 35.918182 
L 376.386318 35.918182 
L 376.386318 34.281818 
L 378.107812 34.281818 
L 378.107812 32.645455 
L 379.829307 32.645455 
L 379.829307 31.009091 
L 388.43678 31.009091 
L 388.43678 29.372727 
L 400.487243 29.372727 
L 400.487243 27.736364 
L 402.208737 27.736364 
L 402.208737 24.463636 
L 407.373221 24.463636 
L 407.373221 22.827273 
L 415.980695 22.827273 
L 415.980695 21.190909 
L 419.423684 21.190909 
L 419.423684 19.554545 
L 421.145179 19.554545 
L 421.145179 19.554545 
" clip-path="url(#p4b15eb9e7d)" style="fill: none; stroke: #8ac926; stroke-width: 1.5; stroke-linecap: square"/>
   </g>
   <g id="line2d_12">
    <path d="M 76.84625 217.554545 
L 106.121847 217.554545 
L 106.121847 215.918182 
L 107.843941 215.918182 
L 107.843941 214.281818 
L 111.288129 214.281818 
L 111.288129 212.645455 
L 118.176505 212.645455 
L 118.176505 211.009091 
L 123.342786 211.009091 
L 123.342786 209.372727 
L 135.397444 209.372727 
L 135.397444 201.190909 
L 142.28582 201.190909 
L 142.28582 199.554545 
L 145.730008 199.554545 
L 145.730008 197.918182 
L 147.452102 197.918182 
L 147.452102 194.645455 
L 152.618384 194.645455 
L 152.618384 193.009091 
L 157.784665 193.009091 
L 157.784665 189.736364 
L 159.506759 189.736364 
L 159.506759 186.463636 
L 161.228853 186.463636 
L 161.228853 184.827273 
L 164.673041 184.827273 
L 164.673041 181.554545 
L 166.395135 181.554545 
L 166.395135 179.918182 
L 178.449793 179.918182 
L 178.449793 178.281818 
L 183.616075 178.281818 
L 183.616075 176.645455 
L 185.338168 176.645455 
L 185.338168 173.372727 
L 192.226544 173.372727 
L 192.226544 171.736364 
L 197.392826 171.736364 
L 197.392826 170.1 
L 200.837014 170.1 
L 200.837014 166.827273 
L 202.559108 166.827273 
L 202.559108 165.190909 
L 204.281202 165.190909 
L 204.281202 161.918182 
L 206.003296 161.918182 
L 206.003296 158.645455 
L 209.447484 158.645455 
L 209.447484 153.736364 
L 224.946329 153.736364 
L 224.946329 152.1 
L 228.390517 152.1 
L 228.390517 150.463636 
L 242.167269 150.463636 
L 242.167269 148.827273 
L 254.221926 148.827273 
L 254.221926 147.190909 
L 255.94402 147.190909 
L 255.94402 145.554545 
L 264.55449 145.554545 
L 264.55449 139.009091 
L 269.720772 139.009091 
L 269.720772 137.372727 
L 274.887054 137.372727 
L 274.887054 134.1 
L 278.331241 134.1 
L 278.331241 132.463636 
L 280.053335 132.463636 
L 280.053335 130.827273 
L 281.775429 130.827273 
L 281.775429 125.918182 
L 283.497523 125.918182 
L 283.497523 124.281818 
L 286.941711 124.281818 
L 286.941711 121.009091 
L 292.107993 121.009091 
L 292.107993 119.372727 
L 298.996369 119.372727 
L 298.996369 116.1 
L 300.718463 116.1 
L 300.718463 114.463636 
L 312.77312 114.463636 
L 312.77312 112.827273 
L 314.495214 112.827273 
L 314.495214 111.190909 
L 316.217308 111.190909 
L 316.217308 109.554545 
L 321.38359 109.554545 
L 321.38359 107.918182 
L 323.105684 107.918182 
L 323.105684 104.645455 
L 324.827778 104.645455 
L 324.827778 101.372727 
L 328.271966 101.372727 
L 328.271966 98.1 
L 329.99406 98.1 
L 329.99406 94.827273 
L 333.438248 94.827273 
L 333.438248 91.554545 
L 336.882436 91.554545 
L 336.882436 88.281818 
L 338.604529 88.281818 
L 338.604529 85.009091 
L 340.326623 85.009091 
L 340.326623 83.372727 
L 342.048717 83.372727 
L 342.048717 81.736364 
L 345.492905 81.736364 
L 345.492905 78.463636 
L 347.214999 78.463636 
L 347.214999 76.827273 
L 348.937093 76.827273 
L 348.937093 75.190909 
L 355.825469 75.190909 
L 355.825469 71.918182 
L 362.713845 71.918182 
L 362.713845 70.281818 
L 366.158033 70.281818 
L 366.158033 68.645455 
L 367.880126 68.645455 
L 367.880126 67.009091 
L 369.60222 67.009091 
L 369.60222 62.1 
L 371.324314 62.1 
L 371.324314 53.918182 
L 373.046408 53.918182 
L 373.046408 50.645455 
L 374.768502 50.645455 
L 374.768502 47.372727 
L 378.21269 47.372727 
L 378.21269 44.1 
L 381.656878 44.1 
L 381.656878 42.463636 
L 385.101066 42.463636 
L 385.101066 39.190909 
L 386.82316 39.190909 
L 386.82316 37.554545 
L 388.545254 37.554545 
L 388.545254 35.918182 
L 391.989442 35.918182 
L 391.989442 29.372727 
L 393.711536 29.372727 
L 393.711536 27.736364 
L 395.43363 27.736364 
L 395.43363 24.463636 
L 414.376663 24.463636 
L 414.376663 21.190909 
L 419.542945 21.190909 
L 419.542945 19.554545 
L 421.265039 19.554545 
L 421.265039 19.554545 
" clip-path="url(#p4b15eb9e7d)" style="fill: none; stroke: #022175; stroke-width: 1.5; stroke-linecap: square"/>
   </g>
   <g id="patch_3">
    <path d="M 64.24625 279 
L 64.24625 7.2 
" style="fill: none; stroke: #000000; stroke-width: 0.8; stroke-linejoin: miter; stroke-linecap: square"/>
   </g>
   <g id="patch_4">
    <path d="M 454.84625 279 
L 454.84625 7.2 
" style="fill: none; stroke: #000000; stroke-width: 0.8; stroke-linejoin: miter; stroke-linecap: square"/>
   </g>
   <g id="patch_5">
    <path d="M 64.24625 279 
L 454.84625 279 
" style="fill: none; stroke: #000000; stroke-width: 0.8; stroke-linejoin: miter; stroke-linecap: square"/>
   </g>
   <g id="patch_6">
    <path d="M 64.24625 7.2 
L 454.84625 7.2 
" style="fill: none; stroke: #000000; stroke-width: 0.8; stroke-linejoin: miter; stroke-linecap: square"/>
   </g>
  </g>
 </g>
 <defs>
  <clipPath id="p4b15eb9e7d">
   <rect x="64.24625" y="7.2" width="390.6" height="271.8"/>
  </clipPath>
 </defs>
</svg>
