<?xml version="1.0" encoding="utf-8" standalone="no"?>
<!DOCTYPE svg PUBLIC "-//W3C//DTD SVG 1.1//EN"
  "http://www.w3.org/Graphics/SVG/1.1/DTD/svg11.dtd">
<svg xmlns:xlink="http://www.w3.org/1999/xlink" width="617.905pt" height="603.420625pt" viewBox="0 0 617.905 603.420625" xmlns="http://www.w3.org/2000/svg" version="1.1">
 <metadata>
  <rdf:RDF xmlns:dc="http://purl.org/dc/elements/1.1/" xmlns:cc="http://creativecommons.org/ns#" xmlns:rdf="http://www.w3.org/1999/02/22-rdf-syntax-ns#">
   <cc:Work>
    <dc:type rdf:resource="http://purl.org/dc/dcmitype/StillImage"/>
    <dc:date>2022-05-04T11:54:48.270314</dc:date>
    <dc:format>image/svg+xml</dc:format>
    <dc:creator>
     <cc:Agent>
      <dc:title>Matplotlib v3.5.0, https://matplotlib.org/</dc:title>
     </cc:Agent>
    </dc:creator>
   </cc:Work>
  </rdf:RDF>
 </metadata>
 <defs>
  <style type="text/css">*{stroke-linejoin: round; stroke-linecap: butt}</style>
 </defs>
 <g id="figure_1">
  <g id="patch_1">
   <path d="M 0 603.420625 
L 617.905 603.420625 
L 617.905 0 
L 0 0 
L 0 603.420625 
z
" style="fill: none"/>
  </g>
  <g id="axes_1">
   <g id="patch_2">
    <path d="M 586.47875 301.710313 
C 586.47875 266.017864 579.448116 230.672479 565.789207 197.696956 
C 552.130298 164.721433 532.108746 134.757062 506.870373 109.518689 
C 481.632 84.280317 451.66763 64.258764 418.692107 50.599856 
C 385.716584 36.940947 350.371199 29.910313 314.67875 29.910313 
C 278.986301 29.910313 243.640916 36.940947 210.665393 50.599856 
C 177.68987 64.258764 147.7255 84.280317 122.487127 109.518689 
C 97.248754 134.757062 77.227202 164.721433 63.568293 197.696956 
C 49.909384 230.672479 42.87875 266.017864 42.87875 301.710312 
C 42.87875 337.402761 49.909384 372.748146 63.568293 405.723669 
C 77.227202 438.699192 97.248754 468.663563 122.487127 493.901936 
C 147.7255 519.140308 177.68987 539.161861 210.665393 552.820769 
C 243.640916 566.479678 278.986301 573.510313 314.67875 573.510313 
C 350.371199 573.510313 385.716584 566.479678 418.692107 552.820769 
C 451.66763 539.161861 481.632 519.140308 506.870373 493.901936 
C 532.108746 468.663563 552.130298 438.699192 565.789207 405.723669 
C 579.448116 372.748146 586.47875 337.402761 586.47875 301.710313 
M 314.67875 301.710313 
C 314.67875 301.710313 314.67875 301.710313 314.67875 301.710313 
C 314.67875 301.710313 314.67875 301.710313 314.67875 301.710313 
C 314.67875 301.710313 314.67875 301.710313 314.67875 301.710313 
C 314.67875 301.710313 314.67875 301.710313 314.67875 301.710313 
C 314.67875 301.710313 314.67875 301.710313 314.67875 301.710313 
C 314.67875 301.710313 314.67875 301.710313 314.67875 301.710313 
C 314.67875 301.710313 314.67875 301.710313 314.67875 301.710313 
C 314.67875 301.710313 314.67875 301.710313 314.67875 301.710313 
C 314.67875 301.710313 314.67875 301.710313 314.67875 301.710313 
C 314.67875 301.710313 314.67875 301.710313 314.67875 301.710313 
C 314.67875 301.710313 314.67875 301.710313 314.67875 301.710313 
C 314.67875 301.710313 314.67875 301.710313 314.67875 301.710313 
C 314.67875 301.710313 314.67875 301.710313 314.67875 301.710313 
C 314.67875 301.710313 314.67875 301.710313 314.67875 301.710313 
C 314.67875 301.710313 314.67875 301.710313 314.67875 301.710313 
C 314.67875 301.710313 314.67875 301.710313 314.67875 301.710313 
M 586.47875 301.710313 
z
" style="fill: #ffffff"/>
   </g>
   <g id="PathCollection_1">
    <defs>
     <path id="m6278ebc151" d="M -0 5 
L 3 0 
L 0 -5 
L -3 -0 
z
" style="stroke: #004e98; stroke-opacity: 0.5"/>
    </defs>
    <g clip-path="url(#pde734c4615)">
     <use xlink:href="#m6278ebc151" x="435.347799" y="78.688052" style="fill: #004e98; fill-opacity: 0.5; stroke: #004e98; stroke-opacity: 0.5"/>
     <use xlink:href="#m6278ebc151" x="507.846271" y="137.43537" style="fill: #004e98; fill-opacity: 0.5; stroke: #004e98; stroke-opacity: 0.5"/>
     <use xlink:href="#m6278ebc151" x="477.223363" y="107.084526" style="fill: #004e98; fill-opacity: 0.5; stroke: #004e98; stroke-opacity: 0.5"/>
     <use xlink:href="#m6278ebc151" x="457.502164" y="92.183655" style="fill: #004e98; fill-opacity: 0.5; stroke: #004e98; stroke-opacity: 0.5"/>
     <use xlink:href="#m6278ebc151" x="534.081842" y="174.579549" style="fill: #004e98; fill-opacity: 0.5; stroke: #004e98; stroke-opacity: 0.5"/>
     <use xlink:href="#m6278ebc151" x="540.01015" y="185.410235" style="fill: #004e98; fill-opacity: 0.5; stroke: #004e98; stroke-opacity: 0.5"/>
     <use xlink:href="#m6278ebc151" x="505.131816" y="134.295924" style="fill: #004e98; fill-opacity: 0.5; stroke: #004e98; stroke-opacity: 0.5"/>
     <use xlink:href="#m6278ebc151" x="466.714737" y="98.769418" style="fill: #004e98; fill-opacity: 0.5; stroke: #004e98; stroke-opacity: 0.5"/>
     <use xlink:href="#m6278ebc151" x="564.802942" y="260.022947" style="fill: #004e98; fill-opacity: 0.5; stroke: #004e98; stroke-opacity: 0.5"/>
     <use xlink:href="#m6278ebc151" x="436.103365" y="79.098518" style="fill: #004e98; fill-opacity: 0.5; stroke: #004e98; stroke-opacity: 0.5"/>
     <use xlink:href="#m6278ebc151" x="564.802942" y="260.022947" style="fill: #004e98; fill-opacity: 0.5; stroke: #004e98; stroke-opacity: 0.5"/>
     <use xlink:href="#m6278ebc151" x="445.141674" y="84.272106" style="fill: #004e98; fill-opacity: 0.5; stroke: #004e98; stroke-opacity: 0.5"/>
     <use xlink:href="#m6278ebc151" x="451.292915" y="88.08326" style="fill: #004e98; fill-opacity: 0.5; stroke: #004e98; stroke-opacity: 0.5"/>
     <use xlink:href="#m6278ebc151" x="465.549879" y="97.901946" style="fill: #004e98; fill-opacity: 0.5; stroke: #004e98; stroke-opacity: 0.5"/>
     <use xlink:href="#m6278ebc151" x="514.369814" y="145.430349" style="fill: #004e98; fill-opacity: 0.5; stroke: #004e98; stroke-opacity: 0.5"/>
     <use xlink:href="#m6278ebc151" x="508.640605" y="138.374013" style="fill: #004e98; fill-opacity: 0.5; stroke: #004e98; stroke-opacity: 0.5"/>
     <use xlink:href="#m6278ebc151" x="469.539327" y="100.916514" style="fill: #004e98; fill-opacity: 0.5; stroke: #004e98; stroke-opacity: 0.5"/>
     <use xlink:href="#m6278ebc151" x="493.982888" y="122.406174" style="fill: #004e98; fill-opacity: 0.5; stroke: #004e98; stroke-opacity: 0.5"/>
     <use xlink:href="#m6278ebc151" x="470.234524" y="101.454603" style="fill: #004e98; fill-opacity: 0.5; stroke: #004e98; stroke-opacity: 0.5"/>
     <use xlink:href="#m6278ebc151" x="485.16558" y="114.002591" style="fill: #004e98; fill-opacity: 0.5; stroke: #004e98; stroke-opacity: 0.5"/>
     <use xlink:href="#m6278ebc151" x="416.041016" y="69.276152" style="fill: #004e98; fill-opacity: 0.5; stroke: #004e98; stroke-opacity: 0.5"/>
     <use xlink:href="#m6278ebc151" x="521.971322" y="155.663273" style="fill: #004e98; fill-opacity: 0.5; stroke: #004e98; stroke-opacity: 0.5"/>
     <use xlink:href="#m6278ebc151" x="523.382687" y="157.687347" style="fill: #004e98; fill-opacity: 0.5; stroke: #004e98; stroke-opacity: 0.5"/>
     <use xlink:href="#m6278ebc151" x="456.482615" y="91.492302" style="fill: #004e98; fill-opacity: 0.5; stroke: #004e98; stroke-opacity: 0.5"/>
     <use xlink:href="#m6278ebc151" x="453.526173" y="89.527983" style="fill: #004e98; fill-opacity: 0.5; stroke: #004e98; stroke-opacity: 0.5"/>
     <use xlink:href="#m6278ebc151" x="552.107807" y="212.674416" style="fill: #004e98; fill-opacity: 0.5; stroke: #004e98; stroke-opacity: 0.5"/>
     <use xlink:href="#m6278ebc151" x="417.665045" y="69.991148" style="fill: #004e98; fill-opacity: 0.5; stroke: #004e98; stroke-opacity: 0.5"/>
     <use xlink:href="#m6278ebc151" x="482.478541" y="111.59672" style="fill: #004e98; fill-opacity: 0.5; stroke: #004e98; stroke-opacity: 0.5"/>
     <use xlink:href="#m6278ebc151" x="445.883019" y="84.718636" style="fill: #004e98; fill-opacity: 0.5; stroke: #004e98; stroke-opacity: 0.5"/>
     <use xlink:href="#m6278ebc151" x="478.905773" y="108.50205" style="fill: #004e98; fill-opacity: 0.5; stroke: #004e98; stroke-opacity: 0.5"/>
     <use xlink:href="#m6278ebc151" x="437.559996" y="79.89925" style="fill: #004e98; fill-opacity: 0.5; stroke: #004e98; stroke-opacity: 0.5"/>
     <use xlink:href="#m6278ebc151" x="558.253203" y="231.201918" style="fill: #004e98; fill-opacity: 0.5; stroke: #004e98; stroke-opacity: 0.5"/>
     <use xlink:href="#m6278ebc151" x="523.63464" y="158.053138" style="fill: #004e98; fill-opacity: 0.5; stroke: #004e98; stroke-opacity: 0.5"/>
     <use xlink:href="#m6278ebc151" x="487.577499" y="116.221848" style="fill: #004e98; fill-opacity: 0.5; stroke: #004e98; stroke-opacity: 0.5"/>
     <use xlink:href="#m6278ebc151" x="421.36381" y="71.670651" style="fill: #004e98; fill-opacity: 0.5; stroke: #004e98; stroke-opacity: 0.5"/>
     <use xlink:href="#m6278ebc151" x="490.405015" y="118.898311" style="fill: #004e98; fill-opacity: 0.5; stroke: #004e98; stroke-opacity: 0.5"/>
     <use xlink:href="#m6278ebc151" x="445.796295" y="84.666222" style="fill: #004e98; fill-opacity: 0.5; stroke: #004e98; stroke-opacity: 0.5"/>
     <use xlink:href="#m6278ebc151" x="451.61688" y="88.290781" style="fill: #004e98; fill-opacity: 0.5; stroke: #004e98; stroke-opacity: 0.5"/>
     <use xlink:href="#m6278ebc151" x="491.058437" y="119.528662" style="fill: #004e98; fill-opacity: 0.5; stroke: #004e98; stroke-opacity: 0.5"/>
     <use xlink:href="#m6278ebc151" x="476.195049" y="106.230306" style="fill: #004e98; fill-opacity: 0.5; stroke: #004e98; stroke-opacity: 0.5"/>
     <use xlink:href="#m6278ebc151" x="464.261077" y="96.954176" style="fill: #004e98; fill-opacity: 0.5; stroke: #004e98; stroke-opacity: 0.5"/>
     <use xlink:href="#m6278ebc151" x="549.289641" y="205.493486" style="fill: #004e98; fill-opacity: 0.5; stroke: #004e98; stroke-opacity: 0.5"/>
     <use xlink:href="#m6278ebc151" x="455.616745" y="90.910812" style="fill: #004e98; fill-opacity: 0.5; stroke: #004e98; stroke-opacity: 0.5"/>
     <use xlink:href="#m6278ebc151" x="480.944064" y="110.253285" style="fill: #004e98; fill-opacity: 0.5; stroke: #004e98; stroke-opacity: 0.5"/>
     <use xlink:href="#m6278ebc151" x="449.158" y="86.73292" style="fill: #004e98; fill-opacity: 0.5; stroke: #004e98; stroke-opacity: 0.5"/>
     <use xlink:href="#m6278ebc151" x="473.710212" y="104.203497" style="fill: #004e98; fill-opacity: 0.5; stroke: #004e98; stroke-opacity: 0.5"/>
     <use xlink:href="#m6278ebc151" x="435.553066" y="78.799237" style="fill: #004e98; fill-opacity: 0.5; stroke: #004e98; stroke-opacity: 0.5"/>
     <use xlink:href="#m6278ebc151" x="522.890989" y="156.977415" style="fill: #004e98; fill-opacity: 0.5; stroke: #004e98; stroke-opacity: 0.5"/>
     <use xlink:href="#m6278ebc151" x="520.717604" y="153.89983" style="fill: #004e98; fill-opacity: 0.5; stroke: #004e98; stroke-opacity: 0.5"/>
     <use xlink:href="#m6278ebc151" x="528.481975" y="165.372024" style="fill: #004e98; fill-opacity: 0.5; stroke: #004e98; stroke-opacity: 0.5"/>
     <use xlink:href="#m6278ebc151" x="476.797502" y="106.729651" style="fill: #004e98; fill-opacity: 0.5; stroke: #004e98; stroke-opacity: 0.5"/>
     <use xlink:href="#m6278ebc151" x="503.350414" y="132.290859" style="fill: #004e98; fill-opacity: 0.5; stroke: #004e98; stroke-opacity: 0.5"/>
     <use xlink:href="#m6278ebc151" x="469.195772" y="100.652018" style="fill: #004e98; fill-opacity: 0.5; stroke: #004e98; stroke-opacity: 0.5"/>
     <use xlink:href="#m6278ebc151" x="564.802942" y="260.022947" style="fill: #004e98; fill-opacity: 0.5; stroke: #004e98; stroke-opacity: 0.5"/>
     <use xlink:href="#m6278ebc151" x="549.153392" y="205.16193" style="fill: #004e98; fill-opacity: 0.5; stroke: #004e98; stroke-opacity: 0.5"/>
     <use xlink:href="#m6278ebc151" x="493.982888" y="122.406174" style="fill: #004e98; fill-opacity: 0.5; stroke: #004e98; stroke-opacity: 0.5"/>
     <use xlink:href="#m6278ebc151" x="469.397331" y="100.80708" style="fill: #004e98; fill-opacity: 0.5; stroke: #004e98; stroke-opacity: 0.5"/>
     <use xlink:href="#m6278ebc151" x="514.679745" y="145.827184" style="fill: #004e98; fill-opacity: 0.5; stroke: #004e98; stroke-opacity: 0.5"/>
     <use xlink:href="#m6278ebc151" x="500.560024" y="129.233938" style="fill: #004e98; fill-opacity: 0.5; stroke: #004e98; stroke-opacity: 0.5"/>
     <use xlink:href="#m6278ebc151" x="464.152983" y="96.875253" style="fill: #004e98; fill-opacity: 0.5; stroke: #004e98; stroke-opacity: 0.5"/>
     <use xlink:href="#m6278ebc151" x="451.243905" y="88.051925" style="fill: #004e98; fill-opacity: 0.5; stroke: #004e98; stroke-opacity: 0.5"/>
     <use xlink:href="#m6278ebc151" x="503.549882" y="132.513257" style="fill: #004e98; fill-opacity: 0.5; stroke: #004e98; stroke-opacity: 0.5"/>
     <use xlink:href="#m6278ebc151" x="479.439125" y="108.95667" style="fill: #004e98; fill-opacity: 0.5; stroke: #004e98; stroke-opacity: 0.5"/>
     <use xlink:href="#m6278ebc151" x="471.858854" y="102.726989" style="fill: #004e98; fill-opacity: 0.5; stroke: #004e98; stroke-opacity: 0.5"/>
     <use xlink:href="#m6278ebc151" x="544.819437" y="195.243359" style="fill: #004e98; fill-opacity: 0.5; stroke: #004e98; stroke-opacity: 0.5"/>
     <use xlink:href="#m6278ebc151" x="531.611621" y="170.408838" style="fill: #004e98; fill-opacity: 0.5; stroke: #004e98; stroke-opacity: 0.5"/>
     <use xlink:href="#m6278ebc151" x="528.652418" y="165.639679" style="fill: #004e98; fill-opacity: 0.5; stroke: #004e98; stroke-opacity: 0.5"/>
     <use xlink:href="#m6278ebc151" x="539.426343" y="184.286008" style="fill: #004e98; fill-opacity: 0.5; stroke: #004e98; stroke-opacity: 0.5"/>
     <use xlink:href="#m6278ebc151" x="419.508574" y="70.819308" style="fill: #004e98; fill-opacity: 0.5; stroke: #004e98; stroke-opacity: 0.5"/>
     <use xlink:href="#m6278ebc151" x="552.561504" y="213.893782" style="fill: #004e98; fill-opacity: 0.5; stroke: #004e98; stroke-opacity: 0.5"/>
     <use xlink:href="#m6278ebc151" x="548.747375" y="204.181719" style="fill: #004e98; fill-opacity: 0.5; stroke: #004e98; stroke-opacity: 0.5"/>
     <use xlink:href="#m6278ebc151" x="506.135778" y="135.444999" style="fill: #004e98; fill-opacity: 0.5; stroke: #004e98; stroke-opacity: 0.5"/>
     <use xlink:href="#m6278ebc151" x="551.640864" y="211.439031" style="fill: #004e98; fill-opacity: 0.5; stroke: #004e98; stroke-opacity: 0.5"/>
     <use xlink:href="#m6278ebc151" x="487.868486" y="116.493512" style="fill: #004e98; fill-opacity: 0.5; stroke: #004e98; stroke-opacity: 0.5"/>
     <use xlink:href="#m6278ebc151" x="564.802942" y="260.022947" style="fill: #004e98; fill-opacity: 0.5; stroke: #004e98; stroke-opacity: 0.5"/>
     <use xlink:href="#m6278ebc151" x="451.597407" y="88.278288" style="fill: #004e98; fill-opacity: 0.5; stroke: #004e98; stroke-opacity: 0.5"/>
     <use xlink:href="#m6278ebc151" x="546.678431" y="199.357512" style="fill: #004e98; fill-opacity: 0.5; stroke: #004e98; stroke-opacity: 0.5"/>
     <use xlink:href="#m6278ebc151" x="493.982888" y="122.406174" style="fill: #004e98; fill-opacity: 0.5; stroke: #004e98; stroke-opacity: 0.5"/>
     <use xlink:href="#m6278ebc151" x="560.319573" y="238.77754" style="fill: #004e98; fill-opacity: 0.5; stroke: #004e98; stroke-opacity: 0.5"/>
     <use xlink:href="#m6278ebc151" x="478.47313" y="108.135136" style="fill: #004e98; fill-opacity: 0.5; stroke: #004e98; stroke-opacity: 0.5"/>
    </g>
   </g>
   <g id="PathCollection_2">
    <defs>
     <path id="m0d57a22865" d="M -3.535534 3.535534 
L 3.535534 3.535534 
L 3.535534 -3.535534 
L -3.535534 -3.535534 
z
" style="stroke: #ea0f0b; stroke-opacity: 0.5"/>
    </defs>
    <g clip-path="url(#pde734c4615)">
     <use xlink:href="#m0d57a22865" x="385.705844" y="91.508506" style="fill: #ea0f0b; fill-opacity: 0.5; stroke: #ea0f0b; stroke-opacity: 0.5"/>
     <use xlink:href="#m0d57a22865" x="526.653993" y="236.165336" style="fill: #ea0f0b; fill-opacity: 0.5; stroke: #ea0f0b; stroke-opacity: 0.5"/>
     <use xlink:href="#m0d57a22865" x="460.883764" y="134.81591" style="fill: #ea0f0b; fill-opacity: 0.5; stroke: #ea0f0b; stroke-opacity: 0.5"/>
     <use xlink:href="#m0d57a22865" x="496.819186" y="175.003922" style="fill: #ea0f0b; fill-opacity: 0.5; stroke: #ea0f0b; stroke-opacity: 0.5"/>
     <use xlink:href="#m0d57a22865" x="509.891239" y="196.250692" style="fill: #ea0f0b; fill-opacity: 0.5; stroke: #ea0f0b; stroke-opacity: 0.5"/>
     <use xlink:href="#m0d57a22865" x="408.91463" y="100.839094" style="fill: #ea0f0b; fill-opacity: 0.5; stroke: #ea0f0b; stroke-opacity: 0.5"/>
     <use xlink:href="#m0d57a22865" x="485.129806" y="159.667766" style="fill: #ea0f0b; fill-opacity: 0.5; stroke: #ea0f0b; stroke-opacity: 0.5"/>
     <use xlink:href="#m0d57a22865" x="455.788228" y="130.486007" style="fill: #ea0f0b; fill-opacity: 0.5; stroke: #ea0f0b; stroke-opacity: 0.5"/>
     <use xlink:href="#m0d57a22865" x="440.945843" y="119.265064" style="fill: #ea0f0b; fill-opacity: 0.5; stroke: #ea0f0b; stroke-opacity: 0.5"/>
     <use xlink:href="#m0d57a22865" x="479.517858" y="153.191909" style="fill: #ea0f0b; fill-opacity: 0.5; stroke: #ea0f0b; stroke-opacity: 0.5"/>
     <use xlink:href="#m0d57a22865" x="437.293795" y="116.790875" style="fill: #ea0f0b; fill-opacity: 0.5; stroke: #ea0f0b; stroke-opacity: 0.5"/>
     <use xlink:href="#m0d57a22865" x="500.987682" y="181.217036" style="fill: #ea0f0b; fill-opacity: 0.5; stroke: #ea0f0b; stroke-opacity: 0.5"/>
     <use xlink:href="#m0d57a22865" x="533.537418" y="265.233868" style="fill: #ea0f0b; fill-opacity: 0.5; stroke: #ea0f0b; stroke-opacity: 0.5"/>
     <use xlink:href="#m0d57a22865" x="385.799258" y="91.540093" style="fill: #ea0f0b; fill-opacity: 0.5; stroke: #ea0f0b; stroke-opacity: 0.5"/>
     <use xlink:href="#m0d57a22865" x="460.207946" y="134.226281" style="fill: #ea0f0b; fill-opacity: 0.5; stroke: #ea0f0b; stroke-opacity: 0.5"/>
     <use xlink:href="#m0d57a22865" x="443.502349" y="121.061128" style="fill: #ea0f0b; fill-opacity: 0.5; stroke: #ea0f0b; stroke-opacity: 0.5"/>
     <use xlink:href="#m0d57a22865" x="408.299712" y="100.55176" style="fill: #ea0f0b; fill-opacity: 0.5; stroke: #ea0f0b; stroke-opacity: 0.5"/>
     <use xlink:href="#m0d57a22865" x="432.82414" y="113.903725" style="fill: #ea0f0b; fill-opacity: 0.5; stroke: #ea0f0b; stroke-opacity: 0.5"/>
     <use xlink:href="#m0d57a22865" x="506.029452" y="189.39577" style="fill: #ea0f0b; fill-opacity: 0.5; stroke: #ea0f0b; stroke-opacity: 0.5"/>
     <use xlink:href="#m0d57a22865" x="421.739693" y="107.371428" style="fill: #ea0f0b; fill-opacity: 0.5; stroke: #ea0f0b; stroke-opacity: 0.5"/>
     <use xlink:href="#m0d57a22865" x="533.537418" y="265.233868" style="fill: #ea0f0b; fill-opacity: 0.5; stroke: #ea0f0b; stroke-opacity: 0.5"/>
     <use xlink:href="#m0d57a22865" x="503.870974" y="185.796767" style="fill: #ea0f0b; fill-opacity: 0.5; stroke: #ea0f0b; stroke-opacity: 0.5"/>
     <use xlink:href="#m0d57a22865" x="418.773763" y="105.766759" style="fill: #ea0f0b; fill-opacity: 0.5; stroke: #ea0f0b; stroke-opacity: 0.5"/>
     <use xlink:href="#m0d57a22865" x="463.539355" y="137.18017" style="fill: #ea0f0b; fill-opacity: 0.5; stroke: #ea0f0b; stroke-opacity: 0.5"/>
     <use xlink:href="#m0d57a22865" x="508.268248" y="193.300194" style="fill: #ea0f0b; fill-opacity: 0.5; stroke: #ea0f0b; stroke-opacity: 0.5"/>
     <use xlink:href="#m0d57a22865" x="450.447969" y="126.221376" style="fill: #ea0f0b; fill-opacity: 0.5; stroke: #ea0f0b; stroke-opacity: 0.5"/>
     <use xlink:href="#m0d57a22865" x="482.91857" y="157.055514" style="fill: #ea0f0b; fill-opacity: 0.5; stroke: #ea0f0b; stroke-opacity: 0.5"/>
     <use xlink:href="#m0d57a22865" x="505.113209" y="187.84915" style="fill: #ea0f0b; fill-opacity: 0.5; stroke: #ea0f0b; stroke-opacity: 0.5"/>
     <use xlink:href="#m0d57a22865" x="411.390155" y="102.019171" style="fill: #ea0f0b; fill-opacity: 0.5; stroke: #ea0f0b; stroke-opacity: 0.5"/>
     <use xlink:href="#m0d57a22865" x="450.717201" y="126.430001" style="fill: #ea0f0b; fill-opacity: 0.5; stroke: #ea0f0b; stroke-opacity: 0.5"/>
     <use xlink:href="#m0d57a22865" x="460.979641" y="134.899951" style="fill: #ea0f0b; fill-opacity: 0.5; stroke: #ea0f0b; stroke-opacity: 0.5"/>
     <use xlink:href="#m0d57a22865" x="469.764627" y="143.034485" style="fill: #ea0f0b; fill-opacity: 0.5; stroke: #ea0f0b; stroke-opacity: 0.5"/>
     <use xlink:href="#m0d57a22865" x="516.097227" y="208.649877" style="fill: #ea0f0b; fill-opacity: 0.5; stroke: #ea0f0b; stroke-opacity: 0.5"/>
     <use xlink:href="#m0d57a22865" x="473.669868" y="146.947681" style="fill: #ea0f0b; fill-opacity: 0.5; stroke: #ea0f0b; stroke-opacity: 0.5"/>
     <use xlink:href="#m0d57a22865" x="505.97328" y="189.300125" style="fill: #ea0f0b; fill-opacity: 0.5; stroke: #ea0f0b; stroke-opacity: 0.5"/>
     <use xlink:href="#m0d57a22865" x="520.53221" y="218.921421" style="fill: #ea0f0b; fill-opacity: 0.5; stroke: #ea0f0b; stroke-opacity: 0.5"/>
     <use xlink:href="#m0d57a22865" x="493.490697" y="170.348463" style="fill: #ea0f0b; fill-opacity: 0.5; stroke: #ea0f0b; stroke-opacity: 0.5"/>
     <use xlink:href="#m0d57a22865" x="513.750263" y="203.729802" style="fill: #ea0f0b; fill-opacity: 0.5; stroke: #ea0f0b; stroke-opacity: 0.5"/>
     <use xlink:href="#m0d57a22865" x="525.170277" y="231.54647" style="fill: #ea0f0b; fill-opacity: 0.5; stroke: #ea0f0b; stroke-opacity: 0.5"/>
     <use xlink:href="#m0d57a22865" x="428.341805" y="111.157544" style="fill: #ea0f0b; fill-opacity: 0.5; stroke: #ea0f0b; stroke-opacity: 0.5"/>
     <use xlink:href="#m0d57a22865" x="413.484734" y="103.047218" style="fill: #ea0f0b; fill-opacity: 0.5; stroke: #ea0f0b; stroke-opacity: 0.5"/>
     <use xlink:href="#m0d57a22865" x="480.031068" y="153.763502" style="fill: #ea0f0b; fill-opacity: 0.5; stroke: #ea0f0b; stroke-opacity: 0.5"/>
     <use xlink:href="#m0d57a22865" x="475.751354" y="149.115214" style="fill: #ea0f0b; fill-opacity: 0.5; stroke: #ea0f0b; stroke-opacity: 0.5"/>
     <use xlink:href="#m0d57a22865" x="499.859841" y="179.490792" style="fill: #ea0f0b; fill-opacity: 0.5; stroke: #ea0f0b; stroke-opacity: 0.5"/>
     <use xlink:href="#m0d57a22865" x="433.799369" y="114.520768" style="fill: #ea0f0b; fill-opacity: 0.5; stroke: #ea0f0b; stroke-opacity: 0.5"/>
     <use xlink:href="#m0d57a22865" x="533.537418" y="265.233868" style="fill: #ea0f0b; fill-opacity: 0.5; stroke: #ea0f0b; stroke-opacity: 0.5"/>
     <use xlink:href="#m0d57a22865" x="483.95896" y="158.27441" style="fill: #ea0f0b; fill-opacity: 0.5; stroke: #ea0f0b; stroke-opacity: 0.5"/>
     <use xlink:href="#m0d57a22865" x="448.861255" y="125.005183" style="fill: #ea0f0b; fill-opacity: 0.5; stroke: #ea0f0b; stroke-opacity: 0.5"/>
     <use xlink:href="#m0d57a22865" x="493.302568" y="170.092763" style="fill: #ea0f0b; fill-opacity: 0.5; stroke: #ea0f0b; stroke-opacity: 0.5"/>
     <use xlink:href="#m0d57a22865" x="448.128574" y="124.451203" style="fill: #ea0f0b; fill-opacity: 0.5; stroke: #ea0f0b; stroke-opacity: 0.5"/>
     <use xlink:href="#m0d57a22865" x="484.535868" y="158.958054" style="fill: #ea0f0b; fill-opacity: 0.5; stroke: #ea0f0b; stroke-opacity: 0.5"/>
     <use xlink:href="#m0d57a22865" x="515.740446" y="207.881521" style="fill: #ea0f0b; fill-opacity: 0.5; stroke: #ea0f0b; stroke-opacity: 0.5"/>
     <use xlink:href="#m0d57a22865" x="482.559748" y="156.639233" style="fill: #ea0f0b; fill-opacity: 0.5; stroke: #ea0f0b; stroke-opacity: 0.5"/>
     <use xlink:href="#m0d57a22865" x="487.768687" y="162.895611" style="fill: #ea0f0b; fill-opacity: 0.5; stroke: #ea0f0b; stroke-opacity: 0.5"/>
     <use xlink:href="#m0d57a22865" x="428.26706" y="111.112979" style="fill: #ea0f0b; fill-opacity: 0.5; stroke: #ea0f0b; stroke-opacity: 0.5"/>
     <use xlink:href="#m0d57a22865" x="425.957095" y="109.755168" style="fill: #ea0f0b; fill-opacity: 0.5; stroke: #ea0f0b; stroke-opacity: 0.5"/>
     <use xlink:href="#m0d57a22865" x="520.793589" y="219.574324" style="fill: #ea0f0b; fill-opacity: 0.5; stroke: #ea0f0b; stroke-opacity: 0.5"/>
     <use xlink:href="#m0d57a22865" x="498.861578" y="177.991544" style="fill: #ea0f0b; fill-opacity: 0.5; stroke: #ea0f0b; stroke-opacity: 0.5"/>
     <use xlink:href="#m0d57a22865" x="477.160965" y="150.617038" style="fill: #ea0f0b; fill-opacity: 0.5; stroke: #ea0f0b; stroke-opacity: 0.5"/>
     <use xlink:href="#m0d57a22865" x="511.843725" y="199.947745" style="fill: #ea0f0b; fill-opacity: 0.5; stroke: #ea0f0b; stroke-opacity: 0.5"/>
     <use xlink:href="#m0d57a22865" x="438.450044" y="117.562778" style="fill: #ea0f0b; fill-opacity: 0.5; stroke: #ea0f0b; stroke-opacity: 0.5"/>
     <use xlink:href="#m0d57a22865" x="529.08392" y="244.613284" style="fill: #ea0f0b; fill-opacity: 0.5; stroke: #ea0f0b; stroke-opacity: 0.5"/>
     <use xlink:href="#m0d57a22865" x="467.879818" y="141.213956" style="fill: #ea0f0b; fill-opacity: 0.5; stroke: #ea0f0b; stroke-opacity: 0.5"/>
     <use xlink:href="#m0d57a22865" x="438.585852" y="117.654132" style="fill: #ea0f0b; fill-opacity: 0.5; stroke: #ea0f0b; stroke-opacity: 0.5"/>
    </g>
   </g>
   <g id="PathCollection_3">
    <defs>
     <path id="m893c967ba4" d="M 0 3 
C 0.795609 3 1.55874 2.683901 2.12132 2.12132 
C 2.683901 1.55874 3 0.795609 3 0 
C 3 -0.795609 2.683901 -1.55874 2.12132 -2.12132 
C 1.55874 -2.683901 0.795609 -3 0 -3 
C -0.795609 -3 -1.55874 -2.683901 -2.12132 -2.12132 
C -2.683901 -1.55874 -3 -0.795609 -3 0 
C -3 0.795609 -2.683901 1.55874 -2.12132 2.12132 
C -1.55874 2.683901 -0.795609 3 0 3 
z
" style="stroke: #1f77b4; stroke-opacity: 0"/>
    </defs>
    <g clip-path="url(#pde734c4615)">
     <use xlink:href="#m893c967ba4" x="442.889615" y="64.749161" style="fill: #1f77b4; fill-opacity: 0; stroke: #1f77b4; stroke-opacity: 0"/>
     <use xlink:href="#m893c967ba4" x="519.919241" y="127.168186" style="fill: #1f77b4; fill-opacity: 0; stroke: #1f77b4; stroke-opacity: 0"/>
     <use xlink:href="#m893c967ba4" x="487.382401" y="94.920414" style="fill: #1f77b4; fill-opacity: 0; stroke: #1f77b4; stroke-opacity: 0"/>
     <use xlink:href="#m893c967ba4" x="466.428628" y="79.088239" style="fill: #1f77b4; fill-opacity: 0; stroke: #1f77b4; stroke-opacity: 0"/>
     <use xlink:href="#m893c967ba4" x="547.794535" y="166.633876" style="fill: #1f77b4; fill-opacity: 0; stroke: #1f77b4; stroke-opacity: 0"/>
     <use xlink:href="#m893c967ba4" x="554.093363" y="178.14148" style="fill: #1f77b4; fill-opacity: 0; stroke: #1f77b4; stroke-opacity: 0"/>
     <use xlink:href="#m893c967ba4" x="517.035133" y="123.832524" style="fill: #1f77b4; fill-opacity: 0; stroke: #1f77b4; stroke-opacity: 0"/>
     <use xlink:href="#m893c967ba4" x="476.216987" y="86.085613" style="fill: #1f77b4; fill-opacity: 0; stroke: #1f77b4; stroke-opacity: 0"/>
     <use xlink:href="#m893c967ba4" x="580.435704" y="257.417487" style="fill: #1f77b4; fill-opacity: 0; stroke: #1f77b4; stroke-opacity: 0"/>
     <use xlink:href="#m893c967ba4" x="443.692403" y="65.185281" style="fill: #1f77b4; fill-opacity: 0; stroke: #1f77b4; stroke-opacity: 0"/>
     <use xlink:href="#m893c967ba4" x="580.435704" y="257.417487" style="fill: #1f77b4; fill-opacity: 0; stroke: #1f77b4; stroke-opacity: 0"/>
     <use xlink:href="#m893c967ba4" x="453.295606" y="70.682218" style="fill: #1f77b4; fill-opacity: 0; stroke: #1f77b4; stroke-opacity: 0"/>
     <use xlink:href="#m893c967ba4" x="459.831301" y="74.731569" style="fill: #1f77b4; fill-opacity: 0; stroke: #1f77b4; stroke-opacity: 0"/>
     <use xlink:href="#m893c967ba4" x="474.979324" y="85.163923" style="fill: #1f77b4; fill-opacity: 0; stroke: #1f77b4; stroke-opacity: 0"/>
     <use xlink:href="#m893c967ba4" x="526.850506" y="135.662852" style="fill: #1f77b4; fill-opacity: 0; stroke: #1f77b4; stroke-opacity: 0"/>
     <use xlink:href="#m893c967ba4" x="520.763221" y="128.165495" style="fill: #1f77b4; fill-opacity: 0; stroke: #1f77b4; stroke-opacity: 0"/>
     <use xlink:href="#m893c967ba4" x="479.218113" y="88.366901" style="fill: #1f77b4; fill-opacity: 0; stroke: #1f77b4; stroke-opacity: 0"/>
     <use xlink:href="#m893c967ba4" x="505.189397" y="111.199666" style="fill: #1f77b4; fill-opacity: 0; stroke: #1f77b4; stroke-opacity: 0"/>
     <use xlink:href="#m893c967ba4" x="479.95676" y="88.938621" style="fill: #1f77b4; fill-opacity: 0; stroke: #1f77b4; stroke-opacity: 0"/>
     <use xlink:href="#m893c967ba4" x="495.821007" y="102.270858" style="fill: #1f77b4; fill-opacity: 0; stroke: #1f77b4; stroke-opacity: 0"/>
     <use xlink:href="#m893c967ba4" x="422.376157" y="54.749017" style="fill: #1f77b4; fill-opacity: 0; stroke: #1f77b4; stroke-opacity: 0"/>
     <use xlink:href="#m893c967ba4" x="534.927107" y="146.535333" style="fill: #1f77b4; fill-opacity: 0; stroke: #1f77b4; stroke-opacity: 0"/>
     <use xlink:href="#m893c967ba4" x="536.426683" y="148.685912" style="fill: #1f77b4; fill-opacity: 0; stroke: #1f77b4; stroke-opacity: 0"/>
     <use xlink:href="#m893c967ba4" x="465.345356" y="78.353677" style="fill: #1f77b4; fill-opacity: 0; stroke: #1f77b4; stroke-opacity: 0"/>
     <use xlink:href="#m893c967ba4" x="462.204137" y="76.266587" style="fill: #1f77b4; fill-opacity: 0; stroke: #1f77b4; stroke-opacity: 0"/>
     <use xlink:href="#m893c967ba4" x="566.947123" y="207.109673" style="fill: #1f77b4; fill-opacity: 0; stroke: #1f77b4; stroke-opacity: 0"/>
     <use xlink:href="#m893c967ba4" x="424.101689" y="55.508701" style="fill: #1f77b4; fill-opacity: 0; stroke: #1f77b4; stroke-opacity: 0"/>
     <use xlink:href="#m893c967ba4" x="492.966028" y="99.71462" style="fill: #1f77b4; fill-opacity: 0; stroke: #1f77b4; stroke-opacity: 0"/>
     <use xlink:href="#m893c967ba4" x="454.083286" y="71.156656" style="fill: #1f77b4; fill-opacity: 0; stroke: #1f77b4; stroke-opacity: 0"/>
     <use xlink:href="#m893c967ba4" x="489.169962" y="96.426533" style="fill: #1f77b4; fill-opacity: 0; stroke: #1f77b4; stroke-opacity: 0"/>
     <use xlink:href="#m893c967ba4" x="445.240074" y="66.036059" style="fill: #1f77b4; fill-opacity: 0; stroke: #1f77b4; stroke-opacity: 0"/>
     <use xlink:href="#m893c967ba4" x="573.476607" y="226.795143" style="fill: #1f77b4; fill-opacity: 0; stroke: #1f77b4; stroke-opacity: 0"/>
     <use xlink:href="#m893c967ba4" x="536.694384" y="149.074564" style="fill: #1f77b4; fill-opacity: 0; stroke: #1f77b4; stroke-opacity: 0"/>
     <use xlink:href="#m893c967ba4" x="498.383671" y="104.628819" style="fill: #1f77b4; fill-opacity: 0; stroke: #1f77b4; stroke-opacity: 0"/>
     <use xlink:href="#m893c967ba4" x="428.031627" y="57.293172" style="fill: #1f77b4; fill-opacity: 0; stroke: #1f77b4; stroke-opacity: 0"/>
     <use xlink:href="#m893c967ba4" x="501.387906" y="107.472561" style="fill: #1f77b4; fill-opacity: 0; stroke: #1f77b4; stroke-opacity: 0"/>
     <use xlink:href="#m893c967ba4" x="453.991141" y="71.100966" style="fill: #1f77b4; fill-opacity: 0; stroke: #1f77b4; stroke-opacity: 0"/>
     <use xlink:href="#m893c967ba4" x="460.175513" y="74.95206" style="fill: #1f77b4; fill-opacity: 0; stroke: #1f77b4; stroke-opacity: 0"/>
     <use xlink:href="#m893c967ba4" x="502.082168" y="108.142309" style="fill: #1f77b4; fill-opacity: 0; stroke: #1f77b4; stroke-opacity: 0"/>
     <use xlink:href="#m893c967ba4" x="486.289818" y="94.012805" style="fill: #1f77b4; fill-opacity: 0; stroke: #1f77b4; stroke-opacity: 0"/>
     <use xlink:href="#m893c967ba4" x="473.609973" y="84.156918" style="fill: #1f77b4; fill-opacity: 0; stroke: #1f77b4; stroke-opacity: 0"/>
     <use xlink:href="#m893c967ba4" x="563.952822" y="199.479935" style="fill: #1f77b4; fill-opacity: 0; stroke: #1f77b4; stroke-opacity: 0"/>
     <use xlink:href="#m893c967ba4" x="464.425369" y="77.735843" style="fill: #1f77b4; fill-opacity: 0; stroke: #1f77b4; stroke-opacity: 0"/>
     <use xlink:href="#m893c967ba4" x="491.335646" y="98.287221" style="fill: #1f77b4; fill-opacity: 0; stroke: #1f77b4; stroke-opacity: 0"/>
     <use xlink:href="#m893c967ba4" x="457.562953" y="73.296833" style="fill: #1f77b4; fill-opacity: 0; stroke: #1f77b4; stroke-opacity: 0"/>
     <use xlink:href="#m893c967ba4" x="483.649678" y="91.859321" style="fill: #1f77b4; fill-opacity: 0; stroke: #1f77b4; stroke-opacity: 0"/>
     <use xlink:href="#m893c967ba4" x="443.107711" y="64.867294" style="fill: #1f77b4; fill-opacity: 0; stroke: #1f77b4; stroke-opacity: 0"/>
     <use xlink:href="#m893c967ba4" x="535.904254" y="147.931609" style="fill: #1f77b4; fill-opacity: 0; stroke: #1f77b4; stroke-opacity: 0"/>
     <use xlink:href="#m893c967ba4" x="533.595032" y="144.661675" style="fill: #1f77b4; fill-opacity: 0; stroke: #1f77b4; stroke-opacity: 0"/>
     <use xlink:href="#m893c967ba4" x="541.844677" y="156.850881" style="fill: #1f77b4; fill-opacity: 0; stroke: #1f77b4; stroke-opacity: 0"/>
     <use xlink:href="#m893c967ba4" x="486.929924" y="94.54336" style="fill: #1f77b4; fill-opacity: 0; stroke: #1f77b4; stroke-opacity: 0"/>
     <use xlink:href="#m893c967ba4" x="515.142393" y="121.702143" style="fill: #1f77b4; fill-opacity: 0; stroke: #1f77b4; stroke-opacity: 0"/>
     <use xlink:href="#m893c967ba4" x="478.853086" y="88.085875" style="fill: #1f77b4; fill-opacity: 0; stroke: #1f77b4; stroke-opacity: 0"/>
     <use xlink:href="#m893c967ba4" x="580.435704" y="257.417487" style="fill: #1f77b4; fill-opacity: 0; stroke: #1f77b4; stroke-opacity: 0"/>
     <use xlink:href="#m893c967ba4" x="563.808057" y="199.127657" style="fill: #1f77b4; fill-opacity: 0; stroke: #1f77b4; stroke-opacity: 0"/>
     <use xlink:href="#m893c967ba4" x="505.189397" y="111.199666" style="fill: #1f77b4; fill-opacity: 0; stroke: #1f77b4; stroke-opacity: 0"/>
     <use xlink:href="#m893c967ba4" x="479.067242" y="88.250628" style="fill: #1f77b4; fill-opacity: 0; stroke: #1f77b4; stroke-opacity: 0"/>
     <use xlink:href="#m893c967ba4" x="527.179808" y="136.084488" style="fill: #1f77b4; fill-opacity: 0; stroke: #1f77b4; stroke-opacity: 0"/>
     <use xlink:href="#m893c967ba4" x="512.177604" y="118.454164" style="fill: #1f77b4; fill-opacity: 0; stroke: #1f77b4; stroke-opacity: 0"/>
     <use xlink:href="#m893c967ba4" x="473.495122" y="84.073062" style="fill: #1f77b4; fill-opacity: 0; stroke: #1f77b4; stroke-opacity: 0"/>
     <use xlink:href="#m893c967ba4" x="459.779227" y="74.698276" style="fill: #1f77b4; fill-opacity: 0; stroke: #1f77b4; stroke-opacity: 0"/>
     <use xlink:href="#m893c967ba4" x="515.354327" y="121.938441" style="fill: #1f77b4; fill-opacity: 0; stroke: #1f77b4; stroke-opacity: 0"/>
     <use xlink:href="#m893c967ba4" x="489.736648" y="96.909567" style="fill: #1f77b4; fill-opacity: 0; stroke: #1f77b4; stroke-opacity: 0"/>
     <use xlink:href="#m893c967ba4" x="481.68261" y="90.290532" style="fill: #1f77b4; fill-opacity: 0; stroke: #1f77b4; stroke-opacity: 0"/>
     <use xlink:href="#m893c967ba4" x="559.20323" y="188.589175" style="fill: #1f77b4; fill-opacity: 0; stroke: #1f77b4; stroke-opacity: 0"/>
     <use xlink:href="#m893c967ba4" x="545.169926" y="162.202496" style="fill: #1f77b4; fill-opacity: 0; stroke: #1f77b4; stroke-opacity: 0"/>
     <use xlink:href="#m893c967ba4" x="542.025772" y="157.135264" style="fill: #1f77b4; fill-opacity: 0; stroke: #1f77b4; stroke-opacity: 0"/>
     <use xlink:href="#m893c967ba4" x="553.473068" y="176.946989" style="fill: #1f77b4; fill-opacity: 0; stroke: #1f77b4; stroke-opacity: 0"/>
     <use xlink:href="#m893c967ba4" x="426.060438" y="56.38862" style="fill: #1f77b4; fill-opacity: 0; stroke: #1f77b4; stroke-opacity: 0"/>
     <use xlink:href="#m893c967ba4" x="567.429177" y="208.405248" style="fill: #1f77b4; fill-opacity: 0; stroke: #1f77b4; stroke-opacity: 0"/>
     <use xlink:href="#m893c967ba4" x="563.376664" y="198.086182" style="fill: #1f77b4; fill-opacity: 0; stroke: #1f77b4; stroke-opacity: 0"/>
     <use xlink:href="#m893c967ba4" x="518.101842" y="125.053417" style="fill: #1f77b4; fill-opacity: 0; stroke: #1f77b4; stroke-opacity: 0"/>
     <use xlink:href="#m893c967ba4" x="566.450997" y="205.797076" style="fill: #1f77b4; fill-opacity: 0; stroke: #1f77b4; stroke-opacity: 0"/>
     <use xlink:href="#m893c967ba4" x="498.692844" y="104.917462" style="fill: #1f77b4; fill-opacity: 0; stroke: #1f77b4; stroke-opacity: 0"/>
     <use xlink:href="#m893c967ba4" x="580.435704" y="257.417487" style="fill: #1f77b4; fill-opacity: 0; stroke: #1f77b4; stroke-opacity: 0"/>
     <use xlink:href="#m893c967ba4" x="460.154823" y="74.938786" style="fill: #1f77b4; fill-opacity: 0; stroke: #1f77b4; stroke-opacity: 0"/>
     <use xlink:href="#m893c967ba4" x="561.178411" y="192.960462" style="fill: #1f77b4; fill-opacity: 0; stroke: #1f77b4; stroke-opacity: 0"/>
     <use xlink:href="#m893c967ba4" x="505.189397" y="111.199666" style="fill: #1f77b4; fill-opacity: 0; stroke: #1f77b4; stroke-opacity: 0"/>
     <use xlink:href="#m893c967ba4" x="575.672125" y="234.844241" style="fill: #1f77b4; fill-opacity: 0; stroke: #1f77b4; stroke-opacity: 0"/>
     <use xlink:href="#m893c967ba4" x="488.710279" y="96.036687" style="fill: #1f77b4; fill-opacity: 0; stroke: #1f77b4; stroke-opacity: 0"/>
    </g>
   </g>
   <g id="matplotlib.axis_1">
    <g id="xtick_1">
     <g id="line2d_1">
      <path d="M 314.67875 301.710313 
L 586.47875 301.710313 
" clip-path="url(#pde734c4615)" style="fill: none; stroke: #b0b0b0; stroke-width: 0.8; stroke-linecap: square"/>
     </g>
     <g id="text_1">
      <!-- 0° -->
      <g transform="translate(590.2525 306.677188)scale(0.18 -0.18)">
       <defs>
        <path id="DejaVuSans-30" d="M 2034 4250 
Q 1547 4250 1301 3770 
Q 1056 3291 1056 2328 
Q 1056 1369 1301 889 
Q 1547 409 2034 409 
Q 2525 409 2770 889 
Q 3016 1369 3016 2328 
Q 3016 3291 2770 3770 
Q 2525 4250 2034 4250 
z
M 2034 4750 
Q 2819 4750 3233 4129 
Q 3647 3509 3647 2328 
Q 3647 1150 3233 529 
Q 2819 -91 2034 -91 
Q 1250 -91 836 529 
Q 422 1150 422 2328 
Q 422 3509 836 4129 
Q 1250 4750 2034 4750 
z
" transform="scale(0.015625)"/>
        <path id="DejaVuSans-b0" d="M 1600 4347 
Q 1350 4347 1178 4173 
Q 1006 4000 1006 3750 
Q 1006 3503 1178 3333 
Q 1350 3163 1600 3163 
Q 1850 3163 2022 3333 
Q 2194 3503 2194 3750 
Q 2194 3997 2020 4172 
Q 1847 4347 1600 4347 
z
M 1600 4750 
Q 1800 4750 1984 4673 
Q 2169 4597 2303 4453 
Q 2447 4313 2519 4134 
Q 2591 3956 2591 3750 
Q 2591 3338 2302 3052 
Q 2013 2766 1594 2766 
Q 1172 2766 890 3047 
Q 609 3328 609 3750 
Q 609 4169 896 4459 
Q 1184 4750 1600 4750 
z
" transform="scale(0.015625)"/>
       </defs>
       <use xlink:href="#DejaVuSans-30"/>
       <use xlink:href="#DejaVuSans-b0" x="63.623047"/>
      </g>
     </g>
    </g>
    <g id="xtick_2">
     <g id="line2d_2">
      <path d="M 314.67875 301.710313 
L 506.870373 109.518689 
" clip-path="url(#pde734c4615)" style="fill: none; stroke: #b0b0b0; stroke-width: 0.8; stroke-linecap: square"/>
     </g>
     <g id="text_2">
      <!-- 45° -->
      <g transform="translate(500.817368 104.586069)scale(0.18 -0.18)">
       <defs>
        <path id="DejaVuSans-34" d="M 2419 4116 
L 825 1625 
L 2419 1625 
L 2419 4116 
z
M 2253 4666 
L 3047 4666 
L 3047 1625 
L 3713 1625 
L 3713 1100 
L 3047 1100 
L 3047 0 
L 2419 0 
L 2419 1100 
L 313 1100 
L 313 1709 
L 2253 4666 
z
" transform="scale(0.015625)"/>
        <path id="DejaVuSans-35" d="M 691 4666 
L 3169 4666 
L 3169 4134 
L 1269 4134 
L 1269 2991 
Q 1406 3038 1543 3061 
Q 1681 3084 1819 3084 
Q 2600 3084 3056 2656 
Q 3513 2228 3513 1497 
Q 3513 744 3044 326 
Q 2575 -91 1722 -91 
Q 1428 -91 1123 -41 
Q 819 9 494 109 
L 494 744 
Q 775 591 1075 516 
Q 1375 441 1709 441 
Q 2250 441 2565 725 
Q 2881 1009 2881 1497 
Q 2881 1984 2565 2268 
Q 2250 2553 1709 2553 
Q 1456 2553 1204 2497 
Q 953 2441 691 2322 
L 691 4666 
z
" transform="scale(0.015625)"/>
       </defs>
       <use xlink:href="#DejaVuSans-34"/>
       <use xlink:href="#DejaVuSans-35" x="63.623047"/>
       <use xlink:href="#DejaVuSans-b0" x="127.246094"/>
      </g>
     </g>
    </g>
    <g id="xtick_3">
     <g id="line2d_3">
      <path d="M 314.67875 301.710313 
L 314.67875 29.910313 
" clip-path="url(#pde734c4615)" style="fill: none; stroke: #b0b0b0; stroke-width: 0.8; stroke-linecap: square"/>
     </g>
     <g id="text_3">
      <!-- 90° -->
      <g transform="translate(298.72625 20.877187)scale(0.18 -0.18)">
       <defs>
        <path id="DejaVuSans-39" d="M 703 97 
L 703 672 
Q 941 559 1184 500 
Q 1428 441 1663 441 
Q 2288 441 2617 861 
Q 2947 1281 2994 2138 
Q 2813 1869 2534 1725 
Q 2256 1581 1919 1581 
Q 1219 1581 811 2004 
Q 403 2428 403 3163 
Q 403 3881 828 4315 
Q 1253 4750 1959 4750 
Q 2769 4750 3195 4129 
Q 3622 3509 3622 2328 
Q 3622 1225 3098 567 
Q 2575 -91 1691 -91 
Q 1453 -91 1209 -44 
Q 966 3 703 97 
z
M 1959 2075 
Q 2384 2075 2632 2365 
Q 2881 2656 2881 3163 
Q 2881 3666 2632 3958 
Q 2384 4250 1959 4250 
Q 1534 4250 1286 3958 
Q 1038 3666 1038 3163 
Q 1038 2656 1286 2365 
Q 1534 2075 1959 2075 
z
" transform="scale(0.015625)"/>
       </defs>
       <use xlink:href="#DejaVuSans-39"/>
       <use xlink:href="#DejaVuSans-30" x="63.623047"/>
       <use xlink:href="#DejaVuSans-b0" x="127.246094"/>
      </g>
     </g>
    </g>
    <g id="xtick_4">
     <g id="line2d_4">
      <path d="M 314.67875 301.710313 
L 122.487127 109.518689 
" clip-path="url(#pde734c4615)" style="fill: none; stroke: #b0b0b0; stroke-width: 0.8; stroke-linecap: square"/>
     </g>
     <g id="text_4">
      <!-- 135° -->
      <g transform="translate(90.908882 104.586069)scale(0.18 -0.18)">
       <defs>
        <path id="DejaVuSans-31" d="M 794 531 
L 1825 531 
L 1825 4091 
L 703 3866 
L 703 4441 
L 1819 4666 
L 2450 4666 
L 2450 531 
L 3481 531 
L 3481 0 
L 794 0 
L 794 531 
z
" transform="scale(0.015625)"/>
        <path id="DejaVuSans-33" d="M 2597 2516 
Q 3050 2419 3304 2112 
Q 3559 1806 3559 1356 
Q 3559 666 3084 287 
Q 2609 -91 1734 -91 
Q 1441 -91 1130 -33 
Q 819 25 488 141 
L 488 750 
Q 750 597 1062 519 
Q 1375 441 1716 441 
Q 2309 441 2620 675 
Q 2931 909 2931 1356 
Q 2931 1769 2642 2001 
Q 2353 2234 1838 2234 
L 1294 2234 
L 1294 2753 
L 1863 2753 
Q 2328 2753 2575 2939 
Q 2822 3125 2822 3475 
Q 2822 3834 2567 4026 
Q 2313 4219 1838 4219 
Q 1578 4219 1281 4162 
Q 984 4106 628 3988 
L 628 4550 
Q 988 4650 1302 4700 
Q 1616 4750 1894 4750 
Q 2613 4750 3031 4423 
Q 3450 4097 3450 3541 
Q 3450 3153 3228 2886 
Q 3006 2619 2597 2516 
z
" transform="scale(0.015625)"/>
       </defs>
       <use xlink:href="#DejaVuSans-31"/>
       <use xlink:href="#DejaVuSans-33" x="63.623047"/>
       <use xlink:href="#DejaVuSans-35" x="127.246094"/>
       <use xlink:href="#DejaVuSans-b0" x="190.869141"/>
      </g>
     </g>
    </g>
    <g id="xtick_5">
     <g id="line2d_5">
      <path d="M 314.67875 301.710313 
L 42.87875 301.710313 
" clip-path="url(#pde734c4615)" style="fill: none; stroke: #b0b0b0; stroke-width: 0.8; stroke-linecap: square"/>
     </g>
     <g id="text_5">
      <!-- 180° -->
      <g transform="translate(7.2 306.677188)scale(0.18 -0.18)">
       <defs>
        <path id="DejaVuSans-38" d="M 2034 2216 
Q 1584 2216 1326 1975 
Q 1069 1734 1069 1313 
Q 1069 891 1326 650 
Q 1584 409 2034 409 
Q 2484 409 2743 651 
Q 3003 894 3003 1313 
Q 3003 1734 2745 1975 
Q 2488 2216 2034 2216 
z
M 1403 2484 
Q 997 2584 770 2862 
Q 544 3141 544 3541 
Q 544 4100 942 4425 
Q 1341 4750 2034 4750 
Q 2731 4750 3128 4425 
Q 3525 4100 3525 3541 
Q 3525 3141 3298 2862 
Q 3072 2584 2669 2484 
Q 3125 2378 3379 2068 
Q 3634 1759 3634 1313 
Q 3634 634 3220 271 
Q 2806 -91 2034 -91 
Q 1263 -91 848 271 
Q 434 634 434 1313 
Q 434 1759 690 2068 
Q 947 2378 1403 2484 
z
M 1172 3481 
Q 1172 3119 1398 2916 
Q 1625 2713 2034 2713 
Q 2441 2713 2670 2916 
Q 2900 3119 2900 3481 
Q 2900 3844 2670 4047 
Q 2441 4250 2034 4250 
Q 1625 4250 1398 4047 
Q 1172 3844 1172 3481 
z
" transform="scale(0.015625)"/>
       </defs>
       <use xlink:href="#DejaVuSans-31"/>
       <use xlink:href="#DejaVuSans-38" x="63.623047"/>
       <use xlink:href="#DejaVuSans-30" x="127.246094"/>
       <use xlink:href="#DejaVuSans-b0" x="190.869141"/>
      </g>
     </g>
    </g>
    <g id="xtick_6">
     <g id="line2d_6">
      <path d="M 314.67875 301.710313 
L 122.487127 493.901936 
" clip-path="url(#pde734c4615)" style="fill: none; stroke: #b0b0b0; stroke-width: 0.8; stroke-linecap: square"/>
     </g>
     <g id="text_6">
      <!-- 225° -->
      <g transform="translate(90.908882 508.768306)scale(0.18 -0.18)">
       <defs>
        <path id="DejaVuSans-32" d="M 1228 531 
L 3431 531 
L 3431 0 
L 469 0 
L 469 531 
Q 828 903 1448 1529 
Q 2069 2156 2228 2338 
Q 2531 2678 2651 2914 
Q 2772 3150 2772 3378 
Q 2772 3750 2511 3984 
Q 2250 4219 1831 4219 
Q 1534 4219 1204 4116 
Q 875 4013 500 3803 
L 500 4441 
Q 881 4594 1212 4672 
Q 1544 4750 1819 4750 
Q 2544 4750 2975 4387 
Q 3406 4025 3406 3419 
Q 3406 3131 3298 2873 
Q 3191 2616 2906 2266 
Q 2828 2175 2409 1742 
Q 1991 1309 1228 531 
z
" transform="scale(0.015625)"/>
       </defs>
       <use xlink:href="#DejaVuSans-32"/>
       <use xlink:href="#DejaVuSans-32" x="63.623047"/>
       <use xlink:href="#DejaVuSans-35" x="127.246094"/>
       <use xlink:href="#DejaVuSans-b0" x="190.869141"/>
      </g>
     </g>
    </g>
    <g id="xtick_7">
     <g id="line2d_7">
      <path d="M 314.67875 301.710313 
L 314.67875 573.510313 
" clip-path="url(#pde734c4615)" style="fill: none; stroke: #b0b0b0; stroke-width: 0.8; stroke-linecap: square"/>
     </g>
     <g id="text_7">
      <!-- 270° -->
      <g transform="translate(293 592.477188)scale(0.18 -0.18)">
       <defs>
        <path id="DejaVuSans-37" d="M 525 4666 
L 3525 4666 
L 3525 4397 
L 1831 0 
L 1172 0 
L 2766 4134 
L 525 4134 
L 525 4666 
z
" transform="scale(0.015625)"/>
       </defs>
       <use xlink:href="#DejaVuSans-32"/>
       <use xlink:href="#DejaVuSans-37" x="63.623047"/>
       <use xlink:href="#DejaVuSans-30" x="127.246094"/>
       <use xlink:href="#DejaVuSans-b0" x="190.869141"/>
      </g>
     </g>
    </g>
    <g id="xtick_8">
     <g id="line2d_8">
      <path d="M 314.67875 301.710313 
L 506.870373 493.901936 
" clip-path="url(#pde734c4615)" style="fill: none; stroke: #b0b0b0; stroke-width: 0.8; stroke-linecap: square"/>
     </g>
     <g id="text_8">
      <!-- 315° -->
      <g transform="translate(495.091118 508.768306)scale(0.18 -0.18)">
       <use xlink:href="#DejaVuSans-33"/>
       <use xlink:href="#DejaVuSans-31" x="63.623047"/>
       <use xlink:href="#DejaVuSans-35" x="127.246094"/>
       <use xlink:href="#DejaVuSans-b0" x="190.869141"/>
      </g>
     </g>
    </g>
   </g>
   <g id="matplotlib.axis_2">
    <g id="ytick_1">
     <g id="line2d_9">
      <path d="M 346.375543 301.710313 
C 346.375543 297.547928 345.555644 293.426017 343.962768 289.580475 
C 342.369893 285.734933 340.035018 282.240546 337.091767 279.297295 
C 334.148517 276.354045 330.65413 274.01917 326.808588 272.426294 
C 322.963045 270.833419 318.841135 270.013519 314.67875 270.013519 
C 310.516365 270.013519 306.394455 270.833419 302.548912 272.426294 
C 298.70337 274.01917 295.208983 276.354045 292.265733 279.297295 
C 289.322482 282.240546 286.987607 285.734933 285.394732 289.580475 
C 283.801856 293.426017 282.981957 297.547928 282.981957 301.710313 
C 282.981957 305.872697 283.801856 309.994608 285.394732 313.84015 
C 286.987607 317.685692 289.322482 321.180079 292.265733 324.12333 
C 295.208983 327.06658 298.70337 329.401455 302.548912 330.994331 
C 306.394455 332.587206 310.516365 333.407106 314.67875 333.407106 
C 318.841135 333.407106 322.963045 332.587206 326.808588 330.994331 
C 330.65413 329.401455 334.148517 327.06658 337.091767 324.12333 
C 340.035018 321.180079 342.369893 317.685692 343.962768 313.84015 
C 345.555644 309.994608 346.375543 305.872697 346.375543 301.710313 
" clip-path="url(#pde734c4615)" style="fill: none; stroke: #b0b0b0; stroke-width: 0.8; stroke-linecap: square"/>
     </g>
    </g>
    <g id="ytick_2">
     <g id="line2d_10">
      <path d="M 378.072336 301.710313 
C 378.072336 293.385543 376.432538 285.141722 373.246787 277.450637 
C 370.061035 269.759553 365.391285 262.770779 359.504785 256.884278 
C 353.618284 250.997777 346.629509 246.328027 338.938425 243.142276 
C 331.247341 239.956525 323.003519 238.316726 314.67875 238.316726 
C 306.353981 238.316726 298.110159 239.956525 290.419075 243.142276 
C 282.727991 246.328027 275.739216 250.997777 269.852715 256.884278 
C 263.966215 262.770779 259.296465 269.759553 256.110713 277.450637 
C 252.924962 285.141722 251.285164 293.385543 251.285164 301.710313 
C 251.285164 310.035082 252.924962 318.278903 256.110713 325.969988 
C 259.296465 333.661072 263.966215 340.649846 269.852715 346.536347 
C 275.739216 352.422848 282.727991 357.092598 290.419075 360.278349 
C 298.110159 363.4641 306.353981 365.103899 314.67875 365.103899 
C 323.003519 365.103899 331.247341 363.4641 338.938425 360.278349 
C 346.629509 357.092598 353.618284 352.422848 359.504785 346.536347 
C 365.391285 340.649846 370.061035 333.661072 373.246787 325.969988 
C 376.432538 318.278903 378.072336 310.035082 378.072336 301.710313 
" clip-path="url(#pde734c4615)" style="fill: none; stroke: #b0b0b0; stroke-width: 0.8; stroke-linecap: square"/>
     </g>
    </g>
    <g id="ytick_3">
     <g id="line2d_11">
      <path d="M 409.769129 301.710313 
C 409.769129 289.223158 407.309432 276.857426 402.530805 265.3208 
C 397.752178 253.784174 390.747553 243.301012 381.917802 234.471261 
C 373.08805 225.641509 362.604889 218.636885 351.068263 213.858258 
C 339.531636 209.079631 327.165904 206.619933 314.67875 206.619933 
C 302.191596 206.619933 289.825864 209.079631 278.289237 213.858258 
C 266.752611 218.636885 256.26945 225.641509 247.439698 234.471261 
C 238.609947 243.301012 231.605322 253.784174 226.826695 265.3208 
C 222.048068 276.857426 219.588371 289.223158 219.588371 301.710313 
C 219.588371 314.197467 222.048068 326.563199 226.826695 338.099825 
C 231.605322 349.636451 238.609947 360.119613 247.439698 368.949364 
C 256.26945 377.779116 266.752611 384.78374 278.289237 389.562367 
C 289.825864 394.340994 302.191596 396.800692 314.67875 396.800692 
C 327.165904 396.800692 339.531636 394.340994 351.068263 389.562367 
C 362.604889 384.78374 373.08805 377.779116 381.917802 368.949364 
C 390.747553 360.119613 397.752178 349.636451 402.530805 338.099825 
C 407.309432 326.563199 409.769129 314.197467 409.769129 301.710313 
" clip-path="url(#pde734c4615)" style="fill: none; stroke: #b0b0b0; stroke-width: 0.8; stroke-linecap: square"/>
     </g>
    </g>
    <g id="ytick_4">
     <g id="line2d_12">
      <path d="M 441.465922 301.710313 
C 441.465922 285.060774 438.186326 268.573131 431.814823 253.190962 
C 425.443321 237.808794 416.103821 223.831245 404.330819 212.058243 
C 392.557817 200.285242 378.580268 190.945742 363.1981 184.574239 
C 347.815932 178.202737 331.328289 174.92314 314.67875 174.92314 
C 298.029211 174.92314 281.541568 178.202737 266.1594 184.574239 
C 250.777232 190.945742 236.799683 200.285242 225.026681 212.058243 
C 213.253679 223.831245 203.914179 237.808794 197.542677 253.190962 
C 191.171174 268.573131 187.891578 285.060774 187.891578 301.710313 
C 187.891578 318.359851 191.171174 334.847494 197.542677 350.229663 
C 203.914179 365.611831 213.253679 379.58938 225.026681 391.362382 
C 236.799683 403.135383 250.777232 412.474883 266.1594 418.846386 
C 281.541568 425.217888 298.029211 428.497485 314.67875 428.497485 
C 331.328289 428.497485 347.815932 425.217888 363.1981 418.846386 
C 378.580268 412.474883 392.557817 403.135383 404.330819 391.362382 
C 416.103821 379.58938 425.443321 365.611831 431.814823 350.229663 
C 438.186326 334.847494 441.465922 318.359851 441.465922 301.710313 
" clip-path="url(#pde734c4615)" style="fill: none; stroke: #b0b0b0; stroke-width: 0.8; stroke-linecap: square"/>
     </g>
    </g>
    <g id="ytick_5">
     <g id="line2d_13">
      <path d="M 473.162715 301.710313 
C 473.162715 280.898389 469.06322 260.288835 461.098842 241.061125 
C 453.134463 221.833415 441.460089 204.361478 426.743836 189.645226 
C 412.027584 174.928974 394.555648 163.254599 375.327938 155.290221 
C 356.100227 147.325843 335.490674 143.226347 314.67875 143.226347 
C 293.866826 143.226347 273.257273 147.325843 254.029562 155.290221 
C 234.801852 163.254599 217.329916 174.928974 202.613664 189.645226 
C 187.897411 204.361478 176.223037 221.833415 168.258658 241.061125 
C 160.29428 260.288835 156.194785 280.898389 156.194785 301.710313 
C 156.194785 322.522236 160.29428 343.13179 168.258658 362.3595 
C 176.223037 381.58721 187.897411 399.059147 202.613664 413.775399 
C 217.329916 428.491651 234.801852 440.166026 254.029562 448.130404 
C 273.257273 456.094782 293.866826 460.194278 314.67875 460.194278 
C 335.490674 460.194278 356.100227 456.094782 375.327938 448.130404 
C 394.555648 440.166026 412.027584 428.491651 426.743836 413.775399 
C 441.460089 399.059147 453.134463 381.58721 461.098842 362.3595 
C 469.06322 343.13179 473.162715 322.522236 473.162715 301.710313 
" clip-path="url(#pde734c4615)" style="fill: none; stroke: #b0b0b0; stroke-width: 0.8; stroke-linecap: square"/>
     </g>
    </g>
    <g id="ytick_6">
     <g id="line2d_14">
      <path d="M 504.859508 301.710313 
C 504.859508 276.736004 499.940114 252.00454 490.38286 228.931287 
C 480.825606 205.858035 466.816356 184.891712 449.156854 167.232209 
C 431.497351 149.572706 410.531028 135.563457 387.457775 126.006203 
C 364.384523 116.448949 339.653058 111.529554 314.67875 111.529554 
C 289.704442 111.529554 264.972977 116.448949 241.899725 126.006203 
C 218.826472 135.563457 197.860149 149.572706 180.200646 167.232209 
C 162.541144 184.891712 148.531894 205.858035 138.97464 228.931287 
C 129.417386 252.00454 124.497992 276.736004 124.497992 301.710313 
C 124.497992 326.684621 129.417386 351.416085 138.97464 374.489338 
C 148.531894 397.56259 162.541144 418.528913 180.200646 436.188416 
C 197.860149 453.847919 218.826472 467.857168 241.899725 477.414422 
C 264.972977 486.971676 289.704442 491.891071 314.67875 491.891071 
C 339.653058 491.891071 364.384523 486.971676 387.457775 477.414422 
C 410.531028 467.857168 431.497351 453.847919 449.156854 436.188416 
C 466.816356 418.528913 480.825606 397.56259 490.38286 374.489338 
C 499.940114 351.416085 504.859508 326.684621 504.859508 301.710313 
" clip-path="url(#pde734c4615)" style="fill: none; stroke: #b0b0b0; stroke-width: 0.8; stroke-linecap: square"/>
     </g>
    </g>
    <g id="ytick_7">
     <g id="line2d_15">
      <path d="M 536.556301 301.710313 
C 536.556301 272.573619 530.817008 243.720244 519.666878 216.80145 
C 508.516748 189.882655 492.172624 165.421945 471.569871 144.819192 
C 450.967118 124.216438 426.506407 107.872314 399.587613 96.722184 
C 372.668818 85.572055 343.815443 79.832761 314.67875 79.832761 
C 285.542057 79.832761 256.688682 85.572055 229.769887 96.722184 
C 202.851093 107.872314 178.390382 124.216438 157.787629 144.819192 
C 137.184876 165.421945 120.840752 189.882655 109.690622 216.80145 
C 98.540492 243.720244 92.801199 272.573619 92.801199 301.710313 
C 92.801199 330.847006 98.540492 359.700381 109.690622 386.619175 
C 120.840752 413.53797 137.184876 437.99868 157.787629 458.601433 
C 178.390382 479.204187 202.851093 495.548311 229.769887 506.698441 
C 256.688682 517.84857 285.542057 523.587864 314.67875 523.587864 
C 343.815443 523.587864 372.668818 517.84857 399.587613 506.698441 
C 426.506407 495.548311 450.967118 479.204187 471.569871 458.601433 
C 492.172624 437.99868 508.516748 413.53797 519.666878 386.619175 
C 530.817008 359.700381 536.556301 330.847006 536.556301 301.710313 
" clip-path="url(#pde734c4615)" style="fill: none; stroke: #b0b0b0; stroke-width: 0.8; stroke-linecap: square"/>
     </g>
    </g>
    <g id="ytick_8">
     <g id="line2d_16">
      <path d="M 568.253094 301.710313 
C 568.253094 268.411235 561.693902 235.435949 548.950896 204.671612 
C 536.207891 173.907276 517.528892 145.952178 493.982888 122.406174 
C 470.436885 98.860171 442.481787 80.181171 411.71745 67.438166 
C 380.953114 54.695161 347.977828 48.135968 314.67875 48.135968 
C 281.379672 48.135968 248.404386 54.695161 217.64005 67.438166 
C 186.875713 80.181171 158.920615 98.860171 135.374612 122.406174 
C 111.828608 145.952178 93.149609 173.907276 80.406604 204.671612 
C 67.663598 235.435949 61.104406 268.411235 61.104406 301.710313 
C 61.104406 335.00939 67.663598 367.984676 80.406604 398.749013 
C 93.149609 429.513349 111.828608 457.468447 135.374612 481.014451 
C 158.920615 504.560454 186.875713 523.239454 217.64005 535.982459 
C 248.404386 548.725464 281.379672 555.284657 314.67875 555.284657 
C 347.977828 555.284657 380.953114 548.725464 411.71745 535.982459 
C 442.481787 523.239454 470.436885 504.560454 493.982888 481.014451 
C 517.528892 457.468447 536.207891 429.513349 548.950896 398.749013 
C 561.693902 367.984676 568.253094 335.00939 568.253094 301.710313 
" clip-path="url(#pde734c4615)" style="fill: none; stroke: #b0b0b0; stroke-width: 0.8; stroke-linecap: square"/>
     </g>
    </g>
   </g>
   <g id="patch_3">
    <path d="M 586.47875 301.710313 
C 586.47875 266.017864 579.448116 230.672479 565.789207 197.696956 
C 552.130298 164.721433 532.108746 134.757062 506.870373 109.518689 
C 481.632 84.280317 451.66763 64.258764 418.692107 50.599856 
C 385.716584 36.940947 350.371199 29.910313 314.67875 29.910313 
C 278.986301 29.910313 243.640916 36.940947 210.665393 50.599856 
C 177.68987 64.258764 147.7255 84.280317 122.487127 109.518689 
C 97.248754 134.757062 77.227202 164.721433 63.568293 197.696956 
C 49.909384 230.672479 42.87875 266.017864 42.87875 301.710313 
C 42.87875 337.402761 49.909384 372.748146 63.568293 405.723669 
C 77.227202 438.699192 97.248754 468.663563 122.487127 493.901936 
C 147.7255 519.140308 177.68987 539.161861 210.665393 552.820769 
C 243.640916 566.479678 278.986301 573.510313 314.67875 573.510313 
C 350.371199 573.510313 385.716584 566.479678 418.692107 552.820769 
C 451.66763 539.161861 481.632 519.140308 506.870373 493.901936 
C 532.108746 468.663563 552.130298 438.699192 565.789207 405.723669 
C 579.448116 372.748146 586.47875 337.402761 586.47875 301.710313 
" style="fill: none; stroke: #000000; stroke-width: 0.8; stroke-linejoin: miter; stroke-linecap: square"/>
   </g>
   <g id="legend_1">
    <g id="patch_4">
     <path d="M 274.79075 307.146313 
L 483.16325 307.146313 
Q 486.76325 307.146313 486.76325 303.546312 
L 486.76325 252.505063 
Q 486.76325 248.905063 483.16325 248.905063 
L 274.79075 248.905063 
Q 271.19075 248.905063 271.19075 252.505063 
L 271.19075 303.546312 
Q 271.19075 307.146313 274.79075 307.146313 
z
" style="fill: #ffffff; opacity: 0.8; stroke: #cccccc; stroke-linejoin: miter"/>
    </g>
    <g id="PathCollection_4">
     <g>
      <use xlink:href="#m6278ebc151" x="296.39075" y="265.05725" style="fill: #004e98; fill-opacity: 0.5; stroke: #004e98; stroke-opacity: 0.5"/>
     </g>
    </g>
    <g id="text_9">
     <!-- With Information -->
     <g transform="translate(328.79075 269.78225)scale(0.18 -0.18)">
      <defs>
       <path id="DejaVuSans-57" d="M 213 4666 
L 850 4666 
L 1831 722 
L 2809 4666 
L 3519 4666 
L 4500 722 
L 5478 4666 
L 6119 4666 
L 4947 0 
L 4153 0 
L 3169 4050 
L 2175 0 
L 1381 0 
L 213 4666 
z
" transform="scale(0.015625)"/>
       <path id="DejaVuSans-69" d="M 603 3500 
L 1178 3500 
L 1178 0 
L 603 0 
L 603 3500 
z
M 603 4863 
L 1178 4863 
L 1178 4134 
L 603 4134 
L 603 4863 
z
" transform="scale(0.015625)"/>
       <path id="DejaVuSans-74" d="M 1172 4494 
L 1172 3500 
L 2356 3500 
L 2356 3053 
L 1172 3053 
L 1172 1153 
Q 1172 725 1289 603 
Q 1406 481 1766 481 
L 2356 481 
L 2356 0 
L 1766 0 
Q 1100 0 847 248 
Q 594 497 594 1153 
L 594 3053 
L 172 3053 
L 172 3500 
L 594 3500 
L 594 4494 
L 1172 4494 
z
" transform="scale(0.015625)"/>
       <path id="DejaVuSans-68" d="M 3513 2113 
L 3513 0 
L 2938 0 
L 2938 2094 
Q 2938 2591 2744 2837 
Q 2550 3084 2163 3084 
Q 1697 3084 1428 2787 
Q 1159 2491 1159 1978 
L 1159 0 
L 581 0 
L 581 4863 
L 1159 4863 
L 1159 2956 
Q 1366 3272 1645 3428 
Q 1925 3584 2291 3584 
Q 2894 3584 3203 3211 
Q 3513 2838 3513 2113 
z
" transform="scale(0.015625)"/>
       <path id="DejaVuSans-20" transform="scale(0.015625)"/>
       <path id="DejaVuSans-49" d="M 628 4666 
L 1259 4666 
L 1259 0 
L 628 0 
L 628 4666 
z
" transform="scale(0.015625)"/>
       <path id="DejaVuSans-6e" d="M 3513 2113 
L 3513 0 
L 2938 0 
L 2938 2094 
Q 2938 2591 2744 2837 
Q 2550 3084 2163 3084 
Q 1697 3084 1428 2787 
Q 1159 2491 1159 1978 
L 1159 0 
L 581 0 
L 581 3500 
L 1159 3500 
L 1159 2956 
Q 1366 3272 1645 3428 
Q 1925 3584 2291 3584 
Q 2894 3584 3203 3211 
Q 3513 2838 3513 2113 
z
" transform="scale(0.015625)"/>
       <path id="DejaVuSans-66" d="M 2375 4863 
L 2375 4384 
L 1825 4384 
Q 1516 4384 1395 4259 
Q 1275 4134 1275 3809 
L 1275 3500 
L 2222 3500 
L 2222 3053 
L 1275 3053 
L 1275 0 
L 697 0 
L 697 3053 
L 147 3053 
L 147 3500 
L 697 3500 
L 697 3744 
Q 697 4328 969 4595 
Q 1241 4863 1831 4863 
L 2375 4863 
z
" transform="scale(0.015625)"/>
       <path id="DejaVuSans-6f" d="M 1959 3097 
Q 1497 3097 1228 2736 
Q 959 2375 959 1747 
Q 959 1119 1226 758 
Q 1494 397 1959 397 
Q 2419 397 2687 759 
Q 2956 1122 2956 1747 
Q 2956 2369 2687 2733 
Q 2419 3097 1959 3097 
z
M 1959 3584 
Q 2709 3584 3137 3096 
Q 3566 2609 3566 1747 
Q 3566 888 3137 398 
Q 2709 -91 1959 -91 
Q 1206 -91 779 398 
Q 353 888 353 1747 
Q 353 2609 779 3096 
Q 1206 3584 1959 3584 
z
" transform="scale(0.015625)"/>
       <path id="DejaVuSans-72" d="M 2631 2963 
Q 2534 3019 2420 3045 
Q 2306 3072 2169 3072 
Q 1681 3072 1420 2755 
Q 1159 2438 1159 1844 
L 1159 0 
L 581 0 
L 581 3500 
L 1159 3500 
L 1159 2956 
Q 1341 3275 1631 3429 
Q 1922 3584 2338 3584 
Q 2397 3584 2469 3576 
Q 2541 3569 2628 3553 
L 2631 2963 
z
" transform="scale(0.015625)"/>
       <path id="DejaVuSans-6d" d="M 3328 2828 
Q 3544 3216 3844 3400 
Q 4144 3584 4550 3584 
Q 5097 3584 5394 3201 
Q 5691 2819 5691 2113 
L 5691 0 
L 5113 0 
L 5113 2094 
Q 5113 2597 4934 2840 
Q 4756 3084 4391 3084 
Q 3944 3084 3684 2787 
Q 3425 2491 3425 1978 
L 3425 0 
L 2847 0 
L 2847 2094 
Q 2847 2600 2669 2842 
Q 2491 3084 2119 3084 
Q 1678 3084 1418 2786 
Q 1159 2488 1159 1978 
L 1159 0 
L 581 0 
L 581 3500 
L 1159 3500 
L 1159 2956 
Q 1356 3278 1631 3431 
Q 1906 3584 2284 3584 
Q 2666 3584 2933 3390 
Q 3200 3197 3328 2828 
z
" transform="scale(0.015625)"/>
       <path id="DejaVuSans-61" d="M 2194 1759 
Q 1497 1759 1228 1600 
Q 959 1441 959 1056 
Q 959 750 1161 570 
Q 1363 391 1709 391 
Q 2188 391 2477 730 
Q 2766 1069 2766 1631 
L 2766 1759 
L 2194 1759 
z
M 3341 1997 
L 3341 0 
L 2766 0 
L 2766 531 
Q 2569 213 2275 61 
Q 1981 -91 1556 -91 
Q 1019 -91 701 211 
Q 384 513 384 1019 
Q 384 1609 779 1909 
Q 1175 2209 1959 2209 
L 2766 2209 
L 2766 2266 
Q 2766 2663 2505 2880 
Q 2244 3097 1772 3097 
Q 1472 3097 1187 3025 
Q 903 2953 641 2809 
L 641 3341 
Q 956 3463 1253 3523 
Q 1550 3584 1831 3584 
Q 2591 3584 2966 3190 
Q 3341 2797 3341 1997 
z
" transform="scale(0.015625)"/>
      </defs>
      <use xlink:href="#DejaVuSans-57"/>
      <use xlink:href="#DejaVuSans-69" x="96.626953"/>
      <use xlink:href="#DejaVuSans-74" x="124.410156"/>
      <use xlink:href="#DejaVuSans-68" x="163.619141"/>
      <use xlink:href="#DejaVuSans-20" x="226.998047"/>
      <use xlink:href="#DejaVuSans-49" x="258.785156"/>
      <use xlink:href="#DejaVuSans-6e" x="288.277344"/>
      <use xlink:href="#DejaVuSans-66" x="351.65625"/>
      <use xlink:href="#DejaVuSans-6f" x="386.861328"/>
      <use xlink:href="#DejaVuSans-72" x="448.042969"/>
      <use xlink:href="#DejaVuSans-6d" x="487.40625"/>
      <use xlink:href="#DejaVuSans-61" x="584.818359"/>
      <use xlink:href="#DejaVuSans-74" x="646.097656"/>
      <use xlink:href="#DejaVuSans-69" x="685.306641"/>
      <use xlink:href="#DejaVuSans-6f" x="713.089844"/>
      <use xlink:href="#DejaVuSans-6e" x="774.271484"/>
     </g>
    </g>
    <g id="PathCollection_5">
     <g>
      <use xlink:href="#m0d57a22865" x="296.39075" y="291.477875" style="fill: #ea0f0b; fill-opacity: 0.5; stroke: #ea0f0b; stroke-opacity: 0.5"/>
     </g>
    </g>
    <g id="text_10">
     <!-- No Information -->
     <g transform="translate(328.79075 296.202875)scale(0.18 -0.18)">
      <defs>
       <path id="DejaVuSans-4e" d="M 628 4666 
L 1478 4666 
L 3547 763 
L 3547 4666 
L 4159 4666 
L 4159 0 
L 3309 0 
L 1241 3903 
L 1241 0 
L 628 0 
L 628 4666 
z
" transform="scale(0.015625)"/>
      </defs>
      <use xlink:href="#DejaVuSans-4e"/>
      <use xlink:href="#DejaVuSans-6f" x="74.804688"/>
      <use xlink:href="#DejaVuSans-20" x="135.986328"/>
      <use xlink:href="#DejaVuSans-49" x="167.773438"/>
      <use xlink:href="#DejaVuSans-6e" x="197.265625"/>
      <use xlink:href="#DejaVuSans-66" x="260.644531"/>
      <use xlink:href="#DejaVuSans-6f" x="295.849609"/>
      <use xlink:href="#DejaVuSans-72" x="357.03125"/>
      <use xlink:href="#DejaVuSans-6d" x="396.394531"/>
      <use xlink:href="#DejaVuSans-61" x="493.806641"/>
      <use xlink:href="#DejaVuSans-74" x="555.085938"/>
      <use xlink:href="#DejaVuSans-69" x="594.294922"/>
      <use xlink:href="#DejaVuSans-6f" x="622.078125"/>
      <use xlink:href="#DejaVuSans-6e" x="683.259766"/>
     </g>
    </g>
   </g>
  </g>
 </g>
 <defs>
  <clipPath id="pde734c4615">
   <path d="M 586.47875 301.710313 
C 586.47875 266.017864 579.448116 230.672479 565.789207 197.696956 
C 552.130298 164.721433 532.108746 134.757062 506.870373 109.518689 
C 481.632 84.280317 451.66763 64.258764 418.692107 50.599856 
C 385.716584 36.940947 350.371199 29.910313 314.67875 29.910313 
C 278.986301 29.910313 243.640916 36.940947 210.665393 50.599856 
C 177.68987 64.258764 147.7255 84.280317 122.487127 109.518689 
C 97.248754 134.757062 77.227202 164.721433 63.568293 197.696956 
C 49.909384 230.672479 42.87875 266.017864 42.87875 301.710312 
C 42.87875 337.402761 49.909384 372.748146 63.568293 405.723669 
C 77.227202 438.699192 97.248754 468.663563 122.487127 493.901936 
C 147.7255 519.140308 177.68987 539.161861 210.665393 552.820769 
C 243.640916 566.479678 278.986301 573.510313 314.67875 573.510313 
C 350.371199 573.510313 385.716584 566.479678 418.692107 552.820769 
C 451.66763 539.161861 481.632 519.140308 506.870373 493.901936 
C 532.108746 468.663563 552.130298 438.699192 565.789207 405.723669 
C 579.448116 372.748146 586.47875 337.402761 586.47875 301.710313 
M 314.67875 301.710313 
C 314.67875 301.710313 314.67875 301.710313 314.67875 301.710313 
C 314.67875 301.710313 314.67875 301.710313 314.67875 301.710313 
C 314.67875 301.710313 314.67875 301.710313 314.67875 301.710313 
C 314.67875 301.710313 314.67875 301.710313 314.67875 301.710313 
C 314.67875 301.710313 314.67875 301.710313 314.67875 301.710313 
C 314.67875 301.710313 314.67875 301.710313 314.67875 301.710313 
C 314.67875 301.710313 314.67875 301.710313 314.67875 301.710313 
C 314.67875 301.710313 314.67875 301.710313 314.67875 301.710313 
C 314.67875 301.710313 314.67875 301.710313 314.67875 301.710313 
C 314.67875 301.710313 314.67875 301.710313 314.67875 301.710313 
C 314.67875 301.710313 314.67875 301.710313 314.67875 301.710313 
C 314.67875 301.710313 314.67875 301.710313 314.67875 301.710313 
C 314.67875 301.710313 314.67875 301.710313 314.67875 301.710313 
C 314.67875 301.710313 314.67875 301.710313 314.67875 301.710313 
C 314.67875 301.710313 314.67875 301.710313 314.67875 301.710313 
C 314.67875 301.710313 314.67875 301.710313 314.67875 301.710313 
M 586.47875 301.710313 
z
"/>
  </clipPath>
 </defs>
</svg>
