<?xml version="1.0" encoding="utf-8" standalone="no"?>
<!DOCTYPE svg PUBLIC "-//W3C//DTD SVG 1.1//EN"
  "http://www.w3.org/Graphics/SVG/1.1/DTD/svg11.dtd">
<svg xmlns:xlink="http://www.w3.org/1999/xlink" width="575.9pt" height="344.06pt" viewBox="0 0 575.9 344.06" xmlns="http://www.w3.org/2000/svg" version="1.1">
 <metadata>
  <rdf:RDF xmlns:dc="http://purl.org/dc/elements/1.1/" xmlns:cc="http://creativecommons.org/ns#" xmlns:rdf="http://www.w3.org/1999/02/22-rdf-syntax-ns#">
   <cc:Work>
    <dc:type rdf:resource="http://purl.org/dc/dcmitype/StillImage"/>
    <dc:date>2022-05-04T11:56:54.089161</dc:date>
    <dc:format>image/svg+xml</dc:format>
    <dc:creator>
     <cc:Agent>
      <dc:title>Matplotlib v3.5.0, https://matplotlib.org/</dc:title>
     </cc:Agent>
    </dc:creator>
   </cc:Work>
  </rdf:RDF>
 </metadata>
 <defs>
  <style type="text/css">*{stroke-linejoin: round; stroke-linecap: butt}</style>
 </defs>
 <g id="figure_1">
  <g id="patch_1">
   <path d="M 0 344.06 
L 575.9 344.06 
L 575.9 0 
L 0 0 
L 0 344.06 
z
" style="fill: none"/>
  </g>
  <g id="axes_1">
   <g id="patch_2">
    <path d="M 10.7 333.36 
L 568.7 333.36 
L 568.7 7.2 
L 10.7 7.2 
z
" style="fill: #ffffff"/>
   </g>
   <g id="matplotlib.axis_1"/>
   <g id="matplotlib.axis_2"/>
   <g id="line2d_1">
    <path d="M 36.063636 170.28 
L 36.74914 185.798379 
L 37.434644 182.80276 
L 38.120147 186.35111 
L 38.805651 185.722769 
L 39.491155 177.735799 
L 40.176658 182.480883 
L 40.862162 184.234095 
L 41.547666 171.881702 
L 42.23317 166.425704 
L 42.918673 153.893427 
L 43.604177 162.006526 
L 44.289681 147.381756 
L 44.975184 148.355568 
L 45.660688 158.732368 
L 46.346192 160.292663 
L 47.031695 175.219602 
L 47.717199 185.941828 
L 49.088206 172.526312 
L 49.77371 160.035625 
L 50.459214 166.144456 
L 51.144717 154.792448 
L 51.830221 140.817555 
L 52.515725 137.772089 
L 53.201229 138.075534 
L 53.886732 152.187293 
L 54.572236 141.995632 
L 55.25774 136.087901 
L 55.943243 135.017106 
L 56.628747 132.694676 
L 57.314251 117.906574 
L 57.999754 133.41604 
L 59.370762 113.806324 
L 60.056265 129.238491 
L 60.741769 140.186015 
L 61.427273 153.491888 
L 62.112776 143.638813 
L 62.79828 145.223393 
L 63.483784 142.467115 
L 64.169287 132.43653 
L 64.854791 126.702413 
L 65.540295 115.140373 
L 66.911302 101.609914 
L 67.596806 89.654984 
L 68.28231 87.94095 
L 68.967813 74.196606 
L 69.653317 89.705483 
L 70.338821 90.049126 
L 71.024324 74.864858 
L 71.709828 88.462818 
L 72.395332 77.170024 
L 73.080835 81.476786 
L 73.766339 87.454087 
L 74.451843 97.850339 
L 75.137346 110.424368 
L 75.82285 114.208417 
L 76.508354 117.161889 
L 77.193857 124.355952 
L 77.879361 126.351168 
L 78.564865 129.468693 
L 79.250369 117.190372 
L 79.935872 100.993385 
L 80.621376 93.734638 
L 81.30688 91.957818 
L 81.992383 100.317303 
L 82.677887 85.060942 
L 83.363391 87.028161 
L 84.048894 73.190205 
L 84.734398 75.35981 
L 85.419902 79.455077 
L 86.105405 88.239322 
L 86.790909 86.012229 
L 87.476413 74.433945 
L 88.161916 71.552856 
L 88.84742 62.798323 
L 89.532924 73.387079 
L 90.218428 66.191425 
L 90.903931 62.371367 
L 91.589435 51.833603 
L 92.274939 44.2044 
L 92.960442 41.059425 
L 93.645946 28.803592 
L 94.33145 34.451541 
L 95.702457 61.161111 
L 96.387961 54.289427 
L 97.073464 52.984994 
L 97.758968 58.712202 
L 98.444472 50.647154 
L 99.129975 40.034832 
L 99.815479 54.357545 
L 100.500983 57.827034 
L 101.186486 62.965113 
L 101.87199 50.61875 
L 102.557494 60.006699 
L 103.242998 49.596555 
L 103.928501 35.851985 
L 104.614005 25.135208 
L 105.299509 38.662603 
L 105.985012 46.461336 
L 106.670516 38.455781 
L 107.35602 34.040319 
L 108.041523 42.871938 
L 108.727027 40.964064 
L 109.412531 37.337639 
L 110.098034 41.172137 
L 110.783538 51.056527 
L 111.469042 45.068826 
L 112.154545 42.014961 
L 112.840049 35.298992 
L 113.525553 50.408975 
L 114.211057 60.331229 
L 114.89656 63.289635 
L 115.582064 54.387918 
L 116.267568 60.900662 
L 116.953071 73.542769 
L 117.638575 75.628523 
L 118.324079 73.275327 
L 119.009582 64.05038 
L 119.695086 49.858816 
L 120.38059 61.565621 
L 121.066093 52.47502 
L 121.751597 59.759031 
L 122.437101 51.242547 
L 123.122604 56.274492 
L 124.493612 25.871827 
L 125.864619 3.7943 
L 125.864619 3.7943 
" clip-path="url(#p411b2f5f9e)" style="fill: none; stroke: #0000ff; stroke-width: 1.5; stroke-linecap: square"/>
   </g>
   <g id="line2d_2">
    <path d="M 36.063636 137.664 
L 36.74914 132.776862 
L 37.434644 139.08469 
L 38.120147 140.983034 
L 38.805651 138.538274 
L 39.491155 146.644713 
L 40.176658 146.390522 
L 40.862162 130.793097 
L 41.547666 140.278451 
L 42.23317 145.621833 
L 42.918673 129.839535 
L 43.604177 131.442024 
L 44.289681 131.991751 
L 44.975184 134.040001 
L 45.660688 143.921263 
L 46.346192 131.493977 
L 47.031695 147.249186 
L 47.717199 135.433353 
L 49.088206 159.575219 
L 49.77371 147.62513 
L 51.144717 138.482668 
L 51.830221 122.327115 
L 52.515725 114.723075 
L 53.201229 105.719792 
L 53.886732 111.059376 
L 54.572236 96.429714 
L 55.25774 95.02645 
L 55.943243 93.115762 
L 56.628747 80.315685 
L 57.314251 84.034073 
L 57.999754 72.749932 
L 58.685258 82.536285 
L 59.370762 68.57755 
L 60.056265 81.289373 
L 60.741769 83.128083 
L 61.427273 67.817205 
L 62.79828 92.292279 
L 63.483784 86.964816 
L 64.169287 90.891479 
L 64.854791 88.288052 
L 66.225799 113.491689 
L 66.911302 104.932301 
L 67.596806 98.050516 
L 68.28231 106.522216 
L 68.967813 108.604166 
L 69.653317 123.062934 
L 70.338821 116.078534 
L 71.024324 119.614222 
L 71.709828 114.766528 
L 72.395332 112.61527 
L 73.080835 126.217025 
L 73.766339 130.014802 
L 74.451843 145.40353 
L 75.137346 138.389389 
L 75.82285 140.623515 
L 76.508354 153.923905 
L 77.193857 161.805039 
L 77.879361 156.191593 
L 78.564865 164.139767 
L 79.250369 162.313796 
L 79.935872 158.0759 
L 80.621376 144.46626 
L 81.30688 159.319509 
L 81.992383 163.724993 
L 82.677887 160.057144 
L 83.363391 148.914852 
L 84.048894 161.643871 
L 84.734398 152.01915 
L 85.419902 156.18068 
L 86.105405 148.097969 
L 86.790909 162.560356 
L 87.476413 154.599436 
L 88.161916 142.006075 
L 88.84742 144.057075 
L 89.532924 153.32095 
L 90.218428 139.103801 
L 90.903931 154.591906 
L 92.960442 191.763987 
L 93.645946 184.944284 
L 94.33145 201.230924 
L 95.016953 207.707094 
L 95.702457 209.423999 
L 96.387961 217.128004 
L 97.073464 232.742366 
L 97.758968 242.064293 
L 98.444472 256.193285 
L 99.129975 255.396101 
L 99.815479 257.921117 
L 100.500983 257.69857 
L 103.242998 204.872163 
L 103.928501 195.404471 
L 104.614005 189.310239 
L 105.299509 195.525584 
L 105.985012 193.691904 
L 107.35602 163.462853 
L 108.727027 182.496088 
L 109.412531 180.814981 
L 110.098034 192.403457 
L 110.783538 202.078599 
L 111.469042 196.481076 
L 112.154545 208.340841 
L 112.840049 203.299039 
L 113.525553 190.848897 
L 114.211057 182.599056 
L 114.89656 172.958551 
L 115.582064 176.711982 
L 116.267568 190.012938 
L 116.953071 188.408822 
L 117.638575 180.353297 
L 118.324079 193.775804 
L 119.009582 180.292308 
L 119.695086 169.145566 
L 120.38059 177.014525 
L 121.066093 175.896158 
L 121.751597 178.1595 
L 122.437101 171.915604 
L 123.122604 178.177212 
L 123.808108 180.997335 
L 124.493612 177.732665 
L 125.179115 183.666623 
L 125.864619 192.520879 
L 126.550123 204.880843 
L 127.235627 196.15731 
L 127.92113 207.889439 
L 128.606634 209.356828 
L 129.292138 214.648608 
L 129.977641 226.952851 
L 130.663145 237.116882 
L 131.348649 223.007456 
L 132.034152 219.279907 
L 132.719656 213.787491 
L 134.090663 198.652884 
L 134.776167 183.578646 
L 135.461671 184.186602 
L 136.147174 184.079946 
L 136.832678 184.743118 
L 137.518182 188.59786 
L 138.203686 191.461823 
L 138.889189 206.120507 
L 139.574693 204.51965 
L 140.260197 215.814671 
L 140.9457 200.605046 
L 141.631204 206.891885 
L 142.316708 221.098389 
L 143.002211 220.585496 
L 143.687715 222.102554 
L 145.058722 238.079637 
L 145.744226 229.97735 
L 146.42973 234.354666 
L 147.115233 240.275148 
L 147.800737 251.634525 
L 148.486241 237.87077 
L 149.171744 227.879705 
L 149.857248 212.347998 
L 150.542752 215.349095 
L 151.228256 226.93845 
L 152.599263 200.564913 
L 153.284767 189.860601 
L 153.97027 182.194566 
L 154.655774 195.791387 
L 155.341278 204.645353 
L 156.026781 197.274635 
L 156.712285 203.786631 
L 157.397789 206.664819 
L 158.083292 204.575547 
L 158.768796 215.666975 
L 159.4543 209.340092 
L 160.139803 197.407253 
L 162.196314 241.338588 
L 162.881818 233.743922 
L 163.567322 233.815286 
L 164.252826 219.756869 
L 164.938329 233.049662 
L 165.623833 219.928153 
L 166.99484 246.256308 
L 167.680344 236.98665 
L 168.365848 243.946028 
L 169.051351 244.566686 
L 169.736855 228.672396 
L 170.422359 236.723914 
L 171.107862 223.054114 
L 171.793366 219.641595 
L 172.47887 225.449949 
L 173.849877 254.066847 
L 174.535381 267.976124 
L 175.220885 252.102341 
L 175.906388 266.313479 
L 176.591892 257.743846 
L 177.277396 246.115619 
L 177.962899 246.447709 
L 178.648403 234.736029 
L 179.333907 247.036553 
L 180.01941 231.58923 
L 180.704914 242.831777 
L 181.390418 231.703255 
L 182.075921 216.18487 
L 182.761425 204.614359 
L 183.446929 198.273792 
L 184.132432 196.629985 
L 184.817936 211.497483 
L 186.188943 192.072893 
L 186.874447 186.047258 
L 188.245455 196.36793 
L 188.930958 192.651738 
L 190.301966 209.14565 
L 190.987469 212.298278 
L 191.672973 209.63944 
L 192.358477 217.258848 
L 193.04398 232.81959 
L 193.729484 240.226858 
L 194.414988 254.48507 
L 195.100491 249.36597 
L 196.471499 222.491989 
L 197.157002 225.90714 
L 197.842506 226.980258 
L 198.52801 215.008689 
L 199.213514 199.7738 
L 199.899017 188.263285 
L 200.584521 179.681375 
L 201.270025 184.904575 
L 201.955528 177.349216 
L 202.641032 172.613864 
L 203.326536 158.280015 
L 204.012039 171.578283 
L 204.697543 162.698378 
L 205.383047 168.917608 
L 208.125061 118.026504 
L 208.810565 127.905585 
L 209.496069 125.143932 
L 210.181572 138.602583 
L 210.867076 147.066182 
L 211.55258 146.270674 
L 212.238084 136.537666 
L 212.923587 145.131189 
L 213.609091 133.171101 
L 214.294595 132.053429 
L 214.980098 136.353904 
L 215.665602 151.135314 
L 216.351106 144.233437 
L 217.036609 154.518266 
L 217.722113 152.210964 
L 218.407617 168.040537 
L 219.09312 164.343901 
L 219.778624 148.485798 
L 220.464128 163.66552 
L 221.149631 176.304646 
L 221.835135 167.337152 
L 222.520639 182.321597 
L 223.891646 198.911588 
L 224.57715 203.823506 
L 225.262654 203.31975 
L 225.948157 212.235185 
L 226.633661 201.163634 
L 228.004668 217.32386 
L 228.690172 203.233066 
L 229.375676 211.410239 
L 230.746683 198.017449 
L 231.432187 211.444381 
L 232.11769 201.187777 
L 232.803194 196.785697 
L 233.488698 210.137642 
L 234.174201 207.544873 
L 234.859705 198.641835 
L 235.545209 184.458614 
L 236.230713 194.423052 
L 236.916216 209.667569 
L 237.60172 206.582053 
L 238.287224 205.861251 
L 238.972727 211.42043 
L 239.658231 208.860211 
L 240.343735 200.241522 
L 241.029238 197.78836 
L 241.714742 204.483408 
L 242.400246 208.467612 
L 243.085749 223.563994 
L 243.771253 216.656862 
L 244.456757 231.924145 
L 245.14226 221.497627 
L 246.513268 214.033874 
L 247.198771 198.61068 
L 247.884275 194.264509 
L 248.569779 204.614605 
L 249.255283 208.401254 
L 249.940786 206.208803 
L 250.62629 219.601614 
L 251.311794 220.166168 
L 251.997297 212.897999 
L 252.682801 221.1649 
L 253.368305 218.82259 
L 254.053808 208.354817 
L 254.739312 195.744827 
L 255.424816 194.253116 
L 256.110319 193.979694 
L 256.795823 177.715607 
L 257.481327 187.928056 
L 258.16683 181.238162 
L 258.852334 164.976241 
L 259.537838 171.398839 
L 260.908845 203.785212 
L 261.594349 216.799255 
L 262.279853 203.171616 
L 262.965356 197.734282 
L 263.65086 198.266805 
L 264.336364 213.334096 
L 265.021867 197.256489 
L 266.392875 210.752782 
L 267.078378 221.344596 
L 267.763882 210.883095 
L 268.449386 221.350025 
L 269.134889 225.342643 
L 269.820393 232.961005 
L 271.1914 221.954527 
L 271.876904 231.59148 
L 272.562408 223.725916 
L 273.247912 237.685282 
L 273.933415 236.458596 
L 274.618919 238.886678 
L 275.304423 232.775145 
L 275.989926 238.5728 
L 277.360934 230.679829 
L 278.046437 222.521042 
L 278.731941 238.175188 
L 279.417445 225.392601 
L 280.102948 241.635843 
L 281.473956 212.399035 
L 282.159459 222.424017 
L 282.844963 218.201491 
L 283.530467 224.141361 
L 284.215971 228.262479 
L 284.901474 230.033498 
L 285.586978 228.485277 
L 286.272482 228.032237 
L 286.957985 215.054988 
L 287.643489 219.8624 
L 288.328993 229.592897 
L 289.014496 232.962677 
L 289.7 223.01979 
L 290.385504 217.831383 
L 291.071007 209.967035 
L 291.756511 216.675221 
L 292.442015 213.21081 
L 293.127518 204.728803 
L 293.813022 210.394087 
L 295.184029 214.820953 
L 295.869533 215.334609 
L 297.240541 236.005394 
L 297.926044 221.596296 
L 298.611548 236.8199 
L 299.297052 237.034514 
L 299.982555 222.871397 
L 300.668059 226.201469 
L 301.353563 234.61119 
L 302.039066 222.801819 
L 302.72457 220.677897 
L 303.410074 212.874696 
L 304.095577 219.570237 
L 305.466585 198.757644 
L 306.152088 191.862633 
L 306.837592 190.903713 
L 307.523096 200.942709 
L 308.2086 192.603778 
L 308.894103 190.86363 
L 309.579607 186.931143 
L 310.265111 184.602393 
L 310.950614 196.4922 
L 311.636118 185.992863 
L 313.007125 176.030837 
L 313.692629 167.306076 
L 314.378133 174.99328 
L 315.063636 161.637605 
L 315.74914 168.955091 
L 317.120147 175.534957 
L 317.805651 184.923235 
L 318.491155 187.132844 
L 319.862162 164.563532 
L 320.547666 155.902059 
L 321.23317 165.455888 
L 321.918673 163.146982 
L 322.604177 147.050398 
L 323.289681 145.388985 
L 323.975184 144.756326 
L 324.660688 159.763195 
L 325.346192 146.333093 
L 326.031695 159.000047 
L 326.717199 152.439111 
L 327.402703 162.430584 
L 328.088206 150.662987 
L 328.77371 136.310092 
L 329.459214 148.649524 
L 330.144717 151.509306 
L 330.830221 141.888015 
L 331.515725 154.29349 
L 332.201229 139.357097 
L 332.886732 139.035833 
L 333.572236 135.253963 
L 334.943243 125.006158 
L 335.628747 118.185009 
L 336.314251 112.947443 
L 336.999754 99.106845 
L 337.685258 104.581383 
L 338.370762 118.455571 
L 339.056265 119.204669 
L 340.427273 138.569869 
L 341.112776 133.050777 
L 341.79828 128.601438 
L 342.483784 118.743716 
L 343.169287 132.135073 
L 343.854791 141.710622 
L 344.540295 145.077184 
L 345.911302 174.321393 
L 346.596806 162.015576 
L 347.28231 153.19986 
L 347.967813 140.708527 
L 348.653317 135.726794 
L 349.338821 147.66303 
L 350.024324 143.119733 
L 350.709828 141.97761 
L 351.395332 136.113917 
L 352.080835 136.455697 
L 352.766339 128.24725 
L 353.451843 133.218164 
L 354.137346 145.663898 
L 354.82285 129.792529 
L 355.508354 136.045729 
L 356.193857 128.631856 
L 356.879361 142.756328 
L 357.564865 150.25858 
L 358.250369 163.083581 
L 358.935872 160.269034 
L 359.621376 166.283322 
L 360.30688 178.154815 
L 360.992383 183.247367 
L 361.677887 194.463205 
L 362.363391 185.10602 
L 363.048894 182.086055 
L 363.734398 169.229969 
L 364.419902 154.260063 
L 365.105405 155.282125 
L 365.790909 157.096021 
L 366.476413 170.083256 
L 367.161916 174.379967 
L 367.84742 175.725592 
L 368.532924 181.716284 
L 369.218428 190.198522 
L 369.903931 179.946039 
L 370.589435 176.453302 
L 371.274939 179.324432 
L 371.960442 172.881206 
L 372.645946 177.976044 
L 373.33145 172.799276 
L 374.016953 188.043146 
L 376.073464 218.915341 
L 376.758968 223.438929 
L 377.444472 220.292019 
L 378.129975 228.044192 
L 378.815479 216.57524 
L 379.500983 216.698467 
L 380.87199 187.894117 
L 381.557494 199.519823 
L 382.242998 201.431548 
L 382.928501 199.272526 
L 383.614005 187.798407 
L 384.299509 179.174791 
L 384.985012 184.341445 
L 385.670516 197.534669 
L 386.35602 206.905075 
L 387.041523 208.286468 
L 387.727027 203.551136 
L 388.412531 213.500901 
L 389.098034 228.40811 
L 389.783538 237.005621 
L 390.469042 225.054056 
L 391.154545 220.414151 
L 391.840049 208.795512 
L 393.211057 223.900265 
L 393.89656 231.24177 
L 395.267568 247.982936 
L 395.953071 248.015674 
L 396.638575 252.270707 
L 397.324079 249.203376 
L 398.009582 247.771608 
L 398.695086 232.287452 
L 399.38059 222.757951 
L 400.066093 224.956265 
L 400.751597 221.084201 
L 401.437101 225.444241 
L 402.122604 218.858967 
L 402.808108 230.970053 
L 403.493612 227.217731 
L 404.179115 231.937407 
L 404.864619 245.124376 
L 405.550123 241.985693 
L 406.235627 234.46708 
L 406.92113 245.834474 
L 407.606634 253.700664 
L 408.292138 249.003668 
L 409.663145 273.098586 
L 410.348649 279.623072 
L 411.034152 295.429636 
L 411.719656 295.417063 
L 413.090663 267.068332 
L 414.461671 279.424244 
L 415.147174 265.408246 
L 415.832678 267.258197 
L 416.518182 280.278937 
L 417.203686 265.870405 
L 417.889189 265.809302 
L 418.574693 262.914029 
L 419.260197 269.773248 
L 419.9457 264.112918 
L 420.631204 277.634303 
L 421.316708 265.090093 
L 422.002211 269.859531 
L 422.687715 286.080001 
L 423.373219 284.301795 
L 424.058722 286.502065 
L 424.744226 285.764546 
L 425.42973 283.153983 
L 426.115233 268.521097 
L 426.800737 278.558288 
L 427.486241 268.499718 
L 428.171744 277.860529 
L 428.857248 262.2738 
L 429.542752 271.067406 
L 430.913759 247.169769 
L 431.599263 235.397724 
L 432.284767 228.04842 
L 432.97027 226.101349 
L 433.655774 235.804381 
L 434.341278 225.305312 
L 435.026781 217.089192 
L 435.712285 212.427304 
L 436.397789 197.617118 
L 437.768796 221.498998 
L 438.4543 228.290225 
L 439.139803 230.469891 
L 439.825307 233.388708 
L 440.510811 229.388972 
L 441.196314 244.47434 
L 441.881818 231.200017 
L 443.252826 210.33852 
L 443.938329 195.515072 
L 444.623833 200.866239 
L 445.309337 212.215343 
L 445.99484 196.517737 
L 446.680344 193.787928 
L 447.365848 202.061853 
L 448.736855 222.500042 
L 449.422359 207.235674 
L 450.107862 196.019682 
L 450.793366 180.734955 
L 451.47887 171.098478 
L 452.164373 169.79966 
L 452.849877 169.291536 
L 453.535381 171.468034 
L 454.220885 173.017131 
L 454.906388 169.765795 
L 455.591892 181.714178 
L 456.277396 188.131931 
L 456.962899 203.460279 
L 457.648403 203.046292 
L 458.333907 204.473073 
L 459.01941 194.891978 
L 459.704914 183.704405 
L 460.390418 185.913829 
L 461.075921 194.744637 
L 461.761425 191.325944 
L 462.446929 199.659674 
L 463.132432 186.558928 
L 463.817936 183.690175 
L 464.50344 190.425653 
L 465.188943 200.540541 
L 465.874447 186.027712 
L 466.559951 177.893367 
L 467.930958 199.801572 
L 468.616462 191.747356 
L 469.301966 190.565981 
L 469.987469 197.630745 
L 470.672973 188.34297 
L 471.358477 183.499675 
L 472.04398 189.212374 
L 472.729484 201.79521 
L 473.414988 204.101511 
L 474.100491 204.301061 
L 474.785995 188.54472 
L 475.471499 191.715894 
L 476.157002 195.489216 
L 476.842506 198.182937 
L 477.52801 186.485119 
L 478.213514 189.900555 
L 478.899017 184.121403 
L 479.584521 171.043225 
L 480.270025 176.017462 
L 480.955528 184.291494 
L 481.641032 183.946547 
L 482.326536 181.242584 
L 483.012039 192.8423 
L 483.697543 182.513067 
L 484.383047 174.482003 
L 485.06855 179.934312 
L 485.754054 194.921041 
L 486.439558 197.775316 
L 487.125061 196.954318 
L 488.496069 219.23865 
L 489.181572 216.130882 
L 489.867076 209.659361 
L 490.55258 213.449812 
L 491.238084 200.716597 
L 491.923587 211.106271 
L 492.609091 215.983224 
L 493.294595 217.063976 
L 493.980098 216.90918 
L 494.665602 229.712675 
L 495.351106 224.588723 
L 496.036609 226.763454 
L 497.407617 245.998216 
L 498.778624 233.644718 
L 499.464128 248.134053 
L 500.149631 242.139174 
L 500.835135 243.267352 
L 501.520639 229.905284 
L 502.206143 227.449734 
L 502.891646 213.03195 
L 503.57715 205.581282 
L 504.948157 234.958416 
L 505.633661 237.399226 
L 506.319165 243.064346 
L 507.004668 228.106768 
L 507.690172 243.150652 
L 509.061179 212.031422 
L 509.746683 218.95061 
L 510.432187 234.334535 
L 511.11769 234.933213 
L 511.803194 249.305285 
L 512.488698 237.081872 
L 513.174201 243.873891 
L 513.859705 246.219883 
L 514.545209 232.643095 
L 515.230713 238.783318 
L 515.916216 228.264448 
L 516.60172 241.97238 
L 517.287224 247.784201 
L 517.972727 245.088711 
L 518.658231 231.557673 
L 519.343735 244.307738 
L 520.029238 259.613366 
L 520.714742 265.733904 
L 521.400246 276.172665 
L 522.085749 278.773471 
L 522.771253 266.799701 
L 523.456757 280.688248 
L 524.14226 288.31949 
L 524.827764 291.304381 
L 525.513268 284.022306 
L 526.198771 280.980909 
L 526.884275 275.115575 
L 527.569779 260.150408 
L 528.255283 265.516526 
L 528.940786 254.669621 
L 529.62629 259.977301 
L 530.311794 267.238372 
L 530.997297 271.902993 
L 531.682801 283.560696 
L 532.368305 291.039743 
L 533.053808 289.868757 
L 533.739312 304.580995 
L 534.424816 304.387678 
L 535.110319 313.86101 
L 535.795823 300.118793 
L 536.481327 293.351273 
L 537.16683 295.045889 
L 537.852334 281.657041 
L 538.537838 286.799436 
L 539.223342 289.335154 
L 539.908845 302.473548 
L 540.594349 304.981224 
L 541.279853 319.461511 
L 541.965356 322.760398 
L 542.65086 330.75796 
L 543.293932 345.06 
L 543.293932 345.06 
" clip-path="url(#p411b2f5f9e)" style="fill: none; stroke: #008000; stroke-width: 1.5; stroke-linecap: square"/>
   </g>
   <g id="line2d_3">
    <path d="M 36.063636 202.896 
L 36.74914 215.092713 
L 37.434644 220.573856 
L 38.120147 225.606039 
L 38.805651 223.228419 
L 39.491155 217.926851 
L 40.176658 202.145574 
L 40.862162 213.27031 
L 41.547666 200.312952 
L 42.23317 189.361069 
L 42.918673 174.671691 
L 43.604177 166.496303 
L 44.289681 181.423053 
L 44.975184 177.908553 
L 45.660688 166.64137 
L 46.346192 168.273804 
L 47.031695 184.120071 
L 47.717199 174.906624 
L 48.402703 159.165752 
L 49.088206 155.927115 
L 49.77371 158.982508 
L 50.459214 163.548351 
L 51.144717 166.160589 
L 51.830221 153.461443 
L 52.515725 169.134586 
L 53.201229 177.494552 
L 53.886732 190.382337 
L 54.572236 201.957346 
L 55.25774 191.918759 
L 55.943243 203.299046 
L 56.628747 209.706836 
L 57.314251 225.746356 
L 57.999754 218.369893 
L 58.685258 204.655782 
L 59.370762 216.645179 
L 60.056265 214.474104 
L 60.741769 226.576304 
L 61.427273 227.965713 
L 62.112776 242.913037 
L 62.79828 239.851238 
L 63.483784 253.9706 
L 64.169287 252.522331 
L 64.854791 252.870104 
L 65.540295 250.018593 
L 66.225799 266.269965 
L 66.911302 278.988294 
L 67.596806 277.305329 
L 68.28231 262.90527 
L 68.967813 262.778484 
L 69.653317 265.881576 
L 70.338821 259.937284 
L 71.024324 247.90882 
L 71.709828 256.887193 
L 72.395332 241.102431 
L 73.080835 242.39212 
L 73.766339 257.41064 
L 74.451843 259.919851 
L 75.137346 250.885532 
L 75.82285 253.191908 
L 76.508354 250.244369 
L 77.193857 242.613153 
L 77.879361 251.973031 
L 78.564865 252.667911 
L 79.250369 266.394578 
L 79.935872 256.547628 
L 80.621376 267.600044 
L 81.30688 259.102085 
L 81.992383 259.992389 
L 82.677887 263.787935 
L 83.363391 268.445348 
L 84.048894 280.129412 
L 84.734398 270.235133 
L 85.419902 270.578181 
L 86.105405 268.717352 
L 86.790909 272.754663 
L 87.476413 288.157171 
L 88.161916 297.158262 
L 88.84742 293.324921 
L 89.532924 303.945384 
L 90.218428 300.06139 
L 90.903931 310.248661 
L 91.589435 319.491277 
L 92.274939 318.182981 
L 92.960442 314.976297 
L 93.645946 302.342757 
L 94.33145 298.588659 
L 95.016953 309.540941 
L 95.702457 310.398538 
L 96.387961 302.577604 
L 97.073464 295.999188 
L 97.758968 284.070663 
L 98.444472 300.237928 
L 99.129975 300.378097 
L 99.815479 284.109302 
L 100.500983 285.059974 
L 101.186486 292.434534 
L 101.87199 297.438234 
L 102.557494 313.5416 
L 103.242998 306.186288 
L 103.928501 296.913338 
L 104.614005 305.954875 
L 105.299509 314.247248 
L 105.985012 305.765179 
L 106.670516 314.315119 
L 107.35602 312.808752 
L 108.041523 325.033189 
L 108.727027 323.770745 
L 109.412531 332.861922 
L 109.954041 345.06 
" clip-path="url(#p411b2f5f9e)" style="fill: none; stroke: #ffa500; stroke-width: 1.5; stroke-linecap: square"/>
   </g>
   <g id="line2d_4">
    <path d="M 36.063636 153.972 
L 36.74914 138.801451 
L 37.434644 147.893967 
L 38.120147 131.944213 
L 39.491155 145.71923 
L 40.176658 157.482311 
L 40.862162 173.316605 
L 41.547666 183.599845 
L 42.23317 184.945614 
L 43.604177 159.081726 
L 44.289681 163.77886 
L 44.975184 164.231247 
L 45.660688 161.818758 
L 46.346192 153.403429 
L 47.031695 163.144815 
L 47.717199 178.925565 
L 48.402703 179.312197 
L 49.088206 189.408296 
L 49.77371 186.201854 
L 51.144717 205.482176 
L 51.830221 211.490236 
L 52.515725 210.741482 
L 53.201229 199.642964 
L 53.886732 196.49608 
L 54.572236 200.181986 
L 55.25774 209.147415 
L 55.943243 206.267028 
L 56.628747 197.517388 
L 57.314251 202.325734 
L 57.999754 201.272335 
L 58.685258 193.932251 
L 60.056265 205.145649 
L 60.741769 206.843653 
L 61.427273 211.630822 
L 62.112776 198.118506 
L 62.79828 208.808208 
L 64.854791 250.138658 
L 65.540295 260.72996 
L 66.225799 263.681064 
L 66.911302 247.915061 
L 67.596806 240.674188 
L 68.28231 245.03426 
L 68.967813 259.331592 
L 69.653317 257.987424 
L 70.338821 263.515406 
L 71.024324 248.495496 
L 71.709828 243.93671 
L 72.395332 240.141957 
L 73.080835 230.915144 
L 73.766339 214.901605 
L 74.451843 220.40994 
L 75.137346 228.874917 
L 75.82285 217.444323 
L 76.508354 202.123714 
L 77.193857 189.746256 
L 77.879361 196.011795 
L 78.564865 211.361331 
L 79.250369 209.864676 
L 79.935872 216.223015 
L 80.621376 200.36491 
L 81.30688 203.585387 
L 81.992383 187.312772 
L 82.677887 174.360827 
L 83.363391 185.949139 
L 84.048894 200.585451 
L 84.734398 201.808138 
L 85.419902 201.3507 
L 86.105405 204.094031 
L 86.790909 196.181595 
L 87.476413 200.673889 
L 88.161916 202.428649 
L 88.84742 190.629289 
L 89.532924 183.033058 
L 90.218428 168.66038 
L 90.903931 173.043572 
L 91.589435 179.704743 
L 92.274939 193.78046 
L 92.960442 187.540975 
L 93.645946 185.572841 
L 94.33145 173.397344 
L 95.016953 175.944034 
L 96.387961 205.097037 
L 97.073464 201.845635 
L 97.758968 200.016006 
L 98.444472 212.964691 
L 99.129975 219.117177 
L 99.815479 212.069842 
L 100.500983 196.081322 
L 101.186486 182.911068 
L 101.87199 189.105632 
L 102.557494 177.367603 
L 103.242998 177.229234 
L 103.928501 177.873622 
L 104.614005 191.751211 
L 105.299509 181.999737 
L 105.985012 194.031391 
L 106.670516 195.490095 
L 107.35602 187.788092 
L 108.041523 194.498199 
L 108.727027 178.217731 
L 109.412531 176.733489 
L 110.098034 187.245612 
L 110.783538 190.458035 
L 111.469042 178.781475 
L 112.154545 176.679178 
L 112.840049 188.468898 
L 113.525553 186.561221 
L 114.89656 209.698458 
L 115.582064 225.399177 
L 116.267568 231.129143 
L 117.638575 257.537227 
L 118.324079 263.9811 
L 119.009582 265.81586 
L 119.695086 270.995298 
L 120.38059 278.675504 
L 121.066093 293.034024 
L 121.751597 298.651114 
L 122.437101 293.488713 
L 123.122604 304.975138 
L 123.808108 310.037615 
L 124.493612 306.91674 
L 125.179115 312.794438 
L 125.864619 303.528377 
L 126.550123 306.171135 
L 127.235627 319.040187 
L 127.92113 321.359098 
L 129.292138 307.361616 
L 129.977641 298.464479 
L 130.663145 303.88842 
L 132.034152 310.49019 
L 132.719656 318.891586 
L 133.40516 321.095686 
L 134.090663 335.751288 
L 134.090663 335.751288 
" clip-path="url(#p411b2f5f9e)" style="fill: none; stroke: #ff0000; stroke-width: 1.5; stroke-linecap: square"/>
   </g>
   <g id="patch_3">
    <path d="M 10.7 333.36 
L 10.7 7.2 
" style="fill: none; stroke: #000000; stroke-width: 0.8; stroke-linejoin: miter; stroke-linecap: square"/>
   </g>
   <g id="patch_4">
    <path d="M 568.7 333.36 
L 568.7 7.2 
" style="fill: none; stroke: #000000; stroke-width: 0.8; stroke-linejoin: miter; stroke-linecap: square"/>
   </g>
   <g id="patch_5">
    <path d="M 10.7 333.36 
L 568.7 333.36 
" style="fill: none; stroke: #000000; stroke-width: 0.8; stroke-linejoin: miter; stroke-linecap: square"/>
   </g>
   <g id="patch_6">
    <path d="M 10.7 7.2 
L 568.7 7.2 
" style="fill: none; stroke: #000000; stroke-width: 0.8; stroke-linejoin: miter; stroke-linecap: square"/>
   </g>
  </g>
 </g>
 <defs>
  <clipPath id="p411b2f5f9e">
   <rect x="10.7" y="7.2" width="558" height="326.16"/>
  </clipPath>
 </defs>
</svg>
