<?xml version="1.0" encoding="utf-8" standalone="no"?>
<!DOCTYPE svg PUBLIC "-//W3C//DTD SVG 1.1//EN"
  "http://www.w3.org/Graphics/SVG/1.1/DTD/svg11.dtd">
<svg xmlns:xlink="http://www.w3.org/1999/xlink" width="406.24625pt" height="300.09725pt" viewBox="0 0 406.24625 300.09725" xmlns="http://www.w3.org/2000/svg" version="1.1">
 <metadata>
  <rdf:RDF xmlns:dc="http://purl.org/dc/elements/1.1/" xmlns:cc="http://creativecommons.org/ns#" xmlns:rdf="http://www.w3.org/1999/02/22-rdf-syntax-ns#">
   <cc:Work>
    <dc:type rdf:resource="http://purl.org/dc/dcmitype/StillImage"/>
    <dc:date>2022-05-19T11:17:39.361040</dc:date>
    <dc:format>image/svg+xml</dc:format>
    <dc:creator>
     <cc:Agent>
      <dc:title>Matplotlib v3.5.0, https://matplotlib.org/</dc:title>
     </cc:Agent>
    </dc:creator>
   </cc:Work>
  </rdf:RDF>
 </metadata>
 <defs>
  <style type="text/css">*{stroke-linejoin: round; stroke-linecap: butt}</style>
 </defs>
 <g id="figure_1">
  <g id="patch_1">
   <path d="M 0 300.09725 
L 406.24625 300.09725 
L 406.24625 0 
L 0 0 
L 0 300.09725 
z
" style="fill: none"/>
  </g>
  <g id="axes_1">
   <g id="patch_2">
    <path d="M 64.24625 247.056 
L 399.04625 247.056 
L 399.04625 29.616 
L 64.24625 29.616 
z
" style="fill: #ffffff"/>
   </g>
   <g id="PathCollection_1">
    <defs>
     <path id="md148d2c827" d="M 0 3 
C 0.795609 3 1.55874 2.683901 2.12132 2.12132 
C 2.683901 1.55874 3 0.795609 3 0 
C 3 -0.795609 2.683901 -1.55874 2.12132 -2.12132 
C 1.55874 -2.683901 0.795609 -3 0 -3 
C -0.795609 -3 -1.55874 -2.683901 -2.12132 -2.12132 
C -2.683901 -1.55874 -3 -0.795609 -3 0 
C -3 0.795609 -2.683901 1.55874 -2.12132 2.12132 
C -1.55874 2.683901 -0.795609 3 0 3 
z
" style="stroke: #ea0f0b; stroke-opacity: 0.8"/>
    </defs>
    <g clip-path="url(#pf9ec717258)">
     <use xlink:href="#md148d2c827" x="330.356741" y="50.484151" style="fill: #ea0f0b; fill-opacity: 0.8; stroke: #ea0f0b; stroke-opacity: 0.8"/>
     <use xlink:href="#md148d2c827" x="131.140612" y="74.100176" style="fill: #ea0f0b; fill-opacity: 0.8; stroke: #ea0f0b; stroke-opacity: 0.8"/>
     <use xlink:href="#md148d2c827" x="247.394979" y="81.050054" style="fill: #ea0f0b; fill-opacity: 0.8; stroke: #ea0f0b; stroke-opacity: 0.8"/>
     <use xlink:href="#md148d2c827" x="196.048876" y="70.354438" style="fill: #ea0f0b; fill-opacity: 0.8; stroke: #ea0f0b; stroke-opacity: 0.8"/>
     <use xlink:href="#md148d2c827" x="172.336037" y="56.873382" style="fill: #ea0f0b; fill-opacity: 0.8; stroke: #ea0f0b; stroke-opacity: 0.8"/>
     <use xlink:href="#md148d2c827" x="306.579071" y="116.701505" style="fill: #ea0f0b; fill-opacity: 0.8; stroke: #ea0f0b; stroke-opacity: 0.8"/>
     <use xlink:href="#md148d2c827" x="214.374879" y="77.504165" style="fill: #ea0f0b; fill-opacity: 0.8; stroke: #ea0f0b; stroke-opacity: 0.8"/>
     <use xlink:href="#md148d2c827" x="253.748061" y="237.172364" style="fill: #ea0f0b; fill-opacity: 0.8; stroke: #ea0f0b; stroke-opacity: 0.8"/>
     <use xlink:href="#md148d2c827" x="271.430735" y="41.497686" style="fill: #ea0f0b; fill-opacity: 0.8; stroke: #ea0f0b; stroke-opacity: 0.8"/>
     <use xlink:href="#md148d2c827" x="222.516654" y="210.079593" style="fill: #ea0f0b; fill-opacity: 0.8; stroke: #ea0f0b; stroke-opacity: 0.8"/>
     <use xlink:href="#md148d2c827" x="275.621772" y="143.176073" style="fill: #ea0f0b; fill-opacity: 0.8; stroke: #ea0f0b; stroke-opacity: 0.8"/>
     <use xlink:href="#md148d2c827" x="188.940228" y="80.982781" style="fill: #ea0f0b; fill-opacity: 0.8; stroke: #ea0f0b; stroke-opacity: 0.8"/>
     <use xlink:href="#md148d2c827" x="102.738398" y="47.223255" style="fill: #ea0f0b; fill-opacity: 0.8; stroke: #ea0f0b; stroke-opacity: 0.8"/>
     <use xlink:href="#md148d2c827" x="330.263056" y="56.444965" style="fill: #ea0f0b; fill-opacity: 0.8; stroke: #ea0f0b; stroke-opacity: 0.8"/>
     <use xlink:href="#md148d2c827" x="248.247073" y="53.241142" style="fill: #ea0f0b; fill-opacity: 0.8; stroke: #ea0f0b; stroke-opacity: 0.8"/>
     <use xlink:href="#md148d2c827" x="268.462374" y="207.129006" style="fill: #ea0f0b; fill-opacity: 0.8; stroke: #ea0f0b; stroke-opacity: 0.8"/>
     <use xlink:href="#md148d2c827" x="307.223916" y="85.096843" style="fill: #ea0f0b; fill-opacity: 0.8; stroke: #ea0f0b; stroke-opacity: 0.8"/>
     <use xlink:href="#md148d2c827" x="280.677225" y="128.20011" style="fill: #ea0f0b; fill-opacity: 0.8; stroke: #ea0f0b; stroke-opacity: 0.8"/>
     <use xlink:href="#md148d2c827" x="179.811415" y="76.351888" style="fill: #ea0f0b; fill-opacity: 0.8; stroke: #ea0f0b; stroke-opacity: 0.8"/>
     <use xlink:href="#md148d2c827" x="292.902546" y="107.389005" style="fill: #ea0f0b; fill-opacity: 0.8; stroke: #ea0f0b; stroke-opacity: 0.8"/>
     <use xlink:href="#md148d2c827" x="102.738398" y="45.442845" style="fill: #ea0f0b; fill-opacity: 0.8; stroke: #ea0f0b; stroke-opacity: 0.8"/>
     <use xlink:href="#md148d2c827" x="183.798562" y="71.511312" style="fill: #ea0f0b; fill-opacity: 0.8; stroke: #ea0f0b; stroke-opacity: 0.8"/>
     <use xlink:href="#md148d2c827" x="296.106382" y="47.67908" style="fill: #ea0f0b; fill-opacity: 0.8; stroke: #ea0f0b; stroke-opacity: 0.8"/>
     <use xlink:href="#md148d2c827" x="244.016945" y="145.627198" style="fill: #ea0f0b; fill-opacity: 0.8; stroke: #ea0f0b; stroke-opacity: 0.8"/>
     <use xlink:href="#md148d2c827" x="175.535339" y="55.857975" style="fill: #ea0f0b; fill-opacity: 0.8; stroke: #ea0f0b; stroke-opacity: 0.8"/>
     <use xlink:href="#md148d2c827" x="260.241194" y="66.956696" style="fill: #ea0f0b; fill-opacity: 0.8; stroke: #ea0f0b; stroke-opacity: 0.8"/>
     <use xlink:href="#md148d2c827" x="217.626497" y="84.208122" style="fill: #ea0f0b; fill-opacity: 0.8; stroke: #ea0f0b; stroke-opacity: 0.8"/>
     <use xlink:href="#md148d2c827" x="181.519301" y="67.705196" style="fill: #ea0f0b; fill-opacity: 0.8; stroke: #ea0f0b; stroke-opacity: 0.8"/>
     <use xlink:href="#md148d2c827" x="303.973588" y="46.877148" style="fill: #ea0f0b; fill-opacity: 0.8; stroke: #ea0f0b; stroke-opacity: 0.8"/>
     <use xlink:href="#md148d2c827" x="259.917599" y="82.893156" style="fill: #ea0f0b; fill-opacity: 0.8; stroke: #ea0f0b; stroke-opacity: 0.8"/>
     <use xlink:href="#md148d2c827" x="247.273849" y="218.437804" style="fill: #ea0f0b; fill-opacity: 0.8; stroke: #ea0f0b; stroke-opacity: 0.8"/>
     <use xlink:href="#md148d2c827" x="235.897583" y="55.59884" style="fill: #ea0f0b; fill-opacity: 0.8; stroke: #ea0f0b; stroke-opacity: 0.8"/>
     <use xlink:href="#md148d2c827" x="159.160698" y="71.289396" style="fill: #ea0f0b; fill-opacity: 0.8; stroke: #ea0f0b; stroke-opacity: 0.8"/>
     <use xlink:href="#md148d2c827" x="230.645038" y="54.954002" style="fill: #ea0f0b; fill-opacity: 0.8; stroke: #ea0f0b; stroke-opacity: 0.8"/>
     <use xlink:href="#md148d2c827" x="179.916796" y="67.899542" style="fill: #ea0f0b; fill-opacity: 0.8; stroke: #ea0f0b; stroke-opacity: 0.8"/>
     <use xlink:href="#md148d2c827" x="148.530144" y="118.13243" style="fill: #ea0f0b; fill-opacity: 0.8; stroke: #ea0f0b; stroke-opacity: 0.8"/>
     <use xlink:href="#md148d2c827" x="201.4862" y="51.319709" style="fill: #ea0f0b; fill-opacity: 0.8; stroke: #ea0f0b; stroke-opacity: 0.8"/>
     <use xlink:href="#md148d2c827" x="164.339804" y="108.390483" style="fill: #ea0f0b; fill-opacity: 0.8; stroke: #ea0f0b; stroke-opacity: 0.8"/>
     <use xlink:href="#md148d2c827" x="135.749776" y="87.838079" style="fill: #ea0f0b; fill-opacity: 0.8; stroke: #ea0f0b; stroke-opacity: 0.8"/>
     <use xlink:href="#md148d2c827" x="285.671544" y="173.14402" style="fill: #ea0f0b; fill-opacity: 0.8; stroke: #ea0f0b; stroke-opacity: 0.8"/>
     <use xlink:href="#md148d2c827" x="301.756821" y="47.038078" style="fill: #ea0f0b; fill-opacity: 0.8; stroke: #ea0f0b; stroke-opacity: 0.8"/>
     <use xlink:href="#md148d2c827" x="221.786831" y="66.702479" style="fill: #ea0f0b; fill-opacity: 0.8; stroke: #ea0f0b; stroke-opacity: 0.8"/>
     <use xlink:href="#md148d2c827" x="227.789951" y="83.468298" style="fill: #ea0f0b; fill-opacity: 0.8; stroke: #ea0f0b; stroke-opacity: 0.8"/>
     <use xlink:href="#md148d2c827" x="190.899292" y="80.309872" style="fill: #ea0f0b; fill-opacity: 0.8; stroke: #ea0f0b; stroke-opacity: 0.8"/>
     <use xlink:href="#md148d2c827" x="279.580808" y="162.67811" style="fill: #ea0f0b; fill-opacity: 0.8; stroke: #ea0f0b; stroke-opacity: 0.8"/>
     <use xlink:href="#md148d2c827" x="102.738398" y="60.649173" style="fill: #ea0f0b; fill-opacity: 0.8; stroke: #ea0f0b; stroke-opacity: 0.8"/>
     <use xlink:href="#md148d2c827" x="216.103982" y="97.029088" style="fill: #ea0f0b; fill-opacity: 0.8; stroke: #ea0f0b; stroke-opacity: 0.8"/>
     <use xlink:href="#md148d2c827" x="262.140567" y="207.503457" style="fill: #ea0f0b; fill-opacity: 0.8; stroke: #ea0f0b; stroke-opacity: 0.8"/>
     <use xlink:href="#md148d2c827" x="201.787799" y="110.296535" style="fill: #ea0f0b; fill-opacity: 0.8; stroke: #ea0f0b; stroke-opacity: 0.8"/>
     <use xlink:href="#md148d2c827" x="263.01324" y="160.650541" style="fill: #ea0f0b; fill-opacity: 0.8; stroke: #ea0f0b; stroke-opacity: 0.8"/>
     <use xlink:href="#md148d2c827" x="215.254115" y="102.3269" style="fill: #ea0f0b; fill-opacity: 0.8; stroke: #ea0f0b; stroke-opacity: 0.8"/>
     <use xlink:href="#md148d2c827" x="159.965546" y="44.911176" style="fill: #ea0f0b; fill-opacity: 0.8; stroke: #ea0f0b; stroke-opacity: 0.8"/>
     <use xlink:href="#md148d2c827" x="218.148638" y="193.080885" style="fill: #ea0f0b; fill-opacity: 0.8; stroke: #ea0f0b; stroke-opacity: 0.8"/>
     <use xlink:href="#md148d2c827" x="210.413758" y="192.22538" style="fill: #ea0f0b; fill-opacity: 0.8; stroke: #ea0f0b; stroke-opacity: 0.8"/>
     <use xlink:href="#md148d2c827" x="285.75422" y="98.248238" style="fill: #ea0f0b; fill-opacity: 0.8; stroke: #ea0f0b; stroke-opacity: 0.8"/>
     <use xlink:href="#md148d2c827" x="288.299912" y="138.043163" style="fill: #ea0f0b; fill-opacity: 0.8; stroke: #ea0f0b; stroke-opacity: 0.8"/>
     <use xlink:href="#md148d2c827" x="147.861983" y="72.964828" style="fill: #ea0f0b; fill-opacity: 0.8; stroke: #ea0f0b; stroke-opacity: 0.8"/>
     <use xlink:href="#md148d2c827" x="192.610541" y="64.675884" style="fill: #ea0f0b; fill-opacity: 0.8; stroke: #ea0f0b; stroke-opacity: 0.8"/>
     <use xlink:href="#md148d2c827" x="225.833069" y="158.952099" style="fill: #ea0f0b; fill-opacity: 0.8; stroke: #ea0f0b; stroke-opacity: 0.8"/>
     <use xlink:href="#md148d2c827" x="168.363797" y="39.499636" style="fill: #ea0f0b; fill-opacity: 0.8; stroke: #ea0f0b; stroke-opacity: 0.8"/>
     <use xlink:href="#md148d2c827" x="274.300958" y="151.77152" style="fill: #ea0f0b; fill-opacity: 0.8; stroke: #ea0f0b; stroke-opacity: 0.8"/>
     <use xlink:href="#md148d2c827" x="122.788548" y="83.519809" style="fill: #ea0f0b; fill-opacity: 0.8; stroke: #ea0f0b; stroke-opacity: 0.8"/>
     <use xlink:href="#md148d2c827" x="238.387208" y="98.049997" style="fill: #ea0f0b; fill-opacity: 0.8; stroke: #ea0f0b; stroke-opacity: 0.8"/>
     <use xlink:href="#md148d2c827" x="274.145457" y="115.61438" style="fill: #ea0f0b; fill-opacity: 0.8; stroke: #ea0f0b; stroke-opacity: 0.8"/>
    </g>
   </g>
   <g id="PolyCollection_1">
    <path d="M 102.738398 51.815546 
L 102.738398 88.485143 
L 105.037573 88.724965 
L 107.336748 88.952003 
L 109.635924 89.319442 
L 111.935099 89.685523 
L 114.234274 90.051603 
L 116.533449 90.417684 
L 118.832624 90.765363 
L 121.1318 91.054888 
L 123.430975 91.445157 
L 125.73015 91.799734 
L 128.029325 92.065342 
L 130.3285 92.325772 
L 132.627675 92.588846 
L 134.926851 92.852539 
L 137.226026 93.114131 
L 139.525201 93.375724 
L 141.824376 93.642163 
L 144.123551 93.931546 
L 146.422727 94.220928 
L 148.721902 94.50539 
L 151.021077 94.692734 
L 153.320252 94.953807 
L 155.619427 95.199951 
L 157.918602 95.538712 
L 160.217778 96.024612 
L 162.516953 96.327292 
L 164.816128 96.571688 
L 167.115303 96.854792 
L 169.414478 97.220409 
L 171.713654 97.66023 
L 174.012829 97.98617 
L 176.312004 98.587468 
L 178.611179 99.043035 
L 180.910354 99.697259 
L 183.20953 100.268269 
L 185.508705 100.840835 
L 187.80788 101.415459 
L 190.107055 101.983647 
L 192.40623 102.56789 
L 194.705405 103.158641 
L 197.004581 103.661881 
L 199.303756 104.236267 
L 201.602931 105.087073 
L 203.902106 105.867913 
L 206.201281 106.550205 
L 208.500457 107.457693 
L 210.799632 108.248065 
L 213.098807 108.841818 
L 215.397982 109.546889 
L 217.697157 110.197571 
L 219.996332 110.820338 
L 222.295508 111.508513 
L 224.594683 112.162113 
L 226.893858 112.814138 
L 229.193033 113.54182 
L 231.492208 114.537837 
L 233.791384 115.459892 
L 236.090559 116.209976 
L 238.389734 116.950151 
L 240.688909 117.912239 
L 242.988084 118.944512 
L 245.287259 119.85978 
L 247.586435 120.775048 
L 249.88561 121.685432 
L 252.184785 122.644455 
L 254.48396 123.646388 
L 256.783135 124.58016 
L 259.082311 125.635098 
L 261.381486 126.690036 
L 263.680661 127.738234 
L 265.979836 128.528258 
L 268.279011 129.452685 
L 270.578186 130.512691 
L 272.877362 131.557398 
L 275.176537 132.444243 
L 277.475712 133.379057 
L 279.774887 134.247127 
L 282.074062 135.01588 
L 284.373238 135.782952 
L 286.672413 136.759981 
L 288.971588 137.677565 
L 291.270763 138.511102 
L 293.569938 139.342191 
L 295.869114 140.360846 
L 298.168289 141.437667 
L 300.467464 142.492715 
L 302.766639 143.472659 
L 305.065814 144.354293 
L 307.364989 145.234657 
L 309.664165 146.149398 
L 311.96334 147.064139 
L 314.262515 147.97888 
L 316.56169 148.893621 
L 318.860865 149.808362 
L 321.160041 150.723103 
L 323.459216 151.637844 
L 325.758391 152.552585 
L 328.057566 153.464718 
L 330.356741 154.450247 
L 330.356741 98.476253 
L 330.356741 98.476253 
L 328.057566 98.369955 
L 325.758391 98.263656 
L 323.459216 98.157358 
L 321.160041 98.045247 
L 318.860865 97.788273 
L 316.56169 97.531299 
L 314.262515 97.274325 
L 311.96334 97.017351 
L 309.664165 96.766061 
L 307.364989 96.769326 
L 305.065814 96.820801 
L 302.766639 96.533199 
L 300.467464 96.246059 
L 298.168289 96.110907 
L 295.869114 95.961133 
L 293.569938 95.737888 
L 291.270763 95.482772 
L 288.971588 95.118774 
L 286.672413 94.755016 
L 284.373238 94.64087 
L 282.074062 94.346924 
L 279.774887 94.056177 
L 277.475712 93.767836 
L 275.176537 93.470776 
L 272.877362 93.319697 
L 270.578186 93.214079 
L 268.279011 93.025716 
L 265.979836 92.874815 
L 263.680661 92.728032 
L 261.381486 92.58125 
L 259.082311 92.429005 
L 256.783135 92.158518 
L 254.48396 91.861206 
L 252.184785 91.467467 
L 249.88561 91.137079 
L 247.586435 90.844447 
L 245.287259 90.47093 
L 242.988084 90.114506 
L 240.688909 89.727366 
L 238.389734 89.378709 
L 236.090559 89.01081 
L 233.791384 88.645368 
L 231.492208 88.279494 
L 229.193033 87.911363 
L 226.893858 87.543233 
L 224.594683 87.178273 
L 222.295508 86.864773 
L 219.996332 86.554544 
L 217.697157 86.196921 
L 215.397982 85.886608 
L 213.098807 85.528362 
L 210.799632 85.088334 
L 208.500457 84.759663 
L 206.201281 84.13155 
L 203.902106 83.682996 
L 201.602931 83.232033 
L 199.303756 82.788127 
L 197.004581 82.167591 
L 194.705405 81.723611 
L 192.40623 81.240253 
L 190.107055 80.755689 
L 187.80788 80.31652 
L 185.508705 79.819909 
L 183.20953 79.302541 
L 180.910354 78.654863 
L 178.611179 78.122382 
L 176.312004 77.527499 
L 174.012829 76.985769 
L 171.713654 76.512004 
L 169.414478 75.767295 
L 167.115303 75.169264 
L 164.816128 74.427699 
L 162.516953 73.767617 
L 160.217778 73.167096 
L 157.918602 72.542077 
L 155.619427 71.822713 
L 153.320252 71.035245 
L 151.021077 70.209793 
L 148.721902 69.380289 
L 146.422727 68.544223 
L 144.123551 67.714702 
L 141.824376 66.847002 
L 139.525201 65.836539 
L 137.226026 64.978622 
L 134.926851 64.265805 
L 132.627675 63.3165 
L 130.3285 62.367194 
L 128.029325 61.430554 
L 125.73015 60.491863 
L 123.430975 59.768185 
L 121.1318 58.942292 
L 118.832624 57.931088 
L 116.533449 56.975886 
L 114.234274 56.208817 
L 111.935099 55.433024 
L 109.635924 54.659016 
L 107.336748 53.825597 
L 105.037573 52.897411 
L 102.738398 51.815546 
z
" clip-path="url(#pf9ec717258)" style="fill: #ea0f0b; fill-opacity: 0.15"/>
   </g>
   <g id="matplotlib.axis_1">
    <g id="xtick_1">
     <g id="line2d_1">
      <defs>
       <path id="m21f75574b8" d="M 0 0 
L 0 3.5 
" style="stroke: #000000; stroke-width: 0.8"/>
      </defs>
      <g>
       <use xlink:href="#m21f75574b8" x="67.925371" y="247.056" style="stroke: #000000; stroke-width: 0.8"/>
      </g>
     </g>
     <g id="text_1">
      <!-- 0 -->
      <g transform="translate(62.199121 267.733187)scale(0.18 -0.18)">
       <defs>
        <path id="DejaVuSans-30" d="M 2034 4250 
Q 1547 4250 1301 3770 
Q 1056 3291 1056 2328 
Q 1056 1369 1301 889 
Q 1547 409 2034 409 
Q 2525 409 2770 889 
Q 3016 1369 3016 2328 
Q 3016 3291 2770 3770 
Q 2525 4250 2034 4250 
z
M 2034 4750 
Q 2819 4750 3233 4129 
Q 3647 3509 3647 2328 
Q 3647 1150 3233 529 
Q 2819 -91 2034 -91 
Q 1250 -91 836 529 
Q 422 1150 422 2328 
Q 422 3509 836 4129 
Q 1250 4750 2034 4750 
z
" transform="scale(0.015625)"/>
       </defs>
       <use xlink:href="#DejaVuSans-30"/>
      </g>
     </g>
    </g>
    <g id="xtick_2">
     <g id="line2d_2">
      <g>
       <use xlink:href="#m21f75574b8" x="141.507788" y="247.056" style="stroke: #000000; stroke-width: 0.8"/>
      </g>
     </g>
     <g id="text_2">
      <!-- 20 -->
      <g transform="translate(130.055288 267.733187)scale(0.18 -0.18)">
       <defs>
        <path id="DejaVuSans-32" d="M 1228 531 
L 3431 531 
L 3431 0 
L 469 0 
L 469 531 
Q 828 903 1448 1529 
Q 2069 2156 2228 2338 
Q 2531 2678 2651 2914 
Q 2772 3150 2772 3378 
Q 2772 3750 2511 3984 
Q 2250 4219 1831 4219 
Q 1534 4219 1204 4116 
Q 875 4013 500 3803 
L 500 4441 
Q 881 4594 1212 4672 
Q 1544 4750 1819 4750 
Q 2544 4750 2975 4387 
Q 3406 4025 3406 3419 
Q 3406 3131 3298 2873 
Q 3191 2616 2906 2266 
Q 2828 2175 2409 1742 
Q 1991 1309 1228 531 
z
" transform="scale(0.015625)"/>
       </defs>
       <use xlink:href="#DejaVuSans-32"/>
       <use xlink:href="#DejaVuSans-30" x="63.623047"/>
      </g>
     </g>
    </g>
    <g id="xtick_3">
     <g id="line2d_3">
      <g>
       <use xlink:href="#m21f75574b8" x="215.090206" y="247.056" style="stroke: #000000; stroke-width: 0.8"/>
      </g>
     </g>
     <g id="text_3">
      <!-- 40 -->
      <g transform="translate(203.637706 267.733187)scale(0.18 -0.18)">
       <defs>
        <path id="DejaVuSans-34" d="M 2419 4116 
L 825 1625 
L 2419 1625 
L 2419 4116 
z
M 2253 4666 
L 3047 4666 
L 3047 1625 
L 3713 1625 
L 3713 1100 
L 3047 1100 
L 3047 0 
L 2419 0 
L 2419 1100 
L 313 1100 
L 313 1709 
L 2253 4666 
z
" transform="scale(0.015625)"/>
       </defs>
       <use xlink:href="#DejaVuSans-34"/>
       <use xlink:href="#DejaVuSans-30" x="63.623047"/>
      </g>
     </g>
    </g>
    <g id="xtick_4">
     <g id="line2d_4">
      <g>
       <use xlink:href="#m21f75574b8" x="288.672624" y="247.056" style="stroke: #000000; stroke-width: 0.8"/>
      </g>
     </g>
     <g id="text_4">
      <!-- 60 -->
      <g transform="translate(277.220124 267.733187)scale(0.18 -0.18)">
       <defs>
        <path id="DejaVuSans-36" d="M 2113 2584 
Q 1688 2584 1439 2293 
Q 1191 2003 1191 1497 
Q 1191 994 1439 701 
Q 1688 409 2113 409 
Q 2538 409 2786 701 
Q 3034 994 3034 1497 
Q 3034 2003 2786 2293 
Q 2538 2584 2113 2584 
z
M 3366 4563 
L 3366 3988 
Q 3128 4100 2886 4159 
Q 2644 4219 2406 4219 
Q 1781 4219 1451 3797 
Q 1122 3375 1075 2522 
Q 1259 2794 1537 2939 
Q 1816 3084 2150 3084 
Q 2853 3084 3261 2657 
Q 3669 2231 3669 1497 
Q 3669 778 3244 343 
Q 2819 -91 2113 -91 
Q 1303 -91 875 529 
Q 447 1150 447 2328 
Q 447 3434 972 4092 
Q 1497 4750 2381 4750 
Q 2619 4750 2861 4703 
Q 3103 4656 3366 4563 
z
" transform="scale(0.015625)"/>
       </defs>
       <use xlink:href="#DejaVuSans-36"/>
       <use xlink:href="#DejaVuSans-30" x="63.623047"/>
      </g>
     </g>
    </g>
    <g id="xtick_5">
     <g id="line2d_5">
      <g>
       <use xlink:href="#m21f75574b8" x="362.255041" y="247.056" style="stroke: #000000; stroke-width: 0.8"/>
      </g>
     </g>
     <g id="text_5">
      <!-- 80 -->
      <g transform="translate(350.802541 267.733187)scale(0.18 -0.18)">
       <defs>
        <path id="DejaVuSans-38" d="M 2034 2216 
Q 1584 2216 1326 1975 
Q 1069 1734 1069 1313 
Q 1069 891 1326 650 
Q 1584 409 2034 409 
Q 2484 409 2743 651 
Q 3003 894 3003 1313 
Q 3003 1734 2745 1975 
Q 2488 2216 2034 2216 
z
M 1403 2484 
Q 997 2584 770 2862 
Q 544 3141 544 3541 
Q 544 4100 942 4425 
Q 1341 4750 2034 4750 
Q 2731 4750 3128 4425 
Q 3525 4100 3525 3541 
Q 3525 3141 3298 2862 
Q 3072 2584 2669 2484 
Q 3125 2378 3379 2068 
Q 3634 1759 3634 1313 
Q 3634 634 3220 271 
Q 2806 -91 2034 -91 
Q 1263 -91 848 271 
Q 434 634 434 1313 
Q 434 1759 690 2068 
Q 947 2378 1403 2484 
z
M 1172 3481 
Q 1172 3119 1398 2916 
Q 1625 2713 2034 2713 
Q 2441 2713 2670 2916 
Q 2900 3119 2900 3481 
Q 2900 3844 2670 4047 
Q 2441 4250 2034 4250 
Q 1625 4250 1398 4047 
Q 1172 3844 1172 3481 
z
" transform="scale(0.015625)"/>
       </defs>
       <use xlink:href="#DejaVuSans-38"/>
       <use xlink:href="#DejaVuSans-30" x="63.623047"/>
      </g>
     </g>
    </g>
    <g id="text_6">
     <!-- $RA^{\circ}$ -->
     <g transform="translate(214.36625 289.153812)scale(0.18 -0.18)">
      <defs>
       <path id="DejaVuSans-Oblique-52" d="M 1613 4147 
L 1294 2491 
L 2106 2491 
Q 2584 2491 2879 2755 
Q 3175 3019 3175 3444 
Q 3175 3784 2976 3965 
Q 2778 4147 2406 4147 
L 1613 4147 
z
M 2772 2241 
Q 2972 2194 3105 2009 
Q 3238 1825 3413 1275 
L 3809 0 
L 3144 0 
L 2778 1197 
Q 2638 1659 2453 1815 
Q 2269 1972 1888 1972 
L 1191 1972 
L 806 0 
L 172 0 
L 1081 4666 
L 2503 4666 
Q 3150 4666 3495 4373 
Q 3841 4081 3841 3531 
Q 3841 3044 3547 2687 
Q 3253 2331 2772 2241 
z
" transform="scale(0.015625)"/>
       <path id="DejaVuSans-Oblique-41" d="M 2356 4666 
L 3072 4666 
L 3938 0 
L 3278 0 
L 3084 1197 
L 984 1197 
L 325 0 
L -341 0 
L 2356 4666 
z
M 2584 4044 
L 1275 1722 
L 2988 1722 
L 2584 4044 
z
" transform="scale(0.015625)"/>
       <path id="DejaVuSans-2218" d="M 2000 2619 
Q 1750 2619 1578 2445 
Q 1406 2272 1406 2022 
Q 1406 1775 1578 1605 
Q 1750 1435 2000 1435 
Q 2250 1435 2422 1605 
Q 2594 1775 2594 2022 
Q 2594 2269 2420 2444 
Q 2247 2619 2000 2619 
z
M 2000 3022 
Q 2200 3022 2384 2945 
Q 2569 2869 2703 2725 
Q 2847 2585 2919 2406 
Q 2991 2228 2991 2022 
Q 2991 1610 2702 1324 
Q 2413 1038 1994 1038 
Q 1572 1038 1290 1319 
Q 1009 1600 1009 2022 
Q 1009 2441 1296 2731 
Q 1584 3022 2000 3022 
z
" transform="scale(0.015625)"/>
      </defs>
      <use xlink:href="#DejaVuSans-Oblique-52" transform="translate(0 0.09375)"/>
      <use xlink:href="#DejaVuSans-Oblique-41" transform="translate(69.482422 0.09375)"/>
      <use xlink:href="#DejaVuSans-2218" transform="translate(144.907396 38.375)scale(0.7)"/>
     </g>
    </g>
   </g>
   <g id="matplotlib.axis_2">
    <g id="ytick_1">
     <g id="line2d_6">
      <defs>
       <path id="mce74fa8099" d="M 0 0 
L -3.5 0 
" style="stroke: #000000; stroke-width: 0.8"/>
      </defs>
      <g>
       <use xlink:href="#mce74fa8099" x="64.24625" y="209.869114" style="stroke: #000000; stroke-width: 0.8"/>
      </g>
     </g>
     <g id="text_7">
      <!-- 0.2 -->
      <g transform="translate(28.620625 216.707707)scale(0.18 -0.18)">
       <defs>
        <path id="DejaVuSans-2e" d="M 684 794 
L 1344 794 
L 1344 0 
L 684 0 
L 684 794 
z
" transform="scale(0.015625)"/>
       </defs>
       <use xlink:href="#DejaVuSans-30"/>
       <use xlink:href="#DejaVuSans-2e" x="63.623047"/>
       <use xlink:href="#DejaVuSans-32" x="95.410156"/>
      </g>
     </g>
    </g>
    <g id="ytick_2">
     <g id="line2d_7">
      <g>
       <use xlink:href="#mce74fa8099" x="64.24625" y="167.04117" style="stroke: #000000; stroke-width: 0.8"/>
      </g>
     </g>
     <g id="text_8">
      <!-- 0.4 -->
      <g transform="translate(28.620625 173.879763)scale(0.18 -0.18)">
       <use xlink:href="#DejaVuSans-30"/>
       <use xlink:href="#DejaVuSans-2e" x="63.623047"/>
       <use xlink:href="#DejaVuSans-34" x="95.410156"/>
      </g>
     </g>
    </g>
    <g id="ytick_3">
     <g id="line2d_8">
      <g>
       <use xlink:href="#mce74fa8099" x="64.24625" y="124.213226" style="stroke: #000000; stroke-width: 0.8"/>
      </g>
     </g>
     <g id="text_9">
      <!-- 0.6 -->
      <g transform="translate(28.620625 131.05182)scale(0.18 -0.18)">
       <use xlink:href="#DejaVuSans-30"/>
       <use xlink:href="#DejaVuSans-2e" x="63.623047"/>
       <use xlink:href="#DejaVuSans-36" x="95.410156"/>
      </g>
     </g>
    </g>
    <g id="ytick_4">
     <g id="line2d_9">
      <g>
       <use xlink:href="#mce74fa8099" x="64.24625" y="81.385282" style="stroke: #000000; stroke-width: 0.8"/>
      </g>
     </g>
     <g id="text_10">
      <!-- 0.8 -->
      <g transform="translate(28.620625 88.223876)scale(0.18 -0.18)">
       <use xlink:href="#DejaVuSans-30"/>
       <use xlink:href="#DejaVuSans-2e" x="63.623047"/>
       <use xlink:href="#DejaVuSans-38" x="95.410156"/>
      </g>
     </g>
    </g>
    <g id="ytick_5">
     <g id="line2d_10">
      <g>
       <use xlink:href="#mce74fa8099" x="64.24625" y="38.557338" style="stroke: #000000; stroke-width: 0.8"/>
      </g>
     </g>
     <g id="text_11">
      <!-- 1.0 -->
      <g transform="translate(28.620625 45.395932)scale(0.18 -0.18)">
       <defs>
        <path id="DejaVuSans-31" d="M 794 531 
L 1825 531 
L 1825 4091 
L 703 3866 
L 703 4441 
L 1819 4666 
L 2450 4666 
L 2450 531 
L 3481 531 
L 3481 0 
L 794 0 
L 794 531 
z
" transform="scale(0.015625)"/>
       </defs>
       <use xlink:href="#DejaVuSans-31"/>
       <use xlink:href="#DejaVuSans-2e" x="63.623047"/>
       <use xlink:href="#DejaVuSans-30" x="95.410156"/>
      </g>
     </g>
    </g>
    <g id="text_12">
     <!-- Rationality -->
     <g transform="translate(20.877188 186.512719)rotate(-90)scale(0.18 -0.18)">
      <defs>
       <path id="DejaVuSans-52" d="M 2841 2188 
Q 3044 2119 3236 1894 
Q 3428 1669 3622 1275 
L 4263 0 
L 3584 0 
L 2988 1197 
Q 2756 1666 2539 1819 
Q 2322 1972 1947 1972 
L 1259 1972 
L 1259 0 
L 628 0 
L 628 4666 
L 2053 4666 
Q 2853 4666 3247 4331 
Q 3641 3997 3641 3322 
Q 3641 2881 3436 2590 
Q 3231 2300 2841 2188 
z
M 1259 4147 
L 1259 2491 
L 2053 2491 
Q 2509 2491 2742 2702 
Q 2975 2913 2975 3322 
Q 2975 3731 2742 3939 
Q 2509 4147 2053 4147 
L 1259 4147 
z
" transform="scale(0.015625)"/>
       <path id="DejaVuSans-61" d="M 2194 1759 
Q 1497 1759 1228 1600 
Q 959 1441 959 1056 
Q 959 750 1161 570 
Q 1363 391 1709 391 
Q 2188 391 2477 730 
Q 2766 1069 2766 1631 
L 2766 1759 
L 2194 1759 
z
M 3341 1997 
L 3341 0 
L 2766 0 
L 2766 531 
Q 2569 213 2275 61 
Q 1981 -91 1556 -91 
Q 1019 -91 701 211 
Q 384 513 384 1019 
Q 384 1609 779 1909 
Q 1175 2209 1959 2209 
L 2766 2209 
L 2766 2266 
Q 2766 2663 2505 2880 
Q 2244 3097 1772 3097 
Q 1472 3097 1187 3025 
Q 903 2953 641 2809 
L 641 3341 
Q 956 3463 1253 3523 
Q 1550 3584 1831 3584 
Q 2591 3584 2966 3190 
Q 3341 2797 3341 1997 
z
" transform="scale(0.015625)"/>
       <path id="DejaVuSans-74" d="M 1172 4494 
L 1172 3500 
L 2356 3500 
L 2356 3053 
L 1172 3053 
L 1172 1153 
Q 1172 725 1289 603 
Q 1406 481 1766 481 
L 2356 481 
L 2356 0 
L 1766 0 
Q 1100 0 847 248 
Q 594 497 594 1153 
L 594 3053 
L 172 3053 
L 172 3500 
L 594 3500 
L 594 4494 
L 1172 4494 
z
" transform="scale(0.015625)"/>
       <path id="DejaVuSans-69" d="M 603 3500 
L 1178 3500 
L 1178 0 
L 603 0 
L 603 3500 
z
M 603 4863 
L 1178 4863 
L 1178 4134 
L 603 4134 
L 603 4863 
z
" transform="scale(0.015625)"/>
       <path id="DejaVuSans-6f" d="M 1959 3097 
Q 1497 3097 1228 2736 
Q 959 2375 959 1747 
Q 959 1119 1226 758 
Q 1494 397 1959 397 
Q 2419 397 2687 759 
Q 2956 1122 2956 1747 
Q 2956 2369 2687 2733 
Q 2419 3097 1959 3097 
z
M 1959 3584 
Q 2709 3584 3137 3096 
Q 3566 2609 3566 1747 
Q 3566 888 3137 398 
Q 2709 -91 1959 -91 
Q 1206 -91 779 398 
Q 353 888 353 1747 
Q 353 2609 779 3096 
Q 1206 3584 1959 3584 
z
" transform="scale(0.015625)"/>
       <path id="DejaVuSans-6e" d="M 3513 2113 
L 3513 0 
L 2938 0 
L 2938 2094 
Q 2938 2591 2744 2837 
Q 2550 3084 2163 3084 
Q 1697 3084 1428 2787 
Q 1159 2491 1159 1978 
L 1159 0 
L 581 0 
L 581 3500 
L 1159 3500 
L 1159 2956 
Q 1366 3272 1645 3428 
Q 1925 3584 2291 3584 
Q 2894 3584 3203 3211 
Q 3513 2838 3513 2113 
z
" transform="scale(0.015625)"/>
       <path id="DejaVuSans-6c" d="M 603 4863 
L 1178 4863 
L 1178 0 
L 603 0 
L 603 4863 
z
" transform="scale(0.015625)"/>
       <path id="DejaVuSans-79" d="M 2059 -325 
Q 1816 -950 1584 -1140 
Q 1353 -1331 966 -1331 
L 506 -1331 
L 506 -850 
L 844 -850 
Q 1081 -850 1212 -737 
Q 1344 -625 1503 -206 
L 1606 56 
L 191 3500 
L 800 3500 
L 1894 763 
L 2988 3500 
L 3597 3500 
L 2059 -325 
z
" transform="scale(0.015625)"/>
      </defs>
      <use xlink:href="#DejaVuSans-52"/>
      <use xlink:href="#DejaVuSans-61" x="67.232422"/>
      <use xlink:href="#DejaVuSans-74" x="128.511719"/>
      <use xlink:href="#DejaVuSans-69" x="167.720703"/>
      <use xlink:href="#DejaVuSans-6f" x="195.503906"/>
      <use xlink:href="#DejaVuSans-6e" x="256.685547"/>
      <use xlink:href="#DejaVuSans-61" x="320.064453"/>
      <use xlink:href="#DejaVuSans-6c" x="381.34375"/>
      <use xlink:href="#DejaVuSans-69" x="409.126953"/>
      <use xlink:href="#DejaVuSans-74" x="436.910156"/>
      <use xlink:href="#DejaVuSans-79" x="476.119141"/>
     </g>
    </g>
   </g>
   <g id="line2d_11">
    <path d="M 102.738398 69.716217 
L 105.037573 70.277313 
L 107.336748 70.838408 
L 109.635924 71.399504 
L 111.935099 71.9606 
L 114.234274 72.521696 
L 116.533449 73.082791 
L 118.832624 73.643887 
L 121.1318 74.204983 
L 123.430975 74.766078 
L 125.73015 75.327174 
L 128.029325 75.88827 
L 130.3285 76.449366 
L 132.627675 77.010461 
L 134.926851 77.571557 
L 137.226026 78.132653 
L 139.525201 78.693748 
L 141.824376 79.254844 
L 144.123551 79.81594 
L 146.422727 80.377036 
L 148.721902 80.938131 
L 151.021077 81.499227 
L 153.320252 82.060323 
L 155.619427 82.621418 
L 157.918602 83.182514 
L 160.217778 83.74361 
L 162.516953 84.304706 
L 164.816128 84.865801 
L 167.115303 85.426897 
L 169.414478 85.987993 
L 171.713654 86.549089 
L 174.012829 87.110184 
L 176.312004 87.67128 
L 178.611179 88.232376 
L 180.910354 88.793471 
L 183.20953 89.354567 
L 185.508705 89.915663 
L 187.80788 90.476759 
L 190.107055 91.037854 
L 192.40623 91.59895 
L 194.705405 92.160046 
L 197.004581 92.721141 
L 199.303756 93.282237 
L 201.602931 93.843333 
L 203.902106 94.404429 
L 206.201281 94.965524 
L 208.500457 95.52662 
L 210.799632 96.087716 
L 213.098807 96.648812 
L 215.397982 97.209907 
L 217.697157 97.771003 
L 219.996332 98.332099 
L 222.295508 98.893194 
L 224.594683 99.45429 
L 226.893858 100.015386 
L 229.193033 100.576482 
L 231.492208 101.137577 
L 233.791384 101.698673 
L 236.090559 102.259769 
L 238.389734 102.820864 
L 240.688909 103.38196 
L 242.988084 103.943056 
L 245.287259 104.504152 
L 247.586435 105.065247 
L 249.88561 105.626343 
L 252.184785 106.187439 
L 254.48396 106.748535 
L 256.783135 107.30963 
L 259.082311 107.870726 
L 261.381486 108.431822 
L 263.680661 108.992917 
L 265.979836 109.554013 
L 268.279011 110.115109 
L 270.578186 110.676205 
L 272.877362 111.2373 
L 275.176537 111.798396 
L 277.475712 112.359492 
L 279.774887 112.920587 
L 282.074062 113.481683 
L 284.373238 114.042779 
L 286.672413 114.603875 
L 288.971588 115.16497 
L 291.270763 115.726066 
L 293.569938 116.287162 
L 295.869114 116.848258 
L 298.168289 117.409353 
L 300.467464 117.970449 
L 302.766639 118.531545 
L 305.065814 119.09264 
L 307.364989 119.653736 
L 309.664165 120.214832 
L 311.96334 120.775928 
L 314.262515 121.337023 
L 316.56169 121.898119 
L 318.860865 122.459215 
L 321.160041 123.02031 
L 323.459216 123.581406 
L 325.758391 124.142502 
L 328.057566 124.703598 
L 330.356741 125.264693 
" clip-path="url(#pf9ec717258)" style="fill: none; stroke: #ea0f0b; stroke-width: 2.25; stroke-linecap: square"/>
   </g>
   <g id="patch_3">
    <path d="M 64.24625 247.056 
L 64.24625 29.616 
" style="fill: none; stroke: #000000; stroke-width: 0.8; stroke-linejoin: miter; stroke-linecap: square"/>
   </g>
   <g id="patch_4">
    <path d="M 399.04625 247.056 
L 399.04625 29.616 
" style="fill: none; stroke: #000000; stroke-width: 0.8; stroke-linejoin: miter; stroke-linecap: square"/>
   </g>
   <g id="patch_5">
    <path d="M 64.24625 247.056 
L 399.04625 247.056 
" style="fill: none; stroke: #000000; stroke-width: 0.8; stroke-linejoin: miter; stroke-linecap: square"/>
   </g>
   <g id="patch_6">
    <path d="M 64.24625 29.616 
L 399.04625 29.616 
" style="fill: none; stroke: #000000; stroke-width: 0.8; stroke-linejoin: miter; stroke-linecap: square"/>
   </g>
   <g id="text_13">
    <!-- $\rho$ = -0.2513, p-value = 0.0452 -->
    <g transform="translate(66.94625 23.616)scale(0.216 -0.216)">
     <defs>
      <path id="DejaVuSans-Oblique-3c1" d="M 1203 2875 
Q 1453 3194 1981 3475 
Q 2188 3584 2756 3584 
Q 3394 3584 3694 3078 
Q 3994 2572 3834 1747 
Q 3672 922 3175 415 
Q 2678 -91 2041 -91 
Q 1656 -91 1409 63 
Q 1163 213 1044 525 
L 681 -1331 
L 103 -1331 
L 697 1716 
Q 838 2438 1203 2875 
z
M 3238 1747 
Q 3359 2381 3169 2744 
Q 2978 3103 2522 3103 
Q 2066 3103 1734 2744 
Q 1403 2381 1281 1747 
Q 1156 1113 1347 750 
Q 1538 391 1994 391 
Q 2450 391 2781 750 
Q 3113 1113 3238 1747 
z
" transform="scale(0.015625)"/>
      <path id="DejaVuSans-20" transform="scale(0.015625)"/>
      <path id="DejaVuSans-3d" d="M 678 2906 
L 4684 2906 
L 4684 2381 
L 678 2381 
L 678 2906 
z
M 678 1631 
L 4684 1631 
L 4684 1100 
L 678 1100 
L 678 1631 
z
" transform="scale(0.015625)"/>
      <path id="DejaVuSans-2d" d="M 313 2009 
L 1997 2009 
L 1997 1497 
L 313 1497 
L 313 2009 
z
" transform="scale(0.015625)"/>
      <path id="DejaVuSans-35" d="M 691 4666 
L 3169 4666 
L 3169 4134 
L 1269 4134 
L 1269 2991 
Q 1406 3038 1543 3061 
Q 1681 3084 1819 3084 
Q 2600 3084 3056 2656 
Q 3513 2228 3513 1497 
Q 3513 744 3044 326 
Q 2575 -91 1722 -91 
Q 1428 -91 1123 -41 
Q 819 9 494 109 
L 494 744 
Q 775 591 1075 516 
Q 1375 441 1709 441 
Q 2250 441 2565 725 
Q 2881 1009 2881 1497 
Q 2881 1984 2565 2268 
Q 2250 2553 1709 2553 
Q 1456 2553 1204 2497 
Q 953 2441 691 2322 
L 691 4666 
z
" transform="scale(0.015625)"/>
      <path id="DejaVuSans-33" d="M 2597 2516 
Q 3050 2419 3304 2112 
Q 3559 1806 3559 1356 
Q 3559 666 3084 287 
Q 2609 -91 1734 -91 
Q 1441 -91 1130 -33 
Q 819 25 488 141 
L 488 750 
Q 750 597 1062 519 
Q 1375 441 1716 441 
Q 2309 441 2620 675 
Q 2931 909 2931 1356 
Q 2931 1769 2642 2001 
Q 2353 2234 1838 2234 
L 1294 2234 
L 1294 2753 
L 1863 2753 
Q 2328 2753 2575 2939 
Q 2822 3125 2822 3475 
Q 2822 3834 2567 4026 
Q 2313 4219 1838 4219 
Q 1578 4219 1281 4162 
Q 984 4106 628 3988 
L 628 4550 
Q 988 4650 1302 4700 
Q 1616 4750 1894 4750 
Q 2613 4750 3031 4423 
Q 3450 4097 3450 3541 
Q 3450 3153 3228 2886 
Q 3006 2619 2597 2516 
z
" transform="scale(0.015625)"/>
      <path id="DejaVuSans-2c" d="M 750 794 
L 1409 794 
L 1409 256 
L 897 -744 
L 494 -744 
L 750 256 
L 750 794 
z
" transform="scale(0.015625)"/>
      <path id="DejaVuSans-70" d="M 1159 525 
L 1159 -1331 
L 581 -1331 
L 581 3500 
L 1159 3500 
L 1159 2969 
Q 1341 3281 1617 3432 
Q 1894 3584 2278 3584 
Q 2916 3584 3314 3078 
Q 3713 2572 3713 1747 
Q 3713 922 3314 415 
Q 2916 -91 2278 -91 
Q 1894 -91 1617 61 
Q 1341 213 1159 525 
z
M 3116 1747 
Q 3116 2381 2855 2742 
Q 2594 3103 2138 3103 
Q 1681 3103 1420 2742 
Q 1159 2381 1159 1747 
Q 1159 1113 1420 752 
Q 1681 391 2138 391 
Q 2594 391 2855 752 
Q 3116 1113 3116 1747 
z
" transform="scale(0.015625)"/>
      <path id="DejaVuSans-76" d="M 191 3500 
L 800 3500 
L 1894 563 
L 2988 3500 
L 3597 3500 
L 2284 0 
L 1503 0 
L 191 3500 
z
" transform="scale(0.015625)"/>
      <path id="DejaVuSans-75" d="M 544 1381 
L 544 3500 
L 1119 3500 
L 1119 1403 
Q 1119 906 1312 657 
Q 1506 409 1894 409 
Q 2359 409 2629 706 
Q 2900 1003 2900 1516 
L 2900 3500 
L 3475 3500 
L 3475 0 
L 2900 0 
L 2900 538 
Q 2691 219 2414 64 
Q 2138 -91 1772 -91 
Q 1169 -91 856 284 
Q 544 659 544 1381 
z
M 1991 3584 
L 1991 3584 
z
" transform="scale(0.015625)"/>
      <path id="DejaVuSans-65" d="M 3597 1894 
L 3597 1613 
L 953 1613 
Q 991 1019 1311 708 
Q 1631 397 2203 397 
Q 2534 397 2845 478 
Q 3156 559 3463 722 
L 3463 178 
Q 3153 47 2828 -22 
Q 2503 -91 2169 -91 
Q 1331 -91 842 396 
Q 353 884 353 1716 
Q 353 2575 817 3079 
Q 1281 3584 2069 3584 
Q 2775 3584 3186 3129 
Q 3597 2675 3597 1894 
z
M 3022 2063 
Q 3016 2534 2758 2815 
Q 2500 3097 2075 3097 
Q 1594 3097 1305 2825 
Q 1016 2553 972 2059 
L 3022 2063 
z
" transform="scale(0.015625)"/>
     </defs>
     <use xlink:href="#DejaVuSans-Oblique-3c1" transform="translate(0 0.015625)"/>
     <use xlink:href="#DejaVuSans-20" transform="translate(63.476562 0.015625)"/>
     <use xlink:href="#DejaVuSans-3d" transform="translate(95.263672 0.015625)"/>
     <use xlink:href="#DejaVuSans-20" transform="translate(179.052734 0.015625)"/>
     <use xlink:href="#DejaVuSans-2d" transform="translate(210.839844 0.015625)"/>
     <use xlink:href="#DejaVuSans-30" transform="translate(246.923828 0.015625)"/>
     <use xlink:href="#DejaVuSans-2e" transform="translate(310.546875 0.015625)"/>
     <use xlink:href="#DejaVuSans-32" transform="translate(336.833984 0.015625)"/>
     <use xlink:href="#DejaVuSans-35" transform="translate(400.457031 0.015625)"/>
     <use xlink:href="#DejaVuSans-31" transform="translate(464.080078 0.015625)"/>
     <use xlink:href="#DejaVuSans-33" transform="translate(527.703125 0.015625)"/>
     <use xlink:href="#DejaVuSans-2c" transform="translate(591.326172 0.015625)"/>
     <use xlink:href="#DejaVuSans-20" transform="translate(623.113281 0.015625)"/>
     <use xlink:href="#DejaVuSans-70" transform="translate(654.900391 0.015625)"/>
     <use xlink:href="#DejaVuSans-2d" transform="translate(718.376953 0.015625)"/>
     <use xlink:href="#DejaVuSans-76" transform="translate(754.460938 0.015625)"/>
     <use xlink:href="#DejaVuSans-61" transform="translate(813.640625 0.015625)"/>
     <use xlink:href="#DejaVuSans-6c" transform="translate(874.919922 0.015625)"/>
     <use xlink:href="#DejaVuSans-75" transform="translate(902.703125 0.015625)"/>
     <use xlink:href="#DejaVuSans-65" transform="translate(966.082031 0.015625)"/>
     <use xlink:href="#DejaVuSans-20" transform="translate(1027.605469 0.015625)"/>
     <use xlink:href="#DejaVuSans-3d" transform="translate(1059.392578 0.015625)"/>
     <use xlink:href="#DejaVuSans-20" transform="translate(1143.181641 0.015625)"/>
     <use xlink:href="#DejaVuSans-30" transform="translate(1174.96875 0.015625)"/>
     <use xlink:href="#DejaVuSans-2e" transform="translate(1238.591797 0.015625)"/>
     <use xlink:href="#DejaVuSans-30" transform="translate(1270.378906 0.015625)"/>
     <use xlink:href="#DejaVuSans-34" transform="translate(1334.001953 0.015625)"/>
     <use xlink:href="#DejaVuSans-35" transform="translate(1397.625 0.015625)"/>
     <use xlink:href="#DejaVuSans-32" transform="translate(1461.248047 0.015625)"/>
    </g>
   </g>
   <g id="legend_1">
    <g id="patch_7">
     <path d="M 76.84625 238.056 
L 227.846563 238.056 
Q 231.446562 238.056 231.446562 234.456 
L 231.446562 209.835375 
Q 231.446562 206.235375 227.846563 206.235375 
L 76.84625 206.235375 
Q 73.24625 206.235375 73.24625 209.835375 
L 73.24625 234.456 
Q 73.24625 238.056 76.84625 238.056 
z
" style="fill: #ffffff; opacity: 0.8; stroke: #cccccc; stroke-linejoin: miter"/>
    </g>
    <g id="PathCollection_2">
     <g>
      <use xlink:href="#md148d2c827" x="98.44625" y="222.387562" style="fill: #ea0f0b; fill-opacity: 0.8; stroke: #ea0f0b; stroke-opacity: 0.8"/>
     </g>
    </g>
    <g id="text_14">
     <!-- VN no info -->
     <g transform="translate(130.84625 227.112562)scale(0.18 -0.18)">
      <defs>
       <path id="DejaVuSans-56" d="M 1831 0 
L 50 4666 
L 709 4666 
L 2188 738 
L 3669 4666 
L 4325 4666 
L 2547 0 
L 1831 0 
z
" transform="scale(0.015625)"/>
       <path id="DejaVuSans-4e" d="M 628 4666 
L 1478 4666 
L 3547 763 
L 3547 4666 
L 4159 4666 
L 4159 0 
L 3309 0 
L 1241 3903 
L 1241 0 
L 628 0 
L 628 4666 
z
" transform="scale(0.015625)"/>
       <path id="DejaVuSans-66" d="M 2375 4863 
L 2375 4384 
L 1825 4384 
Q 1516 4384 1395 4259 
Q 1275 4134 1275 3809 
L 1275 3500 
L 2222 3500 
L 2222 3053 
L 1275 3053 
L 1275 0 
L 697 0 
L 697 3053 
L 147 3053 
L 147 3500 
L 697 3500 
L 697 3744 
Q 697 4328 969 4595 
Q 1241 4863 1831 4863 
L 2375 4863 
z
" transform="scale(0.015625)"/>
      </defs>
      <use xlink:href="#DejaVuSans-56"/>
      <use xlink:href="#DejaVuSans-4e" x="68.408203"/>
      <use xlink:href="#DejaVuSans-20" x="143.212891"/>
      <use xlink:href="#DejaVuSans-6e" x="175"/>
      <use xlink:href="#DejaVuSans-6f" x="238.378906"/>
      <use xlink:href="#DejaVuSans-20" x="299.560547"/>
      <use xlink:href="#DejaVuSans-69" x="331.347656"/>
      <use xlink:href="#DejaVuSans-6e" x="359.130859"/>
      <use xlink:href="#DejaVuSans-66" x="422.509766"/>
      <use xlink:href="#DejaVuSans-6f" x="457.714844"/>
     </g>
    </g>
   </g>
  </g>
 </g>
 <defs>
  <clipPath id="pf9ec717258">
   <rect x="64.24625" y="29.616" width="334.8" height="217.44"/>
  </clipPath>
 </defs>
</svg>
