<?xml version="1.0" encoding="utf-8" standalone="no"?>
<!DOCTYPE svg PUBLIC "-//W3C//DTD SVG 1.1//EN"
  "http://www.w3.org/Graphics/SVG/1.1/DTD/svg11.dtd">
<svg xmlns:xlink="http://www.w3.org/1999/xlink" width="517.84625pt" height="501.959844pt" viewBox="0 0 517.84625 501.959844" xmlns="http://www.w3.org/2000/svg" version="1.1">
 <metadata>
  <rdf:RDF xmlns:dc="http://purl.org/dc/elements/1.1/" xmlns:cc="http://creativecommons.org/ns#" xmlns:rdf="http://www.w3.org/1999/02/22-rdf-syntax-ns#">
   <cc:Work>
    <dc:type rdf:resource="http://purl.org/dc/dcmitype/StillImage"/>
    <dc:date>2022-05-18T11:11:52.483054</dc:date>
    <dc:format>image/svg+xml</dc:format>
    <dc:creator>
     <cc:Agent>
      <dc:title>Matplotlib v3.5.0, https://matplotlib.org/</dc:title>
     </cc:Agent>
    </dc:creator>
   </cc:Work>
  </rdf:RDF>
 </metadata>
 <defs>
  <style type="text/css">*{stroke-linejoin: round; stroke-linecap: butt}</style>
 </defs>
 <g id="figure_1">
  <g id="patch_1">
   <path d="M 0 501.959844 
L 517.84625 501.959844 
L 517.84625 0 
L 0 0 
L 0 501.959844 
z
" style="fill: none"/>
  </g>
  <g id="axes_1">
   <g id="patch_2">
    <path d="M 64.24625 448.918594 
L 510.64625 448.918594 
L 510.64625 14.038594 
L 64.24625 14.038594 
z
" style="fill: #ffffff"/>
   </g>
   <g id="matplotlib.axis_1">
    <g id="xtick_1">
     <g id="line2d_1">
      <defs>
       <path id="m2a07134c0a" d="M 0 0 
L 0 3.5 
" style="stroke: #000000; stroke-width: 0.8"/>
      </defs>
      <g>
       <use xlink:href="#m2a07134c0a" x="83.506218" y="448.918594" style="stroke: #000000; stroke-width: 0.8"/>
      </g>
     </g>
     <g id="text_1">
      <!-- 0.0 -->
      <g transform="translate(69.193405 469.595781)scale(0.18 -0.18)">
       <defs>
        <path id="DejaVuSans-30" d="M 2034 4250 
Q 1547 4250 1301 3770 
Q 1056 3291 1056 2328 
Q 1056 1369 1301 889 
Q 1547 409 2034 409 
Q 2525 409 2770 889 
Q 3016 1369 3016 2328 
Q 3016 3291 2770 3770 
Q 2525 4250 2034 4250 
z
M 2034 4750 
Q 2819 4750 3233 4129 
Q 3647 3509 3647 2328 
Q 3647 1150 3233 529 
Q 2819 -91 2034 -91 
Q 1250 -91 836 529 
Q 422 1150 422 2328 
Q 422 3509 836 4129 
Q 1250 4750 2034 4750 
z
" transform="scale(0.015625)"/>
        <path id="DejaVuSans-2e" d="M 684 794 
L 1344 794 
L 1344 0 
L 684 0 
L 684 794 
z
" transform="scale(0.015625)"/>
       </defs>
       <use xlink:href="#DejaVuSans-30"/>
       <use xlink:href="#DejaVuSans-2e" x="63.623047"/>
       <use xlink:href="#DejaVuSans-30" x="95.410156"/>
      </g>
     </g>
    </g>
    <g id="xtick_2">
     <g id="line2d_2">
      <g>
       <use xlink:href="#m2a07134c0a" x="164.884226" y="448.918594" style="stroke: #000000; stroke-width: 0.8"/>
      </g>
     </g>
     <g id="text_2">
      <!-- 0.2 -->
      <g transform="translate(150.571414 469.595781)scale(0.18 -0.18)">
       <defs>
        <path id="DejaVuSans-32" d="M 1228 531 
L 3431 531 
L 3431 0 
L 469 0 
L 469 531 
Q 828 903 1448 1529 
Q 2069 2156 2228 2338 
Q 2531 2678 2651 2914 
Q 2772 3150 2772 3378 
Q 2772 3750 2511 3984 
Q 2250 4219 1831 4219 
Q 1534 4219 1204 4116 
Q 875 4013 500 3803 
L 500 4441 
Q 881 4594 1212 4672 
Q 1544 4750 1819 4750 
Q 2544 4750 2975 4387 
Q 3406 4025 3406 3419 
Q 3406 3131 3298 2873 
Q 3191 2616 2906 2266 
Q 2828 2175 2409 1742 
Q 1991 1309 1228 531 
z
" transform="scale(0.015625)"/>
       </defs>
       <use xlink:href="#DejaVuSans-30"/>
       <use xlink:href="#DejaVuSans-2e" x="63.623047"/>
       <use xlink:href="#DejaVuSans-32" x="95.410156"/>
      </g>
     </g>
    </g>
    <g id="xtick_3">
     <g id="line2d_3">
      <g>
       <use xlink:href="#m2a07134c0a" x="246.262235" y="448.918594" style="stroke: #000000; stroke-width: 0.8"/>
      </g>
     </g>
     <g id="text_3">
      <!-- 0.4 -->
      <g transform="translate(231.949422 469.595781)scale(0.18 -0.18)">
       <defs>
        <path id="DejaVuSans-34" d="M 2419 4116 
L 825 1625 
L 2419 1625 
L 2419 4116 
z
M 2253 4666 
L 3047 4666 
L 3047 1625 
L 3713 1625 
L 3713 1100 
L 3047 1100 
L 3047 0 
L 2419 0 
L 2419 1100 
L 313 1100 
L 313 1709 
L 2253 4666 
z
" transform="scale(0.015625)"/>
       </defs>
       <use xlink:href="#DejaVuSans-30"/>
       <use xlink:href="#DejaVuSans-2e" x="63.623047"/>
       <use xlink:href="#DejaVuSans-34" x="95.410156"/>
      </g>
     </g>
    </g>
    <g id="xtick_4">
     <g id="line2d_4">
      <g>
       <use xlink:href="#m2a07134c0a" x="327.640243" y="448.918594" style="stroke: #000000; stroke-width: 0.8"/>
      </g>
     </g>
     <g id="text_4">
      <!-- 0.6 -->
      <g transform="translate(313.327431 469.595781)scale(0.18 -0.18)">
       <defs>
        <path id="DejaVuSans-36" d="M 2113 2584 
Q 1688 2584 1439 2293 
Q 1191 2003 1191 1497 
Q 1191 994 1439 701 
Q 1688 409 2113 409 
Q 2538 409 2786 701 
Q 3034 994 3034 1497 
Q 3034 2003 2786 2293 
Q 2538 2584 2113 2584 
z
M 3366 4563 
L 3366 3988 
Q 3128 4100 2886 4159 
Q 2644 4219 2406 4219 
Q 1781 4219 1451 3797 
Q 1122 3375 1075 2522 
Q 1259 2794 1537 2939 
Q 1816 3084 2150 3084 
Q 2853 3084 3261 2657 
Q 3669 2231 3669 1497 
Q 3669 778 3244 343 
Q 2819 -91 2113 -91 
Q 1303 -91 875 529 
Q 447 1150 447 2328 
Q 447 3434 972 4092 
Q 1497 4750 2381 4750 
Q 2619 4750 2861 4703 
Q 3103 4656 3366 4563 
z
" transform="scale(0.015625)"/>
       </defs>
       <use xlink:href="#DejaVuSans-30"/>
       <use xlink:href="#DejaVuSans-2e" x="63.623047"/>
       <use xlink:href="#DejaVuSans-36" x="95.410156"/>
      </g>
     </g>
    </g>
    <g id="xtick_5">
     <g id="line2d_5">
      <g>
       <use xlink:href="#m2a07134c0a" x="409.018251" y="448.918594" style="stroke: #000000; stroke-width: 0.8"/>
      </g>
     </g>
     <g id="text_5">
      <!-- 0.8 -->
      <g transform="translate(394.705439 469.595781)scale(0.18 -0.18)">
       <defs>
        <path id="DejaVuSans-38" d="M 2034 2216 
Q 1584 2216 1326 1975 
Q 1069 1734 1069 1313 
Q 1069 891 1326 650 
Q 1584 409 2034 409 
Q 2484 409 2743 651 
Q 3003 894 3003 1313 
Q 3003 1734 2745 1975 
Q 2488 2216 2034 2216 
z
M 1403 2484 
Q 997 2584 770 2862 
Q 544 3141 544 3541 
Q 544 4100 942 4425 
Q 1341 4750 2034 4750 
Q 2731 4750 3128 4425 
Q 3525 4100 3525 3541 
Q 3525 3141 3298 2862 
Q 3072 2584 2669 2484 
Q 3125 2378 3379 2068 
Q 3634 1759 3634 1313 
Q 3634 634 3220 271 
Q 2806 -91 2034 -91 
Q 1263 -91 848 271 
Q 434 634 434 1313 
Q 434 1759 690 2068 
Q 947 2378 1403 2484 
z
M 1172 3481 
Q 1172 3119 1398 2916 
Q 1625 2713 2034 2713 
Q 2441 2713 2670 2916 
Q 2900 3119 2900 3481 
Q 2900 3844 2670 4047 
Q 2441 4250 2034 4250 
Q 1625 4250 1398 4047 
Q 1172 3844 1172 3481 
z
" transform="scale(0.015625)"/>
       </defs>
       <use xlink:href="#DejaVuSans-30"/>
       <use xlink:href="#DejaVuSans-2e" x="63.623047"/>
       <use xlink:href="#DejaVuSans-38" x="95.410156"/>
      </g>
     </g>
    </g>
    <g id="xtick_6">
     <g id="line2d_6">
      <g>
       <use xlink:href="#m2a07134c0a" x="490.39626" y="448.918594" style="stroke: #000000; stroke-width: 0.8"/>
      </g>
     </g>
     <g id="text_6">
      <!-- 1.0 -->
      <g transform="translate(476.083447 469.595781)scale(0.18 -0.18)">
       <defs>
        <path id="DejaVuSans-31" d="M 794 531 
L 1825 531 
L 1825 4091 
L 703 3866 
L 703 4441 
L 1819 4666 
L 2450 4666 
L 2450 531 
L 3481 531 
L 3481 0 
L 794 0 
L 794 531 
z
" transform="scale(0.015625)"/>
       </defs>
       <use xlink:href="#DejaVuSans-31"/>
       <use xlink:href="#DejaVuSans-2e" x="63.623047"/>
       <use xlink:href="#DejaVuSans-30" x="95.410156"/>
      </g>
     </g>
    </g>
    <g id="text_7">
     <!-- Rationality -->
     <g transform="translate(239.269531 491.016406)scale(0.18 -0.18)">
      <defs>
       <path id="DejaVuSans-52" d="M 2841 2188 
Q 3044 2119 3236 1894 
Q 3428 1669 3622 1275 
L 4263 0 
L 3584 0 
L 2988 1197 
Q 2756 1666 2539 1819 
Q 2322 1972 1947 1972 
L 1259 1972 
L 1259 0 
L 628 0 
L 628 4666 
L 2053 4666 
Q 2853 4666 3247 4331 
Q 3641 3997 3641 3322 
Q 3641 2881 3436 2590 
Q 3231 2300 2841 2188 
z
M 1259 4147 
L 1259 2491 
L 2053 2491 
Q 2509 2491 2742 2702 
Q 2975 2913 2975 3322 
Q 2975 3731 2742 3939 
Q 2509 4147 2053 4147 
L 1259 4147 
z
" transform="scale(0.015625)"/>
       <path id="DejaVuSans-61" d="M 2194 1759 
Q 1497 1759 1228 1600 
Q 959 1441 959 1056 
Q 959 750 1161 570 
Q 1363 391 1709 391 
Q 2188 391 2477 730 
Q 2766 1069 2766 1631 
L 2766 1759 
L 2194 1759 
z
M 3341 1997 
L 3341 0 
L 2766 0 
L 2766 531 
Q 2569 213 2275 61 
Q 1981 -91 1556 -91 
Q 1019 -91 701 211 
Q 384 513 384 1019 
Q 384 1609 779 1909 
Q 1175 2209 1959 2209 
L 2766 2209 
L 2766 2266 
Q 2766 2663 2505 2880 
Q 2244 3097 1772 3097 
Q 1472 3097 1187 3025 
Q 903 2953 641 2809 
L 641 3341 
Q 956 3463 1253 3523 
Q 1550 3584 1831 3584 
Q 2591 3584 2966 3190 
Q 3341 2797 3341 1997 
z
" transform="scale(0.015625)"/>
       <path id="DejaVuSans-74" d="M 1172 4494 
L 1172 3500 
L 2356 3500 
L 2356 3053 
L 1172 3053 
L 1172 1153 
Q 1172 725 1289 603 
Q 1406 481 1766 481 
L 2356 481 
L 2356 0 
L 1766 0 
Q 1100 0 847 248 
Q 594 497 594 1153 
L 594 3053 
L 172 3053 
L 172 3500 
L 594 3500 
L 594 4494 
L 1172 4494 
z
" transform="scale(0.015625)"/>
       <path id="DejaVuSans-69" d="M 603 3500 
L 1178 3500 
L 1178 0 
L 603 0 
L 603 3500 
z
M 603 4863 
L 1178 4863 
L 1178 4134 
L 603 4134 
L 603 4863 
z
" transform="scale(0.015625)"/>
       <path id="DejaVuSans-6f" d="M 1959 3097 
Q 1497 3097 1228 2736 
Q 959 2375 959 1747 
Q 959 1119 1226 758 
Q 1494 397 1959 397 
Q 2419 397 2687 759 
Q 2956 1122 2956 1747 
Q 2956 2369 2687 2733 
Q 2419 3097 1959 3097 
z
M 1959 3584 
Q 2709 3584 3137 3096 
Q 3566 2609 3566 1747 
Q 3566 888 3137 398 
Q 2709 -91 1959 -91 
Q 1206 -91 779 398 
Q 353 888 353 1747 
Q 353 2609 779 3096 
Q 1206 3584 1959 3584 
z
" transform="scale(0.015625)"/>
       <path id="DejaVuSans-6e" d="M 3513 2113 
L 3513 0 
L 2938 0 
L 2938 2094 
Q 2938 2591 2744 2837 
Q 2550 3084 2163 3084 
Q 1697 3084 1428 2787 
Q 1159 2491 1159 1978 
L 1159 0 
L 581 0 
L 581 3500 
L 1159 3500 
L 1159 2956 
Q 1366 3272 1645 3428 
Q 1925 3584 2291 3584 
Q 2894 3584 3203 3211 
Q 3513 2838 3513 2113 
z
" transform="scale(0.015625)"/>
       <path id="DejaVuSans-6c" d="M 603 4863 
L 1178 4863 
L 1178 0 
L 603 0 
L 603 4863 
z
" transform="scale(0.015625)"/>
       <path id="DejaVuSans-79" d="M 2059 -325 
Q 1816 -950 1584 -1140 
Q 1353 -1331 966 -1331 
L 506 -1331 
L 506 -850 
L 844 -850 
Q 1081 -850 1212 -737 
Q 1344 -625 1503 -206 
L 1606 56 
L 191 3500 
L 800 3500 
L 1894 763 
L 2988 3500 
L 3597 3500 
L 2059 -325 
z
" transform="scale(0.015625)"/>
      </defs>
      <use xlink:href="#DejaVuSans-52"/>
      <use xlink:href="#DejaVuSans-61" x="67.232422"/>
      <use xlink:href="#DejaVuSans-74" x="128.511719"/>
      <use xlink:href="#DejaVuSans-69" x="167.720703"/>
      <use xlink:href="#DejaVuSans-6f" x="195.503906"/>
      <use xlink:href="#DejaVuSans-6e" x="256.685547"/>
      <use xlink:href="#DejaVuSans-61" x="320.064453"/>
      <use xlink:href="#DejaVuSans-6c" x="381.34375"/>
      <use xlink:href="#DejaVuSans-69" x="409.126953"/>
      <use xlink:href="#DejaVuSans-74" x="436.910156"/>
      <use xlink:href="#DejaVuSans-79" x="476.119141"/>
     </g>
    </g>
   </g>
   <g id="matplotlib.axis_2">
    <g id="ytick_1">
     <g id="line2d_7">
      <defs>
       <path id="m62190a5cce" d="M 0 0 
L -3.5 0 
" style="stroke: #000000; stroke-width: 0.8"/>
      </defs>
      <g>
       <use xlink:href="#m62190a5cce" x="64.24625" y="448.918594" style="stroke: #000000; stroke-width: 0.8"/>
      </g>
     </g>
     <g id="text_8">
      <!-- 0.0 -->
      <g transform="translate(28.620625 455.757187)scale(0.18 -0.18)">
       <use xlink:href="#DejaVuSans-30"/>
       <use xlink:href="#DejaVuSans-2e" x="63.623047"/>
       <use xlink:href="#DejaVuSans-30" x="95.410156"/>
      </g>
     </g>
    </g>
    <g id="ytick_2">
     <g id="line2d_8">
      <g>
       <use xlink:href="#m62190a5cce" x="64.24625" y="361.942594" style="stroke: #000000; stroke-width: 0.8"/>
      </g>
     </g>
     <g id="text_9">
      <!-- 0.2 -->
      <g transform="translate(28.620625 368.781187)scale(0.18 -0.18)">
       <use xlink:href="#DejaVuSans-30"/>
       <use xlink:href="#DejaVuSans-2e" x="63.623047"/>
       <use xlink:href="#DejaVuSans-32" x="95.410156"/>
      </g>
     </g>
    </g>
    <g id="ytick_3">
     <g id="line2d_9">
      <g>
       <use xlink:href="#m62190a5cce" x="64.24625" y="274.966594" style="stroke: #000000; stroke-width: 0.8"/>
      </g>
     </g>
     <g id="text_10">
      <!-- 0.4 -->
      <g transform="translate(28.620625 281.805187)scale(0.18 -0.18)">
       <use xlink:href="#DejaVuSans-30"/>
       <use xlink:href="#DejaVuSans-2e" x="63.623047"/>
       <use xlink:href="#DejaVuSans-34" x="95.410156"/>
      </g>
     </g>
    </g>
    <g id="ytick_4">
     <g id="line2d_10">
      <g>
       <use xlink:href="#m62190a5cce" x="64.24625" y="187.990594" style="stroke: #000000; stroke-width: 0.8"/>
      </g>
     </g>
     <g id="text_11">
      <!-- 0.6 -->
      <g transform="translate(28.620625 194.829187)scale(0.18 -0.18)">
       <use xlink:href="#DejaVuSans-30"/>
       <use xlink:href="#DejaVuSans-2e" x="63.623047"/>
       <use xlink:href="#DejaVuSans-36" x="95.410156"/>
      </g>
     </g>
    </g>
    <g id="ytick_5">
     <g id="line2d_11">
      <g>
       <use xlink:href="#m62190a5cce" x="64.24625" y="101.014594" style="stroke: #000000; stroke-width: 0.8"/>
      </g>
     </g>
     <g id="text_12">
      <!-- 0.8 -->
      <g transform="translate(28.620625 107.853187)scale(0.18 -0.18)">
       <use xlink:href="#DejaVuSans-30"/>
       <use xlink:href="#DejaVuSans-2e" x="63.623047"/>
       <use xlink:href="#DejaVuSans-38" x="95.410156"/>
      </g>
     </g>
    </g>
    <g id="ytick_6">
     <g id="line2d_12">
      <g>
       <use xlink:href="#m62190a5cce" x="64.24625" y="14.038594" style="stroke: #000000; stroke-width: 0.8"/>
      </g>
     </g>
     <g id="text_13">
      <!-- 1.0 -->
      <g transform="translate(28.620625 20.877187)scale(0.18 -0.18)">
       <use xlink:href="#DejaVuSans-31"/>
       <use xlink:href="#DejaVuSans-2e" x="63.623047"/>
       <use xlink:href="#DejaVuSans-30" x="95.410156"/>
      </g>
     </g>
    </g>
    <g id="text_14">
     <!-- Proportion -->
     <g transform="translate(20.877188 277.911562)rotate(-90)scale(0.18 -0.18)">
      <defs>
       <path id="DejaVuSans-50" d="M 1259 4147 
L 1259 2394 
L 2053 2394 
Q 2494 2394 2734 2622 
Q 2975 2850 2975 3272 
Q 2975 3691 2734 3919 
Q 2494 4147 2053 4147 
L 1259 4147 
z
M 628 4666 
L 2053 4666 
Q 2838 4666 3239 4311 
Q 3641 3956 3641 3272 
Q 3641 2581 3239 2228 
Q 2838 1875 2053 1875 
L 1259 1875 
L 1259 0 
L 628 0 
L 628 4666 
z
" transform="scale(0.015625)"/>
       <path id="DejaVuSans-72" d="M 2631 2963 
Q 2534 3019 2420 3045 
Q 2306 3072 2169 3072 
Q 1681 3072 1420 2755 
Q 1159 2438 1159 1844 
L 1159 0 
L 581 0 
L 581 3500 
L 1159 3500 
L 1159 2956 
Q 1341 3275 1631 3429 
Q 1922 3584 2338 3584 
Q 2397 3584 2469 3576 
Q 2541 3569 2628 3553 
L 2631 2963 
z
" transform="scale(0.015625)"/>
       <path id="DejaVuSans-70" d="M 1159 525 
L 1159 -1331 
L 581 -1331 
L 581 3500 
L 1159 3500 
L 1159 2969 
Q 1341 3281 1617 3432 
Q 1894 3584 2278 3584 
Q 2916 3584 3314 3078 
Q 3713 2572 3713 1747 
Q 3713 922 3314 415 
Q 2916 -91 2278 -91 
Q 1894 -91 1617 61 
Q 1341 213 1159 525 
z
M 3116 1747 
Q 3116 2381 2855 2742 
Q 2594 3103 2138 3103 
Q 1681 3103 1420 2742 
Q 1159 2381 1159 1747 
Q 1159 1113 1420 752 
Q 1681 391 2138 391 
Q 2594 391 2855 752 
Q 3116 1113 3116 1747 
z
" transform="scale(0.015625)"/>
      </defs>
      <use xlink:href="#DejaVuSans-50"/>
      <use xlink:href="#DejaVuSans-72" x="58.552734"/>
      <use xlink:href="#DejaVuSans-6f" x="97.416016"/>
      <use xlink:href="#DejaVuSans-70" x="158.597656"/>
      <use xlink:href="#DejaVuSans-6f" x="222.074219"/>
      <use xlink:href="#DejaVuSans-72" x="283.255859"/>
      <use xlink:href="#DejaVuSans-74" x="324.369141"/>
      <use xlink:href="#DejaVuSans-69" x="363.578125"/>
      <use xlink:href="#DejaVuSans-6f" x="391.361328"/>
      <use xlink:href="#DejaVuSans-6e" x="452.542969"/>
     </g>
    </g>
   </g>
   <g id="line2d_13">
    <path d="M 124.049431 448.918594 
L 124.049431 441.420663 
L 195.403505 441.420663 
L 195.403505 433.922732 
L 200.499851 433.922732 
L 200.499851 426.424801 
L 204.226835 426.424801 
L 204.226835 418.92687 
L 206.805595 418.92687 
L 206.805595 411.428939 
L 207.90337 411.428939 
L 207.90337 403.931008 
L 263.801742 403.931008 
L 263.801742 396.433077 
L 269.783295 396.433077 
L 269.783295 388.935145 
L 283.780487 388.935145 
L 283.780487 381.437214 
L 284.39183 381.437214 
L 284.39183 373.939283 
L 284.492382 373.939283 
L 284.492382 366.441352 
L 285.651299 366.441352 
L 285.651299 358.943421 
L 292.547737 358.943421 
L 292.547737 351.44549 
L 306.279651 351.44549 
L 306.279651 343.947559 
L 307.962903 343.947559 
L 307.962903 336.449628 
L 313.810655 336.449628 
L 313.810655 328.951697 
L 315.347159 328.951697 
L 315.347159 321.453766 
L 316.056517 321.453766 
L 316.056517 313.955835 
L 333.528763 313.955835 
L 333.528763 306.457904 
L 350.589392 306.457904 
L 350.589392 298.959973 
L 360.069856 298.959973 
L 360.069856 291.462042 
L 361.144578 291.462042 
L 361.144578 283.964111 
L 361.887942 283.964111 
L 361.887942 276.46618 
L 364.99923 276.46618 
L 364.99923 268.968249 
L 366.836417 268.968249 
L 366.836417 261.470318 
L 375.932554 261.470318 
L 375.932554 253.972387 
L 388.693765 253.972387 
L 388.693765 246.474456 
L 400.548932 246.474456 
L 400.548932 238.976525 
L 404.764805 238.976525 
L 404.764805 231.478594 
L 410.407379 231.478594 
L 410.407379 223.980663 
L 423.391024 223.980663 
L 423.391024 216.482732 
L 430.32695 216.482732 
L 430.32695 208.984801 
L 432.041948 208.984801 
L 432.041948 201.48687 
L 432.520862 201.48687 
L 432.520862 193.988939 
L 433.811456 193.988939 
L 433.811456 186.491008 
L 444.139036 186.491008 
L 444.139036 178.993077 
L 444.188356 178.993077 
L 444.188356 171.495145 
L 447.044407 171.495145 
L 447.044407 163.997214 
L 447.164324 163.997214 
L 447.164324 156.499283 
L 448.258708 156.499283 
L 448.258708 149.001352 
L 459.963445 149.001352 
L 459.963445 141.503421 
L 461.963723 141.503421 
L 461.963723 134.00549 
L 463.710278 134.00549 
L 463.710278 126.507559 
L 463.765979 126.507559 
L 463.765979 119.009628 
L 465.23496 119.009628 
L 465.23496 111.511697 
L 471.68523 111.511697 
L 471.68523 104.013766 
L 471.752382 104.013766 
L 471.752382 96.515835 
L 472.046653 96.515835 
L 472.046653 89.017904 
L 473.493982 89.017904 
L 473.493982 81.519973 
L 478.209621 81.519973 
L 478.209621 74.022042 
L 478.321011 74.022042 
L 478.321011 66.524111 
L 480.90129 66.524111 
L 480.90129 59.02618 
L 482.418376 59.02618 
L 482.418376 51.528249 
L 483.683367 51.528249 
L 483.683367 44.030318 
L 485.912999 44.030318 
L 485.912999 36.532387 
L 487.737153 36.532387 
L 487.737153 29.034456 
L 488.841136 29.034456 
L 488.841136 21.536525 
L 489.920884 21.536525 
L 489.920884 14.038594 
" clip-path="url(#p4814c5892c)" style="fill: none; stroke: #f56416; stroke-width: 1.5; stroke-linecap: square"/>
   </g>
   <g id="line2d_14">
    <path d="M 96.342771 448.918594 
L 96.342771 444.388594 
L 113.870483 444.388594 
L 113.870483 439.858594 
L 117.995766 439.858594 
L 117.995766 435.328594 
L 118.32955 435.328594 
L 118.32955 430.798594 
L 132.821707 430.798594 
L 132.821707 426.268594 
L 152.40493 426.268594 
L 152.40493 421.738594 
L 179.355664 421.738594 
L 179.355664 417.208594 
L 188.538402 417.208594 
L 188.538402 412.678594 
L 189.785101 412.678594 
L 189.785101 408.148594 
L 192.061264 408.148594 
L 192.061264 403.618594 
L 199.306397 403.618594 
L 199.306397 399.088594 
L 202.612708 399.088594 
L 202.612708 394.558594 
L 232.863824 394.558594 
L 232.863824 390.028594 
L 235.540961 390.028594 
L 235.540961 385.498594 
L 246.560571 385.498594 
L 246.560571 380.968594 
L 248.51655 380.968594 
L 248.51655 376.438594 
L 252.258003 376.438594 
L 252.258003 371.908594 
L 259.764076 371.908594 
L 259.764076 367.378594 
L 263.002413 367.378594 
L 263.002413 362.848594 
L 269.830459 362.848594 
L 269.830459 358.318594 
L 273.158195 358.318594 
L 273.158195 353.788594 
L 275.620491 353.788594 
L 275.620491 349.258594 
L 284.182133 349.258594 
L 284.182133 344.728594 
L 305.857011 344.728594 
L 305.857011 340.198594 
L 309.265347 340.198594 
L 309.265347 335.668594 
L 311.422713 335.668594 
L 311.422713 331.138594 
L 315.196509 331.138594 
L 315.196509 326.608594 
L 316.372691 326.608594 
L 316.372691 322.078594 
L 316.712384 322.078594 
L 316.712384 317.548594 
L 323.262924 317.548594 
L 323.262924 313.018594 
L 325.155073 313.018594 
L 325.155073 308.488594 
L 325.29161 308.488594 
L 325.29161 303.958594 
L 327.602053 303.958594 
L 327.602053 299.428594 
L 333.480316 299.428594 
L 333.480316 294.898594 
L 337.044658 294.898594 
L 337.044658 290.368594 
L 345.479594 290.368594 
L 345.479594 285.838594 
L 345.839876 285.838594 
L 345.839876 281.308594 
L 347.332728 281.308594 
L 347.443761 272.248594 
L 350.346728 272.248594 
L 350.346728 267.718594 
L 351.603662 267.718594 
L 351.603662 263.188594 
L 359.925695 263.188594 
L 359.925695 258.658594 
L 364.288791 258.658594 
L 364.288791 254.128594 
L 364.877664 254.128594 
L 364.877664 249.598594 
L 365.414408 249.598594 
L 365.414408 245.068594 
L 365.73752 245.068594 
L 365.73752 240.538594 
L 370.073983 240.538594 
L 370.073983 236.008594 
L 376.198538 236.008594 
L 376.198538 231.478594 
L 376.908457 231.478594 
L 376.908457 226.948594 
L 377.141871 226.948594 
L 377.141871 222.418594 
L 378.046798 222.418594 
L 378.046798 217.888594 
L 381.005418 217.888594 
L 381.005418 213.358594 
L 381.250346 213.358594 
L 381.250346 208.828594 
L 384.720226 208.828594 
L 384.720226 204.298594 
L 395.315594 204.298594 
L 395.315594 199.768594 
L 402.190672 199.768594 
L 402.190672 195.238594 
L 403.503021 195.238594 
L 403.503021 190.708594 
L 404.315461 190.708594 
L 404.315461 186.178594 
L 413.820058 186.178594 
L 413.820058 181.648594 
L 414.705196 181.648594 
L 414.705196 177.118594 
L 417.547971 177.118594 
L 417.547971 172.588594 
L 418.108611 172.588594 
L 418.108611 168.058594 
L 419.806911 168.058594 
L 419.806911 163.528594 
L 421.977414 163.528594 
L 421.977414 158.998594 
L 423.704788 158.998594 
L 423.704788 154.468594 
L 428.684317 154.468594 
L 428.684317 149.938594 
L 431.787343 149.938594 
L 431.787343 145.408594 
L 435.778005 145.408594 
L 435.778005 140.878594 
L 436.233198 140.878594 
L 436.233198 136.348594 
L 437.23178 136.348594 
L 437.23178 131.818594 
L 437.449026 131.818594 
L 437.449026 127.288594 
L 438.33064 127.288594 
L 438.33064 122.758594 
L 439.587563 122.758594 
L 439.587563 118.228594 
L 442.708924 118.228594 
L 442.708924 113.698594 
L 443.339118 113.698594 
L 443.402657 104.638594 
L 454.177932 104.638594 
L 454.177932 100.108594 
L 455.108386 100.108594 
L 455.164021 91.048594 
L 456.480428 91.048594 
L 456.480428 86.518594 
L 459.013591 86.518594 
L 459.013591 81.988594 
L 459.41442 81.988594 
L 459.41442 77.458594 
L 464.527142 77.458594 
L 464.527142 72.928594 
L 465.867275 72.928594 
L 465.867275 68.398594 
L 469.733548 68.398594 
L 469.733548 63.868594 
L 471.820737 63.868594 
L 471.820737 59.338594 
L 472.987148 59.338594 
L 472.987148 54.808594 
L 473.416034 54.808594 
L 473.47319 45.748594 
L 475.782586 45.748594 
L 475.782586 41.218594 
L 477.350883 41.218594 
L 477.350883 36.688594 
L 478.065073 36.688594 
L 478.065073 32.158594 
L 478.266352 32.158594 
L 478.266352 27.628594 
L 482.846431 27.628594 
L 482.846431 23.098594 
L 487.748269 23.098594 
L 487.748269 18.568594 
L 489.113423 18.568594 
L 489.113423 14.038594 
L 489.113423 14.038594 
" clip-path="url(#p4814c5892c)" style="fill: none; stroke: #fdca40; stroke-width: 1.5; stroke-linecap: square"/>
   </g>
   <g id="line2d_15">
    <path d="M 94.576475 448.918594 
L 94.576475 446.345339 
L 190.768189 446.345339 
L 190.768189 443.772085 
L 206.370898 443.772085 
L 206.370898 441.19883 
L 211.39235 441.19883 
L 211.39235 438.625576 
L 216.922729 438.625576 
L 216.922729 436.052322 
L 227.111961 436.052322 
L 227.111961 433.479067 
L 246.006784 433.479067 
L 246.006784 430.905813 
L 265.747978 430.905813 
L 265.747978 428.332558 
L 274.371912 428.332558 
L 274.371912 425.759304 
L 321.320975 425.759304 
L 321.320975 423.186049 
L 329.145703 423.186049 
L 329.145703 420.612795 
L 332.575672 420.612795 
L 332.575672 418.03954 
L 341.308788 418.03954 
L 341.308788 415.466286 
L 349.962955 415.466286 
L 349.962955 412.893032 
L 351.028855 412.893032 
L 351.028855 410.319777 
L 352.315638 410.319777 
L 352.315638 407.746523 
L 354.408728 407.746523 
L 354.408728 405.173268 
L 363.729047 405.173268 
L 363.729047 402.600014 
L 369.033955 402.600014 
L 369.033955 400.026759 
L 376.147408 400.026759 
L 376.147408 397.453505 
L 377.193055 397.453505 
L 377.193055 394.880251 
L 378.581145 394.880251 
L 378.581145 392.306996 
L 385.723528 392.306996 
L 385.737041 387.160487 
L 386.780222 387.160487 
L 386.8507 382.013978 
L 388.337641 382.013978 
L 388.337641 379.440724 
L 389.016748 379.440724 
L 389.016748 376.867469 
L 390.581446 376.867469 
L 390.581446 374.294215 
L 391.195745 374.294215 
L 391.195745 371.720961 
L 392.829054 371.720961 
L 392.829054 369.147706 
L 393.211509 369.147706 
L 393.211509 366.574452 
L 400.141031 366.574452 
L 400.141031 364.001197 
L 402.14905 364.001197 
L 402.241029 358.854688 
L 403.481662 358.854688 
L 403.481662 356.281434 
L 403.813179 356.281434 
L 403.88501 351.134925 
L 404.049783 351.134925 
L 404.049783 348.561671 
L 404.253282 348.561671 
L 404.253282 345.988416 
L 411.563115 345.988416 
L 411.563115 343.415162 
L 412.306771 343.415162 
L 412.306771 340.841907 
L 414.046941 340.841907 
L 414.046941 338.268653 
L 414.188405 338.268653 
L 414.188405 335.695398 
L 414.698144 335.695398 
L 414.72257 330.54889 
L 415.851456 330.54889 
L 415.851456 327.975635 
L 416.302935 327.975635 
L 416.302935 325.402381 
L 416.922496 325.402381 
L 416.922496 322.829126 
L 417.552039 322.829126 
L 417.552039 320.255872 
L 418.762776 320.255872 
L 418.783291 315.109363 
L 419.655608 315.109363 
L 419.655608 312.536109 
L 420.633084 312.536109 
L 420.633084 309.962854 
L 422.491633 309.962854 
L 422.491633 307.3896 
L 423.991637 307.3896 
L 423.991637 304.816345 
L 424.200895 304.816345 
L 424.200895 302.243091 
L 425.495416 302.243091 
L 425.595976 297.096582 
L 426.653376 297.096582 
L 426.653376 294.523327 
L 426.862191 294.523327 
L 426.862191 291.950073 
L 428.342025 291.950073 
L 428.342025 289.376819 
L 428.469243 289.376819 
L 428.469243 286.803564 
L 430.972532 286.803564 
L 430.972532 284.23031 
L 431.092781 284.23031 
L 431.092781 281.657055 
L 436.691267 281.657055 
L 436.691267 279.083801 
L 436.948991 279.083801 
L 436.948991 276.510546 
L 438.149589 276.510546 
L 438.149589 273.937292 
L 438.477489 273.937292 
L 438.477489 271.364038 
L 438.886355 271.364038 
L 438.886355 268.790783 
L 439.617344 268.790783 
L 439.617344 266.217529 
L 440.120775 266.217529 
L 440.120775 263.644274 
L 440.555942 263.644274 
L 440.580232 258.497765 
L 441.771912 258.497765 
L 441.771912 255.924511 
L 442.845053 255.924511 
L 442.845053 253.351256 
L 443.111522 253.351256 
L 443.111522 250.778002 
L 443.269989 250.778002 
L 443.269989 248.204748 
L 443.590199 248.204748 
L 443.590199 245.631493 
L 444.182986 245.631493 
L 444.182986 243.058239 
L 444.506589 243.058239 
L 444.506589 240.484984 
L 445.034668 240.484984 
L 445.034668 237.91173 
L 445.213531 237.91173 
L 445.290711 232.765221 
L 446.126648 232.765221 
L 446.126648 230.191967 
L 446.516667 230.191967 
L 446.516667 227.618712 
L 447.025305 227.618712 
L 447.025305 225.045458 
L 447.858398 225.045458 
L 447.858398 222.472203 
L 448.411078 222.472203 
L 448.411078 219.898949 
L 448.536862 219.898949 
L 448.536862 217.325694 
L 448.879427 217.325694 
L 448.879427 214.75244 
L 450.311573 214.75244 
L 450.311573 212.179185 
L 450.778386 212.179185 
L 450.778386 209.605931 
L 451.130133 209.605931 
L 451.130133 207.032677 
L 451.529159 207.032677 
L 451.529159 204.459422 
L 452.672869 204.459422 
L 452.672869 201.886168 
L 454.504345 201.886168 
L 454.504345 199.312913 
L 455.903419 199.312913 
L 455.903419 196.739659 
L 456.696279 196.739659 
L 456.696279 194.166404 
L 457.794162 194.166404 
L 457.794162 191.59315 
L 460.598307 191.59315 
L 460.598307 189.019896 
L 460.877499 189.019896 
L 460.877499 186.446641 
L 461.083962 186.446641 
L 461.083962 183.873387 
L 461.260394 183.873387 
L 461.260394 181.300132 
L 461.46851 181.300132 
L 461.46851 178.726878 
L 462.130986 178.726878 
L 462.241518 173.580369 
L 462.799959 173.580369 
L 462.896401 165.860606 
L 464.442888 165.860606 
L 464.442888 163.287351 
L 465.155727 163.287351 
L 465.155727 160.714097 
L 466.77258 160.714097 
L 466.77258 158.140842 
L 467.984766 158.140842 
L 467.984766 155.567588 
L 468.102773 155.567588 
L 468.102773 152.994333 
L 468.239135 152.994333 
L 468.239135 150.421079 
L 468.378637 150.421079 
L 468.378637 147.847825 
L 468.509106 147.847825 
L 468.509106 145.27457 
L 469.408322 145.27457 
L 469.408322 142.701316 
L 470.149714 142.701316 
L 470.149714 140.128061 
L 470.294058 140.128061 
L 470.294058 137.554807 
L 470.99866 137.554807 
L 470.99866 134.981552 
L 471.258927 134.981552 
L 471.258927 132.408298 
L 472.025663 132.408298 
L 472.025663 129.835043 
L 472.333367 129.835043 
L 472.333367 127.261789 
L 472.451156 127.261789 
L 472.451156 124.688535 
L 472.606751 124.688535 
L 472.606751 122.11528 
L 472.763126 122.11528 
L 472.799577 116.968771 
L 473.71699 116.968771 
L 473.784912 111.822262 
L 474.538235 111.822262 
L 474.538235 109.249008 
L 475.625202 109.249008 
L 475.625202 106.675754 
L 475.968436 106.675754 
L 475.968436 104.102499 
L 477.385233 104.102499 
L 477.385233 101.529245 
L 477.91001 101.529245 
L 477.91001 98.95599 
L 478.279479 98.95599 
L 478.331242 93.809481 
L 478.935965 93.809481 
L 478.935965 91.236227 
L 479.323962 91.236227 
L 479.323962 88.662972 
L 479.479952 88.662972 
L 479.489425 83.516464 
L 481.527969 83.516464 
L 481.527969 80.943209 
L 481.864448 80.943209 
L 481.864448 78.369955 
L 482.371857 78.369955 
L 482.371857 75.7967 
L 482.590748 75.7967 
L 482.590748 73.223446 
L 482.915104 73.223446 
L 482.915104 70.650191 
L 483.120098 70.650191 
L 483.15615 65.503683 
L 483.335947 65.503683 
L 483.335947 62.930428 
L 483.48505 62.930428 
L 483.554939 57.783919 
L 484.356264 57.783919 
L 484.356264 55.210665 
L 484.494216 55.210665 
L 484.494216 52.63741 
L 485.840068 52.63741 
L 485.840068 50.064156 
L 486.264771 50.064156 
L 486.264771 47.490901 
L 487.36471 47.490901 
L 487.36471 44.917647 
L 487.914615 44.917647 
L 488.023917 39.771138 
L 488.064417 39.771138 
L 488.064417 37.197884 
L 488.359547 37.197884 
L 488.359547 34.624629 
L 488.478433 34.624629 
L 488.478433 32.051375 
L 488.612516 32.051375 
L 488.612516 29.47812 
L 488.834013 29.47812 
L 488.834013 26.904866 
L 489.040026 26.904866 
L 489.040026 24.331612 
L 489.484128 24.331612 
L 489.484128 21.758357 
L 489.88115 21.758357 
L 489.88115 19.185103 
L 490.020817 19.185103 
L 490.045113 14.038594 
L 490.045113 14.038594 
" clip-path="url(#p4814c5892c)" style="fill: none; stroke: #8ac926; stroke-width: 1.5; stroke-linecap: square"/>
   </g>
   <g id="line2d_16">
    <path d="M 109.23298 448.918594 
L 109.23298 446.345339 
L 131.147712 446.345339 
L 131.147712 443.772085 
L 196.99886 443.772085 
L 196.99886 441.19883 
L 213.676179 441.19883 
L 213.676179 438.625576 
L 219.242333 438.625576 
L 219.242333 436.052322 
L 232.635465 436.052322 
L 232.635465 433.479067 
L 247.425459 433.479067 
L 247.425459 430.905813 
L 262.376349 430.905813 
L 262.376349 428.332558 
L 266.392057 428.332558 
L 266.392057 425.759304 
L 268.754015 425.759304 
L 268.754015 423.186049 
L 286.951239 423.186049 
L 286.951239 418.03954 
L 312.360721 418.03954 
L 312.360721 415.466286 
L 320.508071 415.466286 
L 320.508071 412.893032 
L 323.437025 412.893032 
L 323.437025 410.319777 
L 347.495569 410.319777 
L 347.495569 407.746523 
L 358.665109 407.746523 
L 358.665109 405.173268 
L 364.588297 405.173268 
L 364.588297 402.600014 
L 367.515982 402.600014 
L 367.515982 400.026759 
L 371.012003 400.026759 
L 371.012003 397.453505 
L 374.554388 397.453505 
L 374.554388 394.880251 
L 378.4912 394.880251 
L 378.4912 392.306996 
L 382.74337 392.306996 
L 382.74337 389.733742 
L 383.449198 389.733742 
L 383.449198 387.160487 
L 389.254184 387.160487 
L 389.254184 384.587233 
L 392.717338 384.587233 
L 392.717338 382.013978 
L 399.90916 382.013978 
L 399.90916 379.440724 
L 400.861045 379.440724 
L 400.861045 376.867469 
L 408.939914 376.867469 
L 408.939914 374.294215 
L 410.187295 374.294215 
L 410.187295 371.720961 
L 410.631207 371.720961 
L 410.631207 369.147706 
L 415.998328 369.147706 
L 415.998328 366.574452 
L 417.498947 366.574452 
L 417.498947 364.001197 
L 418.741164 364.001197 
L 418.741164 361.427943 
L 420.691024 361.427943 
L 420.691024 358.854688 
L 421.203945 358.854688 
L 421.203945 356.281434 
L 422.806614 356.281434 
L 422.806614 353.70818 
L 423.011238 353.70818 
L 423.011238 351.134925 
L 423.839898 351.134925 
L 423.839898 348.561671 
L 428.221007 348.561671 
L 428.221007 345.988416 
L 430.242958 345.988416 
L 430.242958 343.415162 
L 431.789872 343.415162 
L 431.789872 340.841907 
L 434.01029 340.841907 
L 434.01029 338.268653 
L 434.342184 338.268653 
L 434.342184 335.695398 
L 434.741152 335.695398 
L 434.741152 333.122144 
L 435.953539 333.122144 
L 435.953539 330.54889 
L 437.230698 330.54889 
L 437.230698 327.975635 
L 437.96191 327.975635 
L 437.96191 325.402381 
L 438.638946 325.402381 
L 438.638946 322.829126 
L 438.838452 322.829126 
L 438.838452 320.255872 
L 440.199078 320.255872 
L 440.199078 317.682617 
L 444.21999 317.682617 
L 444.21999 315.109363 
L 445.860784 315.109363 
L 445.860784 312.536109 
L 447.3343 312.536109 
L 447.3343 309.962854 
L 447.846251 309.962854 
L 447.846251 307.3896 
L 448.832611 307.3896 
L 448.832611 304.816345 
L 450.394382 304.816345 
L 450.394382 302.243091 
L 450.771537 302.243091 
L 450.771537 299.669836 
L 451.660993 299.669836 
L 451.660993 297.096582 
L 454.986044 297.096582 
L 454.986044 294.523327 
L 455.386114 294.523327 
L 455.386114 291.950073 
L 456.578704 291.950073 
L 456.578704 289.376819 
L 456.877279 289.376819 
L 456.877279 286.803564 
L 457.934643 286.803564 
L 458.020023 279.083801 
L 458.886397 279.083801 
L 458.9506 273.937292 
L 459.283111 273.937292 
L 459.362114 268.790783 
L 460.094753 268.790783 
L 460.094753 266.217529 
L 461.420802 266.217529 
L 461.420802 263.644274 
L 462.11472 263.644274 
L 462.11472 261.07102 
L 463.683485 261.07102 
L 463.683485 258.497765 
L 463.849022 258.497765 
L 463.849022 255.924511 
L 464.835153 255.924511 
L 464.835153 253.351256 
L 465.296741 253.351256 
L 465.296741 250.778002 
L 465.417581 250.778002 
L 465.447511 245.631493 
L 465.94199 245.631493 
L 465.94199 243.058239 
L 466.157093 243.058239 
L 466.157093 240.484984 
L 467.082478 240.484984 
L 467.082478 237.91173 
L 467.222326 237.91173 
L 467.222326 235.338475 
L 467.646599 235.338475 
L 467.646599 232.765221 
L 468.051261 232.765221 
L 468.159377 227.618712 
L 469.740778 227.618712 
L 469.740778 225.045458 
L 470.843018 225.045458 
L 470.843018 222.472203 
L 471.142672 222.472203 
L 471.142672 219.898949 
L 471.841412 219.898949 
L 471.841412 217.325694 
L 471.972597 217.325694 
L 472.064326 212.179185 
L 472.54057 212.179185 
L 472.54057 209.605931 
L 473.411014 209.605931 
L 473.411014 207.032677 
L 473.716489 207.032677 
L 473.769014 201.886168 
L 474.003011 201.886168 
L 474.003011 199.312913 
L 474.950836 199.312913 
L 474.950836 196.739659 
L 475.103823 196.739659 
L 475.103823 194.166404 
L 475.693594 194.166404 
L 475.793813 189.019896 
L 476.017378 189.019896 
L 476.017378 186.446641 
L 476.316267 186.446641 
L 476.316267 183.873387 
L 476.562388 183.873387 
L 476.601197 178.726878 
L 476.830048 178.726878 
L 476.830048 176.153623 
L 477.213142 176.153623 
L 477.230102 171.007114 
L 477.353888 171.007114 
L 477.353888 168.43386 
L 477.625732 168.43386 
L 477.625732 165.860606 
L 477.73748 165.860606 
L 477.73748 163.287351 
L 477.921128 163.287351 
L 477.963084 158.140842 
L 478.396873 158.140842 
L 478.42583 152.994333 
L 478.599413 152.994333 
L 478.599413 150.421079 
L 478.716531 150.421079 
L 478.716531 147.847825 
L 479.046767 147.847825 
L 479.073427 142.701316 
L 479.520722 142.701316 
L 479.581848 134.981552 
L 479.987081 134.981552 
L 480.006157 129.835043 
L 480.488195 129.835043 
L 480.55281 122.11528 
L 480.639746 122.11528 
L 480.639746 119.542026 
L 481.033946 119.542026 
L 481.052143 111.822262 
L 481.156792 111.822262 
L 481.156792 109.249008 
L 481.561877 109.249008 
L 481.561877 106.675754 
L 481.763348 106.675754 
L 481.829305 101.529245 
L 482.132139 101.529245 
L 482.132139 98.95599 
L 482.411876 98.95599 
L 482.411876 96.382736 
L 482.637105 96.382736 
L 482.637105 93.809481 
L 482.822893 93.809481 
L 482.822893 91.236227 
L 482.992729 91.236227 
L 483.090808 86.089718 
L 483.405997 86.089718 
L 483.405997 83.516464 
L 484.203237 83.516464 
L 484.203237 80.943209 
L 484.577491 80.943209 
L 484.577491 78.369955 
L 484.750707 78.369955 
L 484.750707 75.7967 
L 485.319096 75.7967 
L 485.319096 73.223446 
L 485.475412 73.223446 
L 485.475412 70.650191 
L 485.627098 70.650191 
L 485.736706 60.357174 
L 485.774704 60.357174 
L 485.774704 57.783919 
L 485.936594 57.783919 
L 485.936594 55.210665 
L 486.737421 55.210665 
L 486.802037 50.064156 
L 487.657206 50.064156 
L 487.657206 47.490901 
L 487.81742 47.490901 
L 487.81742 44.917647 
L 488.128095 44.917647 
L 488.232581 39.771138 
L 488.300346 39.771138 
L 488.300346 37.197884 
L 488.762638 37.197884 
L 488.791855 32.051375 
L 488.910557 32.051375 
L 488.910557 29.47812 
L 489.086894 29.47812 
L 489.086894 26.904866 
L 489.493393 26.904866 
L 489.493393 24.331612 
L 490.014689 24.331612 
L 490.095222 19.185103 
L 490.149709 19.185103 
L 490.149709 16.611848 
L 490.355341 16.611848 
L 490.355341 14.038594 
L 490.355341 14.038594 
" clip-path="url(#p4814c5892c)" style="fill: none; stroke: #022175; stroke-width: 1.5; stroke-linecap: square"/>
   </g>
   <g id="line2d_17">
    <path d="M 84.537159 448.918594 
L 84.537159 443.482594 
L 107.582403 443.482594 
L 107.582403 438.046594 
L 112.713319 438.046594 
L 112.713319 432.610594 
L 130.896715 432.610594 
L 130.896715 427.174594 
L 170.091611 427.174594 
L 170.091611 421.738594 
L 179.765952 421.738594 
L 179.765952 416.302594 
L 218.630061 416.302594 
L 218.630061 410.866594 
L 223.221281 410.866594 
L 223.221281 405.430594 
L 246.046453 405.430594 
L 246.046453 399.994594 
L 248.101195 399.994594 
L 248.101195 394.558594 
L 281.123935 394.558594 
L 281.123935 389.122594 
L 286.951239 389.122594 
L 286.951239 383.686594 
L 299.656687 383.686594 
L 299.656687 378.250594 
L 315.670268 378.250594 
L 315.670268 372.814594 
L 325.456338 372.814594 
L 325.456338 367.378594 
L 325.74897 367.378594 
L 325.74897 361.942594 
L 331.25165 361.942594 
L 331.25165 356.506594 
L 333.054686 356.506594 
L 333.054686 351.070594 
L 334.941907 351.070594 
L 334.941907 345.634594 
L 340.308677 345.634594 
L 340.308677 340.198594 
L 341.953815 340.198594 
L 341.953815 334.762594 
L 352.095549 334.762594 
L 352.095549 329.326594 
L 357.036654 329.326594 
L 357.036654 323.890594 
L 360.491602 323.890594 
L 360.491602 318.454594 
L 363.489024 318.454594 
L 363.489024 313.018594 
L 367.243723 313.018594 
L 367.243723 307.582594 
L 371.88125 307.582594 
L 371.88125 302.146594 
L 392.359932 302.146594 
L 392.359932 296.710594 
L 393.241959 296.710594 
L 393.241959 291.274594 
L 394.970389 291.274594 
L 394.970389 285.838594 
L 397.168371 285.838594 
L 397.168371 280.402594 
L 398.204596 280.402594 
L 398.204596 274.966594 
L 399.325063 274.966594 
L 399.325063 269.530594 
L 403.746296 269.530594 
L 403.746296 264.094594 
L 404.692421 264.094594 
L 404.692421 258.658594 
L 405.744342 258.658594 
L 405.744342 253.222594 
L 405.866655 253.222594 
L 405.866655 247.786594 
L 406.269173 247.786594 
L 406.269173 242.350594 
L 406.686965 242.350594 
L 406.686965 236.914594 
L 408.322127 236.914594 
L 408.322127 231.478594 
L 408.58489 231.478594 
L 408.58489 226.042594 
L 410.417971 226.042594 
L 410.417971 220.606594 
L 411.773193 220.606594 
L 411.773193 215.170594 
L 414.536 215.170594 
L 414.536 209.734594 
L 416.274236 209.734594 
L 416.274236 204.298594 
L 418.523945 204.298594 
L 418.523945 198.862594 
L 423.015244 198.862594 
L 423.015244 193.426594 
L 429.334129 193.426594 
L 429.334129 187.990594 
L 432.056744 187.990594 
L 432.056744 182.554594 
L 435.583328 182.554594 
L 435.583328 177.118594 
L 440.233725 177.118594 
L 440.233725 171.682594 
L 444.09699 171.682594 
L 444.168348 160.810594 
L 445.264821 160.810594 
L 445.320467 149.938594 
L 446.891242 149.938594 
L 446.891242 144.502594 
L 447.694706 144.502594 
L 447.694706 139.066594 
L 456.105662 139.066594 
L 456.105662 133.630594 
L 457.17112 133.630594 
L 457.17112 128.194594 
L 460.781094 128.194594 
L 460.781094 122.758594 
L 462.64468 122.758594 
L 462.64468 117.322594 
L 465.419128 117.322594 
L 465.419128 111.886594 
L 468.951223 111.886594 
L 468.951223 106.450594 
L 469.357882 106.450594 
L 469.357882 101.014594 
L 469.772635 101.014594 
L 469.772635 95.578594 
L 470.179797 95.578594 
L 470.179797 90.142594 
L 471.309361 90.142594 
L 471.309361 84.706594 
L 472.024815 84.706594 
L 472.053963 73.834594 
L 472.457344 73.834594 
L 472.457344 68.398594 
L 475.461541 68.398594 
L 475.461541 62.962594 
L 477.281901 62.962594 
L 477.281901 57.526594 
L 477.720135 57.526594 
L 477.720135 52.090594 
L 480.465898 52.090594 
L 480.465898 46.654594 
L 481.070366 46.654594 
L 481.070366 41.218594 
L 481.621993 41.218594 
L 481.621993 35.782594 
L 482.623686 35.782594 
L 482.623686 30.346594 
L 483.750959 30.346594 
L 483.750959 24.910594 
L 485.652712 24.910594 
L 485.652712 19.474594 
L 489.91206 19.474594 
L 489.91206 14.038594 
L 489.91206 14.038594 
" clip-path="url(#p4814c5892c)" style="fill: none; stroke: #004e98; stroke-width: 1.5; stroke-linecap: square"/>
   </g>
   <g id="line2d_18">
    <path d="M 113.004918 448.918594 
L 113.004918 442.123594 
L 148.602732 442.123594 
L 148.602732 435.328594 
L 164.484292 435.328594 
L 164.484292 428.533594 
L 169.379245 428.533594 
L 169.379245 421.738594 
L 170.090746 421.738594 
L 170.090746 414.943594 
L 196.783786 414.943594 
L 196.783786 408.148594 
L 198.409344 408.148594 
L 198.409344 401.353594 
L 234.666118 401.353594 
L 234.666118 394.558594 
L 254.552549 394.558594 
L 254.552549 387.763594 
L 258.405162 387.763594 
L 258.405162 380.968594 
L 261.632398 380.968594 
L 261.632398 374.173594 
L 275.276321 374.173594 
L 275.276321 367.378594 
L 286.951239 367.378594 
L 286.951239 360.583594 
L 291.608657 360.583594 
L 291.608657 353.788594 
L 301.361775 353.788594 
L 301.361775 346.993594 
L 320.064705 346.993594 
L 320.064705 340.198594 
L 339.194453 340.198594 
L 339.194453 333.403594 
L 341.913374 333.403594 
L 341.913374 326.608594 
L 343.979037 326.608594 
L 343.979037 319.813594 
L 354.083553 319.813594 
L 354.083553 313.018594 
L 357.70527 313.018594 
L 357.70527 306.223594 
L 359.608193 306.223594 
L 359.608193 299.428594 
L 369.226774 299.428594 
L 369.226774 292.633594 
L 376.9767 292.633594 
L 376.9767 285.838594 
L 377.353381 285.838594 
L 377.353381 279.043594 
L 379.293225 279.043594 
L 379.293225 272.248594 
L 396.757196 272.248594 
L 396.757196 265.453594 
L 401.965859 265.453594 
L 401.965859 258.658594 
L 403.654532 258.658594 
L 403.654532 251.863594 
L 404.962406 251.863594 
L 405.060281 238.273594 
L 406.153118 238.273594 
L 406.153118 231.478594 
L 409.655223 231.478594 
L 409.655223 224.683594 
L 409.78305 224.683594 
L 409.78305 217.888594 
L 411.061654 217.888594 
L 411.061654 211.093594 
L 416.392819 211.093594 
L 416.392819 204.298594 
L 418.582278 204.298594 
L 418.582278 197.503594 
L 422.860788 197.503594 
L 422.860788 190.708594 
L 425.01808 190.708594 
L 425.01808 183.913594 
L 427.779928 183.913594 
L 427.779928 177.118594 
L 428.201593 177.118594 
L 428.201593 170.323594 
L 429.97812 170.323594 
L 429.97812 163.528594 
L 434.642705 163.528594 
L 434.642705 156.733594 
L 435.011985 156.733594 
L 435.011985 149.938594 
L 436.43422 149.938594 
L 436.43422 143.143594 
L 436.917262 143.143594 
L 436.917262 136.348594 
L 440.768025 136.348594 
L 440.768025 129.553594 
L 448.419238 129.553594 
L 448.419238 122.758594 
L 455.593675 122.758594 
L 455.593675 115.963594 
L 456.407717 115.963594 
L 456.407717 109.168594 
L 457.523064 109.168594 
L 457.523064 102.373594 
L 458.01545 102.373594 
L 458.01545 95.578594 
L 459.240716 95.578594 
L 459.240716 88.783594 
L 462.495348 88.783594 
L 462.495348 81.988594 
L 466.14629 81.988594 
L 466.14629 75.193594 
L 467.733947 75.193594 
L 467.733947 68.398594 
L 473.063903 68.398594 
L 473.063903 61.603594 
L 473.930024 61.603594 
L 473.930024 54.808594 
L 474.28188 54.808594 
L 474.28188 48.013594 
L 474.587666 48.013594 
L 474.587666 41.218594 
L 477.313007 41.218594 
L 477.313007 34.423594 
L 478.323239 34.423594 
L 478.323239 27.628594 
L 484.809262 27.628594 
L 484.809262 20.833594 
L 488.605785 20.833594 
L 488.605785 14.038594 
L 488.605785 14.038594 
" clip-path="url(#p4814c5892c)" style="fill: none; stroke: #ea0f0b; stroke-width: 1.5; stroke-linecap: square"/>
   </g>
   <g id="patch_3">
    <path d="M 64.24625 448.918594 
L 64.24625 14.038594 
" style="fill: none; stroke: #000000; stroke-width: 0.8; stroke-linejoin: miter; stroke-linecap: square"/>
   </g>
   <g id="patch_4">
    <path d="M 510.64625 448.918594 
L 510.64625 14.038594 
" style="fill: none; stroke: #000000; stroke-width: 0.8; stroke-linejoin: miter; stroke-linecap: square"/>
   </g>
   <g id="patch_5">
    <path d="M 64.24625 448.918594 
L 510.64625 448.918594 
" style="fill: none; stroke: #000000; stroke-width: 0.8; stroke-linejoin: miter; stroke-linecap: square"/>
   </g>
   <g id="patch_6">
    <path d="M 64.24625 14.038594 
L 510.64625 14.038594 
" style="fill: none; stroke: #000000; stroke-width: 0.8; stroke-linejoin: miter; stroke-linecap: square"/>
   </g>
   <g id="legend_1">
    <g id="patch_7">
     <path d="M 76.84625 186.962344 
L 208.24625 186.962344 
Q 211.84625 186.962344 211.84625 183.362344 
L 211.84625 26.638594 
Q 211.84625 23.038594 208.24625 23.038594 
L 76.84625 23.038594 
Q 73.24625 23.038594 73.24625 26.638594 
L 73.24625 183.362344 
Q 73.24625 186.962344 76.84625 186.962344 
z
" style="fill: #ffffff; opacity: 0.8; stroke: #cccccc; stroke-linejoin: miter"/>
    </g>
    <g id="line2d_19">
     <path d="M 80.44625 37.615781 
L 98.44625 37.615781 
L 98.44625 37.615781 
L 116.44625 37.615781 
L 116.44625 37.615781 
" style="fill: none; stroke: #f56416; stroke-width: 1.5; stroke-linecap: square"/>
    </g>
    <g id="text_15">
     <!-- $PIPD_f$ -->
     <g transform="translate(130.84625 43.915781)scale(0.18 -0.18)">
      <defs>
       <path id="DejaVuSans-Oblique-50" d="M 1081 4666 
L 2541 4666 
Q 3178 4666 3512 4369 
Q 3847 4072 3847 3500 
Q 3847 2731 3353 2303 
Q 2859 1875 1966 1875 
L 1172 1875 
L 806 0 
L 172 0 
L 1081 4666 
z
M 1613 4147 
L 1275 2394 
L 2069 2394 
Q 2606 2394 2893 2669 
Q 3181 2944 3181 3456 
Q 3181 3784 2986 3965 
Q 2791 4147 2438 4147 
L 1613 4147 
z
" transform="scale(0.015625)"/>
       <path id="DejaVuSans-Oblique-49" d="M 1081 4666 
L 1716 4666 
L 806 0 
L 172 0 
L 1081 4666 
z
" transform="scale(0.015625)"/>
       <path id="DejaVuSans-Oblique-44" d="M 1081 4666 
L 2438 4666 
Q 3519 4666 4070 4208 
Q 4622 3750 4622 2847 
Q 4622 2250 4412 1698 
Q 4203 1147 3834 769 
Q 3463 381 2891 190 
Q 2319 0 1538 0 
L 172 0 
L 1081 4666 
z
M 1613 4147 
L 909 519 
L 1734 519 
Q 2794 519 3375 1128 
Q 3956 1738 3956 2847 
Q 3956 3519 3581 3833 
Q 3206 4147 2406 4147 
L 1613 4147 
z
" transform="scale(0.015625)"/>
       <path id="DejaVuSans-Oblique-66" d="M 3059 4863 
L 2969 4384 
L 2419 4384 
Q 2106 4384 1964 4261 
Q 1822 4138 1753 3809 
L 1691 3500 
L 2638 3500 
L 2553 3053 
L 1606 3053 
L 1013 0 
L 434 0 
L 1031 3053 
L 481 3053 
L 563 3500 
L 1113 3500 
L 1159 3744 
Q 1278 4363 1576 4613 
Q 1875 4863 2516 4863 
L 3059 4863 
z
" transform="scale(0.015625)"/>
      </defs>
      <use xlink:href="#DejaVuSans-Oblique-50" transform="translate(0 0.09375)"/>
      <use xlink:href="#DejaVuSans-Oblique-49" transform="translate(60.302734 0.09375)"/>
      <use xlink:href="#DejaVuSans-Oblique-50" transform="translate(89.794922 0.09375)"/>
      <use xlink:href="#DejaVuSans-Oblique-44" transform="translate(150.097656 0.09375)"/>
      <use xlink:href="#DejaVuSans-Oblique-66" transform="translate(227.099609 -16.3125)scale(0.7)"/>
     </g>
    </g>
    <g id="line2d_20">
     <path d="M 80.44625 64.036406 
L 98.44625 64.036406 
L 98.44625 64.036406 
L 116.44625 64.036406 
L 116.44625 64.036406 
" style="fill: none; stroke: #fdca40; stroke-width: 1.5; stroke-linecap: square"/>
    </g>
    <g id="text_16">
     <!-- $PIPD_s$ -->
     <g transform="translate(130.84625 70.336406)scale(0.18 -0.18)">
      <defs>
       <path id="DejaVuSans-Oblique-73" d="M 3200 3397 
L 3091 2853 
Q 2863 2978 2609 3040 
Q 2356 3103 2088 3103 
Q 1634 3103 1373 2948 
Q 1113 2794 1113 2528 
Q 1113 2219 1719 2053 
Q 1766 2041 1788 2034 
L 1972 1978 
Q 2547 1819 2739 1644 
Q 2931 1469 2931 1166 
Q 2931 609 2489 259 
Q 2047 -91 1331 -91 
Q 1053 -91 747 -37 
Q 441 16 72 128 
L 184 722 
Q 500 559 806 475 
Q 1113 391 1394 391 
Q 1816 391 2080 572 
Q 2344 753 2344 1031 
Q 2344 1331 1650 1516 
L 1591 1531 
L 1394 1581 
Q 956 1697 753 1886 
Q 550 2075 550 2369 
Q 550 2928 970 3256 
Q 1391 3584 2113 3584 
Q 2397 3584 2667 3537 
Q 2938 3491 3200 3397 
z
" transform="scale(0.015625)"/>
      </defs>
      <use xlink:href="#DejaVuSans-Oblique-50" transform="translate(0 0.09375)"/>
      <use xlink:href="#DejaVuSans-Oblique-49" transform="translate(60.302734 0.09375)"/>
      <use xlink:href="#DejaVuSans-Oblique-50" transform="translate(89.794922 0.09375)"/>
      <use xlink:href="#DejaVuSans-Oblique-44" transform="translate(150.097656 0.09375)"/>
      <use xlink:href="#DejaVuSans-Oblique-73" transform="translate(227.099609 -16.3125)scale(0.7)"/>
     </g>
    </g>
    <g id="line2d_21">
     <path d="M 80.44625 90.457031 
L 98.44625 90.457031 
L 98.44625 90.457031 
L 116.44625 90.457031 
L 116.44625 90.457031 
" style="fill: none; stroke: #8ac926; stroke-width: 1.5; stroke-linecap: square"/>
    </g>
    <g id="text_17">
     <!-- $mNIPD_f$ -->
     <g transform="translate(130.84625 96.757031)scale(0.18 -0.18)">
      <defs>
       <path id="DejaVuSans-Oblique-6d" d="M 5747 2113 
L 5338 0 
L 4763 0 
L 5166 2094 
Q 5191 2228 5203 2325 
Q 5216 2422 5216 2491 
Q 5216 2772 5059 2928 
Q 4903 3084 4622 3084 
Q 4203 3084 3875 2770 
Q 3547 2456 3450 1953 
L 3066 0 
L 2491 0 
L 2900 2094 
Q 2925 2209 2937 2307 
Q 2950 2406 2950 2484 
Q 2950 2769 2794 2926 
Q 2638 3084 2363 3084 
Q 1938 3084 1609 2770 
Q 1281 2456 1184 1953 
L 800 0 
L 225 0 
L 909 3500 
L 1484 3500 
L 1375 2956 
Q 1609 3263 1923 3423 
Q 2238 3584 2597 3584 
Q 2978 3584 3223 3384 
Q 3469 3184 3519 2828 
Q 3781 3197 4126 3390 
Q 4472 3584 4856 3584 
Q 5306 3584 5551 3325 
Q 5797 3066 5797 2591 
Q 5797 2488 5784 2364 
Q 5772 2241 5747 2113 
z
" transform="scale(0.015625)"/>
       <path id="DejaVuSans-Oblique-4e" d="M 1081 4666 
L 1931 4666 
L 3219 666 
L 4000 4666 
L 4616 4666 
L 3706 0 
L 2853 0 
L 1569 4025 
L 788 0 
L 172 0 
L 1081 4666 
z
" transform="scale(0.015625)"/>
      </defs>
      <use xlink:href="#DejaVuSans-Oblique-6d" transform="translate(0 0.09375)"/>
      <use xlink:href="#DejaVuSans-Oblique-4e" transform="translate(97.412109 0.09375)"/>
      <use xlink:href="#DejaVuSans-Oblique-49" transform="translate(172.216797 0.09375)"/>
      <use xlink:href="#DejaVuSans-Oblique-50" transform="translate(201.708984 0.09375)"/>
      <use xlink:href="#DejaVuSans-Oblique-44" transform="translate(262.011719 0.09375)"/>
      <use xlink:href="#DejaVuSans-Oblique-66" transform="translate(339.013672 -16.3125)scale(0.7)"/>
     </g>
    </g>
    <g id="line2d_22">
     <path d="M 80.44625 116.877656 
L 98.44625 116.877656 
L 98.44625 116.877656 
L 116.44625 116.877656 
L 116.44625 116.877656 
" style="fill: none; stroke: #022175; stroke-width: 1.5; stroke-linecap: square"/>
    </g>
    <g id="text_18">
     <!-- $mNIPD_s$ -->
     <g transform="translate(130.84625 123.177656)scale(0.18 -0.18)">
      <use xlink:href="#DejaVuSans-Oblique-6d" transform="translate(0 0.09375)"/>
      <use xlink:href="#DejaVuSans-Oblique-4e" transform="translate(97.412109 0.09375)"/>
      <use xlink:href="#DejaVuSans-Oblique-49" transform="translate(172.216797 0.09375)"/>
      <use xlink:href="#DejaVuSans-Oblique-50" transform="translate(201.708984 0.09375)"/>
      <use xlink:href="#DejaVuSans-Oblique-44" transform="translate(262.011719 0.09375)"/>
      <use xlink:href="#DejaVuSans-Oblique-73" transform="translate(339.013672 -16.3125)scale(0.7)"/>
     </g>
    </g>
    <g id="line2d_23">
     <path d="M 80.44625 143.298281 
L 98.44625 143.298281 
L 98.44625 143.298281 
L 116.44625 143.298281 
L 116.44625 143.298281 
" style="fill: none; stroke: #004e98; stroke-width: 1.5; stroke-linecap: square"/>
    </g>
    <g id="text_19">
     <!-- $vnNIPD_i$ -->
     <g transform="translate(130.84625 149.598281)scale(0.18 -0.18)">
      <defs>
       <path id="DejaVuSans-Oblique-76" d="M 459 3500 
L 1069 3500 
L 1581 525 
L 3256 3500 
L 3866 3500 
L 1875 0 
L 1100 0 
L 459 3500 
z
" transform="scale(0.015625)"/>
       <path id="DejaVuSans-Oblique-6e" d="M 3566 2113 
L 3156 0 
L 2578 0 
L 2988 2091 
Q 3016 2238 3031 2350 
Q 3047 2463 3047 2528 
Q 3047 2791 2881 2937 
Q 2716 3084 2419 3084 
Q 1956 3084 1622 2776 
Q 1288 2469 1184 1941 
L 800 0 
L 225 0 
L 903 3500 
L 1478 3500 
L 1363 2950 
Q 1603 3253 1940 3418 
Q 2278 3584 2650 3584 
Q 3113 3584 3367 3334 
Q 3622 3084 3622 2631 
Q 3622 2519 3608 2391 
Q 3594 2263 3566 2113 
z
" transform="scale(0.015625)"/>
       <path id="DejaVuSans-Oblique-69" d="M 1172 4863 
L 1747 4863 
L 1606 4134 
L 1031 4134 
L 1172 4863 
z
M 909 3500 
L 1484 3500 
L 800 0 
L 225 0 
L 909 3500 
z
" transform="scale(0.015625)"/>
      </defs>
      <use xlink:href="#DejaVuSans-Oblique-76" transform="translate(0 0.09375)"/>
      <use xlink:href="#DejaVuSans-Oblique-6e" transform="translate(59.179688 0.09375)"/>
      <use xlink:href="#DejaVuSans-Oblique-4e" transform="translate(122.558594 0.09375)"/>
      <use xlink:href="#DejaVuSans-Oblique-49" transform="translate(197.363281 0.09375)"/>
      <use xlink:href="#DejaVuSans-Oblique-50" transform="translate(226.855469 0.09375)"/>
      <use xlink:href="#DejaVuSans-Oblique-44" transform="translate(287.158203 0.09375)"/>
      <use xlink:href="#DejaVuSans-Oblique-69" transform="translate(364.160156 -16.3125)scale(0.7)"/>
     </g>
    </g>
    <g id="line2d_24">
     <path d="M 80.44625 169.718906 
L 98.44625 169.718906 
L 98.44625 169.718906 
L 116.44625 169.718906 
L 116.44625 169.718906 
" style="fill: none; stroke: #ea0f0b; stroke-width: 1.5; stroke-linecap: square"/>
    </g>
    <g id="text_20">
     <!-- $vnNIPD_o$ -->
     <g transform="translate(130.84625 176.018906)scale(0.18 -0.18)">
      <defs>
       <path id="DejaVuSans-Oblique-6f" d="M 1625 -91 
Q 1009 -91 651 289 
Q 294 669 294 1325 
Q 294 1706 417 2101 
Q 541 2497 738 2766 
Q 1047 3184 1428 3384 
Q 1809 3584 2291 3584 
Q 2888 3584 3255 3212 
Q 3622 2841 3622 2241 
Q 3622 1825 3500 1412 
Q 3378 1000 3181 728 
Q 2875 309 2494 109 
Q 2113 -91 1625 -91 
z
M 891 1344 
Q 891 869 1089 633 
Q 1288 397 1691 397 
Q 2269 397 2648 901 
Q 3028 1406 3028 2181 
Q 3028 2634 2825 2865 
Q 2622 3097 2228 3097 
Q 1903 3097 1650 2945 
Q 1397 2794 1197 2484 
Q 1050 2253 970 1956 
Q 891 1659 891 1344 
z
" transform="scale(0.015625)"/>
      </defs>
      <use xlink:href="#DejaVuSans-Oblique-76" transform="translate(0 0.09375)"/>
      <use xlink:href="#DejaVuSans-Oblique-6e" transform="translate(59.179688 0.09375)"/>
      <use xlink:href="#DejaVuSans-Oblique-4e" transform="translate(122.558594 0.09375)"/>
      <use xlink:href="#DejaVuSans-Oblique-49" transform="translate(197.363281 0.09375)"/>
      <use xlink:href="#DejaVuSans-Oblique-50" transform="translate(226.855469 0.09375)"/>
      <use xlink:href="#DejaVuSans-Oblique-44" transform="translate(287.158203 0.09375)"/>
      <use xlink:href="#DejaVuSans-Oblique-6f" transform="translate(364.160156 -16.3125)scale(0.7)"/>
     </g>
    </g>
   </g>
  </g>
 </g>
 <defs>
  <clipPath id="p4814c5892c">
   <rect x="64.24625" y="14.038594" width="446.4" height="434.88"/>
  </clipPath>
 </defs>
</svg>
