<?xml version="1.0" encoding="utf-8" standalone="no"?>
<!DOCTYPE svg PUBLIC "-//W3C//DTD SVG 1.1//EN"
  "http://www.w3.org/Graphics/SVG/1.1/DTD/svg11.dtd">
<svg xmlns:xlink="http://www.w3.org/1999/xlink" width="406.24625pt" height="284.519844pt" viewBox="0 0 406.24625 284.519844" xmlns="http://www.w3.org/2000/svg" version="1.1">
 <metadata>
  <rdf:RDF xmlns:dc="http://purl.org/dc/elements/1.1/" xmlns:cc="http://creativecommons.org/ns#" xmlns:rdf="http://www.w3.org/1999/02/22-rdf-syntax-ns#">
   <cc:Work>
    <dc:type rdf:resource="http://purl.org/dc/dcmitype/StillImage"/>
    <dc:date>2022-05-04T11:55:44.886416</dc:date>
    <dc:format>image/svg+xml</dc:format>
    <dc:creator>
     <cc:Agent>
      <dc:title>Matplotlib v3.5.0, https://matplotlib.org/</dc:title>
     </cc:Agent>
    </dc:creator>
   </cc:Work>
  </rdf:RDF>
 </metadata>
 <defs>
  <style type="text/css">*{stroke-linejoin: round; stroke-linecap: butt}</style>
 </defs>
 <g id="figure_1">
  <g id="patch_1">
   <path d="M 0 284.519844 
L 406.24625 284.519844 
L 406.24625 0 
L 0 0 
L 0 284.519844 
z
" style="fill: none"/>
  </g>
  <g id="axes_1">
   <g id="patch_2">
    <path d="M 64.24625 231.478594 
L 399.04625 231.478594 
L 399.04625 14.038594 
L 64.24625 14.038594 
z
" style="fill: #ffffff"/>
   </g>
   <g id="PathCollection_1">
    <defs>
     <path id="mf720378b2d" d="M -0 4.242641 
L 2.545584 0 
L 0 -4.242641 
L -2.545584 -0 
z
" style="stroke: #004e98; stroke-opacity: 0.8"/>
    </defs>
    <g clip-path="url(#p810fe7b190)">
     <use xlink:href="#mf720378b2d" x="293.338092" y="134.013088" style="fill: #004e98; fill-opacity: 0.8; stroke: #004e98; stroke-opacity: 0.8"/>
     <use xlink:href="#mf720378b2d" x="214.455195" y="126.033618" style="fill: #004e98; fill-opacity: 0.8; stroke: #004e98; stroke-opacity: 0.8"/>
     <use xlink:href="#mf720378b2d" x="250.739353" y="108.552839" style="fill: #004e98; fill-opacity: 0.8; stroke: #004e98; stroke-opacity: 0.8"/>
     <use xlink:href="#mf720378b2d" x="271.52384" y="112.434278" style="fill: #004e98; fill-opacity: 0.8; stroke: #004e98; stroke-opacity: 0.8"/>
     <use xlink:href="#mf720378b2d" x="176.179883" y="135.54617" style="fill: #004e98; fill-opacity: 0.8; stroke: #004e98; stroke-opacity: 0.8"/>
     <use xlink:href="#mf720378b2d" x="165.800659" y="144.706547" style="fill: #004e98; fill-opacity: 0.8; stroke: #004e98; stroke-opacity: 0.8"/>
     <use xlink:href="#mf720378b2d" x="217.943681" y="109.261907" style="fill: #004e98; fill-opacity: 0.8; stroke: #004e98; stroke-opacity: 0.8"/>
     <use xlink:href="#mf720378b2d" x="262.004332" y="138.417828" style="fill: #004e98; fill-opacity: 0.8; stroke: #004e98; stroke-opacity: 0.8"/>
     <use xlink:href="#mf720378b2d" x="99.446089" y="115.497115" style="fill: #004e98; fill-opacity: 0.8; stroke: #004e98; stroke-opacity: 0.8"/>
     <use xlink:href="#mf720378b2d" x="292.61534" y="128.844328" style="fill: #004e98; fill-opacity: 0.8; stroke: #004e98; stroke-opacity: 0.8"/>
     <use xlink:href="#mf720378b2d" x="99.446089" y="114.077607" style="fill: #004e98; fill-opacity: 0.8; stroke: #004e98; stroke-opacity: 0.8"/>
     <use xlink:href="#mf720378b2d" x="283.861076" y="109.526421" style="fill: #004e98; fill-opacity: 0.8; stroke: #004e98; stroke-opacity: 0.8"/>
     <use xlink:href="#mf720378b2d" x="277.778523" y="112.668275" style="fill: #004e98; fill-opacity: 0.8; stroke: #004e98; stroke-opacity: 0.8"/>
     <use xlink:href="#mf720378b2d" x="263.225121" y="151.198728" style="fill: #004e98; fill-opacity: 0.8; stroke: #004e98; stroke-opacity: 0.8"/>
     <use xlink:href="#mf720378b2d" x="205.781248" y="112.486805" style="fill: #004e98; fill-opacity: 0.8; stroke: #004e98; stroke-opacity: 0.8"/>
     <use xlink:href="#mf720378b2d" x="213.421626" y="102.827286" style="fill: #004e98; fill-opacity: 0.8; stroke: #004e98; stroke-opacity: 0.8"/>
     <use xlink:href="#mf720378b2d" x="259.022056" y="109.745379" style="fill: #004e98; fill-opacity: 0.8; stroke: #004e98; stroke-opacity: 0.8"/>
     <use xlink:href="#mf720378b2d" x="231.64625" y="110.102567" style="fill: #004e98; fill-opacity: 0.8; stroke: #004e98; stroke-opacity: 0.8"/>
     <use xlink:href="#mf720378b2d" x="258.283123" y="132.73558" style="fill: #004e98; fill-opacity: 0.8; stroke: #004e98; stroke-opacity: 0.8"/>
     <use xlink:href="#mf720378b2d" x="241.885496" y="118.602121" style="fill: #004e98; fill-opacity: 0.8; stroke: #004e98; stroke-opacity: 0.8"/>
     <use xlink:href="#mf720378b2d" x="311.397301" y="129.905448" style="fill: #004e98; fill-opacity: 0.8; stroke: #004e98; stroke-opacity: 0.8"/>
     <use xlink:href="#mf720378b2d" x="195.065392" y="115.69572" style="fill: #004e98; fill-opacity: 0.8; stroke: #004e98; stroke-opacity: 0.8"/>
     <use xlink:href="#mf720378b2d" x="192.991296" y="118.691669" style="fill: #004e98; fill-opacity: 0.8; stroke: #004e98; stroke-opacity: 0.8"/>
     <use xlink:href="#mf720378b2d" x="272.559263" y="136.783252" style="fill: #004e98; fill-opacity: 0.8; stroke: #004e98; stroke-opacity: 0.8"/>
     <use xlink:href="#mf720378b2d" x="275.542815" y="156.51077" style="fill: #004e98; fill-opacity: 0.8; stroke: #004e98; stroke-opacity: 0.8"/>
     <use xlink:href="#mf720378b2d" x="140.714738" y="106.461972" style="fill: #004e98; fill-opacity: 0.8; stroke: #004e98; stroke-opacity: 0.8"/>
     <use xlink:href="#mf720378b2d" x="309.905791" y="108.133413" style="fill: #004e98; fill-opacity: 0.8; stroke: #004e98; stroke-opacity: 0.8"/>
     <use xlink:href="#mf720378b2d" x="244.917123" y="122.46783" style="fill: #004e98; fill-opacity: 0.8; stroke: #004e98; stroke-opacity: 0.8"/>
     <use xlink:href="#mf720378b2d" x="283.133637" y="108.213437" style="fill: #004e98; fill-opacity: 0.8; stroke: #004e98; stroke-opacity: 0.8"/>
     <use xlink:href="#mf720378b2d" x="248.890174" y="131.441257" style="fill: #004e98; fill-opacity: 0.8; stroke: #004e98; stroke-opacity: 0.8"/>
     <use xlink:href="#mf720378b2d" x="291.218177" y="116.96946" style="fill: #004e98; fill-opacity: 0.8; stroke: #004e98; stroke-opacity: 0.8"/>
     <use xlink:href="#mf720378b2d" x="124.30319" y="122.864521" style="fill: #004e98; fill-opacity: 0.8; stroke: #004e98; stroke-opacity: 0.8"/>
     <use xlink:href="#mf720378b2d" x="192.617956" y="122.567869" style="fill: #004e98; fill-opacity: 0.8; stroke: #004e98; stroke-opacity: 0.8"/>
     <use xlink:href="#mf720378b2d" x="239.130537" y="133.783293" style="fill: #004e98; fill-opacity: 0.8; stroke: #004e98; stroke-opacity: 0.8"/>
     <use xlink:href="#mf720378b2d" x="306.491285" y="129.720405" style="fill: #004e98; fill-opacity: 0.8; stroke: #004e98; stroke-opacity: 0.8"/>
     <use xlink:href="#mf720378b2d" x="235.857961" y="138.075762" style="fill: #004e98; fill-opacity: 0.8; stroke: #004e98; stroke-opacity: 0.8"/>
     <use xlink:href="#mf720378b2d" x="283.218812" y="118.524775" style="fill: #004e98; fill-opacity: 0.8; stroke: #004e98; stroke-opacity: 0.8"/>
     <use xlink:href="#mf720378b2d" x="277.45514" y="139.05171" style="fill: #004e98; fill-opacity: 0.8; stroke: #004e98; stroke-opacity: 0.8"/>
     <use xlink:href="#mf720378b2d" x="235.094821" y="136.681301" style="fill: #004e98; fill-opacity: 0.8; stroke: #004e98; stroke-opacity: 0.8"/>
     <use xlink:href="#mf720378b2d" x="251.86302" y="119.286727" style="fill: #004e98; fill-opacity: 0.8; stroke: #004e98; stroke-opacity: 0.8"/>
     <use xlink:href="#mf720378b2d" x="264.569803" y="115.977141" style="fill: #004e98; fill-opacity: 0.8; stroke: #004e98; stroke-opacity: 0.8"/>
     <use xlink:href="#mf720378b2d" x="147.199052" y="110.379696" style="fill: #004e98; fill-opacity: 0.8; stroke: #004e98; stroke-opacity: 0.8"/>
     <use xlink:href="#mf720378b2d" x="273.435956" y="110.254589" style="fill: #004e98; fill-opacity: 0.8; stroke: #004e98; stroke-opacity: 0.8"/>
     <use xlink:href="#mf720378b2d" x="246.631391" y="127.179705" style="fill: #004e98; fill-opacity: 0.8; stroke: #004e98; stroke-opacity: 0.8"/>
     <use xlink:href="#mf720378b2d" x="279.901846" y="109.759278" style="fill: #004e98; fill-opacity: 0.8; stroke: #004e98; stroke-opacity: 0.8"/>
     <use xlink:href="#mf720378b2d" x="254.558336" y="142.549419" style="fill: #004e98; fill-opacity: 0.8; stroke: #004e98; stroke-opacity: 0.8"/>
     <use xlink:href="#mf720378b2d" x="293.141871" y="112.132005" style="fill: #004e98; fill-opacity: 0.8; stroke: #004e98; stroke-opacity: 0.8"/>
     <use xlink:href="#mf720378b2d" x="193.717174" y="141.065395" style="fill: #004e98; fill-opacity: 0.8; stroke: #004e98; stroke-opacity: 0.8"/>
     <use xlink:href="#mf720378b2d" x="196.884071" y="124.738589" style="fill: #004e98; fill-opacity: 0.8; stroke: #004e98; stroke-opacity: 0.8"/>
     <use xlink:href="#mf720378b2d" x="185.238842" y="109.188713" style="fill: #004e98; fill-opacity: 0.8; stroke: #004e98; stroke-opacity: 0.8"/>
     <use xlink:href="#mf720378b2d" x="251.2053" y="131.920728" style="fill: #004e98; fill-opacity: 0.8; stroke: #004e98; stroke-opacity: 0.8"/>
     <use xlink:href="#mf720378b2d" x="220.198116" y="123.293095" style="fill: #004e98; fill-opacity: 0.8; stroke: #004e98; stroke-opacity: 0.8"/>
     <use xlink:href="#mf720378b2d" x="259.386495" y="157.963291" style="fill: #004e98; fill-opacity: 0.8; stroke: #004e98; stroke-opacity: 0.8"/>
     <use xlink:href="#mf720378b2d" x="99.446089" y="143.396494" style="fill: #004e98; fill-opacity: 0.8; stroke: #004e98; stroke-opacity: 0.8"/>
     <use xlink:href="#mf720378b2d" x="147.500352" y="127.040241" style="fill: #004e98; fill-opacity: 0.8; stroke: #004e98; stroke-opacity: 0.8"/>
     <use xlink:href="#mf720378b2d" x="231.64625" y="123.776494" style="fill: #004e98; fill-opacity: 0.8; stroke: #004e98; stroke-opacity: 0.8"/>
     <use xlink:href="#mf720378b2d" x="259.172742" y="119.229665" style="fill: #004e98; fill-opacity: 0.8; stroke: #004e98; stroke-opacity: 0.8"/>
     <use xlink:href="#mf720378b2d" x="205.358015" y="123.779553" style="fill: #004e98; fill-opacity: 0.8; stroke: #004e98; stroke-opacity: 0.8"/>
     <use xlink:href="#mf720378b2d" x="223.677136" y="104.939552" style="fill: #004e98; fill-opacity: 0.8; stroke: #004e98; stroke-opacity: 0.8"/>
     <use xlink:href="#mf720378b2d" x="264.682302" y="125.134535" style="fill: #004e98; fill-opacity: 0.8; stroke: #004e98; stroke-opacity: 0.8"/>
     <use xlink:href="#mf720378b2d" x="277.827419" y="150.257702" style="fill: #004e98; fill-opacity: 0.8; stroke: #004e98; stroke-opacity: 0.8"/>
     <use xlink:href="#mf720378b2d" x="219.947008" y="108.405519" style="fill: #004e98; fill-opacity: 0.8; stroke: #004e98; stroke-opacity: 0.8"/>
     <use xlink:href="#mf720378b2d" x="248.301107" y="123.184736" style="fill: #004e98; fill-opacity: 0.8; stroke: #004e98; stroke-opacity: 0.8"/>
     <use xlink:href="#mf720378b2d" x="256.548782" y="137.14909" style="fill: #004e98; fill-opacity: 0.8; stroke: #004e98; stroke-opacity: 0.8"/>
     <use xlink:href="#mf720378b2d" x="156.599175" y="110.401269" style="fill: #004e98; fill-opacity: 0.8; stroke: #004e98; stroke-opacity: 0.8"/>
     <use xlink:href="#mf720378b2d" x="180.254356" y="117.092995" style="fill: #004e98; fill-opacity: 0.8; stroke: #004e98; stroke-opacity: 0.8"/>
     <use xlink:href="#mf720378b2d" x="184.972123" y="117.172183" style="fill: #004e98; fill-opacity: 0.8; stroke: #004e98; stroke-opacity: 0.8"/>
     <use xlink:href="#mf720378b2d" x="166.865439" y="111.278371" style="fill: #004e98; fill-opacity: 0.8; stroke: #004e98; stroke-opacity: 0.8"/>
     <use xlink:href="#mf720378b2d" x="308.207047" y="123.621079" style="fill: #004e98; fill-opacity: 0.8; stroke: #004e98; stroke-opacity: 0.8"/>
     <use xlink:href="#mf720378b2d" x="139.62116" y="162.948739" style="fill: #004e98; fill-opacity: 0.8; stroke: #004e98; stroke-opacity: 0.8"/>
     <use xlink:href="#mf720378b2d" x="148.392148" y="147.406993" style="fill: #004e98; fill-opacity: 0.8; stroke: #004e98; stroke-opacity: 0.8"/>
     <use xlink:href="#mf720378b2d" x="216.661109" y="118.336814" style="fill: #004e98; fill-opacity: 0.8; stroke: #004e98; stroke-opacity: 0.8"/>
     <use xlink:href="#mf720378b2d" x="141.824834" y="131.339087" style="fill: #004e98; fill-opacity: 0.8; stroke: #004e98; stroke-opacity: 0.8"/>
     <use xlink:href="#mf720378b2d" x="238.795926" y="121.347413" style="fill: #004e98; fill-opacity: 0.8; stroke: #004e98; stroke-opacity: 0.8"/>
     <use xlink:href="#mf720378b2d" x="99.446089" y="136.669832" style="fill: #004e98; fill-opacity: 0.8; stroke: #004e98; stroke-opacity: 0.8"/>
     <use xlink:href="#mf720378b2d" x="277.474586" y="114.161073" style="fill: #004e98; fill-opacity: 0.8; stroke: #004e98; stroke-opacity: 0.8"/>
     <use xlink:href="#mf720378b2d" x="152.80436" y="146.095843" style="fill: #004e98; fill-opacity: 0.8; stroke: #004e98; stroke-opacity: 0.8"/>
     <use xlink:href="#mf720378b2d" x="231.64625" y="110.347445" style="fill: #004e98; fill-opacity: 0.8; stroke: #004e98; stroke-opacity: 0.8"/>
     <use xlink:href="#mf720378b2d" x="117.702656" y="119.664722" style="fill: #004e98; fill-opacity: 0.8; stroke: #004e98; stroke-opacity: 0.8"/>
     <use xlink:href="#mf720378b2d" x="249.366997" y="137.347266" style="fill: #004e98; fill-opacity: 0.8; stroke: #004e98; stroke-opacity: 0.8"/>
    </g>
   </g>
   <g id="PolyCollection_1">
    <path d="M 99.446089 117.35472 
L 99.446089 133.320419 
L 101.58701 133.171896 
L 103.727931 133.051401 
L 105.868853 132.940819 
L 108.009774 132.830237 
L 110.150695 132.719654 
L 112.291617 132.609072 
L 114.432538 132.503783 
L 116.573459 132.406713 
L 118.714381 132.309643 
L 120.855302 132.209047 
L 122.996223 132.083028 
L 125.137145 131.956908 
L 127.278066 131.837962 
L 129.418987 131.725164 
L 131.559909 131.614864 
L 133.70083 131.504713 
L 135.841751 131.323316 
L 137.982673 131.196951 
L 140.123594 131.088926 
L 142.264515 131.022574 
L 144.405437 130.912716 
L 146.546358 130.787201 
L 148.687279 130.661685 
L 150.828201 130.521437 
L 152.969122 130.380678 
L 155.110043 130.239919 
L 157.250965 130.109675 
L 159.391886 130.01067 
L 161.532807 129.866251 
L 163.673729 129.756319 
L 165.81465 129.645981 
L 167.955572 129.531414 
L 170.096493 129.411054 
L 172.237414 129.325818 
L 174.378336 129.259183 
L 176.519257 129.188944 
L 178.660178 129.126957 
L 180.8011 129.061553 
L 182.942021 128.945708 
L 185.082942 128.792927 
L 187.223864 128.70771 
L 189.364785 128.588023 
L 191.505706 128.46889 
L 193.646628 128.359868 
L 195.787549 128.309887 
L 197.92847 128.182503 
L 200.069392 128.104523 
L 202.210313 128.080338 
L 204.351234 128.057712 
L 206.492156 127.960166 
L 208.633077 127.937587 
L 210.773998 127.864975 
L 212.91492 127.806927 
L 215.055841 127.78027 
L 217.196762 127.716892 
L 219.337684 127.684101 
L 221.478605 127.665753 
L 223.619526 127.605229 
L 225.760448 127.639522 
L 227.901369 127.578472 
L 230.04229 127.524197 
L 232.183212 127.498057 
L 234.324133 127.487659 
L 236.465054 127.468778 
L 238.605976 127.41376 
L 240.746897 127.43952 
L 242.887818 127.443408 
L 245.02874 127.484837 
L 247.169661 127.479793 
L 249.310582 127.513896 
L 251.451504 127.572651 
L 253.592425 127.636161 
L 255.733346 127.623759 
L 257.874268 127.711665 
L 260.015189 127.831691 
L 262.15611 127.887561 
L 264.297032 127.895481 
L 266.437953 128.039969 
L 268.578874 128.142316 
L 270.719796 128.130989 
L 272.860717 128.16268 
L 275.001639 128.265111 
L 277.14256 128.336436 
L 279.283481 128.464936 
L 281.424403 128.540852 
L 283.565324 128.613667 
L 285.706245 128.67646 
L 287.847167 128.746731 
L 289.988088 128.830832 
L 292.129009 128.94254 
L 294.269931 129.029864 
L 296.410852 129.175914 
L 298.551773 129.321109 
L 300.692695 129.425302 
L 302.833616 129.474516 
L 304.974537 129.636692 
L 307.115459 129.743359 
L 309.25638 129.847554 
L 311.397301 129.952533 
L 311.397301 118.338976 
L 311.397301 118.338976 
L 309.25638 118.475046 
L 307.115459 118.611116 
L 304.974537 118.69323 
L 302.833616 118.792053 
L 300.692695 118.908638 
L 298.551773 119.025284 
L 296.410852 119.170866 
L 294.269931 119.266243 
L 292.129009 119.410722 
L 289.988088 119.52986 
L 287.847167 119.677994 
L 285.706245 119.852387 
L 283.565324 119.96536 
L 281.424403 120.078612 
L 279.283481 120.192079 
L 277.14256 120.299562 
L 275.001639 120.389328 
L 272.860717 120.47963 
L 270.719796 120.546698 
L 268.578874 120.617371 
L 266.437953 120.670326 
L 264.297032 120.70736 
L 262.15611 120.75169 
L 260.015189 120.818404 
L 257.874268 120.890671 
L 255.733346 120.942356 
L 253.592425 121.003269 
L 251.451504 121.078859 
L 249.310582 121.146562 
L 247.169661 121.246619 
L 245.02874 121.285551 
L 242.887818 121.348926 
L 240.746897 121.37907 
L 238.605976 121.44412 
L 236.465054 121.511533 
L 234.324133 121.560435 
L 232.183212 121.582485 
L 230.04229 121.499334 
L 227.901369 121.55994 
L 225.760448 121.576047 
L 223.619526 121.660744 
L 221.478605 121.710623 
L 219.337684 121.741251 
L 217.196762 121.74634 
L 215.055841 121.750123 
L 212.91492 121.753779 
L 210.773998 121.685178 
L 208.633077 121.687522 
L 206.492156 121.63909 
L 204.351234 121.606505 
L 202.210313 121.618946 
L 200.069392 121.569654 
L 197.92847 121.501794 
L 195.787549 121.437602 
L 193.646628 121.368787 
L 191.505706 121.307375 
L 189.364785 121.200739 
L 187.223864 121.200583 
L 185.082942 121.12745 
L 182.942021 121.079202 
L 180.8011 121.067619 
L 178.660178 121.012219 
L 176.519257 120.952018 
L 174.378336 120.914342 
L 172.237414 120.810774 
L 170.096493 120.701617 
L 167.955572 120.588264 
L 165.81465 120.474911 
L 163.673729 120.361558 
L 161.532807 120.248205 
L 159.391886 120.135352 
L 157.250965 120.077872 
L 155.110043 120.000076 
L 152.969122 119.890473 
L 150.828201 119.788512 
L 148.687279 119.685932 
L 146.546358 119.58288 
L 144.405437 119.480064 
L 142.264515 119.383092 
L 140.123594 119.312656 
L 137.982673 119.204256 
L 135.841751 119.09597 
L 133.70083 118.987632 
L 131.559909 118.87917 
L 129.418987 118.78144 
L 127.278066 118.692927 
L 125.137145 118.611463 
L 122.996223 118.517634 
L 120.855302 118.425415 
L 118.714381 118.313953 
L 116.573459 118.203054 
L 114.432538 118.092279 
L 112.291617 117.981503 
L 110.150695 117.870728 
L 108.009774 117.759953 
L 105.868853 117.649178 
L 103.727931 117.552091 
L 101.58701 117.464885 
L 99.446089 117.35472 
z
" clip-path="url(#p810fe7b190)" style="fill: #004e98; fill-opacity: 0.15"/>
   </g>
   <g id="PathCollection_2">
    <defs>
     <path id="m2a95d5f10a" d="M -3 3 
L 3 3 
L 3 -3 
L -3 -3 
z
" style="stroke: #ea0f0b; stroke-opacity: 0.8"/>
    </defs>
    <g clip-path="url(#p810fe7b190)">
     <use xlink:href="#m2a95d5f10a" x="329.593524" y="122.359433" style="fill: #ea0f0b; fill-opacity: 0.8; stroke: #ea0f0b; stroke-opacity: 0.8"/>
     <use xlink:href="#m2a95d5f10a" x="128.163883" y="107.889525" style="fill: #ea0f0b; fill-opacity: 0.8; stroke: #ea0f0b; stroke-opacity: 0.8"/>
     <use xlink:href="#m2a95d5f10a" x="245.709965" y="125.927243" style="fill: #ea0f0b; fill-opacity: 0.8; stroke: #ea0f0b; stroke-opacity: 0.8"/>
     <use xlink:href="#m2a95d5f10a" x="193.79335" y="124.974405" style="fill: #ea0f0b; fill-opacity: 0.8; stroke: #ea0f0b; stroke-opacity: 0.8"/>
     <use xlink:href="#m2a95d5f10a" x="169.817034" y="130.577358" style="fill: #ea0f0b; fill-opacity: 0.8; stroke: #ea0f0b; stroke-opacity: 0.8"/>
     <use xlink:href="#m2a95d5f10a" x="305.551657" y="116.663367" style="fill: #ea0f0b; fill-opacity: 0.8; stroke: #ea0f0b; stroke-opacity: 0.8"/>
     <use xlink:href="#m2a95d5f10a" x="212.322974" y="137.000998" style="fill: #ea0f0b; fill-opacity: 0.8; stroke: #ea0f0b; stroke-opacity: 0.8"/>
     <use xlink:href="#m2a95d5f10a" x="252.133637" y="138.513035" style="fill: #ea0f0b; fill-opacity: 0.8; stroke: #ea0f0b; stroke-opacity: 0.8"/>
     <use xlink:href="#m2a95d5f10a" x="270.012785" y="126.453987" style="fill: #ea0f0b; fill-opacity: 0.8; stroke: #ea0f0b; stroke-opacity: 0.8"/>
     <use xlink:href="#m2a95d5f10a" x="220.555214" y="158.504944" style="fill: #ea0f0b; fill-opacity: 0.8; stroke: #ea0f0b; stroke-opacity: 0.8"/>
     <use xlink:href="#m2a95d5f10a" x="274.250388" y="100.751452" style="fill: #ea0f0b; fill-opacity: 0.8; stroke: #ea0f0b; stroke-opacity: 0.8"/>
     <use xlink:href="#m2a95d5f10a" x="186.605717" y="148.66291" style="fill: #ea0f0b; fill-opacity: 0.8; stroke: #ea0f0b; stroke-opacity: 0.8"/>
     <use xlink:href="#m2a95d5f10a" x="99.446089" y="118.068505" style="fill: #ea0f0b; fill-opacity: 0.8; stroke: #ea0f0b; stroke-opacity: 0.8"/>
     <use xlink:href="#m2a95d5f10a" x="329.498798" y="98.543197" style="fill: #ea0f0b; fill-opacity: 0.8; stroke: #ea0f0b; stroke-opacity: 0.8"/>
     <use xlink:href="#m2a95d5f10a" x="246.571527" y="123.364813" style="fill: #ea0f0b; fill-opacity: 0.8; stroke: #ea0f0b; stroke-opacity: 0.8"/>
     <use xlink:href="#m2a95d5f10a" x="267.011442" y="145.813517" style="fill: #ea0f0b; fill-opacity: 0.8; stroke: #ea0f0b; stroke-opacity: 0.8"/>
     <use xlink:href="#m2a95d5f10a" x="306.203668" y="134.70843" style="fill: #ea0f0b; fill-opacity: 0.8; stroke: #ea0f0b; stroke-opacity: 0.8"/>
     <use xlink:href="#m2a95d5f10a" x="279.362013" y="97.37797" style="fill: #ea0f0b; fill-opacity: 0.8; stroke: #ea0f0b; stroke-opacity: 0.8"/>
     <use xlink:href="#m2a95d5f10a" x="177.375472" y="125.843208" style="fill: #ea0f0b; fill-opacity: 0.8; stroke: #ea0f0b; stroke-opacity: 0.8"/>
     <use xlink:href="#m2a95d5f10a" x="291.723172" y="102.05502" style="fill: #ea0f0b; fill-opacity: 0.8; stroke: #ea0f0b; stroke-opacity: 0.8"/>
     <use xlink:href="#m2a95d5f10a" x="99.446089" y="123.208636" style="fill: #ea0f0b; fill-opacity: 0.8; stroke: #ea0f0b; stroke-opacity: 0.8"/>
     <use xlink:href="#m2a95d5f10a" x="181.406921" y="158.336792" style="fill: #ea0f0b; fill-opacity: 0.8; stroke: #ea0f0b; stroke-opacity: 0.8"/>
     <use xlink:href="#m2a95d5f10a" x="294.962605" y="114.862063" style="fill: #ea0f0b; fill-opacity: 0.8; stroke: #ea0f0b; stroke-opacity: 0.8"/>
     <use xlink:href="#m2a95d5f10a" x="242.294397" y="137.262985" style="fill: #ea0f0b; fill-opacity: 0.8; stroke: #ea0f0b; stroke-opacity: 0.8"/>
     <use xlink:href="#m2a95d5f10a" x="173.051884" y="128.442953" style="fill: #ea0f0b; fill-opacity: 0.8; stroke: #ea0f0b; stroke-opacity: 0.8"/>
     <use xlink:href="#m2a95d5f10a" x="258.698915" y="118.785039" style="fill: #ea0f0b; fill-opacity: 0.8; stroke: #ea0f0b; stroke-opacity: 0.8"/>
     <use xlink:href="#m2a95d5f10a" x="215.610722" y="134.192303" style="fill: #ea0f0b; fill-opacity: 0.8; stroke: #ea0f0b; stroke-opacity: 0.8"/>
     <use xlink:href="#m2a95d5f10a" x="179.102335" y="129.990099" style="fill: #ea0f0b; fill-opacity: 0.8; stroke: #ea0f0b; stroke-opacity: 0.8"/>
     <use xlink:href="#m2a95d5f10a" x="302.917225" y="129.160832" style="fill: #ea0f0b; fill-opacity: 0.8; stroke: #ea0f0b; stroke-opacity: 0.8"/>
     <use xlink:href="#m2a95d5f10a" x="258.371725" y="127.788103" style="fill: #ea0f0b; fill-opacity: 0.8; stroke: #ea0f0b; stroke-opacity: 0.8"/>
     <use xlink:href="#m2a95d5f10a" x="245.587489" y="133.289031" style="fill: #ea0f0b; fill-opacity: 0.8; stroke: #ea0f0b; stroke-opacity: 0.8"/>
     <use xlink:href="#m2a95d5f10a" x="234.08482" y="121.283719" style="fill: #ea0f0b; fill-opacity: 0.8; stroke: #ea0f0b; stroke-opacity: 0.8"/>
     <use xlink:href="#m2a95d5f10a" x="156.495303" y="134.055664" style="fill: #ea0f0b; fill-opacity: 0.8; stroke: #ea0f0b; stroke-opacity: 0.8"/>
     <use xlink:href="#m2a95d5f10a" x="228.773913" y="125.075869" style="fill: #ea0f0b; fill-opacity: 0.8; stroke: #ea0f0b; stroke-opacity: 0.8"/>
     <use xlink:href="#m2a95d5f10a" x="177.482025" y="112.934548" style="fill: #ea0f0b; fill-opacity: 0.8; stroke: #ea0f0b; stroke-opacity: 0.8"/>
     <use xlink:href="#m2a95d5f10a" x="145.746632" y="147.10957" style="fill: #ea0f0b; fill-opacity: 0.8; stroke: #ea0f0b; stroke-opacity: 0.8"/>
     <use xlink:href="#m2a95d5f10a" x="199.291088" y="119.694071" style="fill: #ea0f0b; fill-opacity: 0.8; stroke: #ea0f0b; stroke-opacity: 0.8"/>
     <use xlink:href="#m2a95d5f10a" x="161.731955" y="164.854612" style="fill: #ea0f0b; fill-opacity: 0.8; stroke: #ea0f0b; stroke-opacity: 0.8"/>
     <use xlink:href="#m2a95d5f10a" x="132.82426" y="102.759475" style="fill: #ea0f0b; fill-opacity: 0.8; stroke: #ea0f0b; stroke-opacity: 0.8"/>
     <use xlink:href="#m2a95d5f10a" x="284.411825" y="117.230723" style="fill: #ea0f0b; fill-opacity: 0.8; stroke: #ea0f0b; stroke-opacity: 0.8"/>
     <use xlink:href="#m2a95d5f10a" x="300.675827" y="126.529854" style="fill: #ea0f0b; fill-opacity: 0.8; stroke: #ea0f0b; stroke-opacity: 0.8"/>
     <use xlink:href="#m2a95d5f10a" x="219.817282" y="131.623446" style="fill: #ea0f0b; fill-opacity: 0.8; stroke: #ea0f0b; stroke-opacity: 0.8"/>
     <use xlink:href="#m2a95d5f10a" x="225.887103" y="121.120832" style="fill: #ea0f0b; fill-opacity: 0.8; stroke: #ea0f0b; stroke-opacity: 0.8"/>
     <use xlink:href="#m2a95d5f10a" x="188.586548" y="105.387042" style="fill: #ea0f0b; fill-opacity: 0.8; stroke: #ea0f0b; stroke-opacity: 0.8"/>
     <use xlink:href="#m2a95d5f10a" x="278.253415" y="140.120037" style="fill: #ea0f0b; fill-opacity: 0.8; stroke: #ea0f0b; stroke-opacity: 0.8"/>
     <use xlink:href="#m2a95d5f10a" x="99.446089" y="154.281025" style="fill: #ea0f0b; fill-opacity: 0.8; stroke: #ea0f0b; stroke-opacity: 0.8"/>
     <use xlink:href="#m2a95d5f10a" x="214.07129" y="125.037789" style="fill: #ea0f0b; fill-opacity: 0.8; stroke: #ea0f0b; stroke-opacity: 0.8"/>
     <use xlink:href="#m2a95d5f10a" x="260.619392" y="142.791969" style="fill: #ea0f0b; fill-opacity: 0.8; stroke: #ea0f0b; stroke-opacity: 0.8"/>
     <use xlink:href="#m2a95d5f10a" x="199.596039" y="134.774919" style="fill: #ea0f0b; fill-opacity: 0.8; stroke: #ea0f0b; stroke-opacity: 0.8"/>
     <use xlink:href="#m2a95d5f10a" x="261.501762" y="138.834958" style="fill: #ea0f0b; fill-opacity: 0.8; stroke: #ea0f0b; stroke-opacity: 0.8"/>
     <use xlink:href="#m2a95d5f10a" x="213.21198" y="143.551353" style="fill: #ea0f0b; fill-opacity: 0.8; stroke: #ea0f0b; stroke-opacity: 0.8"/>
     <use xlink:href="#m2a95d5f10a" x="157.309094" y="120.090858" style="fill: #ea0f0b; fill-opacity: 0.8; stroke: #ea0f0b; stroke-opacity: 0.8"/>
     <use xlink:href="#m2a95d5f10a" x="216.138665" y="93.523881" style="fill: #ea0f0b; fill-opacity: 0.8; stroke: #ea0f0b; stroke-opacity: 0.8"/>
     <use xlink:href="#m2a95d5f10a" x="208.317842" y="91.468671" style="fill: #ea0f0b; fill-opacity: 0.8; stroke: #ea0f0b; stroke-opacity: 0.8"/>
     <use xlink:href="#m2a95d5f10a" x="284.49542" y="104.505512" style="fill: #ea0f0b; fill-opacity: 0.8; stroke: #ea0f0b; stroke-opacity: 0.8"/>
     <use xlink:href="#m2a95d5f10a" x="287.069397" y="68.928283" style="fill: #ea0f0b; fill-opacity: 0.8; stroke: #ea0f0b; stroke-opacity: 0.8"/>
     <use xlink:href="#m2a95d5f10a" x="145.071047" y="110.17019" style="fill: #ea0f0b; fill-opacity: 0.8; stroke: #ea0f0b; stroke-opacity: 0.8"/>
     <use xlink:href="#m2a95d5f10a" x="190.316811" y="126.470806" style="fill: #ea0f0b; fill-opacity: 0.8; stroke: #ea0f0b; stroke-opacity: 0.8"/>
     <use xlink:href="#m2a95d5f10a" x="223.908478" y="102.138783" style="fill: #ea0f0b; fill-opacity: 0.8; stroke: #ea0f0b; stroke-opacity: 0.8"/>
     <use xlink:href="#m2a95d5f10a" x="165.800659" y="119.647364" style="fill: #ea0f0b; fill-opacity: 0.8; stroke: #ea0f0b; stroke-opacity: 0.8"/>
     <use xlink:href="#m2a95d5f10a" x="272.9149" y="134.386783" style="fill: #ea0f0b; fill-opacity: 0.8; stroke: #ea0f0b; stroke-opacity: 0.8"/>
     <use xlink:href="#m2a95d5f10a" x="119.719018" y="173.322972" style="fill: #ea0f0b; fill-opacity: 0.8; stroke: #ea0f0b; stroke-opacity: 0.8"/>
     <use xlink:href="#m2a95d5f10a" x="236.602108" y="120.089953" style="fill: #ea0f0b; fill-opacity: 0.8; stroke: #ea0f0b; stroke-opacity: 0.8"/>
     <use xlink:href="#m2a95d5f10a" x="272.75767" y="111.884306" style="fill: #ea0f0b; fill-opacity: 0.8; stroke: #ea0f0b; stroke-opacity: 0.8"/>
    </g>
   </g>
   <g id="PolyCollection_2">
    <path d="M 99.446089 124.392983 
L 99.446089 147.487201 
L 101.77081 147.084681 
L 104.095532 146.684542 
L 106.420253 146.283115 
L 108.744975 145.881688 
L 111.069696 145.480261 
L 113.394418 145.085695 
L 115.71914 144.770652 
L 118.043861 144.388427 
L 120.368583 143.99654 
L 122.693304 143.602463 
L 125.018026 143.208385 
L 127.342748 142.817071 
L 129.667469 142.421263 
L 131.992191 142.028504 
L 134.316912 141.635399 
L 136.641634 141.241766 
L 138.966355 140.893473 
L 141.291077 140.550607 
L 143.615799 140.173146 
L 145.94052 139.794926 
L 148.265242 139.416849 
L 150.589963 139.040211 
L 152.914685 138.662502 
L 155.239406 138.283882 
L 157.564128 137.890262 
L 159.88885 137.479705 
L 162.213571 137.069053 
L 164.538293 136.734242 
L 166.863014 136.396234 
L 169.187736 136.022083 
L 171.512457 135.750857 
L 173.837179 135.479631 
L 176.161901 135.208381 
L 178.486622 134.939546 
L 180.811344 134.729784 
L 183.136065 134.503799 
L 185.460787 134.119579 
L 187.785508 133.755643 
L 190.11023 133.380769 
L 192.434952 133.113493 
L 194.759673 132.858171 
L 197.084395 132.50892 
L 199.409116 132.197659 
L 201.733838 131.869122 
L 204.058559 131.486618 
L 206.383281 131.148175 
L 208.708003 130.879262 
L 211.032724 130.515648 
L 213.357446 130.214208 
L 215.682167 129.930155 
L 218.006889 129.671236 
L 220.33161 129.462303 
L 222.656332 129.238067 
L 224.981054 129.020268 
L 227.305775 128.79463 
L 229.630497 128.68916 
L 231.955218 128.508573 
L 234.27994 128.413937 
L 236.604662 128.19985 
L 238.929383 127.997882 
L 241.254105 127.807692 
L 243.578826 127.679977 
L 245.903548 127.531121 
L 248.228269 127.384006 
L 250.552991 127.253962 
L 252.877713 127.116134 
L 255.202434 127.065416 
L 257.527156 126.970125 
L 259.851877 126.841972 
L 262.176599 126.707674 
L 264.50132 126.594096 
L 266.826042 126.501889 
L 269.150764 126.439985 
L 271.475485 126.41275 
L 273.800207 126.387277 
L 276.124928 126.224283 
L 278.44965 126.13377 
L 280.774371 126.151075 
L 283.099093 126.034312 
L 285.423815 125.844234 
L 287.748536 125.797226 
L 290.073258 125.721535 
L 292.397979 125.597172 
L 294.722701 125.582948 
L 297.047422 125.502232 
L 299.372144 125.489085 
L 301.696866 125.49501 
L 304.021587 125.543844 
L 306.346309 125.449641 
L 308.67103 125.441245 
L 310.995752 125.486848 
L 313.320473 125.417288 
L 315.645195 125.393702 
L 317.969917 125.344523 
L 320.294638 125.27479 
L 322.61936 125.204855 
L 324.944081 125.13492 
L 327.268803 125.064986 
L 329.593524 125.032491 
L 329.593524 107.054876 
L 329.593524 107.054876 
L 327.268803 107.410048 
L 324.944081 107.803211 
L 322.61936 108.168696 
L 320.294638 108.521066 
L 317.969917 108.885033 
L 315.645195 109.249 
L 313.320473 109.631035 
L 310.995752 109.990361 
L 308.67103 110.32392 
L 306.346309 110.698086 
L 304.021587 111.035254 
L 301.696866 111.37589 
L 299.372144 111.780604 
L 297.047422 112.058388 
L 294.722701 112.386397 
L 292.397979 112.656855 
L 290.073258 112.989236 
L 287.748536 113.334928 
L 285.423815 113.64454 
L 283.099093 113.984053 
L 280.774371 114.268882 
L 278.44965 114.5368 
L 276.124928 114.96189 
L 273.800207 115.272173 
L 271.475485 115.516911 
L 269.150764 115.747341 
L 266.826042 116.02723 
L 264.50132 116.311139 
L 262.176599 116.576617 
L 259.851877 116.771242 
L 257.527156 117.122397 
L 255.202434 117.474602 
L 252.877713 117.828092 
L 250.552991 118.005696 
L 248.228269 118.211042 
L 245.903548 118.353472 
L 243.578826 118.712534 
L 241.254105 119.089528 
L 238.929383 119.328236 
L 236.604662 119.519047 
L 234.27994 119.613126 
L 231.955218 119.913159 
L 229.630497 120.070249 
L 227.305775 120.245237 
L 224.981054 120.442037 
L 222.656332 120.626609 
L 220.33161 120.867971 
L 218.006889 120.996763 
L 215.682167 121.056959 
L 213.357446 121.241036 
L 211.032724 121.389386 
L 208.708003 121.583573 
L 206.383281 121.736048 
L 204.058559 121.877486 
L 201.733838 122.018924 
L 199.409116 122.161289 
L 197.084395 122.302677 
L 194.759673 122.471714 
L 192.434952 122.613014 
L 190.11023 122.726242 
L 187.785508 122.844096 
L 185.460787 122.883463 
L 183.136065 122.976828 
L 180.811344 123.052036 
L 178.486622 123.107364 
L 176.161901 123.193333 
L 173.837179 123.263146 
L 171.512457 123.332071 
L 169.187736 123.363929 
L 166.863014 123.399465 
L 164.538293 123.431837 
L 162.213571 123.511935 
L 159.88885 123.570031 
L 157.564128 123.696054 
L 155.239406 123.74193 
L 152.914685 123.7756 
L 150.589963 123.80945 
L 148.265242 123.853565 
L 145.94052 123.909657 
L 143.615799 123.941206 
L 141.291077 123.951454 
L 138.966355 123.978288 
L 136.641634 123.975311 
L 134.316912 123.992157 
L 131.992191 124.020598 
L 129.667469 124.04904 
L 127.342748 124.078815 
L 125.018026 124.135314 
L 122.693304 124.207384 
L 120.368583 124.182732 
L 118.043861 124.193528 
L 115.71914 124.248626 
L 113.394418 124.253553 
L 111.069696 124.281061 
L 108.744975 124.28483 
L 106.420253 124.318825 
L 104.095532 124.358244 
L 101.77081 124.396617 
L 99.446089 124.392983 
z
" clip-path="url(#p810fe7b190)" style="fill: #ea0f0b; fill-opacity: 0.15"/>
   </g>
   <g id="matplotlib.axis_1">
    <g id="xtick_1">
     <g id="line2d_1">
      <defs>
       <path id="m9085bb3387" d="M 0 0 
L 0 3.5 
" style="stroke: #000000; stroke-width: 0.8"/>
      </defs>
      <g>
       <use xlink:href="#m9085bb3387" x="64.24625" y="231.478594" style="stroke: #000000; stroke-width: 0.8"/>
      </g>
     </g>
     <g id="text_1">
      <!-- 0 -->
      <g transform="translate(58.52 252.155781)scale(0.18 -0.18)">
       <defs>
        <path id="DejaVuSans-30" d="M 2034 4250 
Q 1547 4250 1301 3770 
Q 1056 3291 1056 2328 
Q 1056 1369 1301 889 
Q 1547 409 2034 409 
Q 2525 409 2770 889 
Q 3016 1369 3016 2328 
Q 3016 3291 2770 3770 
Q 2525 4250 2034 4250 
z
M 2034 4750 
Q 2819 4750 3233 4129 
Q 3647 3509 3647 2328 
Q 3647 1150 3233 529 
Q 2819 -91 2034 -91 
Q 1250 -91 836 529 
Q 422 1150 422 2328 
Q 422 3509 836 4129 
Q 1250 4750 2034 4750 
z
" transform="scale(0.015625)"/>
       </defs>
       <use xlink:href="#DejaVuSans-30"/>
      </g>
     </g>
    </g>
    <g id="xtick_2">
     <g id="line2d_2">
      <g>
       <use xlink:href="#m9085bb3387" x="138.64625" y="231.478594" style="stroke: #000000; stroke-width: 0.8"/>
      </g>
     </g>
     <g id="text_2">
      <!-- 20 -->
      <g transform="translate(127.19375 252.155781)scale(0.18 -0.18)">
       <defs>
        <path id="DejaVuSans-32" d="M 1228 531 
L 3431 531 
L 3431 0 
L 469 0 
L 469 531 
Q 828 903 1448 1529 
Q 2069 2156 2228 2338 
Q 2531 2678 2651 2914 
Q 2772 3150 2772 3378 
Q 2772 3750 2511 3984 
Q 2250 4219 1831 4219 
Q 1534 4219 1204 4116 
Q 875 4013 500 3803 
L 500 4441 
Q 881 4594 1212 4672 
Q 1544 4750 1819 4750 
Q 2544 4750 2975 4387 
Q 3406 4025 3406 3419 
Q 3406 3131 3298 2873 
Q 3191 2616 2906 2266 
Q 2828 2175 2409 1742 
Q 1991 1309 1228 531 
z
" transform="scale(0.015625)"/>
       </defs>
       <use xlink:href="#DejaVuSans-32"/>
       <use xlink:href="#DejaVuSans-30" x="63.623047"/>
      </g>
     </g>
    </g>
    <g id="xtick_3">
     <g id="line2d_3">
      <g>
       <use xlink:href="#m9085bb3387" x="213.04625" y="231.478594" style="stroke: #000000; stroke-width: 0.8"/>
      </g>
     </g>
     <g id="text_3">
      <!-- 40 -->
      <g transform="translate(201.59375 252.155781)scale(0.18 -0.18)">
       <defs>
        <path id="DejaVuSans-34" d="M 2419 4116 
L 825 1625 
L 2419 1625 
L 2419 4116 
z
M 2253 4666 
L 3047 4666 
L 3047 1625 
L 3713 1625 
L 3713 1100 
L 3047 1100 
L 3047 0 
L 2419 0 
L 2419 1100 
L 313 1100 
L 313 1709 
L 2253 4666 
z
" transform="scale(0.015625)"/>
       </defs>
       <use xlink:href="#DejaVuSans-34"/>
       <use xlink:href="#DejaVuSans-30" x="63.623047"/>
      </g>
     </g>
    </g>
    <g id="xtick_4">
     <g id="line2d_4">
      <g>
       <use xlink:href="#m9085bb3387" x="287.44625" y="231.478594" style="stroke: #000000; stroke-width: 0.8"/>
      </g>
     </g>
     <g id="text_4">
      <!-- 60 -->
      <g transform="translate(275.99375 252.155781)scale(0.18 -0.18)">
       <defs>
        <path id="DejaVuSans-36" d="M 2113 2584 
Q 1688 2584 1439 2293 
Q 1191 2003 1191 1497 
Q 1191 994 1439 701 
Q 1688 409 2113 409 
Q 2538 409 2786 701 
Q 3034 994 3034 1497 
Q 3034 2003 2786 2293 
Q 2538 2584 2113 2584 
z
M 3366 4563 
L 3366 3988 
Q 3128 4100 2886 4159 
Q 2644 4219 2406 4219 
Q 1781 4219 1451 3797 
Q 1122 3375 1075 2522 
Q 1259 2794 1537 2939 
Q 1816 3084 2150 3084 
Q 2853 3084 3261 2657 
Q 3669 2231 3669 1497 
Q 3669 778 3244 343 
Q 2819 -91 2113 -91 
Q 1303 -91 875 529 
Q 447 1150 447 2328 
Q 447 3434 972 4092 
Q 1497 4750 2381 4750 
Q 2619 4750 2861 4703 
Q 3103 4656 3366 4563 
z
" transform="scale(0.015625)"/>
       </defs>
       <use xlink:href="#DejaVuSans-36"/>
       <use xlink:href="#DejaVuSans-30" x="63.623047"/>
      </g>
     </g>
    </g>
    <g id="xtick_5">
     <g id="line2d_5">
      <g>
       <use xlink:href="#m9085bb3387" x="361.84625" y="231.478594" style="stroke: #000000; stroke-width: 0.8"/>
      </g>
     </g>
     <g id="text_5">
      <!-- 80 -->
      <g transform="translate(350.39375 252.155781)scale(0.18 -0.18)">
       <defs>
        <path id="DejaVuSans-38" d="M 2034 2216 
Q 1584 2216 1326 1975 
Q 1069 1734 1069 1313 
Q 1069 891 1326 650 
Q 1584 409 2034 409 
Q 2484 409 2743 651 
Q 3003 894 3003 1313 
Q 3003 1734 2745 1975 
Q 2488 2216 2034 2216 
z
M 1403 2484 
Q 997 2584 770 2862 
Q 544 3141 544 3541 
Q 544 4100 942 4425 
Q 1341 4750 2034 4750 
Q 2731 4750 3128 4425 
Q 3525 4100 3525 3541 
Q 3525 3141 3298 2862 
Q 3072 2584 2669 2484 
Q 3125 2378 3379 2068 
Q 3634 1759 3634 1313 
Q 3634 634 3220 271 
Q 2806 -91 2034 -91 
Q 1263 -91 848 271 
Q 434 634 434 1313 
Q 434 1759 690 2068 
Q 947 2378 1403 2484 
z
M 1172 3481 
Q 1172 3119 1398 2916 
Q 1625 2713 2034 2713 
Q 2441 2713 2670 2916 
Q 2900 3119 2900 3481 
Q 2900 3844 2670 4047 
Q 2441 4250 2034 4250 
Q 1625 4250 1398 4047 
Q 1172 3844 1172 3481 
z
" transform="scale(0.015625)"/>
       </defs>
       <use xlink:href="#DejaVuSans-38"/>
       <use xlink:href="#DejaVuSans-30" x="63.623047"/>
      </g>
     </g>
    </g>
    <g id="text_6">
     <!-- $RA^{\circ}$ -->
     <g transform="translate(214.36625 273.576406)scale(0.18 -0.18)">
      <defs>
       <path id="DejaVuSans-Oblique-52" d="M 1613 4147 
L 1294 2491 
L 2106 2491 
Q 2584 2491 2879 2755 
Q 3175 3019 3175 3444 
Q 3175 3784 2976 3965 
Q 2778 4147 2406 4147 
L 1613 4147 
z
M 2772 2241 
Q 2972 2194 3105 2009 
Q 3238 1825 3413 1275 
L 3809 0 
L 3144 0 
L 2778 1197 
Q 2638 1659 2453 1815 
Q 2269 1972 1888 1972 
L 1191 1972 
L 806 0 
L 172 0 
L 1081 4666 
L 2503 4666 
Q 3150 4666 3495 4373 
Q 3841 4081 3841 3531 
Q 3841 3044 3547 2687 
Q 3253 2331 2772 2241 
z
" transform="scale(0.015625)"/>
       <path id="DejaVuSans-Oblique-41" d="M 2356 4666 
L 3072 4666 
L 3938 0 
L 3278 0 
L 3084 1197 
L 984 1197 
L 325 0 
L -341 0 
L 2356 4666 
z
M 2584 4044 
L 1275 1722 
L 2988 1722 
L 2584 4044 
z
" transform="scale(0.015625)"/>
       <path id="DejaVuSans-2218" d="M 2000 2619 
Q 1750 2619 1578 2445 
Q 1406 2272 1406 2022 
Q 1406 1775 1578 1605 
Q 1750 1435 2000 1435 
Q 2250 1435 2422 1605 
Q 2594 1775 2594 2022 
Q 2594 2269 2420 2444 
Q 2247 2619 2000 2619 
z
M 2000 3022 
Q 2200 3022 2384 2945 
Q 2569 2869 2703 2725 
Q 2847 2585 2919 2406 
Q 2991 2228 2991 2022 
Q 2991 1610 2702 1324 
Q 2413 1038 1994 1038 
Q 1572 1038 1290 1319 
Q 1009 1600 1009 2022 
Q 1009 2441 1296 2731 
Q 1584 3022 2000 3022 
z
" transform="scale(0.015625)"/>
      </defs>
      <use xlink:href="#DejaVuSans-Oblique-52" transform="translate(0 0.09375)"/>
      <use xlink:href="#DejaVuSans-Oblique-41" transform="translate(69.482422 0.09375)"/>
      <use xlink:href="#DejaVuSans-2218" transform="translate(144.907396 38.375)scale(0.7)"/>
     </g>
    </g>
   </g>
   <g id="matplotlib.axis_2">
    <g id="ytick_1">
     <g id="line2d_6">
      <defs>
       <path id="m8047dbc9c4" d="M 0 0 
L -3.5 0 
" style="stroke: #000000; stroke-width: 0.8"/>
      </defs>
      <g>
       <use xlink:href="#m8047dbc9c4" x="64.24625" y="231.478594" style="stroke: #000000; stroke-width: 0.8"/>
      </g>
     </g>
     <g id="text_7">
      <!-- 0.0 -->
      <g transform="translate(28.620625 238.317187)scale(0.18 -0.18)">
       <defs>
        <path id="DejaVuSans-2e" d="M 684 794 
L 1344 794 
L 1344 0 
L 684 0 
L 684 794 
z
" transform="scale(0.015625)"/>
       </defs>
       <use xlink:href="#DejaVuSans-30"/>
       <use xlink:href="#DejaVuSans-2e" x="63.623047"/>
       <use xlink:href="#DejaVuSans-30" x="95.410156"/>
      </g>
     </g>
    </g>
    <g id="ytick_2">
     <g id="line2d_7">
      <g>
       <use xlink:href="#m8047dbc9c4" x="64.24625" y="187.990594" style="stroke: #000000; stroke-width: 0.8"/>
      </g>
     </g>
     <g id="text_8">
      <!-- 0.2 -->
      <g transform="translate(28.620625 194.829187)scale(0.18 -0.18)">
       <use xlink:href="#DejaVuSans-30"/>
       <use xlink:href="#DejaVuSans-2e" x="63.623047"/>
       <use xlink:href="#DejaVuSans-32" x="95.410156"/>
      </g>
     </g>
    </g>
    <g id="ytick_3">
     <g id="line2d_8">
      <g>
       <use xlink:href="#m8047dbc9c4" x="64.24625" y="144.502594" style="stroke: #000000; stroke-width: 0.8"/>
      </g>
     </g>
     <g id="text_9">
      <!-- 0.4 -->
      <g transform="translate(28.620625 151.341187)scale(0.18 -0.18)">
       <use xlink:href="#DejaVuSans-30"/>
       <use xlink:href="#DejaVuSans-2e" x="63.623047"/>
       <use xlink:href="#DejaVuSans-34" x="95.410156"/>
      </g>
     </g>
    </g>
    <g id="ytick_4">
     <g id="line2d_9">
      <g>
       <use xlink:href="#m8047dbc9c4" x="64.24625" y="101.014594" style="stroke: #000000; stroke-width: 0.8"/>
      </g>
     </g>
     <g id="text_10">
      <!-- 0.6 -->
      <g transform="translate(28.620625 107.853187)scale(0.18 -0.18)">
       <use xlink:href="#DejaVuSans-30"/>
       <use xlink:href="#DejaVuSans-2e" x="63.623047"/>
       <use xlink:href="#DejaVuSans-36" x="95.410156"/>
      </g>
     </g>
    </g>
    <g id="ytick_5">
     <g id="line2d_10">
      <g>
       <use xlink:href="#m8047dbc9c4" x="64.24625" y="57.526594" style="stroke: #000000; stroke-width: 0.8"/>
      </g>
     </g>
     <g id="text_11">
      <!-- 0.8 -->
      <g transform="translate(28.620625 64.365187)scale(0.18 -0.18)">
       <use xlink:href="#DejaVuSans-30"/>
       <use xlink:href="#DejaVuSans-2e" x="63.623047"/>
       <use xlink:href="#DejaVuSans-38" x="95.410156"/>
      </g>
     </g>
    </g>
    <g id="ytick_6">
     <g id="line2d_11">
      <g>
       <use xlink:href="#m8047dbc9c4" x="64.24625" y="14.038594" style="stroke: #000000; stroke-width: 0.8"/>
      </g>
     </g>
     <g id="text_12">
      <!-- 1.0 -->
      <g transform="translate(28.620625 20.877187)scale(0.18 -0.18)">
       <defs>
        <path id="DejaVuSans-31" d="M 794 531 
L 1825 531 
L 1825 4091 
L 703 3866 
L 703 4441 
L 1819 4666 
L 2450 4666 
L 2450 531 
L 3481 531 
L 3481 0 
L 794 0 
L 794 531 
z
" transform="scale(0.015625)"/>
       </defs>
       <use xlink:href="#DejaVuSans-31"/>
       <use xlink:href="#DejaVuSans-2e" x="63.623047"/>
       <use xlink:href="#DejaVuSans-30" x="95.410156"/>
      </g>
     </g>
    </g>
    <g id="text_13">
     <!-- z -->
     <g transform="translate(20.877188 127.482187)rotate(-90)scale(0.18 -0.18)">
      <defs>
       <path id="DejaVuSans-7a" d="M 353 3500 
L 3084 3500 
L 3084 2975 
L 922 459 
L 3084 459 
L 3084 0 
L 275 0 
L 275 525 
L 2438 3041 
L 353 3041 
L 353 3500 
z
" transform="scale(0.015625)"/>
      </defs>
      <use xlink:href="#DejaVuSans-7a"/>
     </g>
    </g>
   </g>
   <g id="line2d_12">
    <path d="M 99.446089 125.843674 
L 101.58701 125.822265 
L 103.727931 125.800856 
L 105.868853 125.779447 
L 108.009774 125.758038 
L 110.150695 125.736629 
L 112.291617 125.71522 
L 114.432538 125.69381 
L 116.573459 125.672401 
L 118.714381 125.650992 
L 120.855302 125.629583 
L 122.996223 125.608174 
L 125.137145 125.586765 
L 127.278066 125.565356 
L 129.418987 125.543946 
L 131.559909 125.522537 
L 133.70083 125.501128 
L 135.841751 125.479719 
L 137.982673 125.45831 
L 140.123594 125.436901 
L 142.264515 125.415492 
L 144.405437 125.394082 
L 146.546358 125.372673 
L 148.687279 125.351264 
L 150.828201 125.329855 
L 152.969122 125.308446 
L 155.110043 125.287037 
L 157.250965 125.265628 
L 159.391886 125.244219 
L 161.532807 125.222809 
L 163.673729 125.2014 
L 165.81465 125.179991 
L 167.955572 125.158582 
L 170.096493 125.137173 
L 172.237414 125.115764 
L 174.378336 125.094355 
L 176.519257 125.072945 
L 178.660178 125.051536 
L 180.8011 125.030127 
L 182.942021 125.008718 
L 185.082942 124.987309 
L 187.223864 124.9659 
L 189.364785 124.944491 
L 191.505706 124.923082 
L 193.646628 124.901672 
L 195.787549 124.880263 
L 197.92847 124.858854 
L 200.069392 124.837445 
L 202.210313 124.816036 
L 204.351234 124.794627 
L 206.492156 124.773218 
L 208.633077 124.751808 
L 210.773998 124.730399 
L 212.91492 124.70899 
L 215.055841 124.687581 
L 217.196762 124.666172 
L 219.337684 124.644763 
L 221.478605 124.623354 
L 223.619526 124.601944 
L 225.760448 124.580535 
L 227.901369 124.559126 
L 230.04229 124.537717 
L 232.183212 124.516308 
L 234.324133 124.494899 
L 236.465054 124.47349 
L 238.605976 124.452081 
L 240.746897 124.430671 
L 242.887818 124.409262 
L 245.02874 124.387853 
L 247.169661 124.366444 
L 249.310582 124.345035 
L 251.451504 124.323626 
L 253.592425 124.302217 
L 255.733346 124.280807 
L 257.874268 124.259398 
L 260.015189 124.237989 
L 262.15611 124.21658 
L 264.297032 124.195171 
L 266.437953 124.173762 
L 268.578874 124.152353 
L 270.719796 124.130944 
L 272.860717 124.109534 
L 275.001639 124.088125 
L 277.14256 124.066716 
L 279.283481 124.045307 
L 281.424403 124.023898 
L 283.565324 124.002489 
L 285.706245 123.98108 
L 287.847167 123.95967 
L 289.988088 123.938261 
L 292.129009 123.916852 
L 294.269931 123.895443 
L 296.410852 123.874034 
L 298.551773 123.852625 
L 300.692695 123.831216 
L 302.833616 123.809806 
L 304.974537 123.788397 
L 307.115459 123.766988 
L 309.25638 123.745579 
L 311.397301 123.72417 
" clip-path="url(#p810fe7b190)" style="fill: none; stroke: #004e98; stroke-width: 2.25; stroke-linecap: square"/>
   </g>
   <g id="line2d_13">
    <path d="M 99.446089 135.278639 
L 101.77081 135.084966 
L 104.095532 134.891292 
L 106.420253 134.697619 
L 108.744975 134.503946 
L 111.069696 134.310272 
L 113.394418 134.116599 
L 115.71914 133.922926 
L 118.043861 133.729252 
L 120.368583 133.535579 
L 122.693304 133.341906 
L 125.018026 133.148232 
L 127.342748 132.954559 
L 129.667469 132.760885 
L 131.992191 132.567212 
L 134.316912 132.373539 
L 136.641634 132.179865 
L 138.966355 131.986192 
L 141.291077 131.792519 
L 143.615799 131.598845 
L 145.94052 131.405172 
L 148.265242 131.211499 
L 150.589963 131.017825 
L 152.914685 130.824152 
L 155.239406 130.630479 
L 157.564128 130.436805 
L 159.88885 130.243132 
L 162.213571 130.049459 
L 164.538293 129.855785 
L 166.863014 129.662112 
L 169.187736 129.468438 
L 171.512457 129.274765 
L 173.837179 129.081092 
L 176.161901 128.887418 
L 178.486622 128.693745 
L 180.811344 128.500072 
L 183.136065 128.306398 
L 185.460787 128.112725 
L 187.785508 127.919052 
L 190.11023 127.725378 
L 192.434952 127.531705 
L 194.759673 127.338032 
L 197.084395 127.144358 
L 199.409116 126.950685 
L 201.733838 126.757012 
L 204.058559 126.563338 
L 206.383281 126.369665 
L 208.708003 126.175991 
L 211.032724 125.982318 
L 213.357446 125.788645 
L 215.682167 125.594971 
L 218.006889 125.401298 
L 220.33161 125.207625 
L 222.656332 125.013951 
L 224.981054 124.820278 
L 227.305775 124.626605 
L 229.630497 124.432931 
L 231.955218 124.239258 
L 234.27994 124.045585 
L 236.604662 123.851911 
L 238.929383 123.658238 
L 241.254105 123.464565 
L 243.578826 123.270891 
L 245.903548 123.077218 
L 248.228269 122.883545 
L 250.552991 122.689871 
L 252.877713 122.496198 
L 255.202434 122.302524 
L 257.527156 122.108851 
L 259.851877 121.915178 
L 262.176599 121.721504 
L 264.50132 121.527831 
L 266.826042 121.334158 
L 269.150764 121.140484 
L 271.475485 120.946811 
L 273.800207 120.753138 
L 276.124928 120.559464 
L 278.44965 120.365791 
L 280.774371 120.172118 
L 283.099093 119.978444 
L 285.423815 119.784771 
L 287.748536 119.591098 
L 290.073258 119.397424 
L 292.397979 119.203751 
L 294.722701 119.010077 
L 297.047422 118.816404 
L 299.372144 118.622731 
L 301.696866 118.429057 
L 304.021587 118.235384 
L 306.346309 118.041711 
L 308.67103 117.848037 
L 310.995752 117.654364 
L 313.320473 117.460691 
L 315.645195 117.267017 
L 317.969917 117.073344 
L 320.294638 116.879671 
L 322.61936 116.685997 
L 324.944081 116.492324 
L 327.268803 116.298651 
L 329.593524 116.104977 
" clip-path="url(#p810fe7b190)" style="fill: none; stroke: #ea0f0b; stroke-width: 2.25; stroke-linecap: square"/>
   </g>
   <g id="LineCollection_1">
    <path d="M 45.64625 122.758594 
L 407.24625 122.758594 
" clip-path="url(#p810fe7b190)" style="fill: none; stroke-dasharray: 5.55,2.4; stroke-dashoffset: 0; stroke: #1f77b4; stroke-opacity: 0.5; stroke-width: 1.5"/>
   </g>
   <g id="LineCollection_2">
    <path d="M 231.64625 285.519844 
L 231.64625 -1 
" clip-path="url(#p810fe7b190)" style="fill: none; stroke-dasharray: 5.55,2.4; stroke-dashoffset: 0; stroke: #1f77b4; stroke-opacity: 0.5; stroke-width: 1.5"/>
   </g>
   <g id="patch_3">
    <path d="M 64.24625 231.478594 
L 64.24625 14.038594 
" style="fill: none; stroke: #000000; stroke-width: 0.8; stroke-linejoin: miter; stroke-linecap: square"/>
   </g>
   <g id="patch_4">
    <path d="M 399.04625 231.478594 
L 399.04625 14.038594 
" style="fill: none; stroke: #000000; stroke-width: 0.8; stroke-linejoin: miter; stroke-linecap: square"/>
   </g>
   <g id="patch_5">
    <path d="M 64.24625 231.478594 
L 399.04625 231.478594 
" style="fill: none; stroke: #000000; stroke-width: 0.8; stroke-linejoin: miter; stroke-linecap: square"/>
   </g>
   <g id="patch_6">
    <path d="M 64.24625 14.038594 
L 399.04625 14.038594 
" style="fill: none; stroke: #000000; stroke-width: 0.8; stroke-linejoin: miter; stroke-linecap: square"/>
   </g>
   <g id="legend_1">
    <g id="patch_7">
     <path d="M 178.07375 222.478594 
L 386.44625 222.478594 
Q 390.04625 222.478594 390.04625 218.878594 
L 390.04625 167.837344 
Q 390.04625 164.237344 386.44625 164.237344 
L 178.07375 164.237344 
Q 174.47375 164.237344 174.47375 167.837344 
L 174.47375 218.878594 
Q 174.47375 222.478594 178.07375 222.478594 
z
" style="fill: #ffffff; opacity: 0.8; stroke: #cccccc; stroke-linejoin: miter"/>
    </g>
    <g id="PathCollection_3">
     <g>
      <use xlink:href="#mf720378b2d" x="199.67375" y="180.389531" style="fill: #004e98; fill-opacity: 0.8; stroke: #004e98; stroke-opacity: 0.8"/>
     </g>
    </g>
    <g id="text_14">
     <!-- With Information -->
     <g transform="translate(232.07375 185.114531)scale(0.18 -0.18)">
      <defs>
       <path id="DejaVuSans-57" d="M 213 4666 
L 850 4666 
L 1831 722 
L 2809 4666 
L 3519 4666 
L 4500 722 
L 5478 4666 
L 6119 4666 
L 4947 0 
L 4153 0 
L 3169 4050 
L 2175 0 
L 1381 0 
L 213 4666 
z
" transform="scale(0.015625)"/>
       <path id="DejaVuSans-69" d="M 603 3500 
L 1178 3500 
L 1178 0 
L 603 0 
L 603 3500 
z
M 603 4863 
L 1178 4863 
L 1178 4134 
L 603 4134 
L 603 4863 
z
" transform="scale(0.015625)"/>
       <path id="DejaVuSans-74" d="M 1172 4494 
L 1172 3500 
L 2356 3500 
L 2356 3053 
L 1172 3053 
L 1172 1153 
Q 1172 725 1289 603 
Q 1406 481 1766 481 
L 2356 481 
L 2356 0 
L 1766 0 
Q 1100 0 847 248 
Q 594 497 594 1153 
L 594 3053 
L 172 3053 
L 172 3500 
L 594 3500 
L 594 4494 
L 1172 4494 
z
" transform="scale(0.015625)"/>
       <path id="DejaVuSans-68" d="M 3513 2113 
L 3513 0 
L 2938 0 
L 2938 2094 
Q 2938 2591 2744 2837 
Q 2550 3084 2163 3084 
Q 1697 3084 1428 2787 
Q 1159 2491 1159 1978 
L 1159 0 
L 581 0 
L 581 4863 
L 1159 4863 
L 1159 2956 
Q 1366 3272 1645 3428 
Q 1925 3584 2291 3584 
Q 2894 3584 3203 3211 
Q 3513 2838 3513 2113 
z
" transform="scale(0.015625)"/>
       <path id="DejaVuSans-20" transform="scale(0.015625)"/>
       <path id="DejaVuSans-49" d="M 628 4666 
L 1259 4666 
L 1259 0 
L 628 0 
L 628 4666 
z
" transform="scale(0.015625)"/>
       <path id="DejaVuSans-6e" d="M 3513 2113 
L 3513 0 
L 2938 0 
L 2938 2094 
Q 2938 2591 2744 2837 
Q 2550 3084 2163 3084 
Q 1697 3084 1428 2787 
Q 1159 2491 1159 1978 
L 1159 0 
L 581 0 
L 581 3500 
L 1159 3500 
L 1159 2956 
Q 1366 3272 1645 3428 
Q 1925 3584 2291 3584 
Q 2894 3584 3203 3211 
Q 3513 2838 3513 2113 
z
" transform="scale(0.015625)"/>
       <path id="DejaVuSans-66" d="M 2375 4863 
L 2375 4384 
L 1825 4384 
Q 1516 4384 1395 4259 
Q 1275 4134 1275 3809 
L 1275 3500 
L 2222 3500 
L 2222 3053 
L 1275 3053 
L 1275 0 
L 697 0 
L 697 3053 
L 147 3053 
L 147 3500 
L 697 3500 
L 697 3744 
Q 697 4328 969 4595 
Q 1241 4863 1831 4863 
L 2375 4863 
z
" transform="scale(0.015625)"/>
       <path id="DejaVuSans-6f" d="M 1959 3097 
Q 1497 3097 1228 2736 
Q 959 2375 959 1747 
Q 959 1119 1226 758 
Q 1494 397 1959 397 
Q 2419 397 2687 759 
Q 2956 1122 2956 1747 
Q 2956 2369 2687 2733 
Q 2419 3097 1959 3097 
z
M 1959 3584 
Q 2709 3584 3137 3096 
Q 3566 2609 3566 1747 
Q 3566 888 3137 398 
Q 2709 -91 1959 -91 
Q 1206 -91 779 398 
Q 353 888 353 1747 
Q 353 2609 779 3096 
Q 1206 3584 1959 3584 
z
" transform="scale(0.015625)"/>
       <path id="DejaVuSans-72" d="M 2631 2963 
Q 2534 3019 2420 3045 
Q 2306 3072 2169 3072 
Q 1681 3072 1420 2755 
Q 1159 2438 1159 1844 
L 1159 0 
L 581 0 
L 581 3500 
L 1159 3500 
L 1159 2956 
Q 1341 3275 1631 3429 
Q 1922 3584 2338 3584 
Q 2397 3584 2469 3576 
Q 2541 3569 2628 3553 
L 2631 2963 
z
" transform="scale(0.015625)"/>
       <path id="DejaVuSans-6d" d="M 3328 2828 
Q 3544 3216 3844 3400 
Q 4144 3584 4550 3584 
Q 5097 3584 5394 3201 
Q 5691 2819 5691 2113 
L 5691 0 
L 5113 0 
L 5113 2094 
Q 5113 2597 4934 2840 
Q 4756 3084 4391 3084 
Q 3944 3084 3684 2787 
Q 3425 2491 3425 1978 
L 3425 0 
L 2847 0 
L 2847 2094 
Q 2847 2600 2669 2842 
Q 2491 3084 2119 3084 
Q 1678 3084 1418 2786 
Q 1159 2488 1159 1978 
L 1159 0 
L 581 0 
L 581 3500 
L 1159 3500 
L 1159 2956 
Q 1356 3278 1631 3431 
Q 1906 3584 2284 3584 
Q 2666 3584 2933 3390 
Q 3200 3197 3328 2828 
z
" transform="scale(0.015625)"/>
       <path id="DejaVuSans-61" d="M 2194 1759 
Q 1497 1759 1228 1600 
Q 959 1441 959 1056 
Q 959 750 1161 570 
Q 1363 391 1709 391 
Q 2188 391 2477 730 
Q 2766 1069 2766 1631 
L 2766 1759 
L 2194 1759 
z
M 3341 1997 
L 3341 0 
L 2766 0 
L 2766 531 
Q 2569 213 2275 61 
Q 1981 -91 1556 -91 
Q 1019 -91 701 211 
Q 384 513 384 1019 
Q 384 1609 779 1909 
Q 1175 2209 1959 2209 
L 2766 2209 
L 2766 2266 
Q 2766 2663 2505 2880 
Q 2244 3097 1772 3097 
Q 1472 3097 1187 3025 
Q 903 2953 641 2809 
L 641 3341 
Q 956 3463 1253 3523 
Q 1550 3584 1831 3584 
Q 2591 3584 2966 3190 
Q 3341 2797 3341 1997 
z
" transform="scale(0.015625)"/>
      </defs>
      <use xlink:href="#DejaVuSans-57"/>
      <use xlink:href="#DejaVuSans-69" x="96.626953"/>
      <use xlink:href="#DejaVuSans-74" x="124.410156"/>
      <use xlink:href="#DejaVuSans-68" x="163.619141"/>
      <use xlink:href="#DejaVuSans-20" x="226.998047"/>
      <use xlink:href="#DejaVuSans-49" x="258.785156"/>
      <use xlink:href="#DejaVuSans-6e" x="288.277344"/>
      <use xlink:href="#DejaVuSans-66" x="351.65625"/>
      <use xlink:href="#DejaVuSans-6f" x="386.861328"/>
      <use xlink:href="#DejaVuSans-72" x="448.042969"/>
      <use xlink:href="#DejaVuSans-6d" x="487.40625"/>
      <use xlink:href="#DejaVuSans-61" x="584.818359"/>
      <use xlink:href="#DejaVuSans-74" x="646.097656"/>
      <use xlink:href="#DejaVuSans-69" x="685.306641"/>
      <use xlink:href="#DejaVuSans-6f" x="713.089844"/>
      <use xlink:href="#DejaVuSans-6e" x="774.271484"/>
     </g>
    </g>
    <g id="PathCollection_4">
     <g>
      <use xlink:href="#m2a95d5f10a" x="199.67375" y="206.810156" style="fill: #ea0f0b; fill-opacity: 0.8; stroke: #ea0f0b; stroke-opacity: 0.8"/>
     </g>
    </g>
    <g id="text_15">
     <!-- No Information -->
     <g transform="translate(232.07375 211.535156)scale(0.18 -0.18)">
      <defs>
       <path id="DejaVuSans-4e" d="M 628 4666 
L 1478 4666 
L 3547 763 
L 3547 4666 
L 4159 4666 
L 4159 0 
L 3309 0 
L 1241 3903 
L 1241 0 
L 628 0 
L 628 4666 
z
" transform="scale(0.015625)"/>
      </defs>
      <use xlink:href="#DejaVuSans-4e"/>
      <use xlink:href="#DejaVuSans-6f" x="74.804688"/>
      <use xlink:href="#DejaVuSans-20" x="135.986328"/>
      <use xlink:href="#DejaVuSans-49" x="167.773438"/>
      <use xlink:href="#DejaVuSans-6e" x="197.265625"/>
      <use xlink:href="#DejaVuSans-66" x="260.644531"/>
      <use xlink:href="#DejaVuSans-6f" x="295.849609"/>
      <use xlink:href="#DejaVuSans-72" x="357.03125"/>
      <use xlink:href="#DejaVuSans-6d" x="396.394531"/>
      <use xlink:href="#DejaVuSans-61" x="493.806641"/>
      <use xlink:href="#DejaVuSans-74" x="555.085938"/>
      <use xlink:href="#DejaVuSans-69" x="594.294922"/>
      <use xlink:href="#DejaVuSans-6f" x="622.078125"/>
      <use xlink:href="#DejaVuSans-6e" x="683.259766"/>
     </g>
    </g>
   </g>
  </g>
 </g>
 <defs>
  <clipPath id="p810fe7b190">
   <rect x="64.24625" y="14.038594" width="334.8" height="217.44"/>
  </clipPath>
 </defs>
</svg>
