<?xml version="1.0" encoding="utf-8" standalone="no"?>
<!DOCTYPE svg PUBLIC "-//W3C//DTD SVG 1.1//EN"
  "http://www.w3.org/Graphics/SVG/1.1/DTD/svg11.dtd">
<svg xmlns:xlink="http://www.w3.org/1999/xlink" width="417.69875pt" height="277.68125pt" viewBox="0 0 417.69875 277.68125" xmlns="http://www.w3.org/2000/svg" version="1.1">
 <metadata>
  <rdf:RDF xmlns:dc="http://purl.org/dc/elements/1.1/" xmlns:cc="http://creativecommons.org/ns#" xmlns:rdf="http://www.w3.org/1999/02/22-rdf-syntax-ns#">
   <cc:Work>
    <dc:type rdf:resource="http://purl.org/dc/dcmitype/StillImage"/>
    <dc:date>2022-05-04T11:55:44.439371</dc:date>
    <dc:format>image/svg+xml</dc:format>
    <dc:creator>
     <cc:Agent>
      <dc:title>Matplotlib v3.5.0, https://matplotlib.org/</dc:title>
     </cc:Agent>
    </dc:creator>
   </cc:Work>
  </rdf:RDF>
 </metadata>
 <defs>
  <style type="text/css">*{stroke-linejoin: round; stroke-linecap: butt}</style>
 </defs>
 <g id="figure_1">
  <g id="patch_1">
   <path d="M 0 277.68125 
L 417.69875 277.68125 
L 417.69875 0 
L 0 0 
L 0 277.68125 
z
" style="fill: none"/>
  </g>
  <g id="axes_1">
   <g id="patch_2">
    <path d="M 75.69875 224.64 
L 410.49875 224.64 
L 410.49875 7.2 
L 75.69875 7.2 
z
" style="fill: #ffffff"/>
   </g>
   <g id="PathCollection_1">
    <defs>
     <path id="ma225c9d5fa" d="M -0 4.242641 
L 2.545584 0 
L 0 -4.242641 
L -2.545584 -0 
z
" style="stroke: #004e98; stroke-opacity: 0.8"/>
    </defs>
    <g clip-path="url(#pb5a4cc901c)">
     <use xlink:href="#ma225c9d5fa" x="304.790592" y="142.314819" style="fill: #004e98; fill-opacity: 0.8; stroke: #004e98; stroke-opacity: 0.8"/>
     <use xlink:href="#ma225c9d5fa" x="225.907695" y="117.97461" style="fill: #004e98; fill-opacity: 0.8; stroke: #004e98; stroke-opacity: 0.8"/>
     <use xlink:href="#ma225c9d5fa" x="262.191853" y="105.636007" style="fill: #004e98; fill-opacity: 0.8; stroke: #004e98; stroke-opacity: 0.8"/>
     <use xlink:href="#ma225c9d5fa" x="282.97634" y="153.555525" style="fill: #004e98; fill-opacity: 0.8; stroke: #004e98; stroke-opacity: 0.8"/>
     <use xlink:href="#ma225c9d5fa" x="187.632383" y="178.267364" style="fill: #004e98; fill-opacity: 0.8; stroke: #004e98; stroke-opacity: 0.8"/>
     <use xlink:href="#ma225c9d5fa" x="177.253159" y="153.264657" style="fill: #004e98; fill-opacity: 0.8; stroke: #004e98; stroke-opacity: 0.8"/>
     <use xlink:href="#ma225c9d5fa" x="229.396181" y="138.139599" style="fill: #004e98; fill-opacity: 0.8; stroke: #004e98; stroke-opacity: 0.8"/>
     <use xlink:href="#ma225c9d5fa" x="273.456832" y="176.949507" style="fill: #004e98; fill-opacity: 0.8; stroke: #004e98; stroke-opacity: 0.8"/>
     <use xlink:href="#ma225c9d5fa" x="110.898589" y="135.117134" style="fill: #004e98; fill-opacity: 0.8; stroke: #004e98; stroke-opacity: 0.8"/>
     <use xlink:href="#ma225c9d5fa" x="304.06784" y="150.369942" style="fill: #004e98; fill-opacity: 0.8; stroke: #004e98; stroke-opacity: 0.8"/>
     <use xlink:href="#ma225c9d5fa" x="110.898589" y="160.623994" style="fill: #004e98; fill-opacity: 0.8; stroke: #004e98; stroke-opacity: 0.8"/>
     <use xlink:href="#ma225c9d5fa" x="295.313576" y="113.44962" style="fill: #004e98; fill-opacity: 0.8; stroke: #004e98; stroke-opacity: 0.8"/>
     <use xlink:href="#ma225c9d5fa" x="289.231023" y="165.110254" style="fill: #004e98; fill-opacity: 0.8; stroke: #004e98; stroke-opacity: 0.8"/>
     <use xlink:href="#ma225c9d5fa" x="274.677621" y="138.107632" style="fill: #004e98; fill-opacity: 0.8; stroke: #004e98; stroke-opacity: 0.8"/>
     <use xlink:href="#ma225c9d5fa" x="217.233748" y="137.628096" style="fill: #004e98; fill-opacity: 0.8; stroke: #004e98; stroke-opacity: 0.8"/>
     <use xlink:href="#ma225c9d5fa" x="224.874126" y="118.745752" style="fill: #004e98; fill-opacity: 0.8; stroke: #004e98; stroke-opacity: 0.8"/>
     <use xlink:href="#ma225c9d5fa" x="270.474556" y="84.256539" style="fill: #004e98; fill-opacity: 0.8; stroke: #004e98; stroke-opacity: 0.8"/>
     <use xlink:href="#ma225c9d5fa" x="243.09875" y="155.638303" style="fill: #004e98; fill-opacity: 0.8; stroke: #004e98; stroke-opacity: 0.8"/>
     <use xlink:href="#ma225c9d5fa" x="269.735623" y="134.685774" style="fill: #004e98; fill-opacity: 0.8; stroke: #004e98; stroke-opacity: 0.8"/>
     <use xlink:href="#ma225c9d5fa" x="253.337996" y="146.353636" style="fill: #004e98; fill-opacity: 0.8; stroke: #004e98; stroke-opacity: 0.8"/>
     <use xlink:href="#ma225c9d5fa" x="322.849801" y="144.718986" style="fill: #004e98; fill-opacity: 0.8; stroke: #004e98; stroke-opacity: 0.8"/>
     <use xlink:href="#ma225c9d5fa" x="206.517892" y="156.984251" style="fill: #004e98; fill-opacity: 0.8; stroke: #004e98; stroke-opacity: 0.8"/>
     <use xlink:href="#ma225c9d5fa" x="204.443796" y="107.241538" style="fill: #004e98; fill-opacity: 0.8; stroke: #004e98; stroke-opacity: 0.8"/>
     <use xlink:href="#ma225c9d5fa" x="284.011763" y="137.766637" style="fill: #004e98; fill-opacity: 0.8; stroke: #004e98; stroke-opacity: 0.8"/>
     <use xlink:href="#ma225c9d5fa" x="286.995315" y="160.037301" style="fill: #004e98; fill-opacity: 0.8; stroke: #004e98; stroke-opacity: 0.8"/>
     <use xlink:href="#ma225c9d5fa" x="152.167238" y="69.682191" style="fill: #004e98; fill-opacity: 0.8; stroke: #004e98; stroke-opacity: 0.8"/>
     <use xlink:href="#ma225c9d5fa" x="321.358291" y="165.306888" style="fill: #004e98; fill-opacity: 0.8; stroke: #004e98; stroke-opacity: 0.8"/>
     <use xlink:href="#ma225c9d5fa" x="256.369623" y="125.117296" style="fill: #004e98; fill-opacity: 0.8; stroke: #004e98; stroke-opacity: 0.8"/>
     <use xlink:href="#ma225c9d5fa" x="294.586137" y="164.451433" style="fill: #004e98; fill-opacity: 0.8; stroke: #004e98; stroke-opacity: 0.8"/>
     <use xlink:href="#ma225c9d5fa" x="260.342674" y="110.93114" style="fill: #004e98; fill-opacity: 0.8; stroke: #004e98; stroke-opacity: 0.8"/>
     <use xlink:href="#ma225c9d5fa" x="302.670677" y="173.896538" style="fill: #004e98; fill-opacity: 0.8; stroke: #004e98; stroke-opacity: 0.8"/>
     <use xlink:href="#ma225c9d5fa" x="135.75569" y="142.229502" style="fill: #004e98; fill-opacity: 0.8; stroke: #004e98; stroke-opacity: 0.8"/>
     <use xlink:href="#ma225c9d5fa" x="204.070456" y="136.771072" style="fill: #004e98; fill-opacity: 0.8; stroke: #004e98; stroke-opacity: 0.8"/>
     <use xlink:href="#ma225c9d5fa" x="250.583037" y="127.497475" style="fill: #004e98; fill-opacity: 0.8; stroke: #004e98; stroke-opacity: 0.8"/>
     <use xlink:href="#ma225c9d5fa" x="317.943785" y="162.872357" style="fill: #004e98; fill-opacity: 0.8; stroke: #004e98; stroke-opacity: 0.8"/>
     <use xlink:href="#ma225c9d5fa" x="247.310461" y="151.757563" style="fill: #004e98; fill-opacity: 0.8; stroke: #004e98; stroke-opacity: 0.8"/>
     <use xlink:href="#ma225c9d5fa" x="294.671312" y="150.603481" style="fill: #004e98; fill-opacity: 0.8; stroke: #004e98; stroke-opacity: 0.8"/>
     <use xlink:href="#ma225c9d5fa" x="288.90764" y="162.582556" style="fill: #004e98; fill-opacity: 0.8; stroke: #004e98; stroke-opacity: 0.8"/>
     <use xlink:href="#ma225c9d5fa" x="246.547321" y="168.287571" style="fill: #004e98; fill-opacity: 0.8; stroke: #004e98; stroke-opacity: 0.8"/>
     <use xlink:href="#ma225c9d5fa" x="263.31552" y="172.15941" style="fill: #004e98; fill-opacity: 0.8; stroke: #004e98; stroke-opacity: 0.8"/>
     <use xlink:href="#ma225c9d5fa" x="276.022303" y="144.046424" style="fill: #004e98; fill-opacity: 0.8; stroke: #004e98; stroke-opacity: 0.8"/>
     <use xlink:href="#ma225c9d5fa" x="158.651552" y="172.835545" style="fill: #004e98; fill-opacity: 0.8; stroke: #004e98; stroke-opacity: 0.8"/>
     <use xlink:href="#ma225c9d5fa" x="284.888456" y="154.283823" style="fill: #004e98; fill-opacity: 0.8; stroke: #004e98; stroke-opacity: 0.8"/>
     <use xlink:href="#ma225c9d5fa" x="258.083891" y="165.588964" style="fill: #004e98; fill-opacity: 0.8; stroke: #004e98; stroke-opacity: 0.8"/>
     <use xlink:href="#ma225c9d5fa" x="291.354346" y="134.723551" style="fill: #004e98; fill-opacity: 0.8; stroke: #004e98; stroke-opacity: 0.8"/>
     <use xlink:href="#ma225c9d5fa" x="266.010836" y="142.428544" style="fill: #004e98; fill-opacity: 0.8; stroke: #004e98; stroke-opacity: 0.8"/>
     <use xlink:href="#ma225c9d5fa" x="304.594371" y="161.506607" style="fill: #004e98; fill-opacity: 0.8; stroke: #004e98; stroke-opacity: 0.8"/>
     <use xlink:href="#ma225c9d5fa" x="205.169674" y="142.369602" style="fill: #004e98; fill-opacity: 0.8; stroke: #004e98; stroke-opacity: 0.8"/>
     <use xlink:href="#ma225c9d5fa" x="208.336571" y="161.320566" style="fill: #004e98; fill-opacity: 0.8; stroke: #004e98; stroke-opacity: 0.8"/>
     <use xlink:href="#ma225c9d5fa" x="196.691342" y="180.055529" style="fill: #004e98; fill-opacity: 0.8; stroke: #004e98; stroke-opacity: 0.8"/>
     <use xlink:href="#ma225c9d5fa" x="262.6578" y="148.458707" style="fill: #004e98; fill-opacity: 0.8; stroke: #004e98; stroke-opacity: 0.8"/>
     <use xlink:href="#ma225c9d5fa" x="231.650616" y="170.488882" style="fill: #004e98; fill-opacity: 0.8; stroke: #004e98; stroke-opacity: 0.8"/>
     <use xlink:href="#ma225c9d5fa" x="270.838995" y="154.336706" style="fill: #004e98; fill-opacity: 0.8; stroke: #004e98; stroke-opacity: 0.8"/>
     <use xlink:href="#ma225c9d5fa" x="110.898589" y="131.571467" style="fill: #004e98; fill-opacity: 0.8; stroke: #004e98; stroke-opacity: 0.8"/>
     <use xlink:href="#ma225c9d5fa" x="158.952852" y="147.856336" style="fill: #004e98; fill-opacity: 0.8; stroke: #004e98; stroke-opacity: 0.8"/>
     <use xlink:href="#ma225c9d5fa" x="243.09875" y="136.871807" style="fill: #004e98; fill-opacity: 0.8; stroke: #004e98; stroke-opacity: 0.8"/>
     <use xlink:href="#ma225c9d5fa" x="270.625242" y="157.536038" style="fill: #004e98; fill-opacity: 0.8; stroke: #004e98; stroke-opacity: 0.8"/>
     <use xlink:href="#ma225c9d5fa" x="216.810515" y="120.719623" style="fill: #004e98; fill-opacity: 0.8; stroke: #004e98; stroke-opacity: 0.8"/>
     <use xlink:href="#ma225c9d5fa" x="235.129636" y="88.253683" style="fill: #004e98; fill-opacity: 0.8; stroke: #004e98; stroke-opacity: 0.8"/>
     <use xlink:href="#ma225c9d5fa" x="276.134802" y="144.562832" style="fill: #004e98; fill-opacity: 0.8; stroke: #004e98; stroke-opacity: 0.8"/>
     <use xlink:href="#ma225c9d5fa" x="289.279919" y="152.509234" style="fill: #004e98; fill-opacity: 0.8; stroke: #004e98; stroke-opacity: 0.8"/>
     <use xlink:href="#ma225c9d5fa" x="231.399508" y="98.703572" style="fill: #004e98; fill-opacity: 0.8; stroke: #004e98; stroke-opacity: 0.8"/>
     <use xlink:href="#ma225c9d5fa" x="259.753607" y="132.086766" style="fill: #004e98; fill-opacity: 0.8; stroke: #004e98; stroke-opacity: 0.8"/>
     <use xlink:href="#ma225c9d5fa" x="268.001282" y="181.732973" style="fill: #004e98; fill-opacity: 0.8; stroke: #004e98; stroke-opacity: 0.8"/>
     <use xlink:href="#ma225c9d5fa" x="168.051675" y="160.983882" style="fill: #004e98; fill-opacity: 0.8; stroke: #004e98; stroke-opacity: 0.8"/>
     <use xlink:href="#ma225c9d5fa" x="191.706856" y="104.532003" style="fill: #004e98; fill-opacity: 0.8; stroke: #004e98; stroke-opacity: 0.8"/>
     <use xlink:href="#ma225c9d5fa" x="196.424623" y="105.176838" style="fill: #004e98; fill-opacity: 0.8; stroke: #004e98; stroke-opacity: 0.8"/>
     <use xlink:href="#ma225c9d5fa" x="178.317939" y="107.283739" style="fill: #004e98; fill-opacity: 0.8; stroke: #004e98; stroke-opacity: 0.8"/>
     <use xlink:href="#ma225c9d5fa" x="319.659547" y="164.216008" style="fill: #004e98; fill-opacity: 0.8; stroke: #004e98; stroke-opacity: 0.8"/>
     <use xlink:href="#ma225c9d5fa" x="151.07366" y="129.240832" style="fill: #004e98; fill-opacity: 0.8; stroke: #004e98; stroke-opacity: 0.8"/>
     <use xlink:href="#ma225c9d5fa" x="159.844648" y="130.044083" style="fill: #004e98; fill-opacity: 0.8; stroke: #004e98; stroke-opacity: 0.8"/>
     <use xlink:href="#ma225c9d5fa" x="228.113609" y="144.522332" style="fill: #004e98; fill-opacity: 0.8; stroke: #004e98; stroke-opacity: 0.8"/>
     <use xlink:href="#ma225c9d5fa" x="153.277334" y="135.426222" style="fill: #004e98; fill-opacity: 0.8; stroke: #004e98; stroke-opacity: 0.8"/>
     <use xlink:href="#ma225c9d5fa" x="250.248426" y="121.788517" style="fill: #004e98; fill-opacity: 0.8; stroke: #004e98; stroke-opacity: 0.8"/>
     <use xlink:href="#ma225c9d5fa" x="110.898589" y="126.072221" style="fill: #004e98; fill-opacity: 0.8; stroke: #004e98; stroke-opacity: 0.8"/>
     <use xlink:href="#ma225c9d5fa" x="288.927086" y="94.376985" style="fill: #004e98; fill-opacity: 0.8; stroke: #004e98; stroke-opacity: 0.8"/>
     <use xlink:href="#ma225c9d5fa" x="164.25686" y="105.940575" style="fill: #004e98; fill-opacity: 0.8; stroke: #004e98; stroke-opacity: 0.8"/>
     <use xlink:href="#ma225c9d5fa" x="243.09875" y="149.74368" style="fill: #004e98; fill-opacity: 0.8; stroke: #004e98; stroke-opacity: 0.8"/>
     <use xlink:href="#ma225c9d5fa" x="129.155156" y="124.129587" style="fill: #004e98; fill-opacity: 0.8; stroke: #004e98; stroke-opacity: 0.8"/>
     <use xlink:href="#ma225c9d5fa" x="260.819497" y="129.197185" style="fill: #004e98; fill-opacity: 0.8; stroke: #004e98; stroke-opacity: 0.8"/>
    </g>
   </g>
   <g id="PolyCollection_1">
    <path d="M 110.898589 114.178162 
L 110.898589 138.760166 
L 113.03951 138.802287 
L 115.180431 138.844408 
L 117.321353 138.92694 
L 119.462274 138.988546 
L 121.603195 139.041657 
L 123.744117 139.094381 
L 125.885038 139.14152 
L 128.025959 139.176996 
L 130.166881 139.212472 
L 132.307802 139.307279 
L 134.448723 139.362146 
L 136.589645 139.479544 
L 138.730566 139.619473 
L 140.871487 139.708027 
L 143.012409 139.74886 
L 145.15333 139.789139 
L 147.294251 139.826994 
L 149.435173 139.864849 
L 151.576094 139.98621 
L 153.717015 140.10716 
L 155.857937 140.196008 
L 157.998858 140.378594 
L 160.139779 140.561181 
L 162.280701 140.639892 
L 164.421622 140.736213 
L 166.562543 140.920407 
L 168.703465 141.087966 
L 170.844386 141.208913 
L 172.985307 141.372517 
L 175.126229 141.468234 
L 177.26715 141.590088 
L 179.408072 141.702827 
L 181.548993 141.75143 
L 183.689914 141.964332 
L 185.830836 142.208686 
L 187.971757 142.363482 
L 190.112678 142.456426 
L 192.2536 142.641024 
L 194.394521 142.825623 
L 196.535442 142.950763 
L 198.676364 143.07104 
L 200.817285 143.193505 
L 202.958206 143.315654 
L 205.099128 143.437285 
L 207.240049 143.598211 
L 209.38097 143.815994 
L 211.521892 143.911908 
L 213.662813 144.0032 
L 215.803734 144.165375 
L 217.944656 144.343138 
L 220.085577 144.525985 
L 222.226498 144.694471 
L 224.36742 144.807991 
L 226.508341 144.953551 
L 228.649262 145.078414 
L 230.790184 145.291895 
L 232.931105 145.520049 
L 235.072026 145.754869 
L 237.212948 145.928316 
L 239.353869 146.081882 
L 241.49479 146.237341 
L 243.635712 146.401629 
L 245.776633 146.57539 
L 247.917554 146.735626 
L 250.058476 146.937514 
L 252.199397 147.089657 
L 254.340318 147.333803 
L 256.48124 147.548304 
L 258.622161 147.82324 
L 260.763082 148.035978 
L 262.904004 148.212354 
L 265.044925 148.408068 
L 267.185846 148.669367 
L 269.326768 148.866944 
L 271.467689 149.097539 
L 273.60861 149.438133 
L 275.749532 149.776916 
L 277.890453 149.999959 
L 280.031374 150.256271 
L 282.172296 150.578595 
L 284.313217 150.79515 
L 286.454139 151.11687 
L 288.59506 151.514474 
L 290.735981 151.871769 
L 292.876903 152.196051 
L 295.017824 152.518536 
L 297.158745 152.782273 
L 299.299667 153.16556 
L 301.440588 153.494725 
L 303.581509 153.865055 
L 305.722431 154.25781 
L 307.863352 154.581582 
L 310.004273 154.91309 
L 312.145195 155.272554 
L 314.286116 155.593145 
L 316.427037 155.983385 
L 318.567959 156.339782 
L 320.70888 156.695084 
L 322.849801 157.051023 
L 322.849801 141.15117 
L 322.849801 141.15117 
L 320.70888 141.057894 
L 318.567959 140.919078 
L 316.427037 140.781266 
L 314.286116 140.643471 
L 312.145195 140.5156 
L 310.004273 140.38964 
L 307.863352 140.287874 
L 305.722431 140.117881 
L 303.581509 139.97412 
L 301.440588 139.868474 
L 299.299667 139.720741 
L 297.158745 139.526629 
L 295.017824 139.387222 
L 292.876903 139.290146 
L 290.735981 139.219266 
L 288.59506 139.150706 
L 286.454139 139.082146 
L 284.313217 139.030044 
L 282.172296 138.926618 
L 280.031374 138.821407 
L 277.890453 138.663335 
L 275.749532 138.539893 
L 273.60861 138.416845 
L 271.467689 138.263671 
L 269.326768 138.173016 
L 267.185846 138.003515 
L 265.044925 137.910092 
L 262.904004 137.801494 
L 260.763082 137.605422 
L 258.622161 137.436562 
L 256.48124 137.242338 
L 254.340318 137.031249 
L 252.199397 136.834533 
L 250.058476 136.641422 
L 247.917554 136.449376 
L 245.776633 136.255644 
L 243.635712 136.033828 
L 241.49479 135.761366 
L 239.353869 135.550494 
L 237.212948 135.339621 
L 235.072026 135.130737 
L 232.931105 135.001951 
L 230.790184 134.880729 
L 228.649262 134.603532 
L 226.508341 134.346596 
L 224.36742 134.071045 
L 222.226498 133.786362 
L 220.085577 133.423906 
L 217.944656 133.064442 
L 215.803734 132.700963 
L 213.662813 132.411984 
L 211.521892 132.07071 
L 209.38097 131.608063 
L 207.240049 131.153179 
L 205.099128 130.707903 
L 202.958206 130.389565 
L 200.817285 130.001463 
L 198.676364 129.676421 
L 196.535442 129.246884 
L 194.394521 128.990471 
L 192.2536 128.735141 
L 190.112678 128.476168 
L 187.971757 128.007807 
L 185.830836 127.542846 
L 183.689914 127.145196 
L 181.548993 126.906382 
L 179.408072 126.667568 
L 177.26715 126.429729 
L 175.126229 126.030906 
L 172.985307 125.589133 
L 170.844386 125.126194 
L 168.703465 124.663256 
L 166.562543 124.201218 
L 164.421622 123.896059 
L 162.280701 123.468651 
L 160.139779 123.082729 
L 157.998858 122.719576 
L 155.857937 122.248631 
L 153.717015 121.777686 
L 151.576094 121.321243 
L 149.435173 120.916579 
L 147.294251 120.578097 
L 145.15333 120.239614 
L 143.012409 119.901131 
L 140.871487 119.562648 
L 138.730566 119.224959 
L 136.589645 118.887596 
L 134.448723 118.550234 
L 132.307802 118.212871 
L 130.166881 117.825899 
L 128.025959 117.43043 
L 125.885038 117.034961 
L 123.744117 116.636446 
L 121.603195 116.232469 
L 119.462274 115.828492 
L 117.321353 115.424514 
L 115.180431 115.020537 
L 113.03951 114.61656 
L 110.898589 114.178162 
z
" clip-path="url(#pb5a4cc901c)" style="fill: #004e98; fill-opacity: 0.15"/>
   </g>
   <g id="PathCollection_2">
    <defs>
     <path id="mffd0e060f3" d="M -3 3 
L 3 3 
L 3 -3 
L -3 -3 
z
" style="stroke: #ea0f0b; stroke-opacity: 0.8"/>
    </defs>
    <g clip-path="url(#pb5a4cc901c)">
     <use xlink:href="#mffd0e060f3" x="341.046024" y="176.78769" style="fill: #ea0f0b; fill-opacity: 0.8; stroke: #ea0f0b; stroke-opacity: 0.8"/>
     <use xlink:href="#mffd0e060f3" x="139.616383" y="178.137407" style="fill: #ea0f0b; fill-opacity: 0.8; stroke: #ea0f0b; stroke-opacity: 0.8"/>
     <use xlink:href="#mffd0e060f3" x="257.162465" y="165.846685" style="fill: #ea0f0b; fill-opacity: 0.8; stroke: #ea0f0b; stroke-opacity: 0.8"/>
     <use xlink:href="#mffd0e060f3" x="205.24585" y="117.227339" style="fill: #ea0f0b; fill-opacity: 0.8; stroke: #ea0f0b; stroke-opacity: 0.8"/>
     <use xlink:href="#mffd0e060f3" x="181.269534" y="126.520255" style="fill: #ea0f0b; fill-opacity: 0.8; stroke: #ea0f0b; stroke-opacity: 0.8"/>
     <use xlink:href="#mffd0e060f3" x="317.004157" y="164.356012" style="fill: #ea0f0b; fill-opacity: 0.8; stroke: #ea0f0b; stroke-opacity: 0.8"/>
     <use xlink:href="#mffd0e060f3" x="223.775474" y="159.535438" style="fill: #ea0f0b; fill-opacity: 0.8; stroke: #ea0f0b; stroke-opacity: 0.8"/>
     <use xlink:href="#mffd0e060f3" x="263.586137" y="140.88193" style="fill: #ea0f0b; fill-opacity: 0.8; stroke: #ea0f0b; stroke-opacity: 0.8"/>
     <use xlink:href="#mffd0e060f3" x="281.465285" y="166.278799" style="fill: #ea0f0b; fill-opacity: 0.8; stroke: #ea0f0b; stroke-opacity: 0.8"/>
     <use xlink:href="#mffd0e060f3" x="232.007714" y="159.582214" style="fill: #ea0f0b; fill-opacity: 0.8; stroke: #ea0f0b; stroke-opacity: 0.8"/>
     <use xlink:href="#mffd0e060f3" x="285.702888" y="191.035863" style="fill: #ea0f0b; fill-opacity: 0.8; stroke: #ea0f0b; stroke-opacity: 0.8"/>
     <use xlink:href="#mffd0e060f3" x="198.058217" y="120.514749" style="fill: #ea0f0b; fill-opacity: 0.8; stroke: #ea0f0b; stroke-opacity: 0.8"/>
     <use xlink:href="#mffd0e060f3" x="110.898589" y="123.556805" style="fill: #ea0f0b; fill-opacity: 0.8; stroke: #ea0f0b; stroke-opacity: 0.8"/>
     <use xlink:href="#mffd0e060f3" x="340.951298" y="150.680022" style="fill: #ea0f0b; fill-opacity: 0.8; stroke: #ea0f0b; stroke-opacity: 0.8"/>
     <use xlink:href="#mffd0e060f3" x="258.024027" y="172.547026" style="fill: #ea0f0b; fill-opacity: 0.8; stroke: #ea0f0b; stroke-opacity: 0.8"/>
     <use xlink:href="#mffd0e060f3" x="278.463942" y="159.021756" style="fill: #ea0f0b; fill-opacity: 0.8; stroke: #ea0f0b; stroke-opacity: 0.8"/>
     <use xlink:href="#mffd0e060f3" x="317.656168" y="181.582059" style="fill: #ea0f0b; fill-opacity: 0.8; stroke: #ea0f0b; stroke-opacity: 0.8"/>
     <use xlink:href="#mffd0e060f3" x="290.814513" y="148.645737" style="fill: #ea0f0b; fill-opacity: 0.8; stroke: #ea0f0b; stroke-opacity: 0.8"/>
     <use xlink:href="#mffd0e060f3" x="188.827972" y="138.654758" style="fill: #ea0f0b; fill-opacity: 0.8; stroke: #ea0f0b; stroke-opacity: 0.8"/>
     <use xlink:href="#mffd0e060f3" x="303.175672" y="127.463645" style="fill: #ea0f0b; fill-opacity: 0.8; stroke: #ea0f0b; stroke-opacity: 0.8"/>
     <use xlink:href="#mffd0e060f3" x="110.898589" y="138.793162" style="fill: #ea0f0b; fill-opacity: 0.8; stroke: #ea0f0b; stroke-opacity: 0.8"/>
     <use xlink:href="#mffd0e060f3" x="192.859421" y="153.965465" style="fill: #ea0f0b; fill-opacity: 0.8; stroke: #ea0f0b; stroke-opacity: 0.8"/>
     <use xlink:href="#mffd0e060f3" x="306.415105" y="174.396255" style="fill: #ea0f0b; fill-opacity: 0.8; stroke: #ea0f0b; stroke-opacity: 0.8"/>
     <use xlink:href="#mffd0e060f3" x="253.746897" y="104.607088" style="fill: #ea0f0b; fill-opacity: 0.8; stroke: #ea0f0b; stroke-opacity: 0.8"/>
     <use xlink:href="#mffd0e060f3" x="184.504384" y="150.370768" style="fill: #ea0f0b; fill-opacity: 0.8; stroke: #ea0f0b; stroke-opacity: 0.8"/>
     <use xlink:href="#mffd0e060f3" x="270.151415" y="151.961863" style="fill: #ea0f0b; fill-opacity: 0.8; stroke: #ea0f0b; stroke-opacity: 0.8"/>
     <use xlink:href="#mffd0e060f3" x="227.063222" y="151.925457" style="fill: #ea0f0b; fill-opacity: 0.8; stroke: #ea0f0b; stroke-opacity: 0.8"/>
     <use xlink:href="#mffd0e060f3" x="190.554835" y="133.650104" style="fill: #ea0f0b; fill-opacity: 0.8; stroke: #ea0f0b; stroke-opacity: 0.8"/>
     <use xlink:href="#mffd0e060f3" x="314.369725" y="166.903411" style="fill: #ea0f0b; fill-opacity: 0.8; stroke: #ea0f0b; stroke-opacity: 0.8"/>
     <use xlink:href="#mffd0e060f3" x="269.824225" y="144.230408" style="fill: #ea0f0b; fill-opacity: 0.8; stroke: #ea0f0b; stroke-opacity: 0.8"/>
     <use xlink:href="#mffd0e060f3" x="257.039989" y="150.24095" style="fill: #ea0f0b; fill-opacity: 0.8; stroke: #ea0f0b; stroke-opacity: 0.8"/>
     <use xlink:href="#mffd0e060f3" x="245.53732" y="132.786681" style="fill: #ea0f0b; fill-opacity: 0.8; stroke: #ea0f0b; stroke-opacity: 0.8"/>
     <use xlink:href="#mffd0e060f3" x="167.947803" y="152.641067" style="fill: #ea0f0b; fill-opacity: 0.8; stroke: #ea0f0b; stroke-opacity: 0.8"/>
     <use xlink:href="#mffd0e060f3" x="240.226413" y="172.926894" style="fill: #ea0f0b; fill-opacity: 0.8; stroke: #ea0f0b; stroke-opacity: 0.8"/>
     <use xlink:href="#mffd0e060f3" x="188.934525" y="164.225923" style="fill: #ea0f0b; fill-opacity: 0.8; stroke: #ea0f0b; stroke-opacity: 0.8"/>
     <use xlink:href="#mffd0e060f3" x="157.199132" y="101.074882" style="fill: #ea0f0b; fill-opacity: 0.8; stroke: #ea0f0b; stroke-opacity: 0.8"/>
     <use xlink:href="#mffd0e060f3" x="210.743588" y="135.458738" style="fill: #ea0f0b; fill-opacity: 0.8; stroke: #ea0f0b; stroke-opacity: 0.8"/>
     <use xlink:href="#mffd0e060f3" x="173.184455" y="120.149077" style="fill: #ea0f0b; fill-opacity: 0.8; stroke: #ea0f0b; stroke-opacity: 0.8"/>
     <use xlink:href="#mffd0e060f3" x="144.27676" y="145.701419" style="fill: #ea0f0b; fill-opacity: 0.8; stroke: #ea0f0b; stroke-opacity: 0.8"/>
     <use xlink:href="#mffd0e060f3" x="295.864325" y="113.880798" style="fill: #ea0f0b; fill-opacity: 0.8; stroke: #ea0f0b; stroke-opacity: 0.8"/>
     <use xlink:href="#mffd0e060f3" x="312.128327" y="178.692814" style="fill: #ea0f0b; fill-opacity: 0.8; stroke: #ea0f0b; stroke-opacity: 0.8"/>
     <use xlink:href="#mffd0e060f3" x="231.269782" y="162.581051" style="fill: #ea0f0b; fill-opacity: 0.8; stroke: #ea0f0b; stroke-opacity: 0.8"/>
     <use xlink:href="#mffd0e060f3" x="237.339603" y="182.499753" style="fill: #ea0f0b; fill-opacity: 0.8; stroke: #ea0f0b; stroke-opacity: 0.8"/>
     <use xlink:href="#mffd0e060f3" x="200.039048" y="148.428462" style="fill: #ea0f0b; fill-opacity: 0.8; stroke: #ea0f0b; stroke-opacity: 0.8"/>
     <use xlink:href="#mffd0e060f3" x="289.705915" y="172.29915" style="fill: #ea0f0b; fill-opacity: 0.8; stroke: #ea0f0b; stroke-opacity: 0.8"/>
     <use xlink:href="#mffd0e060f3" x="110.898589" y="165.760741" style="fill: #ea0f0b; fill-opacity: 0.8; stroke: #ea0f0b; stroke-opacity: 0.8"/>
     <use xlink:href="#mffd0e060f3" x="225.52379" y="152.227873" style="fill: #ea0f0b; fill-opacity: 0.8; stroke: #ea0f0b; stroke-opacity: 0.8"/>
     <use xlink:href="#mffd0e060f3" x="272.071892" y="156.56826" style="fill: #ea0f0b; fill-opacity: 0.8; stroke: #ea0f0b; stroke-opacity: 0.8"/>
     <use xlink:href="#mffd0e060f3" x="211.048539" y="140.783823" style="fill: #ea0f0b; fill-opacity: 0.8; stroke: #ea0f0b; stroke-opacity: 0.8"/>
     <use xlink:href="#mffd0e060f3" x="272.954262" y="115.156121" style="fill: #ea0f0b; fill-opacity: 0.8; stroke: #ea0f0b; stroke-opacity: 0.8"/>
     <use xlink:href="#mffd0e060f3" x="224.66448" y="145.274805" style="fill: #ea0f0b; fill-opacity: 0.8; stroke: #ea0f0b; stroke-opacity: 0.8"/>
     <use xlink:href="#mffd0e060f3" x="168.761594" y="123.725275" style="fill: #ea0f0b; fill-opacity: 0.8; stroke: #ea0f0b; stroke-opacity: 0.8"/>
     <use xlink:href="#mffd0e060f3" x="227.591165" y="180.241669" style="fill: #ea0f0b; fill-opacity: 0.8; stroke: #ea0f0b; stroke-opacity: 0.8"/>
     <use xlink:href="#mffd0e060f3" x="219.770342" y="119.653386" style="fill: #ea0f0b; fill-opacity: 0.8; stroke: #ea0f0b; stroke-opacity: 0.8"/>
     <use xlink:href="#mffd0e060f3" x="295.94792" y="130.921897" style="fill: #ea0f0b; fill-opacity: 0.8; stroke: #ea0f0b; stroke-opacity: 0.8"/>
     <use xlink:href="#mffd0e060f3" x="298.521897" y="104.69611" style="fill: #ea0f0b; fill-opacity: 0.8; stroke: #ea0f0b; stroke-opacity: 0.8"/>
     <use xlink:href="#mffd0e060f3" x="156.523547" y="166.087266" style="fill: #ea0f0b; fill-opacity: 0.8; stroke: #ea0f0b; stroke-opacity: 0.8"/>
     <use xlink:href="#mffd0e060f3" x="201.769311" y="148.898747" style="fill: #ea0f0b; fill-opacity: 0.8; stroke: #ea0f0b; stroke-opacity: 0.8"/>
     <use xlink:href="#mffd0e060f3" x="235.360978" y="159.029157" style="fill: #ea0f0b; fill-opacity: 0.8; stroke: #ea0f0b; stroke-opacity: 0.8"/>
     <use xlink:href="#mffd0e060f3" x="177.253159" y="113.750413" style="fill: #ea0f0b; fill-opacity: 0.8; stroke: #ea0f0b; stroke-opacity: 0.8"/>
     <use xlink:href="#mffd0e060f3" x="284.3674" y="180.653431" style="fill: #ea0f0b; fill-opacity: 0.8; stroke: #ea0f0b; stroke-opacity: 0.8"/>
     <use xlink:href="#mffd0e060f3" x="131.171518" y="153.642829" style="fill: #ea0f0b; fill-opacity: 0.8; stroke: #ea0f0b; stroke-opacity: 0.8"/>
     <use xlink:href="#mffd0e060f3" x="248.054608" y="167.630184" style="fill: #ea0f0b; fill-opacity: 0.8; stroke: #ea0f0b; stroke-opacity: 0.8"/>
     <use xlink:href="#mffd0e060f3" x="284.21017" y="122.175032" style="fill: #ea0f0b; fill-opacity: 0.8; stroke: #ea0f0b; stroke-opacity: 0.8"/>
    </g>
   </g>
   <g id="PolyCollection_2">
    <path d="M 110.898589 122.997884 
L 110.898589 149.683783 
L 113.22331 149.675754 
L 115.548032 149.667725 
L 117.872753 149.659696 
L 120.197475 149.651667 
L 122.522196 149.643638 
L 124.846918 149.635609 
L 127.17164 149.62758 
L 129.496361 149.628193 
L 131.821083 149.61912 
L 134.145804 149.618468 
L 136.470526 149.641428 
L 138.795248 149.663327 
L 141.119969 149.686562 
L 143.444691 149.710309 
L 145.769412 149.742383 
L 148.094134 149.801859 
L 150.418855 149.865462 
L 152.743577 149.90123 
L 155.068299 149.928335 
L 157.39302 149.959883 
L 159.717742 150.054793 
L 162.042463 150.149107 
L 164.367185 150.208542 
L 166.691906 150.330458 
L 169.016628 150.407689 
L 171.34135 150.476002 
L 173.666071 150.535 
L 175.990793 150.61092 
L 178.315514 150.696331 
L 180.640236 150.813045 
L 182.964957 150.896059 
L 185.289679 151.031211 
L 187.614401 151.11943 
L 189.939122 151.251855 
L 192.263844 151.289824 
L 194.588565 151.436936 
L 196.913287 151.576932 
L 199.238008 151.647104 
L 201.56273 151.694957 
L 203.887452 151.816114 
L 206.212173 151.93727 
L 208.536895 152.088965 
L 210.861616 152.180981 
L 213.186338 152.243572 
L 215.511059 152.24603 
L 217.835781 152.43494 
L 220.160503 152.601776 
L 222.485224 152.828892 
L 224.809946 153.008859 
L 227.134667 153.165334 
L 229.459389 153.384572 
L 231.78411 153.565309 
L 234.108832 153.823364 
L 236.433554 154.035465 
L 238.758275 154.354381 
L 241.082997 154.492711 
L 243.407718 154.768437 
L 245.73244 155.081086 
L 248.057162 155.455784 
L 250.381883 155.794272 
L 252.706605 156.073548 
L 255.031326 156.366085 
L 257.356048 156.688316 
L 259.680769 157.135292 
L 262.005491 157.393677 
L 264.330213 157.753078 
L 266.654934 158.066626 
L 268.979656 158.469449 
L 271.304377 158.85045 
L 273.629099 159.186491 
L 275.95382 159.479108 
L 278.278542 159.807794 
L 280.603264 160.098044 
L 282.927985 160.436641 
L 285.252707 160.796816 
L 287.577428 161.063992 
L 289.90215 161.435386 
L 292.226871 161.824063 
L 294.551593 162.212623 
L 296.876315 162.62148 
L 299.201036 162.977885 
L 301.525758 163.332917 
L 303.850479 163.838569 
L 306.175201 164.353363 
L 308.499922 164.729142 
L 310.824644 165.10338 
L 313.149366 165.456618 
L 315.474087 165.803899 
L 317.798809 166.191528 
L 320.12353 166.603211 
L 322.448252 166.974256 
L 324.772973 167.331432 
L 327.097695 167.764796 
L 329.422417 168.246137 
L 331.747138 168.713421 
L 334.07186 169.13535 
L 336.396581 169.555153 
L 338.721303 169.96183 
L 341.046024 170.395906 
L 341.046024 146.348672 
L 341.046024 146.348672 
L 338.721303 146.329201 
L 336.396581 146.299314 
L 334.07186 146.281788 
L 331.747138 146.265464 
L 329.422417 146.24914 
L 327.097695 146.232816 
L 324.772973 146.206722 
L 322.448252 146.156467 
L 320.12353 146.12054 
L 317.798809 146.078973 
L 315.474087 146.068821 
L 313.149366 146.058811 
L 310.824644 146.050765 
L 308.499922 146.100206 
L 306.175201 146.086895 
L 303.850479 146.070741 
L 301.525758 146.053747 
L 299.201036 146.036924 
L 296.876315 146.000266 
L 294.551593 145.913944 
L 292.226871 145.801796 
L 289.90215 145.620888 
L 287.577428 145.661929 
L 285.252707 145.681769 
L 282.927985 145.712218 
L 280.603264 145.548552 
L 278.278542 145.530476 
L 275.95382 145.431349 
L 273.629099 145.312734 
L 271.304377 145.162122 
L 268.979656 145.074582 
L 266.654934 144.917729 
L 264.330213 144.834401 
L 262.005491 144.751926 
L 259.680769 144.621493 
L 257.356048 144.477087 
L 255.031326 144.379513 
L 252.706605 144.238817 
L 250.381883 144.117655 
L 248.057162 143.997332 
L 245.73244 143.853136 
L 243.407718 143.713706 
L 241.082997 143.565706 
L 238.758275 143.32676 
L 236.433554 143.162046 
L 234.108832 142.927208 
L 231.78411 142.700896 
L 229.459389 142.564684 
L 227.134667 142.334616 
L 224.809946 142.079321 
L 222.485224 141.876421 
L 220.160503 141.637707 
L 217.835781 141.345056 
L 215.511059 141.118927 
L 213.186338 140.767885 
L 210.861616 140.615528 
L 208.536895 140.382199 
L 206.212173 140.060187 
L 203.887452 139.668116 
L 201.56273 139.403543 
L 199.238008 139.147765 
L 196.913287 138.835977 
L 194.588565 138.541197 
L 192.263844 138.146674 
L 189.939122 137.809379 
L 187.614401 137.404453 
L 185.289679 136.945437 
L 182.964957 136.590089 
L 180.640236 136.149179 
L 178.315514 135.768899 
L 175.990793 135.314864 
L 173.666071 134.866411 
L 171.34135 134.445387 
L 169.016628 134.10161 
L 166.691906 133.579081 
L 164.367185 133.040364 
L 162.042463 132.634859 
L 159.717742 132.135403 
L 157.39302 131.693041 
L 155.068299 131.393432 
L 152.743577 131.094542 
L 150.418855 130.800229 
L 148.094134 130.46742 
L 145.769412 130.066988 
L 143.444691 129.666556 
L 141.119969 129.266124 
L 138.795248 128.810681 
L 136.470526 128.298147 
L 134.145804 127.779431 
L 131.821083 127.260716 
L 129.496361 126.742 
L 127.17164 126.223284 
L 124.846918 125.704568 
L 122.522196 125.187786 
L 120.197475 124.683945 
L 117.872753 124.261768 
L 115.548032 123.841755 
L 113.22331 123.41982 
L 110.898589 122.997884 
z
" clip-path="url(#pb5a4cc901c)" style="fill: #ea0f0b; fill-opacity: 0.15"/>
   </g>
   <g id="matplotlib.axis_1">
    <g id="xtick_1">
     <g id="line2d_1">
      <defs>
       <path id="m37dc11326e" d="M 0 0 
L 0 3.5 
" style="stroke: #000000; stroke-width: 0.8"/>
      </defs>
      <g>
       <use xlink:href="#m37dc11326e" x="75.69875" y="224.64" style="stroke: #000000; stroke-width: 0.8"/>
      </g>
     </g>
     <g id="text_1">
      <!-- 0 -->
      <g transform="translate(69.9725 245.317187)scale(0.18 -0.18)">
       <defs>
        <path id="DejaVuSans-30" d="M 2034 4250 
Q 1547 4250 1301 3770 
Q 1056 3291 1056 2328 
Q 1056 1369 1301 889 
Q 1547 409 2034 409 
Q 2525 409 2770 889 
Q 3016 1369 3016 2328 
Q 3016 3291 2770 3770 
Q 2525 4250 2034 4250 
z
M 2034 4750 
Q 2819 4750 3233 4129 
Q 3647 3509 3647 2328 
Q 3647 1150 3233 529 
Q 2819 -91 2034 -91 
Q 1250 -91 836 529 
Q 422 1150 422 2328 
Q 422 3509 836 4129 
Q 1250 4750 2034 4750 
z
" transform="scale(0.015625)"/>
       </defs>
       <use xlink:href="#DejaVuSans-30"/>
      </g>
     </g>
    </g>
    <g id="xtick_2">
     <g id="line2d_2">
      <g>
       <use xlink:href="#m37dc11326e" x="150.09875" y="224.64" style="stroke: #000000; stroke-width: 0.8"/>
      </g>
     </g>
     <g id="text_2">
      <!-- 20 -->
      <g transform="translate(138.64625 245.317187)scale(0.18 -0.18)">
       <defs>
        <path id="DejaVuSans-32" d="M 1228 531 
L 3431 531 
L 3431 0 
L 469 0 
L 469 531 
Q 828 903 1448 1529 
Q 2069 2156 2228 2338 
Q 2531 2678 2651 2914 
Q 2772 3150 2772 3378 
Q 2772 3750 2511 3984 
Q 2250 4219 1831 4219 
Q 1534 4219 1204 4116 
Q 875 4013 500 3803 
L 500 4441 
Q 881 4594 1212 4672 
Q 1544 4750 1819 4750 
Q 2544 4750 2975 4387 
Q 3406 4025 3406 3419 
Q 3406 3131 3298 2873 
Q 3191 2616 2906 2266 
Q 2828 2175 2409 1742 
Q 1991 1309 1228 531 
z
" transform="scale(0.015625)"/>
       </defs>
       <use xlink:href="#DejaVuSans-32"/>
       <use xlink:href="#DejaVuSans-30" x="63.623047"/>
      </g>
     </g>
    </g>
    <g id="xtick_3">
     <g id="line2d_3">
      <g>
       <use xlink:href="#m37dc11326e" x="224.49875" y="224.64" style="stroke: #000000; stroke-width: 0.8"/>
      </g>
     </g>
     <g id="text_3">
      <!-- 40 -->
      <g transform="translate(213.04625 245.317187)scale(0.18 -0.18)">
       <defs>
        <path id="DejaVuSans-34" d="M 2419 4116 
L 825 1625 
L 2419 1625 
L 2419 4116 
z
M 2253 4666 
L 3047 4666 
L 3047 1625 
L 3713 1625 
L 3713 1100 
L 3047 1100 
L 3047 0 
L 2419 0 
L 2419 1100 
L 313 1100 
L 313 1709 
L 2253 4666 
z
" transform="scale(0.015625)"/>
       </defs>
       <use xlink:href="#DejaVuSans-34"/>
       <use xlink:href="#DejaVuSans-30" x="63.623047"/>
      </g>
     </g>
    </g>
    <g id="xtick_4">
     <g id="line2d_4">
      <g>
       <use xlink:href="#m37dc11326e" x="298.89875" y="224.64" style="stroke: #000000; stroke-width: 0.8"/>
      </g>
     </g>
     <g id="text_4">
      <!-- 60 -->
      <g transform="translate(287.44625 245.317187)scale(0.18 -0.18)">
       <defs>
        <path id="DejaVuSans-36" d="M 2113 2584 
Q 1688 2584 1439 2293 
Q 1191 2003 1191 1497 
Q 1191 994 1439 701 
Q 1688 409 2113 409 
Q 2538 409 2786 701 
Q 3034 994 3034 1497 
Q 3034 2003 2786 2293 
Q 2538 2584 2113 2584 
z
M 3366 4563 
L 3366 3988 
Q 3128 4100 2886 4159 
Q 2644 4219 2406 4219 
Q 1781 4219 1451 3797 
Q 1122 3375 1075 2522 
Q 1259 2794 1537 2939 
Q 1816 3084 2150 3084 
Q 2853 3084 3261 2657 
Q 3669 2231 3669 1497 
Q 3669 778 3244 343 
Q 2819 -91 2113 -91 
Q 1303 -91 875 529 
Q 447 1150 447 2328 
Q 447 3434 972 4092 
Q 1497 4750 2381 4750 
Q 2619 4750 2861 4703 
Q 3103 4656 3366 4563 
z
" transform="scale(0.015625)"/>
       </defs>
       <use xlink:href="#DejaVuSans-36"/>
       <use xlink:href="#DejaVuSans-30" x="63.623047"/>
      </g>
     </g>
    </g>
    <g id="xtick_5">
     <g id="line2d_5">
      <g>
       <use xlink:href="#m37dc11326e" x="373.29875" y="224.64" style="stroke: #000000; stroke-width: 0.8"/>
      </g>
     </g>
     <g id="text_5">
      <!-- 80 -->
      <g transform="translate(361.84625 245.317187)scale(0.18 -0.18)">
       <defs>
        <path id="DejaVuSans-38" d="M 2034 2216 
Q 1584 2216 1326 1975 
Q 1069 1734 1069 1313 
Q 1069 891 1326 650 
Q 1584 409 2034 409 
Q 2484 409 2743 651 
Q 3003 894 3003 1313 
Q 3003 1734 2745 1975 
Q 2488 2216 2034 2216 
z
M 1403 2484 
Q 997 2584 770 2862 
Q 544 3141 544 3541 
Q 544 4100 942 4425 
Q 1341 4750 2034 4750 
Q 2731 4750 3128 4425 
Q 3525 4100 3525 3541 
Q 3525 3141 3298 2862 
Q 3072 2584 2669 2484 
Q 3125 2378 3379 2068 
Q 3634 1759 3634 1313 
Q 3634 634 3220 271 
Q 2806 -91 2034 -91 
Q 1263 -91 848 271 
Q 434 634 434 1313 
Q 434 1759 690 2068 
Q 947 2378 1403 2484 
z
M 1172 3481 
Q 1172 3119 1398 2916 
Q 1625 2713 2034 2713 
Q 2441 2713 2670 2916 
Q 2900 3119 2900 3481 
Q 2900 3844 2670 4047 
Q 2441 4250 2034 4250 
Q 1625 4250 1398 4047 
Q 1172 3844 1172 3481 
z
" transform="scale(0.015625)"/>
       </defs>
       <use xlink:href="#DejaVuSans-38"/>
       <use xlink:href="#DejaVuSans-30" x="63.623047"/>
      </g>
     </g>
    </g>
    <g id="text_6">
     <!-- $RA^{\circ}$ -->
     <g transform="translate(225.81875 266.737812)scale(0.18 -0.18)">
      <defs>
       <path id="DejaVuSans-Oblique-52" d="M 1613 4147 
L 1294 2491 
L 2106 2491 
Q 2584 2491 2879 2755 
Q 3175 3019 3175 3444 
Q 3175 3784 2976 3965 
Q 2778 4147 2406 4147 
L 1613 4147 
z
M 2772 2241 
Q 2972 2194 3105 2009 
Q 3238 1825 3413 1275 
L 3809 0 
L 3144 0 
L 2778 1197 
Q 2638 1659 2453 1815 
Q 2269 1972 1888 1972 
L 1191 1972 
L 806 0 
L 172 0 
L 1081 4666 
L 2503 4666 
Q 3150 4666 3495 4373 
Q 3841 4081 3841 3531 
Q 3841 3044 3547 2687 
Q 3253 2331 2772 2241 
z
" transform="scale(0.015625)"/>
       <path id="DejaVuSans-Oblique-41" d="M 2356 4666 
L 3072 4666 
L 3938 0 
L 3278 0 
L 3084 1197 
L 984 1197 
L 325 0 
L -341 0 
L 2356 4666 
z
M 2584 4044 
L 1275 1722 
L 2988 1722 
L 2584 4044 
z
" transform="scale(0.015625)"/>
       <path id="DejaVuSans-2218" d="M 2000 2619 
Q 1750 2619 1578 2445 
Q 1406 2272 1406 2022 
Q 1406 1775 1578 1605 
Q 1750 1435 2000 1435 
Q 2250 1435 2422 1605 
Q 2594 1775 2594 2022 
Q 2594 2269 2420 2444 
Q 2247 2619 2000 2619 
z
M 2000 3022 
Q 2200 3022 2384 2945 
Q 2569 2869 2703 2725 
Q 2847 2585 2919 2406 
Q 2991 2228 2991 2022 
Q 2991 1610 2702 1324 
Q 2413 1038 1994 1038 
Q 1572 1038 1290 1319 
Q 1009 1600 1009 2022 
Q 1009 2441 1296 2731 
Q 1584 3022 2000 3022 
z
" transform="scale(0.015625)"/>
      </defs>
      <use xlink:href="#DejaVuSans-Oblique-52" transform="translate(0 0.09375)"/>
      <use xlink:href="#DejaVuSans-Oblique-41" transform="translate(69.482422 0.09375)"/>
      <use xlink:href="#DejaVuSans-2218" transform="translate(144.907396 38.375)scale(0.7)"/>
     </g>
    </g>
   </g>
   <g id="matplotlib.axis_2">
    <g id="ytick_1">
     <g id="line2d_6">
      <defs>
       <path id="m42d048bb9f" d="M 0 0 
L -3.5 0 
" style="stroke: #000000; stroke-width: 0.8"/>
      </defs>
      <g>
       <use xlink:href="#m42d048bb9f" x="75.69875" y="224.64" style="stroke: #000000; stroke-width: 0.8"/>
      </g>
     </g>
     <g id="text_7">
      <!-- 0.0 -->
      <g transform="translate(40.073125 231.478594)scale(0.18 -0.18)">
       <defs>
        <path id="DejaVuSans-2e" d="M 684 794 
L 1344 794 
L 1344 0 
L 684 0 
L 684 794 
z
" transform="scale(0.015625)"/>
       </defs>
       <use xlink:href="#DejaVuSans-30"/>
       <use xlink:href="#DejaVuSans-2e" x="63.623047"/>
       <use xlink:href="#DejaVuSans-30" x="95.410156"/>
      </g>
     </g>
    </g>
    <g id="ytick_2">
     <g id="line2d_7">
      <g>
       <use xlink:href="#m42d048bb9f" x="75.69875" y="182.824615" style="stroke: #000000; stroke-width: 0.8"/>
      </g>
     </g>
     <g id="text_8">
      <!-- 2.5 -->
      <g transform="translate(40.073125 189.663209)scale(0.18 -0.18)">
       <defs>
        <path id="DejaVuSans-35" d="M 691 4666 
L 3169 4666 
L 3169 4134 
L 1269 4134 
L 1269 2991 
Q 1406 3038 1543 3061 
Q 1681 3084 1819 3084 
Q 2600 3084 3056 2656 
Q 3513 2228 3513 1497 
Q 3513 744 3044 326 
Q 2575 -91 1722 -91 
Q 1428 -91 1123 -41 
Q 819 9 494 109 
L 494 744 
Q 775 591 1075 516 
Q 1375 441 1709 441 
Q 2250 441 2565 725 
Q 2881 1009 2881 1497 
Q 2881 1984 2565 2268 
Q 2250 2553 1709 2553 
Q 1456 2553 1204 2497 
Q 953 2441 691 2322 
L 691 4666 
z
" transform="scale(0.015625)"/>
       </defs>
       <use xlink:href="#DejaVuSans-32"/>
       <use xlink:href="#DejaVuSans-2e" x="63.623047"/>
       <use xlink:href="#DejaVuSans-35" x="95.410156"/>
      </g>
     </g>
    </g>
    <g id="ytick_3">
     <g id="line2d_8">
      <g>
       <use xlink:href="#m42d048bb9f" x="75.69875" y="141.009231" style="stroke: #000000; stroke-width: 0.8"/>
      </g>
     </g>
     <g id="text_9">
      <!-- 5.0 -->
      <g transform="translate(40.073125 147.847825)scale(0.18 -0.18)">
       <use xlink:href="#DejaVuSans-35"/>
       <use xlink:href="#DejaVuSans-2e" x="63.623047"/>
       <use xlink:href="#DejaVuSans-30" x="95.410156"/>
      </g>
     </g>
    </g>
    <g id="ytick_4">
     <g id="line2d_9">
      <g>
       <use xlink:href="#m42d048bb9f" x="75.69875" y="99.193846" style="stroke: #000000; stroke-width: 0.8"/>
      </g>
     </g>
     <g id="text_10">
      <!-- 7.5 -->
      <g transform="translate(40.073125 106.03244)scale(0.18 -0.18)">
       <defs>
        <path id="DejaVuSans-37" d="M 525 4666 
L 3525 4666 
L 3525 4397 
L 1831 0 
L 1172 0 
L 2766 4134 
L 525 4134 
L 525 4666 
z
" transform="scale(0.015625)"/>
       </defs>
       <use xlink:href="#DejaVuSans-37"/>
       <use xlink:href="#DejaVuSans-2e" x="63.623047"/>
       <use xlink:href="#DejaVuSans-35" x="95.410156"/>
      </g>
     </g>
    </g>
    <g id="ytick_5">
     <g id="line2d_10">
      <g>
       <use xlink:href="#m42d048bb9f" x="75.69875" y="57.378462" style="stroke: #000000; stroke-width: 0.8"/>
      </g>
     </g>
     <g id="text_11">
      <!-- 10.0 -->
      <g transform="translate(28.620625 64.217055)scale(0.18 -0.18)">
       <defs>
        <path id="DejaVuSans-31" d="M 794 531 
L 1825 531 
L 1825 4091 
L 703 3866 
L 703 4441 
L 1819 4666 
L 2450 4666 
L 2450 531 
L 3481 531 
L 3481 0 
L 794 0 
L 794 531 
z
" transform="scale(0.015625)"/>
       </defs>
       <use xlink:href="#DejaVuSans-31"/>
       <use xlink:href="#DejaVuSans-30" x="63.623047"/>
       <use xlink:href="#DejaVuSans-2e" x="127.246094"/>
       <use xlink:href="#DejaVuSans-30" x="159.033203"/>
      </g>
     </g>
    </g>
    <g id="ytick_6">
     <g id="line2d_11">
      <g>
       <use xlink:href="#m42d048bb9f" x="75.69875" y="15.563077" style="stroke: #000000; stroke-width: 0.8"/>
      </g>
     </g>
     <g id="text_12">
      <!-- 12.5 -->
      <g transform="translate(28.620625 22.401671)scale(0.18 -0.18)">
       <use xlink:href="#DejaVuSans-31"/>
       <use xlink:href="#DejaVuSans-32" x="63.623047"/>
       <use xlink:href="#DejaVuSans-2e" x="127.246094"/>
       <use xlink:href="#DejaVuSans-35" x="159.033203"/>
      </g>
     </g>
    </g>
    <g id="text_13">
     <!-- a -->
     <g transform="translate(20.877187 121.435312)rotate(-90)scale(0.18 -0.18)">
      <defs>
       <path id="DejaVuSans-61" d="M 2194 1759 
Q 1497 1759 1228 1600 
Q 959 1441 959 1056 
Q 959 750 1161 570 
Q 1363 391 1709 391 
Q 2188 391 2477 730 
Q 2766 1069 2766 1631 
L 2766 1759 
L 2194 1759 
z
M 3341 1997 
L 3341 0 
L 2766 0 
L 2766 531 
Q 2569 213 2275 61 
Q 1981 -91 1556 -91 
Q 1019 -91 701 211 
Q 384 513 384 1019 
Q 384 1609 779 1909 
Q 1175 2209 1959 2209 
L 2766 2209 
L 2766 2266 
Q 2766 2663 2505 2880 
Q 2244 3097 1772 3097 
Q 1472 3097 1187 3025 
Q 903 2953 641 2809 
L 641 3341 
Q 956 3463 1253 3523 
Q 1550 3584 1831 3584 
Q 2591 3584 2966 3190 
Q 3341 2797 3341 1997 
z
" transform="scale(0.015625)"/>
      </defs>
      <use xlink:href="#DejaVuSans-61"/>
     </g>
    </g>
   </g>
   <g id="line2d_12">
    <path d="M 110.898589 127.96568 
L 113.03951 128.182492 
L 115.180431 128.399304 
L 117.321353 128.616116 
L 119.462274 128.832928 
L 121.603195 129.049741 
L 123.744117 129.266553 
L 125.885038 129.483365 
L 128.025959 129.700177 
L 130.166881 129.916989 
L 132.307802 130.133801 
L 134.448723 130.350614 
L 136.589645 130.567426 
L 138.730566 130.784238 
L 140.871487 131.00105 
L 143.012409 131.217862 
L 145.15333 131.434674 
L 147.294251 131.651487 
L 149.435173 131.868299 
L 151.576094 132.085111 
L 153.717015 132.301923 
L 155.857937 132.518735 
L 157.998858 132.735547 
L 160.139779 132.952359 
L 162.280701 133.169172 
L 164.421622 133.385984 
L 166.562543 133.602796 
L 168.703465 133.819608 
L 170.844386 134.03642 
L 172.985307 134.253232 
L 175.126229 134.470045 
L 177.26715 134.686857 
L 179.408072 134.903669 
L 181.548993 135.120481 
L 183.689914 135.337293 
L 185.830836 135.554105 
L 187.971757 135.770918 
L 190.112678 135.98773 
L 192.2536 136.204542 
L 194.394521 136.421354 
L 196.535442 136.638166 
L 198.676364 136.854978 
L 200.817285 137.07179 
L 202.958206 137.288603 
L 205.099128 137.505415 
L 207.240049 137.722227 
L 209.38097 137.939039 
L 211.521892 138.155851 
L 213.662813 138.372663 
L 215.803734 138.589476 
L 217.944656 138.806288 
L 220.085577 139.0231 
L 222.226498 139.239912 
L 224.36742 139.456724 
L 226.508341 139.673536 
L 228.649262 139.890349 
L 230.790184 140.107161 
L 232.931105 140.323973 
L 235.072026 140.540785 
L 237.212948 140.757597 
L 239.353869 140.974409 
L 241.49479 141.191221 
L 243.635712 141.408034 
L 245.776633 141.624846 
L 247.917554 141.841658 
L 250.058476 142.05847 
L 252.199397 142.275282 
L 254.340318 142.492094 
L 256.48124 142.708907 
L 258.622161 142.925719 
L 260.763082 143.142531 
L 262.904004 143.359343 
L 265.044925 143.576155 
L 267.185846 143.792967 
L 269.326768 144.009779 
L 271.467689 144.226592 
L 273.60861 144.443404 
L 275.749532 144.660216 
L 277.890453 144.877028 
L 280.031374 145.09384 
L 282.172296 145.310652 
L 284.313217 145.527465 
L 286.454139 145.744277 
L 288.59506 145.961089 
L 290.735981 146.177901 
L 292.876903 146.394713 
L 295.017824 146.611525 
L 297.158745 146.828338 
L 299.299667 147.04515 
L 301.440588 147.261962 
L 303.581509 147.478774 
L 305.722431 147.695586 
L 307.863352 147.912398 
L 310.004273 148.12921 
L 312.145195 148.346023 
L 314.286116 148.562835 
L 316.427037 148.779647 
L 318.567959 148.996459 
L 320.70888 149.213271 
L 322.849801 149.430083 
" clip-path="url(#pb5a4cc901c)" style="fill: none; stroke: #004e98; stroke-width: 2.25; stroke-linecap: square"/>
   </g>
   <g id="line2d_13">
    <path d="M 110.898589 137.517517 
L 113.22331 137.730838 
L 115.548032 137.944159 
L 117.872753 138.15748 
L 120.197475 138.370801 
L 122.522196 138.584122 
L 124.846918 138.797443 
L 127.17164 139.010764 
L 129.496361 139.224085 
L 131.821083 139.437406 
L 134.145804 139.650727 
L 136.470526 139.864048 
L 138.795248 140.077369 
L 141.119969 140.29069 
L 143.444691 140.504011 
L 145.769412 140.717331 
L 148.094134 140.930652 
L 150.418855 141.143973 
L 152.743577 141.357294 
L 155.068299 141.570615 
L 157.39302 141.783936 
L 159.717742 141.997257 
L 162.042463 142.210578 
L 164.367185 142.423899 
L 166.691906 142.63722 
L 169.016628 142.850541 
L 171.34135 143.063862 
L 173.666071 143.277183 
L 175.990793 143.490504 
L 178.315514 143.703825 
L 180.640236 143.917146 
L 182.964957 144.130467 
L 185.289679 144.343788 
L 187.614401 144.557109 
L 189.939122 144.77043 
L 192.263844 144.983751 
L 194.588565 145.197072 
L 196.913287 145.410393 
L 199.238008 145.623714 
L 201.56273 145.837035 
L 203.887452 146.050356 
L 206.212173 146.263677 
L 208.536895 146.476998 
L 210.861616 146.690319 
L 213.186338 146.90364 
L 215.511059 147.116961 
L 217.835781 147.330282 
L 220.160503 147.543603 
L 222.485224 147.756924 
L 224.809946 147.970245 
L 227.134667 148.183566 
L 229.459389 148.396887 
L 231.78411 148.610208 
L 234.108832 148.823529 
L 236.433554 149.03685 
L 238.758275 149.250171 
L 241.082997 149.463492 
L 243.407718 149.676813 
L 245.73244 149.890134 
L 248.057162 150.103455 
L 250.381883 150.316776 
L 252.706605 150.530097 
L 255.031326 150.743418 
L 257.356048 150.956739 
L 259.680769 151.17006 
L 262.005491 151.383381 
L 264.330213 151.596702 
L 266.654934 151.810023 
L 268.979656 152.023344 
L 271.304377 152.236665 
L 273.629099 152.449986 
L 275.95382 152.663307 
L 278.278542 152.876628 
L 280.603264 153.089949 
L 282.927985 153.30327 
L 285.252707 153.516591 
L 287.577428 153.729912 
L 289.90215 153.943233 
L 292.226871 154.156554 
L 294.551593 154.369875 
L 296.876315 154.583196 
L 299.201036 154.796517 
L 301.525758 155.009838 
L 303.850479 155.223159 
L 306.175201 155.43648 
L 308.499922 155.649801 
L 310.824644 155.863122 
L 313.149366 156.076443 
L 315.474087 156.289764 
L 317.798809 156.503085 
L 320.12353 156.716406 
L 322.448252 156.929727 
L 324.772973 157.143048 
L 327.097695 157.356369 
L 329.422417 157.56969 
L 331.747138 157.783011 
L 334.07186 157.996332 
L 336.396581 158.209653 
L 338.721303 158.422974 
L 341.046024 158.636295 
" clip-path="url(#pb5a4cc901c)" style="fill: none; stroke: #ea0f0b; stroke-width: 2.25; stroke-linecap: square"/>
   </g>
   <g id="LineCollection_1">
    <path d="M 243.09875 224.64 
L 243.09875 7.2 
" clip-path="url(#pb5a4cc901c)" style="fill: none; stroke-dasharray: 5.55,2.4; stroke-dashoffset: 0; stroke: #1f77b4; stroke-opacity: 0.5; stroke-width: 1.5"/>
   </g>
   <g id="patch_3">
    <path d="M 75.69875 224.64 
L 75.69875 7.2 
" style="fill: none; stroke: #000000; stroke-width: 0.8; stroke-linejoin: miter; stroke-linecap: square"/>
   </g>
   <g id="patch_4">
    <path d="M 410.49875 224.64 
L 410.49875 7.2 
" style="fill: none; stroke: #000000; stroke-width: 0.8; stroke-linejoin: miter; stroke-linecap: square"/>
   </g>
   <g id="patch_5">
    <path d="M 75.69875 224.64 
L 410.49875 224.64 
" style="fill: none; stroke: #000000; stroke-width: 0.8; stroke-linejoin: miter; stroke-linecap: square"/>
   </g>
   <g id="patch_6">
    <path d="M 75.69875 7.2 
L 410.49875 7.2 
" style="fill: none; stroke: #000000; stroke-width: 0.8; stroke-linejoin: miter; stroke-linecap: square"/>
   </g>
   <g id="legend_1">
    <g id="patch_7">
     <path d="M 189.52625 74.44125 
L 397.89875 74.44125 
Q 401.49875 74.44125 401.49875 70.84125 
L 401.49875 19.8 
Q 401.49875 16.2 397.89875 16.2 
L 189.52625 16.2 
Q 185.92625 16.2 185.92625 19.8 
L 185.92625 70.84125 
Q 185.92625 74.44125 189.52625 74.44125 
z
" style="fill: #ffffff; opacity: 0.8; stroke: #cccccc; stroke-linejoin: miter"/>
    </g>
    <g id="PathCollection_3">
     <g>
      <use xlink:href="#ma225c9d5fa" x="211.12625" y="32.352187" style="fill: #004e98; fill-opacity: 0.8; stroke: #004e98; stroke-opacity: 0.8"/>
     </g>
    </g>
    <g id="text_14">
     <!-- With Information -->
     <g transform="translate(243.52625 37.077187)scale(0.18 -0.18)">
      <defs>
       <path id="DejaVuSans-57" d="M 213 4666 
L 850 4666 
L 1831 722 
L 2809 4666 
L 3519 4666 
L 4500 722 
L 5478 4666 
L 6119 4666 
L 4947 0 
L 4153 0 
L 3169 4050 
L 2175 0 
L 1381 0 
L 213 4666 
z
" transform="scale(0.015625)"/>
       <path id="DejaVuSans-69" d="M 603 3500 
L 1178 3500 
L 1178 0 
L 603 0 
L 603 3500 
z
M 603 4863 
L 1178 4863 
L 1178 4134 
L 603 4134 
L 603 4863 
z
" transform="scale(0.015625)"/>
       <path id="DejaVuSans-74" d="M 1172 4494 
L 1172 3500 
L 2356 3500 
L 2356 3053 
L 1172 3053 
L 1172 1153 
Q 1172 725 1289 603 
Q 1406 481 1766 481 
L 2356 481 
L 2356 0 
L 1766 0 
Q 1100 0 847 248 
Q 594 497 594 1153 
L 594 3053 
L 172 3053 
L 172 3500 
L 594 3500 
L 594 4494 
L 1172 4494 
z
" transform="scale(0.015625)"/>
       <path id="DejaVuSans-68" d="M 3513 2113 
L 3513 0 
L 2938 0 
L 2938 2094 
Q 2938 2591 2744 2837 
Q 2550 3084 2163 3084 
Q 1697 3084 1428 2787 
Q 1159 2491 1159 1978 
L 1159 0 
L 581 0 
L 581 4863 
L 1159 4863 
L 1159 2956 
Q 1366 3272 1645 3428 
Q 1925 3584 2291 3584 
Q 2894 3584 3203 3211 
Q 3513 2838 3513 2113 
z
" transform="scale(0.015625)"/>
       <path id="DejaVuSans-20" transform="scale(0.015625)"/>
       <path id="DejaVuSans-49" d="M 628 4666 
L 1259 4666 
L 1259 0 
L 628 0 
L 628 4666 
z
" transform="scale(0.015625)"/>
       <path id="DejaVuSans-6e" d="M 3513 2113 
L 3513 0 
L 2938 0 
L 2938 2094 
Q 2938 2591 2744 2837 
Q 2550 3084 2163 3084 
Q 1697 3084 1428 2787 
Q 1159 2491 1159 1978 
L 1159 0 
L 581 0 
L 581 3500 
L 1159 3500 
L 1159 2956 
Q 1366 3272 1645 3428 
Q 1925 3584 2291 3584 
Q 2894 3584 3203 3211 
Q 3513 2838 3513 2113 
z
" transform="scale(0.015625)"/>
       <path id="DejaVuSans-66" d="M 2375 4863 
L 2375 4384 
L 1825 4384 
Q 1516 4384 1395 4259 
Q 1275 4134 1275 3809 
L 1275 3500 
L 2222 3500 
L 2222 3053 
L 1275 3053 
L 1275 0 
L 697 0 
L 697 3053 
L 147 3053 
L 147 3500 
L 697 3500 
L 697 3744 
Q 697 4328 969 4595 
Q 1241 4863 1831 4863 
L 2375 4863 
z
" transform="scale(0.015625)"/>
       <path id="DejaVuSans-6f" d="M 1959 3097 
Q 1497 3097 1228 2736 
Q 959 2375 959 1747 
Q 959 1119 1226 758 
Q 1494 397 1959 397 
Q 2419 397 2687 759 
Q 2956 1122 2956 1747 
Q 2956 2369 2687 2733 
Q 2419 3097 1959 3097 
z
M 1959 3584 
Q 2709 3584 3137 3096 
Q 3566 2609 3566 1747 
Q 3566 888 3137 398 
Q 2709 -91 1959 -91 
Q 1206 -91 779 398 
Q 353 888 353 1747 
Q 353 2609 779 3096 
Q 1206 3584 1959 3584 
z
" transform="scale(0.015625)"/>
       <path id="DejaVuSans-72" d="M 2631 2963 
Q 2534 3019 2420 3045 
Q 2306 3072 2169 3072 
Q 1681 3072 1420 2755 
Q 1159 2438 1159 1844 
L 1159 0 
L 581 0 
L 581 3500 
L 1159 3500 
L 1159 2956 
Q 1341 3275 1631 3429 
Q 1922 3584 2338 3584 
Q 2397 3584 2469 3576 
Q 2541 3569 2628 3553 
L 2631 2963 
z
" transform="scale(0.015625)"/>
       <path id="DejaVuSans-6d" d="M 3328 2828 
Q 3544 3216 3844 3400 
Q 4144 3584 4550 3584 
Q 5097 3584 5394 3201 
Q 5691 2819 5691 2113 
L 5691 0 
L 5113 0 
L 5113 2094 
Q 5113 2597 4934 2840 
Q 4756 3084 4391 3084 
Q 3944 3084 3684 2787 
Q 3425 2491 3425 1978 
L 3425 0 
L 2847 0 
L 2847 2094 
Q 2847 2600 2669 2842 
Q 2491 3084 2119 3084 
Q 1678 3084 1418 2786 
Q 1159 2488 1159 1978 
L 1159 0 
L 581 0 
L 581 3500 
L 1159 3500 
L 1159 2956 
Q 1356 3278 1631 3431 
Q 1906 3584 2284 3584 
Q 2666 3584 2933 3390 
Q 3200 3197 3328 2828 
z
" transform="scale(0.015625)"/>
      </defs>
      <use xlink:href="#DejaVuSans-57"/>
      <use xlink:href="#DejaVuSans-69" x="96.626953"/>
      <use xlink:href="#DejaVuSans-74" x="124.410156"/>
      <use xlink:href="#DejaVuSans-68" x="163.619141"/>
      <use xlink:href="#DejaVuSans-20" x="226.998047"/>
      <use xlink:href="#DejaVuSans-49" x="258.785156"/>
      <use xlink:href="#DejaVuSans-6e" x="288.277344"/>
      <use xlink:href="#DejaVuSans-66" x="351.65625"/>
      <use xlink:href="#DejaVuSans-6f" x="386.861328"/>
      <use xlink:href="#DejaVuSans-72" x="448.042969"/>
      <use xlink:href="#DejaVuSans-6d" x="487.40625"/>
      <use xlink:href="#DejaVuSans-61" x="584.818359"/>
      <use xlink:href="#DejaVuSans-74" x="646.097656"/>
      <use xlink:href="#DejaVuSans-69" x="685.306641"/>
      <use xlink:href="#DejaVuSans-6f" x="713.089844"/>
      <use xlink:href="#DejaVuSans-6e" x="774.271484"/>
     </g>
    </g>
    <g id="PathCollection_4">
     <g>
      <use xlink:href="#mffd0e060f3" x="211.12625" y="58.772812" style="fill: #ea0f0b; fill-opacity: 0.8; stroke: #ea0f0b; stroke-opacity: 0.8"/>
     </g>
    </g>
    <g id="text_15">
     <!-- No Information -->
     <g transform="translate(243.52625 63.497812)scale(0.18 -0.18)">
      <defs>
       <path id="DejaVuSans-4e" d="M 628 4666 
L 1478 4666 
L 3547 763 
L 3547 4666 
L 4159 4666 
L 4159 0 
L 3309 0 
L 1241 3903 
L 1241 0 
L 628 0 
L 628 4666 
z
" transform="scale(0.015625)"/>
      </defs>
      <use xlink:href="#DejaVuSans-4e"/>
      <use xlink:href="#DejaVuSans-6f" x="74.804688"/>
      <use xlink:href="#DejaVuSans-20" x="135.986328"/>
      <use xlink:href="#DejaVuSans-49" x="167.773438"/>
      <use xlink:href="#DejaVuSans-6e" x="197.265625"/>
      <use xlink:href="#DejaVuSans-66" x="260.644531"/>
      <use xlink:href="#DejaVuSans-6f" x="295.849609"/>
      <use xlink:href="#DejaVuSans-72" x="357.03125"/>
      <use xlink:href="#DejaVuSans-6d" x="396.394531"/>
      <use xlink:href="#DejaVuSans-61" x="493.806641"/>
      <use xlink:href="#DejaVuSans-74" x="555.085938"/>
      <use xlink:href="#DejaVuSans-69" x="594.294922"/>
      <use xlink:href="#DejaVuSans-6f" x="622.078125"/>
      <use xlink:href="#DejaVuSans-6e" x="683.259766"/>
     </g>
    </g>
   </g>
  </g>
 </g>
 <defs>
  <clipPath id="pb5a4cc901c">
   <rect x="75.69875" y="7.2" width="334.8" height="217.44"/>
  </clipPath>
 </defs>
</svg>
